%TF.GenerationSoftware,KiCad,Pcbnew,7.0.11*%
%TF.CreationDate,2024-04-21T20:12:22+02:00*%
%TF.ProjectId,cyberboard,63796265-7262-46f6-9172-642e6b696361,rev?*%
%TF.SameCoordinates,Original*%
%TF.FileFunction,Copper,L4,Bot*%
%TF.FilePolarity,Positive*%
%FSLAX46Y46*%
G04 Gerber Fmt 4.6, Leading zero omitted, Abs format (unit mm)*
G04 Created by KiCad (PCBNEW 7.0.11) date 2024-04-21 20:12:22*
%MOMM*%
%LPD*%
G01*
G04 APERTURE LIST*
G04 Aperture macros list*
%AMRoundRect*
0 Rectangle with rounded corners*
0 $1 Rounding radius*
0 $2 $3 $4 $5 $6 $7 $8 $9 X,Y pos of 4 corners*
0 Add a 4 corners polygon primitive as box body*
4,1,4,$2,$3,$4,$5,$6,$7,$8,$9,$2,$3,0*
0 Add four circle primitives for the rounded corners*
1,1,$1+$1,$2,$3*
1,1,$1+$1,$4,$5*
1,1,$1+$1,$6,$7*
1,1,$1+$1,$8,$9*
0 Add four rect primitives between the rounded corners*
20,1,$1+$1,$2,$3,$4,$5,0*
20,1,$1+$1,$4,$5,$6,$7,0*
20,1,$1+$1,$6,$7,$8,$9,0*
20,1,$1+$1,$8,$9,$2,$3,0*%
G04 Aperture macros list end*
%TA.AperFunction,ComponentPad*%
%ADD10R,1.700000X1.700000*%
%TD*%
%TA.AperFunction,ComponentPad*%
%ADD11O,1.700000X1.700000*%
%TD*%
%TA.AperFunction,ComponentPad*%
%ADD12C,5.600000*%
%TD*%
%TA.AperFunction,ComponentPad*%
%ADD13R,1.350000X1.350000*%
%TD*%
%TA.AperFunction,ComponentPad*%
%ADD14O,1.350000X1.350000*%
%TD*%
%TA.AperFunction,ComponentPad*%
%ADD15RoundRect,0.250000X0.600000X0.750000X-0.600000X0.750000X-0.600000X-0.750000X0.600000X-0.750000X0*%
%TD*%
%TA.AperFunction,ComponentPad*%
%ADD16O,1.700000X2.000000*%
%TD*%
%TA.AperFunction,ComponentPad*%
%ADD17O,1.000000X2.100000*%
%TD*%
%TA.AperFunction,ComponentPad*%
%ADD18O,1.000000X1.600000*%
%TD*%
%TA.AperFunction,ViaPad*%
%ADD19C,0.800000*%
%TD*%
%TA.AperFunction,Conductor*%
%ADD20C,0.400000*%
%TD*%
%TA.AperFunction,Conductor*%
%ADD21C,0.142000*%
%TD*%
%TA.AperFunction,Conductor*%
%ADD22C,0.250000*%
%TD*%
G04 APERTURE END LIST*
D10*
%TO.P,J8,1,3.3V*%
%TO.N,+3.3V*%
X161301000Y-118383002D03*
D11*
%TO.P,J8,2,GND*%
%TO.N,GND*%
X161301000Y-115843002D03*
%TO.P,J8,3,GPIO1*%
%TO.N,/GPIO1_1*%
X161301000Y-113303002D03*
%TO.P,J8,4,GPIO2*%
%TO.N,/GPIO1_2*%
X161301000Y-110763002D03*
%TO.P,J8,5,GPIO3*%
%TO.N,/GPIO1_3*%
X161301000Y-108223002D03*
%TO.P,J8,6,GPIO4*%
%TO.N,/GPIO1_4*%
X161301000Y-105683002D03*
%TO.P,J8,7,GPIO5*%
%TO.N,/GPIO1_5*%
X161301000Y-103143002D03*
%TO.P,J8,8,GPIO6*%
%TO.N,/GPIO1_6*%
X161301000Y-100603002D03*
%TO.P,J8,9,GPIO7*%
%TO.N,/GPIO1_7*%
X161301000Y-98063002D03*
%TO.P,J8,10,GPIO8*%
%TO.N,/GPIO1_8*%
X161301000Y-95523002D03*
%TO.P,J8,11,GPIO9*%
%TO.N,/GPIO1_9*%
X161301000Y-92983002D03*
%TO.P,J8,12,GPIO10*%
%TO.N,/GPIO1_10*%
X161301000Y-90443002D03*
%TO.P,J8,13,GND*%
%TO.N,GND*%
X161301000Y-87903002D03*
%TO.P,J8,14,5V*%
%TO.N,+5V*%
X161301000Y-85363002D03*
%TD*%
D12*
%TO.P,H4,1,1*%
%TO.N,GND*%
X116301000Y-124383002D03*
%TD*%
D13*
%TO.P,JP1,1,A*%
%TO.N,/Power/5V_PDB*%
X131851000Y-86283002D03*
D14*
%TO.P,JP1,2,C*%
%TO.N,+5V*%
X133851000Y-86283002D03*
%TO.P,JP1,3,B*%
%TO.N,/Power/5V_USB*%
X135851000Y-86283002D03*
%TD*%
D15*
%TO.P,J1,1,Pin_1*%
%TO.N,Net-(J1-Pin_1)*%
X143423000Y-82139002D03*
D16*
%TO.P,J1,2,Pin_2*%
%TO.N,Net-(J1-Pin_2)*%
X140923000Y-82139002D03*
%TD*%
D10*
%TO.P,J4,1,3.3V*%
%TO.N,+3.3V*%
X116301000Y-118383002D03*
D11*
%TO.P,J4,2,GND*%
%TO.N,GND*%
X116301000Y-115843002D03*
%TO.P,J4,3,GPIO1*%
%TO.N,/GPIO2_1*%
X116301000Y-113303002D03*
%TO.P,J4,4,GPIO2*%
%TO.N,/GPIO2_2*%
X116301000Y-110763002D03*
%TO.P,J4,5,GPIO3*%
%TO.N,/GPIO2_3*%
X116301000Y-108223002D03*
%TO.P,J4,6,GPIO4*%
%TO.N,/GPIO2_4*%
X116301000Y-105683002D03*
%TO.P,J4,7,GPIO5*%
%TO.N,/GPIO2_5*%
X116301000Y-103143002D03*
%TO.P,J4,8,GPIO6*%
%TO.N,/GPIO2_6*%
X116301000Y-100603002D03*
%TO.P,J4,9,GPIO7*%
%TO.N,/GPIO2_7*%
X116301000Y-98063002D03*
%TO.P,J4,10,GPIO8*%
%TO.N,/GPIO2_8*%
X116301000Y-95523002D03*
%TO.P,J4,11,GPIO9*%
%TO.N,/GPIO2_9*%
X116301000Y-92983002D03*
%TO.P,J4,12,GPIO10*%
%TO.N,/GPIO2_10*%
X116301000Y-90443002D03*
%TO.P,J4,13,GND*%
%TO.N,GND*%
X116301000Y-87903002D03*
%TO.P,J4,14,5V*%
%TO.N,+5V*%
X116301000Y-85363002D03*
%TD*%
D13*
%TO.P,JP3,1,A*%
%TO.N,Net-(JP3-A)*%
X144123000Y-90139002D03*
D14*
%TO.P,JP3,2,B*%
%TO.N,Net-(J1-Pin_1)*%
X144123000Y-92139002D03*
%TD*%
D12*
%TO.P,H2,1,1*%
%TO.N,GND*%
X161301000Y-124383002D03*
%TD*%
%TO.P,H3,1,1*%
%TO.N,GND*%
X161301000Y-79383002D03*
%TD*%
%TO.P,H1,1,1*%
%TO.N,GND*%
X116301000Y-79383002D03*
%TD*%
D17*
%TO.P,J2,S1,SHIELD*%
%TO.N,GND*%
X156743000Y-81469002D03*
D18*
X156743000Y-77289002D03*
D17*
X148103000Y-81469002D03*
D18*
X148103000Y-77289002D03*
%TD*%
D19*
%TO.N,GND*%
X133096000Y-114681750D03*
X130246000Y-111781750D03*
X133146000Y-109031750D03*
X142196000Y-85131750D03*
X132446000Y-94631750D03*
X127946000Y-96881750D03*
X154196000Y-88131750D03*
X148446000Y-84131750D03*
%TO.N,/USB_P*%
X155671000Y-101381750D03*
%TO.N,/USB_N*%
X156721000Y-101381750D03*
%TO.N,+3.3V*%
X127946000Y-95631750D03*
%TO.N,/GPIO2_1*%
X121196000Y-115631750D03*
%TO.N,/GPIO2_2*%
X121196000Y-114381750D03*
%TO.N,/GPIO2_3*%
X121196000Y-113131750D03*
%TO.N,/GPIO2_4*%
X121196000Y-111881750D03*
%TO.N,/GPIO2_5*%
X121196000Y-110631750D03*
%TO.N,/GPIO2_6*%
X121196000Y-109381750D03*
%TO.N,/GPIO2_7*%
X121196000Y-108131750D03*
%TO.N,/GPIO2_8*%
X121196000Y-106881750D03*
%TO.N,/GPIO2_9*%
X121196000Y-105631750D03*
%TO.N,/GPIO2_10*%
X121196000Y-104381750D03*
%TO.N,GND*%
X133081000Y-126753002D03*
X121196000Y-119559002D03*
X138446000Y-88631750D03*
X141896000Y-119531750D03*
X151246000Y-106381750D03*
X148123000Y-93789002D03*
X131401000Y-90904002D03*
X119643000Y-86963002D03*
X151146000Y-111381750D03*
X130471000Y-126703002D03*
X157196000Y-84131750D03*
X144096000Y-101731750D03*
X144761000Y-126878002D03*
X135946000Y-111831750D03*
X151051000Y-89033002D03*
X123573000Y-84633002D03*
%TO.N,+3.3V*%
X154223000Y-95839002D03*
X119643000Y-88763002D03*
X121891000Y-123123002D03*
X156651000Y-115950498D03*
X144981000Y-95753002D03*
X151246000Y-108381750D03*
X155128000Y-121157750D03*
X141873000Y-118289002D03*
X149201000Y-89033002D03*
X148378000Y-121007750D03*
%TO.N,/GPIO_LED*%
X130446000Y-123431750D03*
X121196000Y-118281750D03*
%TO.N,/Power/5V_USB*%
X155446000Y-84131750D03*
X153431480Y-84142082D03*
X150081874Y-84131750D03*
%TO.N,/Power/5V_PDB*%
X155196000Y-88131750D03*
%TO.N,/GPIO_ACTION*%
X133196000Y-122981750D03*
X121196000Y-117031750D03*
%TO.N,/IMU_CS*%
X141996000Y-106831750D03*
X152346000Y-105831750D03*
%TO.N,/USB_P*%
X142146000Y-103158002D03*
%TO.N,/USB_N*%
X142146000Y-104281750D03*
%TO.N,/I2C_SCL*%
X128446000Y-100031750D03*
X128751000Y-84683002D03*
%TO.N,/I2C_SDA*%
X126351000Y-84733002D03*
X127096000Y-99981750D03*
%TO.N,/GPIO1_1*%
X141996000Y-113181750D03*
%TO.N,/GPIO1_2*%
X141996000Y-111931750D03*
%TO.N,/GPIO1_3*%
X141996000Y-110681750D03*
%TO.N,/GPIO1_4*%
X141996000Y-109381750D03*
%TO.N,/IMU_SDA*%
X142751000Y-98863002D03*
X137346000Y-100181750D03*
%TO.N,/IMU_SCL*%
X152871000Y-98853002D03*
X138596000Y-100181750D03*
%TO.N,/GPIO1_5*%
X142046000Y-108131750D03*
%TO.N,/GPIO1_6*%
X142046000Y-105581750D03*
%TO.N,/GPIO1_7*%
X136046000Y-100181750D03*
%TO.N,/GPIO1_8*%
X134796000Y-100181750D03*
%TO.N,/GPIO1_9*%
X133546000Y-100181750D03*
%TO.N,/GPIO1_10*%
X132246000Y-100131750D03*
%TD*%
D20*
%TO.N,+5V*%
X133851000Y-86283002D02*
X133851000Y-86536750D01*
X133851000Y-86536750D02*
X134696000Y-87381750D01*
X134696000Y-87381750D02*
X159282252Y-87381750D01*
X159282252Y-87381750D02*
X161301000Y-85363002D01*
%TO.N,/Power/5V_USB*%
X150081874Y-84131750D02*
X147831874Y-86381750D01*
X147831874Y-86381750D02*
X135949748Y-86381750D01*
X135949748Y-86381750D02*
X135851000Y-86283002D01*
%TO.N,/Power/5V_PDB*%
X155196000Y-88131750D02*
X154506000Y-88821750D01*
X154506000Y-88821750D02*
X153910192Y-88821750D01*
X153910192Y-88821750D02*
X152960192Y-87871750D01*
X152960192Y-87871750D02*
X133439748Y-87871750D01*
X133439748Y-87871750D02*
X131851000Y-86283002D01*
%TO.N,/Power/5V_USB*%
X155446000Y-84131750D02*
X153441812Y-84131750D01*
X153441812Y-84131750D02*
X153431480Y-84142082D01*
D21*
%TO.N,/USB_P*%
X155671000Y-101381750D02*
X155671000Y-101877378D01*
X155671000Y-101877378D02*
X154024502Y-103523876D01*
X154024502Y-103523876D02*
X142511874Y-103523876D01*
%TO.N,/USB_N*%
X156721000Y-101381750D02*
X154186874Y-103915876D01*
%TO.N,/USB_P*%
X142511874Y-103523876D02*
X142146000Y-103158002D01*
%TO.N,/USB_N*%
X154186874Y-103915876D02*
X142511874Y-103915876D01*
X142511874Y-103915876D02*
X142146000Y-104281750D01*
%TO.N,/USB_P*%
X142146000Y-103158002D02*
X142172252Y-103131750D01*
D22*
%TO.N,/GPIO1_6*%
X161301000Y-100603002D02*
X161224748Y-100603002D01*
X161224748Y-100603002D02*
X157346000Y-104481750D01*
X157346000Y-104481750D02*
X143146000Y-104481750D01*
X143146000Y-104481750D02*
X142046000Y-105581750D01*
%TO.N,/GPIO1_10*%
X161301000Y-90443002D02*
X154682252Y-97061750D01*
X154682252Y-97061750D02*
X135316000Y-97061750D01*
X135316000Y-97061750D02*
X132246000Y-100131750D01*
%TO.N,/GPIO1_9*%
X161301000Y-92983002D02*
X156882252Y-97401750D01*
X156882252Y-97401750D02*
X136326000Y-97401750D01*
X136326000Y-97401750D02*
X133546000Y-100181750D01*
%TO.N,/GPIO1_8*%
X161142252Y-95681750D02*
X159082252Y-97741750D01*
X159082252Y-97741750D02*
X137236000Y-97741750D01*
X137236000Y-97741750D02*
X134796000Y-100181750D01*
%TO.N,/GPIO1_7*%
X161301000Y-98063002D02*
X161282252Y-98081750D01*
X161282252Y-98081750D02*
X138146000Y-98081750D01*
X138146000Y-98081750D02*
X136046000Y-100181750D01*
D20*
%TO.N,/Power/5V_USB*%
X150081874Y-84131750D02*
X150092206Y-84142082D01*
X150092206Y-84142082D02*
X153431480Y-84142082D01*
D22*
%TO.N,/I2C_SDA*%
X127011000Y-99896750D02*
X127096000Y-99981750D01*
X127011000Y-85393002D02*
X127011000Y-99896750D01*
X126351000Y-84733002D02*
X127011000Y-85393002D01*
%TO.N,/GPIO1_1*%
X161301000Y-113303002D02*
X161222252Y-113381750D01*
X161222252Y-113381750D02*
X142196000Y-113381750D01*
X142196000Y-113381750D02*
X141996000Y-113181750D01*
%TO.N,/GPIO1_2*%
X161301000Y-110763002D02*
X157664748Y-110763002D01*
X142736000Y-112681750D02*
X142323250Y-112269000D01*
X157664748Y-110763002D02*
X155746000Y-112681750D01*
X155746000Y-112681750D02*
X142736000Y-112681750D01*
X142323250Y-112269000D02*
X142323250Y-112259000D01*
X142323250Y-112259000D02*
X141996000Y-111931750D01*
%TO.N,/GPIO1_3*%
X161301000Y-108223002D02*
X158654748Y-108223002D01*
X158654748Y-108223002D02*
X154881000Y-111996750D01*
X154881000Y-111996750D02*
X150891258Y-111996750D01*
X150891258Y-111996750D02*
X150876258Y-111981750D01*
X150876258Y-111981750D02*
X143296000Y-111981750D01*
X143296000Y-111981750D02*
X141996000Y-110681750D01*
%TO.N,/GPIO1_4*%
X161301000Y-105683002D02*
X159844748Y-105683002D01*
X159844748Y-105683002D02*
X154746000Y-110781750D01*
X154746000Y-110781750D02*
X151415742Y-110781750D01*
X150891258Y-110766750D02*
X150876258Y-110781750D01*
X151415742Y-110781750D02*
X151400742Y-110766750D01*
X151400742Y-110766750D02*
X150891258Y-110766750D01*
X150876258Y-110781750D02*
X143266000Y-110781750D01*
X143266000Y-110781750D02*
X142213250Y-109729000D01*
X142213250Y-109729000D02*
X142213250Y-109599000D01*
X142213250Y-109599000D02*
X141996000Y-109381750D01*
%TO.N,/GPIO1_5*%
X161301000Y-103143002D02*
X160866258Y-103143002D01*
X160866258Y-103143002D02*
X154077510Y-109931750D01*
X154077510Y-109931750D02*
X143846000Y-109931750D01*
X143846000Y-109931750D02*
X142046000Y-108131750D01*
%TO.N,/GPIO_LED*%
X121196000Y-118281750D02*
X126846000Y-118281750D01*
X126846000Y-118281750D02*
X130446000Y-121881750D01*
X130446000Y-121881750D02*
X130446000Y-123431750D01*
%TO.N,/GPIO_ACTION*%
X121196000Y-117031750D02*
X127246000Y-117031750D01*
X127246000Y-117031750D02*
X133196000Y-122981750D01*
%TO.N,/GPIO2_1*%
X120561000Y-114996750D02*
X121196000Y-115631750D01*
X117994748Y-114996750D02*
X120561000Y-114996750D01*
X116301000Y-113303002D02*
X117994748Y-114996750D01*
%TO.N,/GPIO2_2*%
X119919748Y-114381750D02*
X121196000Y-114381750D01*
X116301000Y-110763002D02*
X119919748Y-114381750D01*
%TO.N,/GPIO2_3*%
X121196000Y-113118002D02*
X121196000Y-113131750D01*
X116301000Y-108223002D02*
X121196000Y-113118002D01*
%TO.N,/GPIO2_4*%
X118881000Y-109566750D02*
X121196000Y-111881750D01*
X118881000Y-108263002D02*
X118881000Y-109566750D01*
X116301000Y-105683002D02*
X118881000Y-108263002D01*
%TO.N,/GPIO2_5*%
X119221000Y-108656750D02*
X121196000Y-110631750D01*
X119221000Y-106063002D02*
X119221000Y-108656750D01*
X116301000Y-103143002D02*
X119221000Y-106063002D01*
%TO.N,/GPIO2_6*%
X119561000Y-103863002D02*
X119561000Y-107746750D01*
X119561000Y-107746750D02*
X121196000Y-109381750D01*
X116301000Y-100603002D02*
X119561000Y-103863002D01*
%TO.N,/GPIO2_7*%
X119901000Y-106836750D02*
X121196000Y-108131750D01*
X119901000Y-101663002D02*
X119901000Y-106836750D01*
X116301000Y-98063002D02*
X119901000Y-101663002D01*
%TO.N,/GPIO2_8*%
X120241000Y-105926750D02*
X121196000Y-106881750D01*
X120241000Y-99463002D02*
X120241000Y-105926750D01*
X116301000Y-95523002D02*
X120241000Y-99463002D01*
%TO.N,/GPIO2_9*%
X120581000Y-105016750D02*
X121196000Y-105631750D01*
X120581000Y-97263002D02*
X120581000Y-105016750D01*
X116301000Y-92983002D02*
X120581000Y-97263002D01*
%TO.N,/GPIO2_10*%
X121196000Y-95338002D02*
X121196000Y-104381750D01*
X116301000Y-90443002D02*
X121196000Y-95338002D01*
%TO.N,/IMU_CS*%
X152346000Y-105831750D02*
X151396000Y-104881750D01*
X151396000Y-104881750D02*
X145546000Y-104881750D01*
X145546000Y-104881750D02*
X143596000Y-106831750D01*
X143596000Y-106831750D02*
X141996000Y-106831750D01*
%TO.N,/I2C_SCL*%
X128751000Y-99726750D02*
X128446000Y-100031750D01*
X128751000Y-84683002D02*
X128751000Y-99726750D01*
%TO.N,/IMU_SDA*%
X142751000Y-98863002D02*
X138664748Y-98863002D01*
X138664748Y-98863002D02*
X137346000Y-100181750D01*
%TO.N,/IMU_SCL*%
X152871000Y-98853002D02*
X152192252Y-99531750D01*
X152192252Y-99531750D02*
X139246000Y-99531750D01*
X139246000Y-99531750D02*
X138596000Y-100181750D01*
%TD*%
%TA.AperFunction,Conductor*%
%TO.N,GND*%
G36*
X159871504Y-102943348D02*
G01*
X159927437Y-102985220D01*
X159951854Y-103050684D01*
X159951698Y-103070338D01*
X159945791Y-103137850D01*
X159920338Y-103202919D01*
X159909944Y-103214723D01*
X153854738Y-109269931D01*
X153793415Y-109303416D01*
X153767057Y-109306250D01*
X151887189Y-109306250D01*
X151820150Y-109286565D01*
X151774395Y-109233761D01*
X151764451Y-109164603D01*
X151793476Y-109101047D01*
X151814304Y-109081932D01*
X151843681Y-109060588D01*
X151851871Y-109054638D01*
X151978533Y-108913966D01*
X152073179Y-108750034D01*
X152131674Y-108570006D01*
X152151460Y-108381750D01*
X152131674Y-108193494D01*
X152073179Y-108013466D01*
X151978533Y-107849534D01*
X151851871Y-107708862D01*
X151851870Y-107708861D01*
X151698734Y-107597601D01*
X151698729Y-107597598D01*
X151525807Y-107520607D01*
X151525802Y-107520605D01*
X151379624Y-107489535D01*
X151340646Y-107481250D01*
X151151354Y-107481250D01*
X151118897Y-107488148D01*
X150966197Y-107520605D01*
X150966192Y-107520607D01*
X150793270Y-107597598D01*
X150793265Y-107597601D01*
X150640129Y-107708861D01*
X150513466Y-107849535D01*
X150418821Y-108013465D01*
X150418818Y-108013472D01*
X150379354Y-108134932D01*
X150360326Y-108193494D01*
X150340540Y-108381750D01*
X150360326Y-108570006D01*
X150360327Y-108570009D01*
X150418818Y-108750027D01*
X150418821Y-108750034D01*
X150513467Y-108913966D01*
X150603063Y-109013472D01*
X150640129Y-109054638D01*
X150677696Y-109081932D01*
X150720362Y-109137262D01*
X150726341Y-109206875D01*
X150693736Y-109268670D01*
X150632897Y-109303027D01*
X150604811Y-109306250D01*
X144156453Y-109306250D01*
X144089414Y-109286565D01*
X144068772Y-109269931D01*
X142984960Y-108186119D01*
X142951475Y-108124796D01*
X142949323Y-108111418D01*
X142931674Y-107943494D01*
X142873179Y-107763466D01*
X142803772Y-107643249D01*
X142787300Y-107575349D01*
X142810153Y-107509322D01*
X142865075Y-107466132D01*
X142911160Y-107457250D01*
X143513257Y-107457250D01*
X143528877Y-107458974D01*
X143528904Y-107458689D01*
X143536660Y-107459421D01*
X143536667Y-107459423D01*
X143603873Y-107457311D01*
X143607768Y-107457250D01*
X143635346Y-107457250D01*
X143635350Y-107457250D01*
X143639324Y-107456747D01*
X143650963Y-107455830D01*
X143694627Y-107454459D01*
X143713869Y-107448867D01*
X143732912Y-107444924D01*
X143752792Y-107442414D01*
X143793401Y-107426335D01*
X143804444Y-107422553D01*
X143846390Y-107410368D01*
X143863629Y-107400172D01*
X143881103Y-107391612D01*
X143899727Y-107384238D01*
X143899727Y-107384237D01*
X143899732Y-107384236D01*
X143935083Y-107358550D01*
X143944814Y-107352158D01*
X143982420Y-107329920D01*
X143996589Y-107315749D01*
X144011379Y-107303118D01*
X144027587Y-107291344D01*
X144055438Y-107257676D01*
X144063279Y-107249059D01*
X145768772Y-105543569D01*
X145830095Y-105510084D01*
X145856453Y-105507250D01*
X151085548Y-105507250D01*
X151152587Y-105526935D01*
X151173229Y-105543569D01*
X151407038Y-105777379D01*
X151440523Y-105838702D01*
X151442678Y-105852098D01*
X151449648Y-105918410D01*
X151460326Y-106020006D01*
X151460327Y-106020009D01*
X151518818Y-106200027D01*
X151518821Y-106200034D01*
X151613467Y-106363966D01*
X151703063Y-106463472D01*
X151740129Y-106504638D01*
X151893265Y-106615898D01*
X151893270Y-106615901D01*
X152066192Y-106692892D01*
X152066197Y-106692894D01*
X152251354Y-106732250D01*
X152251355Y-106732250D01*
X152440644Y-106732250D01*
X152440646Y-106732250D01*
X152625803Y-106692894D01*
X152798730Y-106615901D01*
X152951871Y-106504638D01*
X153078533Y-106363966D01*
X153173179Y-106200034D01*
X153231674Y-106020006D01*
X153251460Y-105831750D01*
X153231674Y-105643494D01*
X153173179Y-105463466D01*
X153078533Y-105299534D01*
X153075284Y-105293906D01*
X153077731Y-105292493D01*
X153058399Y-105238377D01*
X153074198Y-105170317D01*
X153124285Y-105121603D01*
X153182194Y-105107250D01*
X157263257Y-105107250D01*
X157278877Y-105108974D01*
X157278904Y-105108689D01*
X157286660Y-105109421D01*
X157286667Y-105109423D01*
X157353873Y-105107311D01*
X157357768Y-105107250D01*
X157385346Y-105107250D01*
X157385350Y-105107250D01*
X157389324Y-105106747D01*
X157400963Y-105105830D01*
X157444627Y-105104459D01*
X157463869Y-105098867D01*
X157482912Y-105094924D01*
X157502792Y-105092414D01*
X157543401Y-105076335D01*
X157554444Y-105072553D01*
X157596390Y-105060368D01*
X157613629Y-105050172D01*
X157631103Y-105041612D01*
X157649727Y-105034238D01*
X157649727Y-105034237D01*
X157649732Y-105034236D01*
X157685083Y-105008550D01*
X157694814Y-105002158D01*
X157732420Y-104979920D01*
X157746589Y-104965749D01*
X157761379Y-104953118D01*
X157777587Y-104941344D01*
X157805438Y-104907676D01*
X157813279Y-104899059D01*
X159740491Y-102971847D01*
X159801812Y-102938364D01*
X159871504Y-102943348D01*
G37*
%TD.AperFunction*%
%TA.AperFunction,Conductor*%
G36*
X127786268Y-96518415D02*
G01*
X127851354Y-96532250D01*
X127851355Y-96532250D01*
X128001500Y-96532250D01*
X128068539Y-96551935D01*
X128114294Y-96604739D01*
X128125500Y-96656250D01*
X128125500Y-99108199D01*
X128105815Y-99175238D01*
X128053011Y-99220993D01*
X128051937Y-99221478D01*
X127993268Y-99247599D01*
X127874089Y-99334187D01*
X127808283Y-99357666D01*
X127740229Y-99341840D01*
X127709057Y-99316843D01*
X127701871Y-99308862D01*
X127701870Y-99308861D01*
X127701868Y-99308859D01*
X127687614Y-99298503D01*
X127644948Y-99243173D01*
X127636500Y-99198186D01*
X127636500Y-96639708D01*
X127656185Y-96572669D01*
X127708989Y-96526914D01*
X127778147Y-96516970D01*
X127786268Y-96518415D01*
G37*
%TD.AperFunction*%
%TA.AperFunction,Conductor*%
G36*
X166149226Y-74438889D02*
G01*
X166216246Y-74458634D01*
X166261953Y-74511480D01*
X166273112Y-74562776D01*
X166300500Y-104716502D01*
X166300500Y-129258502D01*
X166280815Y-129325541D01*
X166228011Y-129371296D01*
X166176500Y-129382502D01*
X111425500Y-129382502D01*
X111358461Y-129362817D01*
X111312706Y-129310013D01*
X111301500Y-129258502D01*
X111301500Y-124383004D01*
X112996153Y-124383004D01*
X113015526Y-124740316D01*
X113015527Y-124740333D01*
X113073415Y-125093433D01*
X113073421Y-125093459D01*
X113169147Y-125438234D01*
X113169149Y-125438241D01*
X113301597Y-125770661D01*
X113301606Y-125770679D01*
X113469218Y-126086829D01*
X113670024Y-126382996D01*
X113670035Y-126383010D01*
X113797441Y-126533004D01*
X113797442Y-126533004D01*
X115003265Y-125327181D01*
X115166130Y-125517872D01*
X115356819Y-125680735D01*
X114148257Y-126889296D01*
X114161495Y-126901838D01*
X114446367Y-127118390D01*
X114446370Y-127118392D01*
X114752990Y-127302878D01*
X115077739Y-127453124D01*
X115077744Y-127453125D01*
X115416855Y-127567385D01*
X115766339Y-127644313D01*
X116122075Y-127683001D01*
X116122085Y-127683002D01*
X116479915Y-127683002D01*
X116479924Y-127683001D01*
X116835660Y-127644313D01*
X117185144Y-127567385D01*
X117524255Y-127453125D01*
X117524260Y-127453124D01*
X117849009Y-127302878D01*
X118155629Y-127118392D01*
X118155632Y-127118390D01*
X118440509Y-126901833D01*
X118453742Y-126889297D01*
X118453742Y-126889296D01*
X117245181Y-125680735D01*
X117435870Y-125517872D01*
X117598733Y-125327182D01*
X118804556Y-126533004D01*
X118931972Y-126383000D01*
X118931975Y-126382996D01*
X119132781Y-126086829D01*
X119300393Y-125770679D01*
X119300402Y-125770661D01*
X119432850Y-125438241D01*
X119432852Y-125438234D01*
X119528578Y-125093459D01*
X119528584Y-125093433D01*
X119586472Y-124740333D01*
X119586473Y-124740316D01*
X119605847Y-124383004D01*
X157996153Y-124383004D01*
X158015526Y-124740316D01*
X158015527Y-124740333D01*
X158073415Y-125093433D01*
X158073421Y-125093459D01*
X158169147Y-125438234D01*
X158169149Y-125438241D01*
X158301597Y-125770661D01*
X158301606Y-125770679D01*
X158469218Y-126086829D01*
X158670024Y-126382996D01*
X158670035Y-126383010D01*
X158797441Y-126533004D01*
X158797442Y-126533004D01*
X160003265Y-125327181D01*
X160166130Y-125517872D01*
X160356819Y-125680735D01*
X159148257Y-126889296D01*
X159161495Y-126901838D01*
X159446367Y-127118390D01*
X159446370Y-127118392D01*
X159752990Y-127302878D01*
X160077739Y-127453124D01*
X160077744Y-127453125D01*
X160416855Y-127567385D01*
X160766339Y-127644313D01*
X161122075Y-127683001D01*
X161122085Y-127683002D01*
X161479915Y-127683002D01*
X161479924Y-127683001D01*
X161835660Y-127644313D01*
X162185144Y-127567385D01*
X162524255Y-127453125D01*
X162524260Y-127453124D01*
X162849009Y-127302878D01*
X163155629Y-127118392D01*
X163155632Y-127118390D01*
X163440509Y-126901833D01*
X163453742Y-126889297D01*
X163453742Y-126889296D01*
X162245181Y-125680735D01*
X162435870Y-125517872D01*
X162598733Y-125327182D01*
X163804556Y-126533004D01*
X163931972Y-126383000D01*
X163931975Y-126382996D01*
X164132781Y-126086829D01*
X164300393Y-125770679D01*
X164300402Y-125770661D01*
X164432850Y-125438241D01*
X164432852Y-125438234D01*
X164528578Y-125093459D01*
X164528584Y-125093433D01*
X164586472Y-124740333D01*
X164586473Y-124740316D01*
X164605847Y-124383004D01*
X164605847Y-124382999D01*
X164586473Y-124025687D01*
X164586472Y-124025670D01*
X164528584Y-123672570D01*
X164528578Y-123672544D01*
X164432852Y-123327769D01*
X164432850Y-123327762D01*
X164300402Y-122995342D01*
X164300393Y-122995324D01*
X164132781Y-122679174D01*
X163931975Y-122383007D01*
X163931964Y-122382993D01*
X163804556Y-122232998D01*
X162598733Y-123438820D01*
X162435870Y-123248132D01*
X162245180Y-123085268D01*
X163453741Y-121876706D01*
X163440504Y-121864165D01*
X163155632Y-121647613D01*
X163155629Y-121647611D01*
X162849009Y-121463125D01*
X162524260Y-121312879D01*
X162524255Y-121312878D01*
X162185144Y-121198618D01*
X161835660Y-121121690D01*
X161479924Y-121083002D01*
X161122075Y-121083002D01*
X160766339Y-121121690D01*
X160416855Y-121198618D01*
X160077744Y-121312878D01*
X160077739Y-121312879D01*
X159752990Y-121463125D01*
X159446370Y-121647611D01*
X159446367Y-121647613D01*
X159161486Y-121864172D01*
X159161485Y-121864173D01*
X159148257Y-121876704D01*
X159148256Y-121876705D01*
X160356819Y-123085268D01*
X160166130Y-123248132D01*
X160003266Y-123438821D01*
X158797442Y-122232997D01*
X158797441Y-122232998D01*
X158670033Y-122382994D01*
X158469218Y-122679174D01*
X158301606Y-122995324D01*
X158301597Y-122995342D01*
X158169149Y-123327762D01*
X158169147Y-123327769D01*
X158073421Y-123672544D01*
X158073415Y-123672570D01*
X158015527Y-124025670D01*
X158015526Y-124025687D01*
X157996153Y-124382999D01*
X157996153Y-124383004D01*
X119605847Y-124383004D01*
X119605847Y-124382999D01*
X119586473Y-124025687D01*
X119586472Y-124025670D01*
X119528584Y-123672570D01*
X119528578Y-123672544D01*
X119432852Y-123327769D01*
X119432850Y-123327762D01*
X119351266Y-123123002D01*
X120985540Y-123123002D01*
X121005326Y-123311258D01*
X121005327Y-123311261D01*
X121063818Y-123491279D01*
X121063821Y-123491286D01*
X121158467Y-123655218D01*
X121258124Y-123765898D01*
X121285129Y-123795890D01*
X121438265Y-123907150D01*
X121438270Y-123907153D01*
X121611192Y-123984144D01*
X121611197Y-123984146D01*
X121796354Y-124023502D01*
X121796355Y-124023502D01*
X121985644Y-124023502D01*
X121985646Y-124023502D01*
X122170803Y-123984146D01*
X122343730Y-123907153D01*
X122496871Y-123795890D01*
X122623533Y-123655218D01*
X122718179Y-123491286D01*
X122776674Y-123311258D01*
X122796460Y-123123002D01*
X122776674Y-122934746D01*
X122718179Y-122754718D01*
X122623533Y-122590786D01*
X122496871Y-122450114D01*
X122496073Y-122449534D01*
X122343734Y-122338853D01*
X122343729Y-122338850D01*
X122170807Y-122261859D01*
X122170802Y-122261857D01*
X122025001Y-122230867D01*
X121985646Y-122222502D01*
X121796354Y-122222502D01*
X121763897Y-122229400D01*
X121611197Y-122261857D01*
X121611192Y-122261859D01*
X121438270Y-122338850D01*
X121438265Y-122338853D01*
X121285129Y-122450113D01*
X121158466Y-122590787D01*
X121063821Y-122754717D01*
X121063818Y-122754724D01*
X121030715Y-122856606D01*
X121005326Y-122934746D01*
X120985540Y-123123002D01*
X119351266Y-123123002D01*
X119300402Y-122995342D01*
X119300393Y-122995324D01*
X119132781Y-122679174D01*
X118931975Y-122383007D01*
X118931964Y-122382993D01*
X118804556Y-122232998D01*
X117598733Y-123438820D01*
X117435870Y-123248132D01*
X117245180Y-123085268D01*
X118453742Y-121876706D01*
X118440504Y-121864165D01*
X118155632Y-121647613D01*
X118155629Y-121647611D01*
X117849009Y-121463125D01*
X117524260Y-121312879D01*
X117524255Y-121312878D01*
X117185144Y-121198618D01*
X116835660Y-121121690D01*
X116479924Y-121083002D01*
X116122075Y-121083002D01*
X115766339Y-121121690D01*
X115416855Y-121198618D01*
X115077744Y-121312878D01*
X115077739Y-121312879D01*
X114752990Y-121463125D01*
X114446370Y-121647611D01*
X114446367Y-121647613D01*
X114161486Y-121864172D01*
X114161485Y-121864173D01*
X114148257Y-121876704D01*
X114148256Y-121876705D01*
X115356819Y-123085268D01*
X115166130Y-123248132D01*
X115003266Y-123438821D01*
X113797442Y-122232997D01*
X113797441Y-122232998D01*
X113670033Y-122382994D01*
X113469218Y-122679174D01*
X113301606Y-122995324D01*
X113301597Y-122995342D01*
X113169149Y-123327762D01*
X113169147Y-123327769D01*
X113073421Y-123672544D01*
X113073415Y-123672570D01*
X113015527Y-124025670D01*
X113015526Y-124025687D01*
X112996153Y-124382999D01*
X112996153Y-124383004D01*
X111301500Y-124383004D01*
X111301500Y-113303002D01*
X114945341Y-113303002D01*
X114965936Y-113538405D01*
X114965938Y-113538415D01*
X115027094Y-113766657D01*
X115027096Y-113766661D01*
X115027097Y-113766665D01*
X115031791Y-113776731D01*
X115126965Y-113980832D01*
X115126967Y-113980836D01*
X115262501Y-114174397D01*
X115262506Y-114174404D01*
X115429597Y-114341495D01*
X115429603Y-114341500D01*
X115615594Y-114471732D01*
X115659219Y-114526309D01*
X115666413Y-114595807D01*
X115634890Y-114658162D01*
X115615595Y-114674882D01*
X115429922Y-114804892D01*
X115429920Y-114804893D01*
X115262891Y-114971922D01*
X115262886Y-114971928D01*
X115127400Y-115165422D01*
X115127399Y-115165424D01*
X115027570Y-115379509D01*
X115027567Y-115379515D01*
X114970364Y-115593001D01*
X114970364Y-115593002D01*
X115867314Y-115593002D01*
X115841507Y-115633158D01*
X115801000Y-115771113D01*
X115801000Y-115914891D01*
X115841507Y-116052846D01*
X115867314Y-116093002D01*
X114970364Y-116093002D01*
X115027567Y-116306488D01*
X115027570Y-116306494D01*
X115127399Y-116520580D01*
X115262894Y-116714084D01*
X115384946Y-116836136D01*
X115418431Y-116897459D01*
X115413447Y-116967151D01*
X115371575Y-117023084D01*
X115340598Y-117039999D01*
X115208671Y-117089204D01*
X115208664Y-117089208D01*
X115093455Y-117175454D01*
X115093452Y-117175457D01*
X115007206Y-117290666D01*
X115007202Y-117290673D01*
X114956908Y-117425519D01*
X114950501Y-117485118D01*
X114950501Y-117485125D01*
X114950500Y-117485137D01*
X114950500Y-119280872D01*
X114950501Y-119280878D01*
X114956908Y-119340485D01*
X115007202Y-119475330D01*
X115007206Y-119475337D01*
X115093452Y-119590546D01*
X115093455Y-119590549D01*
X115208664Y-119676795D01*
X115208671Y-119676799D01*
X115343517Y-119727093D01*
X115343516Y-119727093D01*
X115350444Y-119727837D01*
X115403127Y-119733502D01*
X117198872Y-119733501D01*
X117258483Y-119727093D01*
X117393331Y-119676798D01*
X117508546Y-119590548D01*
X117594796Y-119475333D01*
X117645091Y-119340485D01*
X117651500Y-119280875D01*
X117651499Y-117485130D01*
X117645343Y-117427859D01*
X117645091Y-117425518D01*
X117594797Y-117290673D01*
X117594793Y-117290666D01*
X117508547Y-117175457D01*
X117508544Y-117175454D01*
X117393335Y-117089208D01*
X117393328Y-117089204D01*
X117261401Y-117039999D01*
X117205467Y-116998128D01*
X117181050Y-116932664D01*
X117195902Y-116864391D01*
X117217053Y-116836135D01*
X117339108Y-116714080D01*
X117474600Y-116520580D01*
X117574429Y-116306494D01*
X117574432Y-116306488D01*
X117631636Y-116093002D01*
X116734686Y-116093002D01*
X116760493Y-116052846D01*
X116801000Y-115914891D01*
X116801000Y-115771113D01*
X116760493Y-115633158D01*
X116734686Y-115593002D01*
X117647735Y-115593002D01*
X117667543Y-115578537D01*
X117737289Y-115574380D01*
X117754987Y-115581118D01*
X117755401Y-115580074D01*
X117762653Y-115582945D01*
X117762656Y-115582947D01*
X117782064Y-115587930D01*
X117800467Y-115594231D01*
X117818849Y-115602186D01*
X117818850Y-115602186D01*
X117818852Y-115602187D01*
X117861998Y-115609020D01*
X117873420Y-115611386D01*
X117915729Y-115622250D01*
X117935764Y-115622250D01*
X117955162Y-115623776D01*
X117974942Y-115626909D01*
X117974943Y-115626910D01*
X117974943Y-115626909D01*
X117974944Y-115626910D01*
X118018423Y-115622800D01*
X118030092Y-115622250D01*
X120177891Y-115622250D01*
X120244930Y-115641935D01*
X120290685Y-115694739D01*
X120301211Y-115733286D01*
X120310326Y-115820006D01*
X120310327Y-115820009D01*
X120368818Y-116000027D01*
X120368821Y-116000034D01*
X120463464Y-116163962D01*
X120463465Y-116163964D01*
X120463467Y-116163966D01*
X120472322Y-116173800D01*
X120539832Y-116248778D01*
X120570061Y-116311770D01*
X120561435Y-116381105D01*
X120539832Y-116414722D01*
X120463464Y-116499537D01*
X120368821Y-116663465D01*
X120368818Y-116663472D01*
X120310327Y-116843490D01*
X120310326Y-116843494D01*
X120290540Y-117031750D01*
X120310326Y-117220006D01*
X120310327Y-117220009D01*
X120368818Y-117400027D01*
X120368821Y-117400034D01*
X120463467Y-117563966D01*
X120469096Y-117570217D01*
X120472304Y-117573781D01*
X120502531Y-117636773D01*
X120493904Y-117706108D01*
X120472304Y-117739719D01*
X120463466Y-117749535D01*
X120368821Y-117913465D01*
X120368818Y-117913472D01*
X120310327Y-118093490D01*
X120310326Y-118093494D01*
X120290540Y-118281750D01*
X120310326Y-118470006D01*
X120310327Y-118470009D01*
X120368818Y-118650027D01*
X120368821Y-118650034D01*
X120463467Y-118813966D01*
X120565185Y-118926935D01*
X120590129Y-118954638D01*
X120743265Y-119065898D01*
X120743270Y-119065901D01*
X120916192Y-119142892D01*
X120916197Y-119142894D01*
X121101354Y-119182250D01*
X121101355Y-119182250D01*
X121290644Y-119182250D01*
X121290646Y-119182250D01*
X121475803Y-119142894D01*
X121648730Y-119065901D01*
X121801871Y-118954638D01*
X121804788Y-118951397D01*
X121807600Y-118948276D01*
X121867087Y-118911629D01*
X121899748Y-118907250D01*
X126535548Y-118907250D01*
X126602587Y-118926935D01*
X126623229Y-118943569D01*
X129784181Y-122104521D01*
X129817666Y-122165844D01*
X129820500Y-122192202D01*
X129820500Y-122733062D01*
X129800815Y-122800101D01*
X129788650Y-122816034D01*
X129713466Y-122899534D01*
X129618821Y-123063465D01*
X129618818Y-123063472D01*
X129560327Y-123243490D01*
X129560326Y-123243494D01*
X129540540Y-123431750D01*
X129560326Y-123620006D01*
X129560327Y-123620009D01*
X129618818Y-123800027D01*
X129618821Y-123800034D01*
X129713467Y-123963966D01*
X129840129Y-124104638D01*
X129993265Y-124215898D01*
X129993270Y-124215901D01*
X130166192Y-124292892D01*
X130166197Y-124292894D01*
X130351354Y-124332250D01*
X130351355Y-124332250D01*
X130540644Y-124332250D01*
X130540646Y-124332250D01*
X130725803Y-124292894D01*
X130898730Y-124215901D01*
X131051871Y-124104638D01*
X131178533Y-123963966D01*
X131273179Y-123800034D01*
X131331674Y-123620006D01*
X131351460Y-123431750D01*
X131331674Y-123243494D01*
X131273179Y-123063466D01*
X131178533Y-122899534D01*
X131103350Y-122816034D01*
X131073120Y-122753042D01*
X131071500Y-122733062D01*
X131071500Y-122041202D01*
X131091185Y-121974163D01*
X131143989Y-121928408D01*
X131213147Y-121918464D01*
X131276703Y-121947489D01*
X131283181Y-121953521D01*
X132257038Y-122927378D01*
X132290523Y-122988701D01*
X132292678Y-123002097D01*
X132299128Y-123063465D01*
X132310326Y-123170006D01*
X132310327Y-123170009D01*
X132368818Y-123350027D01*
X132368821Y-123350034D01*
X132463467Y-123513966D01*
X132558946Y-123620006D01*
X132590129Y-123654638D01*
X132743265Y-123765898D01*
X132743270Y-123765901D01*
X132916192Y-123842892D01*
X132916197Y-123842894D01*
X133101354Y-123882250D01*
X133101355Y-123882250D01*
X133290644Y-123882250D01*
X133290646Y-123882250D01*
X133475803Y-123842894D01*
X133648730Y-123765901D01*
X133801871Y-123654638D01*
X133928533Y-123513966D01*
X134023179Y-123350034D01*
X134081674Y-123170006D01*
X134101460Y-122981750D01*
X134081674Y-122793494D01*
X134023179Y-122613466D01*
X133928533Y-122449534D01*
X133801871Y-122308862D01*
X133737177Y-122261859D01*
X133648734Y-122197601D01*
X133648729Y-122197598D01*
X133475807Y-122120607D01*
X133475802Y-122120605D01*
X133330001Y-122089615D01*
X133290646Y-122081250D01*
X133290645Y-122081250D01*
X133231452Y-122081250D01*
X133164413Y-122061565D01*
X133143771Y-122044931D01*
X132106590Y-121007750D01*
X147472540Y-121007750D01*
X147492326Y-121196006D01*
X147492327Y-121196009D01*
X147550818Y-121376027D01*
X147550821Y-121376034D01*
X147645467Y-121539966D01*
X147742391Y-121647611D01*
X147772129Y-121680638D01*
X147925265Y-121791898D01*
X147925270Y-121791901D01*
X148098192Y-121868892D01*
X148098197Y-121868894D01*
X148283354Y-121908250D01*
X148283355Y-121908250D01*
X148472644Y-121908250D01*
X148472646Y-121908250D01*
X148657803Y-121868894D01*
X148830730Y-121791901D01*
X148983871Y-121680638D01*
X149110533Y-121539966D01*
X149205179Y-121376034D01*
X149263674Y-121196006D01*
X149267695Y-121157750D01*
X154222540Y-121157750D01*
X154242326Y-121346006D01*
X154242327Y-121346009D01*
X154300818Y-121526027D01*
X154300821Y-121526034D01*
X154395467Y-121689966D01*
X154479346Y-121783123D01*
X154522129Y-121830638D01*
X154675265Y-121941898D01*
X154675270Y-121941901D01*
X154848192Y-122018892D01*
X154848197Y-122018894D01*
X155033354Y-122058250D01*
X155033355Y-122058250D01*
X155222644Y-122058250D01*
X155222646Y-122058250D01*
X155407803Y-122018894D01*
X155580730Y-121941901D01*
X155733871Y-121830638D01*
X155860533Y-121689966D01*
X155955179Y-121526034D01*
X156013674Y-121346006D01*
X156033460Y-121157750D01*
X156013674Y-120969494D01*
X155955179Y-120789466D01*
X155860533Y-120625534D01*
X155733871Y-120484862D01*
X155733870Y-120484861D01*
X155580734Y-120373601D01*
X155580729Y-120373598D01*
X155407807Y-120296607D01*
X155407802Y-120296605D01*
X155262001Y-120265615D01*
X155222646Y-120257250D01*
X155033354Y-120257250D01*
X155000897Y-120264148D01*
X154848197Y-120296605D01*
X154848192Y-120296607D01*
X154675270Y-120373598D01*
X154675265Y-120373601D01*
X154522129Y-120484861D01*
X154395466Y-120625535D01*
X154300821Y-120789465D01*
X154300818Y-120789472D01*
X154242327Y-120969490D01*
X154242326Y-120969494D01*
X154222540Y-121157750D01*
X149267695Y-121157750D01*
X149283460Y-121007750D01*
X149263674Y-120819494D01*
X149205179Y-120639466D01*
X149110533Y-120475534D01*
X148983871Y-120334862D01*
X148983870Y-120334861D01*
X148830734Y-120223601D01*
X148830729Y-120223598D01*
X148657807Y-120146607D01*
X148657802Y-120146605D01*
X148512001Y-120115615D01*
X148472646Y-120107250D01*
X148283354Y-120107250D01*
X148250897Y-120114148D01*
X148098197Y-120146605D01*
X148098192Y-120146607D01*
X147925270Y-120223598D01*
X147925265Y-120223601D01*
X147772129Y-120334861D01*
X147645466Y-120475535D01*
X147550821Y-120639465D01*
X147550818Y-120639472D01*
X147492327Y-120819490D01*
X147492326Y-120819494D01*
X147472540Y-121007750D01*
X132106590Y-121007750D01*
X129387843Y-118289002D01*
X140967540Y-118289002D01*
X140987326Y-118477258D01*
X140987327Y-118477261D01*
X141045818Y-118657279D01*
X141045821Y-118657286D01*
X141140467Y-118821218D01*
X141217931Y-118907250D01*
X141267129Y-118961890D01*
X141420265Y-119073150D01*
X141420270Y-119073153D01*
X141593192Y-119150144D01*
X141593197Y-119150146D01*
X141778354Y-119189502D01*
X141778355Y-119189502D01*
X141967644Y-119189502D01*
X141967646Y-119189502D01*
X142152803Y-119150146D01*
X142325730Y-119073153D01*
X142478871Y-118961890D01*
X142605533Y-118821218D01*
X142700179Y-118657286D01*
X142758674Y-118477258D01*
X142778460Y-118289002D01*
X142758674Y-118100746D01*
X142700179Y-117920718D01*
X142605533Y-117756786D01*
X142478871Y-117616114D01*
X142478870Y-117616113D01*
X142325734Y-117504853D01*
X142325729Y-117504850D01*
X142152807Y-117427859D01*
X142152802Y-117427857D01*
X142007001Y-117396867D01*
X141967646Y-117388502D01*
X141778354Y-117388502D01*
X141745897Y-117395400D01*
X141593197Y-117427857D01*
X141593192Y-117427859D01*
X141420270Y-117504850D01*
X141420265Y-117504853D01*
X141267129Y-117616113D01*
X141140466Y-117756787D01*
X141045821Y-117920717D01*
X141045818Y-117920724D01*
X140989682Y-118093494D01*
X140987326Y-118100746D01*
X140967540Y-118289002D01*
X129387843Y-118289002D01*
X127746803Y-116647962D01*
X127736980Y-116635700D01*
X127736759Y-116635884D01*
X127731786Y-116629872D01*
X127682776Y-116583849D01*
X127679977Y-116581136D01*
X127660477Y-116561635D01*
X127660471Y-116561630D01*
X127657286Y-116559159D01*
X127648434Y-116551598D01*
X127616582Y-116521688D01*
X127616580Y-116521686D01*
X127616577Y-116521685D01*
X127599029Y-116512038D01*
X127582763Y-116501354D01*
X127566932Y-116489074D01*
X127526849Y-116471728D01*
X127516363Y-116466591D01*
X127478094Y-116445553D01*
X127478092Y-116445552D01*
X127458693Y-116440572D01*
X127440281Y-116434268D01*
X127421898Y-116426312D01*
X127421892Y-116426310D01*
X127378760Y-116419479D01*
X127367322Y-116417111D01*
X127325020Y-116406250D01*
X127325019Y-116406250D01*
X127304984Y-116406250D01*
X127285586Y-116404723D01*
X127278162Y-116403547D01*
X127265805Y-116401590D01*
X127265804Y-116401590D01*
X127222325Y-116405700D01*
X127210656Y-116406250D01*
X121988888Y-116406250D01*
X121921849Y-116386565D01*
X121876094Y-116333761D01*
X121866150Y-116264603D01*
X121895175Y-116201047D01*
X121896738Y-116199278D01*
X121899310Y-116196420D01*
X121928533Y-116163966D01*
X122023179Y-116000034D01*
X122039274Y-115950498D01*
X155745540Y-115950498D01*
X155765326Y-116138754D01*
X155765327Y-116138757D01*
X155823818Y-116318775D01*
X155823821Y-116318782D01*
X155918467Y-116482714D01*
X155989528Y-116561635D01*
X156045129Y-116623386D01*
X156198265Y-116734646D01*
X156198270Y-116734649D01*
X156371192Y-116811640D01*
X156371197Y-116811642D01*
X156556354Y-116850998D01*
X156556355Y-116850998D01*
X156745644Y-116850998D01*
X156745646Y-116850998D01*
X156930803Y-116811642D01*
X157103730Y-116734649D01*
X157256871Y-116623386D01*
X157383533Y-116482714D01*
X157478179Y-116318782D01*
X157536674Y-116138754D01*
X157556460Y-115950498D01*
X157536674Y-115762242D01*
X157478179Y-115582214D01*
X157383533Y-115418282D01*
X157256871Y-115277610D01*
X157237412Y-115263472D01*
X157103734Y-115166349D01*
X157103729Y-115166346D01*
X156930807Y-115089355D01*
X156930802Y-115089353D01*
X156785001Y-115058363D01*
X156745646Y-115049998D01*
X156556354Y-115049998D01*
X156523897Y-115056896D01*
X156371197Y-115089353D01*
X156371192Y-115089355D01*
X156198270Y-115166346D01*
X156198265Y-115166349D01*
X156045129Y-115277609D01*
X155918466Y-115418283D01*
X155823821Y-115582213D01*
X155823818Y-115582220D01*
X155765327Y-115762238D01*
X155765326Y-115762242D01*
X155745540Y-115950498D01*
X122039274Y-115950498D01*
X122081674Y-115820006D01*
X122101460Y-115631750D01*
X122081674Y-115443494D01*
X122023179Y-115263466D01*
X121928533Y-115099534D01*
X121919698Y-115089722D01*
X121889469Y-115026731D01*
X121898093Y-114957396D01*
X121919699Y-114923777D01*
X121928533Y-114913966D01*
X122023179Y-114750034D01*
X122081674Y-114570006D01*
X122101460Y-114381750D01*
X122081674Y-114193494D01*
X122023179Y-114013466D01*
X121928533Y-113849534D01*
X121919698Y-113839722D01*
X121889469Y-113776731D01*
X121898093Y-113707396D01*
X121919699Y-113673777D01*
X121928533Y-113663966D01*
X122023179Y-113500034D01*
X122081674Y-113320006D01*
X122101460Y-113131750D01*
X122081674Y-112943494D01*
X122023179Y-112763466D01*
X121928533Y-112599534D01*
X121919698Y-112589722D01*
X121889469Y-112526731D01*
X121898093Y-112457396D01*
X121919699Y-112423777D01*
X121928533Y-112413966D01*
X122023179Y-112250034D01*
X122081674Y-112070006D01*
X122101460Y-111881750D01*
X122081674Y-111693494D01*
X122023179Y-111513466D01*
X121928533Y-111349534D01*
X121919698Y-111339722D01*
X121889469Y-111276731D01*
X121898093Y-111207396D01*
X121919699Y-111173777D01*
X121924877Y-111168026D01*
X121928533Y-111163966D01*
X122023179Y-111000034D01*
X122081674Y-110820006D01*
X122101460Y-110631750D01*
X122081674Y-110443494D01*
X122023179Y-110263466D01*
X121928533Y-110099534D01*
X121919698Y-110089722D01*
X121889469Y-110026731D01*
X121898093Y-109957396D01*
X121919699Y-109923777D01*
X121928533Y-109913966D01*
X122023179Y-109750034D01*
X122081674Y-109570006D01*
X122101460Y-109381750D01*
X122081674Y-109193494D01*
X122023179Y-109013466D01*
X121928533Y-108849534D01*
X121919698Y-108839722D01*
X121889469Y-108776731D01*
X121898093Y-108707396D01*
X121919699Y-108673777D01*
X121928533Y-108663966D01*
X122023179Y-108500034D01*
X122081674Y-108320006D01*
X122101460Y-108131750D01*
X122081674Y-107943494D01*
X122023179Y-107763466D01*
X121928533Y-107599534D01*
X121919698Y-107589722D01*
X121889469Y-107526731D01*
X121898093Y-107457396D01*
X121919699Y-107423777D01*
X121920803Y-107422551D01*
X121928533Y-107413966D01*
X122023179Y-107250034D01*
X122081674Y-107070006D01*
X122101460Y-106881750D01*
X122081674Y-106693494D01*
X122023179Y-106513466D01*
X121928533Y-106349534D01*
X121919698Y-106339722D01*
X121889469Y-106276731D01*
X121898093Y-106207396D01*
X121919699Y-106173777D01*
X121923162Y-106169931D01*
X121928533Y-106163966D01*
X122023179Y-106000034D01*
X122081674Y-105820006D01*
X122101460Y-105631750D01*
X122081674Y-105443494D01*
X122023179Y-105263466D01*
X121928533Y-105099534D01*
X121919698Y-105089722D01*
X121889469Y-105026731D01*
X121898093Y-104957396D01*
X121919699Y-104923777D01*
X121928533Y-104913966D01*
X122023179Y-104750034D01*
X122081674Y-104570006D01*
X122101460Y-104381750D01*
X122081674Y-104193494D01*
X122023179Y-104013466D01*
X121928533Y-103849534D01*
X121902690Y-103820832D01*
X121853350Y-103766034D01*
X121823120Y-103703042D01*
X121821500Y-103683062D01*
X121821500Y-95420739D01*
X121823224Y-95405125D01*
X121822938Y-95405098D01*
X121823672Y-95397335D01*
X121821561Y-95330145D01*
X121821500Y-95326251D01*
X121821500Y-95298653D01*
X121821500Y-95298652D01*
X121820997Y-95294672D01*
X121820080Y-95283023D01*
X121818709Y-95239376D01*
X121818709Y-95239374D01*
X121813120Y-95220139D01*
X121809174Y-95201086D01*
X121806664Y-95181210D01*
X121790578Y-95140583D01*
X121786803Y-95129556D01*
X121774617Y-95087612D01*
X121764421Y-95070371D01*
X121755860Y-95052895D01*
X121748486Y-95034271D01*
X121748485Y-95034269D01*
X121722809Y-94998928D01*
X121716412Y-94989192D01*
X121694170Y-94951581D01*
X121694167Y-94951578D01*
X121694165Y-94951575D01*
X121680005Y-94937415D01*
X121667370Y-94922622D01*
X121655593Y-94906414D01*
X121621945Y-94878578D01*
X121613304Y-94870715D01*
X117641237Y-90898648D01*
X117607752Y-90837325D01*
X117609142Y-90778878D01*
X117636063Y-90678410D01*
X117656659Y-90443002D01*
X117636063Y-90207594D01*
X117574903Y-89979339D01*
X117475035Y-89765173D01*
X117376288Y-89624146D01*
X117339494Y-89571599D01*
X117172402Y-89404508D01*
X117172401Y-89404507D01*
X116986405Y-89274271D01*
X116942781Y-89219694D01*
X116935588Y-89150195D01*
X116967110Y-89087841D01*
X116986405Y-89071121D01*
X117172082Y-88941107D01*
X117339105Y-88774084D01*
X117346865Y-88763002D01*
X118737540Y-88763002D01*
X118757326Y-88951258D01*
X118757327Y-88951261D01*
X118815818Y-89131279D01*
X118815821Y-89131286D01*
X118910467Y-89295218D01*
X119019336Y-89416129D01*
X119037129Y-89435890D01*
X119190265Y-89547150D01*
X119190270Y-89547153D01*
X119363192Y-89624144D01*
X119363197Y-89624146D01*
X119548354Y-89663502D01*
X119548355Y-89663502D01*
X119737644Y-89663502D01*
X119737646Y-89663502D01*
X119922803Y-89624146D01*
X120095730Y-89547153D01*
X120248871Y-89435890D01*
X120375533Y-89295218D01*
X120470179Y-89131286D01*
X120528674Y-88951258D01*
X120548460Y-88763002D01*
X120528674Y-88574746D01*
X120470179Y-88394718D01*
X120375533Y-88230786D01*
X120248871Y-88090114D01*
X120246910Y-88088689D01*
X120095734Y-87978853D01*
X120095729Y-87978850D01*
X119922807Y-87901859D01*
X119922802Y-87901857D01*
X119777001Y-87870867D01*
X119737646Y-87862502D01*
X119548354Y-87862502D01*
X119515897Y-87869400D01*
X119363197Y-87901857D01*
X119363192Y-87901859D01*
X119190270Y-87978850D01*
X119190265Y-87978853D01*
X119037129Y-88090113D01*
X118910466Y-88230787D01*
X118815821Y-88394717D01*
X118815818Y-88394724D01*
X118757547Y-88574066D01*
X118757326Y-88574746D01*
X118737540Y-88763002D01*
X117346865Y-88763002D01*
X117474600Y-88580580D01*
X117574429Y-88366494D01*
X117574432Y-88366488D01*
X117631636Y-88153002D01*
X116734686Y-88153002D01*
X116760493Y-88112846D01*
X116801000Y-87974891D01*
X116801000Y-87831113D01*
X116760493Y-87693158D01*
X116734686Y-87653002D01*
X117631636Y-87653002D01*
X117631635Y-87653001D01*
X117574432Y-87439515D01*
X117574429Y-87439509D01*
X117474600Y-87225424D01*
X117474599Y-87225422D01*
X117339113Y-87031928D01*
X117339108Y-87031922D01*
X117172078Y-86864892D01*
X116986405Y-86734881D01*
X116942780Y-86680304D01*
X116935588Y-86610806D01*
X116967110Y-86548451D01*
X116986406Y-86531732D01*
X117172401Y-86401497D01*
X117339495Y-86234403D01*
X117475035Y-86040832D01*
X117574903Y-85826665D01*
X117636063Y-85598410D01*
X117656659Y-85363002D01*
X117636063Y-85127594D01*
X117574903Y-84899339D01*
X117497338Y-84733002D01*
X125445540Y-84733002D01*
X125465326Y-84921258D01*
X125465327Y-84921261D01*
X125523818Y-85101279D01*
X125523821Y-85101286D01*
X125618467Y-85265218D01*
X125715819Y-85373338D01*
X125745129Y-85405890D01*
X125898265Y-85517150D01*
X125898270Y-85517153D01*
X126071192Y-85594144D01*
X126071197Y-85594146D01*
X126256354Y-85633502D01*
X126261500Y-85633502D01*
X126328539Y-85653187D01*
X126374294Y-85705991D01*
X126385500Y-85757502D01*
X126385500Y-99378918D01*
X126366460Y-99443759D01*
X126366716Y-99443907D01*
X126366107Y-99444961D01*
X126365815Y-99445957D01*
X126363997Y-99448615D01*
X126268821Y-99613465D01*
X126268818Y-99613472D01*
X126210327Y-99793490D01*
X126210326Y-99793494D01*
X126190540Y-99981750D01*
X126210326Y-100170006D01*
X126210327Y-100170009D01*
X126268818Y-100350027D01*
X126268821Y-100350034D01*
X126363467Y-100513966D01*
X126443510Y-100602862D01*
X126490129Y-100654638D01*
X126643265Y-100765898D01*
X126643270Y-100765901D01*
X126816192Y-100842892D01*
X126816197Y-100842894D01*
X127001354Y-100882250D01*
X127001355Y-100882250D01*
X127190644Y-100882250D01*
X127190646Y-100882250D01*
X127375803Y-100842894D01*
X127548730Y-100765901D01*
X127667911Y-100679310D01*
X127733714Y-100655832D01*
X127801768Y-100671657D01*
X127832945Y-100696659D01*
X127840130Y-100704639D01*
X127840135Y-100704643D01*
X127993265Y-100815898D01*
X127993270Y-100815901D01*
X128166192Y-100892892D01*
X128166197Y-100892894D01*
X128351354Y-100932250D01*
X128351355Y-100932250D01*
X128540644Y-100932250D01*
X128540646Y-100932250D01*
X128725803Y-100892894D01*
X128898730Y-100815901D01*
X129051871Y-100704638D01*
X129178533Y-100563966D01*
X129273179Y-100400034D01*
X129331674Y-100220006D01*
X129351460Y-100031750D01*
X129344915Y-99969479D01*
X129354437Y-99907267D01*
X129356437Y-99902646D01*
X129363270Y-99859498D01*
X129365633Y-99848088D01*
X129376500Y-99805769D01*
X129376500Y-99785733D01*
X129378027Y-99766332D01*
X129378481Y-99763465D01*
X129381160Y-99746554D01*
X129377050Y-99703074D01*
X129376500Y-99691405D01*
X129376500Y-92139002D01*
X142942464Y-92139002D01*
X142962564Y-92355920D01*
X143022184Y-92565464D01*
X143119288Y-92760474D01*
X143250573Y-92934324D01*
X143411568Y-93081090D01*
X143411575Y-93081094D01*
X143411576Y-93081095D01*
X143596786Y-93195772D01*
X143596792Y-93195775D01*
X143619664Y-93204635D01*
X143799931Y-93274472D01*
X144014074Y-93314502D01*
X144014076Y-93314502D01*
X144231924Y-93314502D01*
X144231926Y-93314502D01*
X144446069Y-93274472D01*
X144649210Y-93195774D01*
X144834432Y-93081090D01*
X144995427Y-92934324D01*
X145126712Y-92760474D01*
X145223817Y-92565461D01*
X145283435Y-92355925D01*
X145303536Y-92139002D01*
X145283435Y-91922079D01*
X145223817Y-91712543D01*
X145126712Y-91517530D01*
X145045251Y-91409658D01*
X145020560Y-91344299D01*
X145035125Y-91275964D01*
X145069895Y-91235667D01*
X145117545Y-91199995D01*
X145155546Y-91171548D01*
X145241796Y-91056333D01*
X145292091Y-90921485D01*
X145298500Y-90861875D01*
X145298499Y-89416130D01*
X145292091Y-89356519D01*
X145289634Y-89349932D01*
X145241797Y-89221673D01*
X145241793Y-89221666D01*
X145155547Y-89106457D01*
X145155544Y-89106454D01*
X145040335Y-89020208D01*
X145040328Y-89020204D01*
X144905482Y-88969910D01*
X144905483Y-88969910D01*
X144845883Y-88963503D01*
X144845881Y-88963502D01*
X144845873Y-88963502D01*
X144845864Y-88963502D01*
X143400129Y-88963502D01*
X143400123Y-88963503D01*
X143340516Y-88969910D01*
X143205671Y-89020204D01*
X143205664Y-89020208D01*
X143090455Y-89106454D01*
X143090452Y-89106457D01*
X143004206Y-89221666D01*
X143004202Y-89221673D01*
X142953908Y-89356519D01*
X142948749Y-89404508D01*
X142947501Y-89416125D01*
X142947500Y-89416137D01*
X142947500Y-90861872D01*
X142947501Y-90861878D01*
X142953908Y-90921485D01*
X143004202Y-91056330D01*
X143004206Y-91056337D01*
X143052488Y-91120832D01*
X143090454Y-91171548D01*
X143176105Y-91235666D01*
X143217975Y-91291599D01*
X143222959Y-91361291D01*
X143200748Y-91409658D01*
X143119288Y-91517530D01*
X143022184Y-91712539D01*
X142962564Y-91922083D01*
X142942464Y-92139001D01*
X142942464Y-92139002D01*
X129376500Y-92139002D01*
X129376500Y-87005872D01*
X130675500Y-87005872D01*
X130675501Y-87005878D01*
X130681908Y-87065485D01*
X130732202Y-87200330D01*
X130732206Y-87200337D01*
X130818452Y-87315546D01*
X130818455Y-87315549D01*
X130933664Y-87401795D01*
X130933671Y-87401799D01*
X131068517Y-87452093D01*
X131068516Y-87452093D01*
X131075444Y-87452837D01*
X131128127Y-87458502D01*
X131984480Y-87458501D01*
X132051519Y-87478185D01*
X132072161Y-87494820D01*
X132926806Y-88349465D01*
X132931926Y-88354903D01*
X132971819Y-88399933D01*
X133021325Y-88434105D01*
X133027345Y-88438535D01*
X133074691Y-88475628D01*
X133081593Y-88478734D01*
X133083930Y-88479786D01*
X133103481Y-88490813D01*
X133111818Y-88496568D01*
X133168077Y-88517903D01*
X133174954Y-88520752D01*
X133196480Y-88530441D01*
X133229811Y-88545443D01*
X133229814Y-88545443D01*
X133229817Y-88545445D01*
X133239782Y-88547271D01*
X133261404Y-88553298D01*
X133264525Y-88554481D01*
X133270876Y-88556890D01*
X133328437Y-88563878D01*
X133330563Y-88564137D01*
X133337970Y-88565264D01*
X133397142Y-88576108D01*
X133457181Y-88572475D01*
X133464669Y-88572250D01*
X148233194Y-88572250D01*
X148300233Y-88591935D01*
X148345988Y-88644739D01*
X148355932Y-88713897D01*
X148351125Y-88734568D01*
X148338286Y-88774084D01*
X148315326Y-88844746D01*
X148295540Y-89033002D01*
X148315326Y-89221258D01*
X148315327Y-89221261D01*
X148373818Y-89401279D01*
X148373821Y-89401286D01*
X148468467Y-89565218D01*
X148556963Y-89663502D01*
X148595129Y-89705890D01*
X148748265Y-89817150D01*
X148748270Y-89817153D01*
X148921192Y-89894144D01*
X148921197Y-89894146D01*
X149106354Y-89933502D01*
X149106355Y-89933502D01*
X149295644Y-89933502D01*
X149295646Y-89933502D01*
X149480803Y-89894146D01*
X149653730Y-89817153D01*
X149806871Y-89705890D01*
X149933533Y-89565218D01*
X150028179Y-89401286D01*
X150086674Y-89221258D01*
X150106460Y-89033002D01*
X150086674Y-88844746D01*
X150050875Y-88734568D01*
X150048880Y-88664727D01*
X150084960Y-88604894D01*
X150147661Y-88574066D01*
X150168806Y-88572250D01*
X152618673Y-88572250D01*
X152685712Y-88591935D01*
X152706354Y-88608569D01*
X153397250Y-89299465D01*
X153402370Y-89304903D01*
X153442263Y-89349933D01*
X153491769Y-89384105D01*
X153497789Y-89388535D01*
X153533020Y-89416137D01*
X153545135Y-89425628D01*
X153552037Y-89428734D01*
X153554374Y-89429786D01*
X153573925Y-89440813D01*
X153582262Y-89446568D01*
X153638521Y-89467903D01*
X153645398Y-89470752D01*
X153666924Y-89480441D01*
X153700255Y-89495443D01*
X153700258Y-89495443D01*
X153700261Y-89495445D01*
X153710226Y-89497271D01*
X153731848Y-89503298D01*
X153731859Y-89503302D01*
X153741320Y-89506890D01*
X153798881Y-89513878D01*
X153801007Y-89514137D01*
X153808414Y-89515264D01*
X153867586Y-89526108D01*
X153927625Y-89522475D01*
X153935113Y-89522250D01*
X154481079Y-89522250D01*
X154488566Y-89522475D01*
X154548606Y-89526108D01*
X154607782Y-89515263D01*
X154615185Y-89514137D01*
X154618921Y-89513683D01*
X154674872Y-89506890D01*
X154684335Y-89503300D01*
X154705961Y-89497272D01*
X154706893Y-89497101D01*
X154715932Y-89495445D01*
X154770808Y-89470746D01*
X154777678Y-89467900D01*
X154833930Y-89446568D01*
X154842266Y-89440812D01*
X154861821Y-89429784D01*
X154871057Y-89425628D01*
X154918413Y-89388525D01*
X154924404Y-89384116D01*
X154973929Y-89349933D01*
X155013822Y-89304901D01*
X155018924Y-89299481D01*
X155258976Y-89059430D01*
X155320295Y-89025948D01*
X155320304Y-89025945D01*
X155475803Y-88992894D01*
X155475807Y-88992892D01*
X155475808Y-88992892D01*
X155592117Y-88941107D01*
X155648730Y-88915901D01*
X155801871Y-88804638D01*
X155928533Y-88663966D01*
X156023179Y-88500034D01*
X156081674Y-88320006D01*
X156094992Y-88193287D01*
X156121577Y-88128674D01*
X156178874Y-88088689D01*
X156218313Y-88082250D01*
X159257331Y-88082250D01*
X159264818Y-88082475D01*
X159324858Y-88086108D01*
X159384034Y-88075263D01*
X159391437Y-88074137D01*
X159395173Y-88073683D01*
X159451124Y-88066890D01*
X159460587Y-88063300D01*
X159482213Y-88057272D01*
X159483145Y-88057101D01*
X159492184Y-88055445D01*
X159547060Y-88030746D01*
X159553930Y-88027900D01*
X159610182Y-88006568D01*
X159618518Y-88000812D01*
X159638073Y-87989784D01*
X159647309Y-87985628D01*
X159694665Y-87948525D01*
X159700656Y-87944116D01*
X159750181Y-87909933D01*
X159790074Y-87864901D01*
X159795176Y-87859481D01*
X159965337Y-87689321D01*
X160026660Y-87655836D01*
X160053018Y-87653002D01*
X160867314Y-87653002D01*
X160841507Y-87693158D01*
X160801000Y-87831113D01*
X160801000Y-87974891D01*
X160841507Y-88112846D01*
X160867314Y-88153002D01*
X159970364Y-88153002D01*
X160027567Y-88366488D01*
X160027570Y-88366494D01*
X160127399Y-88580580D01*
X160262894Y-88774084D01*
X160429917Y-88941107D01*
X160615595Y-89071121D01*
X160659219Y-89125698D01*
X160666412Y-89195197D01*
X160634890Y-89257551D01*
X160615595Y-89274271D01*
X160429594Y-89404510D01*
X160262505Y-89571599D01*
X160126965Y-89765171D01*
X160126964Y-89765173D01*
X160027098Y-89979337D01*
X160027094Y-89979346D01*
X159965938Y-90207588D01*
X159965936Y-90207598D01*
X159945341Y-90443001D01*
X159945341Y-90443002D01*
X159965937Y-90678410D01*
X159992855Y-90778875D01*
X159991192Y-90848725D01*
X159960761Y-90898648D01*
X155276277Y-95583132D01*
X155214954Y-95616617D01*
X155145262Y-95611633D01*
X155089329Y-95569761D01*
X155070665Y-95533768D01*
X155065414Y-95517608D01*
X155050179Y-95470718D01*
X154955533Y-95306786D01*
X154828871Y-95166114D01*
X154828870Y-95166113D01*
X154675734Y-95054853D01*
X154675729Y-95054850D01*
X154502807Y-94977859D01*
X154502802Y-94977857D01*
X154357001Y-94946867D01*
X154317646Y-94938502D01*
X154128354Y-94938502D01*
X154095897Y-94945400D01*
X153943197Y-94977857D01*
X153943192Y-94977859D01*
X153770270Y-95054850D01*
X153770265Y-95054853D01*
X153617129Y-95166113D01*
X153490466Y-95306787D01*
X153395821Y-95470717D01*
X153395818Y-95470724D01*
X153337327Y-95650742D01*
X153337326Y-95650746D01*
X153317540Y-95839002D01*
X153337326Y-96027258D01*
X153337327Y-96027261D01*
X153395818Y-96207279D01*
X153395820Y-96207283D01*
X153395821Y-96207286D01*
X153420626Y-96250250D01*
X153420627Y-96250251D01*
X153437098Y-96318151D01*
X153414246Y-96384178D01*
X153359324Y-96427368D01*
X153313239Y-96436250D01*
X145841109Y-96436250D01*
X145774070Y-96416565D01*
X145728315Y-96363761D01*
X145718371Y-96294603D01*
X145733722Y-96250250D01*
X145773505Y-96181343D01*
X145808179Y-96121286D01*
X145866674Y-95941258D01*
X145886460Y-95753002D01*
X145866674Y-95564746D01*
X145808179Y-95384718D01*
X145713533Y-95220786D01*
X145586871Y-95080114D01*
X145561902Y-95061973D01*
X145433734Y-94968853D01*
X145433729Y-94968850D01*
X145260807Y-94891859D01*
X145260802Y-94891857D01*
X145115001Y-94860867D01*
X145075646Y-94852502D01*
X144886354Y-94852502D01*
X144853897Y-94859400D01*
X144701197Y-94891857D01*
X144701192Y-94891859D01*
X144528270Y-94968850D01*
X144528265Y-94968853D01*
X144375129Y-95080113D01*
X144248466Y-95220787D01*
X144153821Y-95384717D01*
X144153818Y-95384724D01*
X144105391Y-95533768D01*
X144095326Y-95564746D01*
X144075540Y-95753002D01*
X144095326Y-95941258D01*
X144095327Y-95941261D01*
X144153818Y-96121279D01*
X144153821Y-96121286D01*
X144228278Y-96250250D01*
X144244751Y-96318151D01*
X144221898Y-96384177D01*
X144166977Y-96427368D01*
X144120891Y-96436250D01*
X135398743Y-96436250D01*
X135383122Y-96434525D01*
X135383095Y-96434811D01*
X135375333Y-96434076D01*
X135308113Y-96436189D01*
X135304219Y-96436250D01*
X135276650Y-96436250D01*
X135272673Y-96436752D01*
X135261042Y-96437667D01*
X135217374Y-96439039D01*
X135217368Y-96439040D01*
X135198126Y-96444630D01*
X135179087Y-96448573D01*
X135159217Y-96451084D01*
X135159203Y-96451087D01*
X135118598Y-96467163D01*
X135107554Y-96470944D01*
X135065614Y-96483129D01*
X135065610Y-96483131D01*
X135048366Y-96493329D01*
X135030905Y-96501883D01*
X135012274Y-96509260D01*
X135012262Y-96509267D01*
X134976933Y-96534935D01*
X134967173Y-96541346D01*
X134929580Y-96563579D01*
X134915414Y-96577745D01*
X134900624Y-96590377D01*
X134884414Y-96602154D01*
X134884411Y-96602157D01*
X134856573Y-96635808D01*
X134848711Y-96644447D01*
X132298228Y-99194931D01*
X132236905Y-99228416D01*
X132210547Y-99231250D01*
X132151354Y-99231250D01*
X132124128Y-99237037D01*
X131966197Y-99270605D01*
X131966192Y-99270607D01*
X131793270Y-99347598D01*
X131793265Y-99347601D01*
X131640129Y-99458861D01*
X131513466Y-99599535D01*
X131418821Y-99763465D01*
X131418818Y-99763472D01*
X131360327Y-99943490D01*
X131360326Y-99943494D01*
X131340540Y-100131750D01*
X131360326Y-100320006D01*
X131360327Y-100320009D01*
X131418818Y-100500027D01*
X131418821Y-100500034D01*
X131513467Y-100663966D01*
X131605247Y-100765898D01*
X131640129Y-100804638D01*
X131793265Y-100915898D01*
X131793270Y-100915901D01*
X131966192Y-100992892D01*
X131966197Y-100992894D01*
X132151354Y-101032250D01*
X132151355Y-101032250D01*
X132340644Y-101032250D01*
X132340646Y-101032250D01*
X132525803Y-100992894D01*
X132698730Y-100915901D01*
X132788748Y-100850499D01*
X132854553Y-100827020D01*
X132922607Y-100842845D01*
X132934470Y-100851368D01*
X132934871Y-100850818D01*
X133093265Y-100965898D01*
X133093270Y-100965901D01*
X133266192Y-101042892D01*
X133266197Y-101042894D01*
X133451354Y-101082250D01*
X133451355Y-101082250D01*
X133640644Y-101082250D01*
X133640646Y-101082250D01*
X133825803Y-101042894D01*
X133998730Y-100965901D01*
X134098115Y-100893694D01*
X134163921Y-100870214D01*
X134231975Y-100886039D01*
X134243885Y-100893694D01*
X134343265Y-100965898D01*
X134343270Y-100965901D01*
X134516192Y-101042892D01*
X134516197Y-101042894D01*
X134701354Y-101082250D01*
X134701355Y-101082250D01*
X134890644Y-101082250D01*
X134890646Y-101082250D01*
X135075803Y-101042894D01*
X135248730Y-100965901D01*
X135348115Y-100893694D01*
X135413921Y-100870214D01*
X135481975Y-100886039D01*
X135493885Y-100893694D01*
X135593265Y-100965898D01*
X135593270Y-100965901D01*
X135766192Y-101042892D01*
X135766197Y-101042894D01*
X135951354Y-101082250D01*
X135951355Y-101082250D01*
X136140644Y-101082250D01*
X136140646Y-101082250D01*
X136325803Y-101042894D01*
X136498730Y-100965901D01*
X136623116Y-100875528D01*
X136688921Y-100852050D01*
X136756975Y-100867875D01*
X136768872Y-100875521D01*
X136856069Y-100938873D01*
X136893270Y-100965901D01*
X137066192Y-101042892D01*
X137066197Y-101042894D01*
X137251354Y-101082250D01*
X137251355Y-101082250D01*
X137440644Y-101082250D01*
X137440646Y-101082250D01*
X137625803Y-101042894D01*
X137798730Y-100965901D01*
X137898115Y-100893694D01*
X137963921Y-100870214D01*
X138031975Y-100886039D01*
X138043885Y-100893694D01*
X138143265Y-100965898D01*
X138143270Y-100965901D01*
X138316192Y-101042892D01*
X138316197Y-101042894D01*
X138501354Y-101082250D01*
X138501355Y-101082250D01*
X138690644Y-101082250D01*
X138690646Y-101082250D01*
X138875803Y-101042894D01*
X139048730Y-100965901D01*
X139201871Y-100854638D01*
X139328533Y-100713966D01*
X139423179Y-100550034D01*
X139481674Y-100370006D01*
X139492364Y-100268286D01*
X139518948Y-100203674D01*
X139576246Y-100163689D01*
X139615685Y-100157250D01*
X152109509Y-100157250D01*
X152125129Y-100158974D01*
X152125156Y-100158689D01*
X152132912Y-100159421D01*
X152132919Y-100159423D01*
X152200125Y-100157311D01*
X152204020Y-100157250D01*
X152231598Y-100157250D01*
X152231602Y-100157250D01*
X152235576Y-100156747D01*
X152247215Y-100155830D01*
X152290879Y-100154459D01*
X152310121Y-100148867D01*
X152329164Y-100144924D01*
X152349044Y-100142414D01*
X152389653Y-100126335D01*
X152400696Y-100122553D01*
X152442642Y-100110368D01*
X152459881Y-100100172D01*
X152477355Y-100091612D01*
X152495979Y-100084238D01*
X152495979Y-100084237D01*
X152495984Y-100084236D01*
X152531335Y-100058550D01*
X152541066Y-100052158D01*
X152578672Y-100029920D01*
X152592841Y-100015749D01*
X152607631Y-100003118D01*
X152623839Y-99991344D01*
X152651690Y-99957676D01*
X152659521Y-99949069D01*
X152818772Y-99789819D01*
X152880095Y-99756336D01*
X152906452Y-99753502D01*
X152965644Y-99753502D01*
X152965646Y-99753502D01*
X153150803Y-99714146D01*
X153323730Y-99637153D01*
X153476871Y-99525890D01*
X153603533Y-99385218D01*
X153698179Y-99221286D01*
X153756674Y-99041258D01*
X153776460Y-98853002D01*
X153775536Y-98844210D01*
X153788106Y-98775481D01*
X153835839Y-98724457D01*
X153898857Y-98707250D01*
X160038900Y-98707250D01*
X160105939Y-98726935D01*
X160140474Y-98760125D01*
X160262505Y-98934403D01*
X160262506Y-98934404D01*
X160429597Y-99101495D01*
X160429603Y-99101500D01*
X160615158Y-99231427D01*
X160658783Y-99286004D01*
X160665977Y-99355502D01*
X160634454Y-99417857D01*
X160615158Y-99434577D01*
X160429597Y-99564507D01*
X160262505Y-99731599D01*
X160126965Y-99925171D01*
X160126964Y-99925173D01*
X160027098Y-100139337D01*
X160027094Y-100139346D01*
X159965938Y-100367588D01*
X159965936Y-100367598D01*
X159945341Y-100603001D01*
X159945341Y-100603002D01*
X159965936Y-100838405D01*
X159965938Y-100838415D01*
X159976742Y-100878736D01*
X159975079Y-100948586D01*
X159944648Y-100998510D01*
X157123228Y-103819931D01*
X157061905Y-103853416D01*
X157035547Y-103856250D01*
X155354085Y-103856250D01*
X155287046Y-103836565D01*
X155241291Y-103783761D01*
X155231347Y-103714603D01*
X155260372Y-103651047D01*
X155266404Y-103644569D01*
X156592404Y-102318569D01*
X156653727Y-102285084D01*
X156680085Y-102282250D01*
X156815644Y-102282250D01*
X156815646Y-102282250D01*
X157000803Y-102242894D01*
X157173730Y-102165901D01*
X157326871Y-102054638D01*
X157453533Y-101913966D01*
X157548179Y-101750034D01*
X157606674Y-101570006D01*
X157626460Y-101381750D01*
X157606674Y-101193494D01*
X157548179Y-101013466D01*
X157453533Y-100849534D01*
X157326871Y-100708862D01*
X157321059Y-100704639D01*
X157173734Y-100597601D01*
X157173729Y-100597598D01*
X157000807Y-100520607D01*
X157000802Y-100520605D01*
X156855001Y-100489615D01*
X156815646Y-100481250D01*
X156626354Y-100481250D01*
X156593897Y-100488148D01*
X156441197Y-100520605D01*
X156441192Y-100520607D01*
X156268270Y-100597598D01*
X156262637Y-100600851D01*
X156261934Y-100599633D01*
X156203068Y-100620631D01*
X156135016Y-100604800D01*
X156124526Y-100598058D01*
X156123729Y-100597598D01*
X155950807Y-100520607D01*
X155950802Y-100520605D01*
X155805001Y-100489615D01*
X155765646Y-100481250D01*
X155576354Y-100481250D01*
X155543897Y-100488148D01*
X155391197Y-100520605D01*
X155391192Y-100520607D01*
X155218270Y-100597598D01*
X155218265Y-100597601D01*
X155065129Y-100708861D01*
X154938466Y-100849535D01*
X154843821Y-101013465D01*
X154843818Y-101013472D01*
X154785327Y-101193490D01*
X154785326Y-101193494D01*
X154765540Y-101381750D01*
X154785326Y-101570006D01*
X154785327Y-101570009D01*
X154843818Y-101750027D01*
X154843822Y-101750037D01*
X154849795Y-101760381D01*
X154866269Y-101828281D01*
X154843417Y-101894308D01*
X154830090Y-101910063D01*
X153824098Y-102916057D01*
X153762775Y-102949542D01*
X153736417Y-102952376D01*
X143116121Y-102952376D01*
X143049082Y-102932691D01*
X143003327Y-102879887D01*
X142998190Y-102866694D01*
X142973181Y-102789723D01*
X142973178Y-102789717D01*
X142878533Y-102625786D01*
X142751871Y-102485114D01*
X142751870Y-102485113D01*
X142598734Y-102373853D01*
X142598729Y-102373850D01*
X142425807Y-102296859D01*
X142425802Y-102296857D01*
X142280001Y-102265867D01*
X142240646Y-102257502D01*
X142051354Y-102257502D01*
X142018897Y-102264400D01*
X141866197Y-102296857D01*
X141866192Y-102296859D01*
X141693270Y-102373850D01*
X141693265Y-102373853D01*
X141540129Y-102485113D01*
X141413466Y-102625787D01*
X141318821Y-102789717D01*
X141318818Y-102789724D01*
X141265970Y-102952376D01*
X141260326Y-102969746D01*
X141240540Y-103158002D01*
X141260326Y-103346258D01*
X141260327Y-103346261D01*
X141318818Y-103526279D01*
X141318821Y-103526286D01*
X141394794Y-103657876D01*
X141411267Y-103725777D01*
X141394794Y-103781876D01*
X141318821Y-103913465D01*
X141318818Y-103913472D01*
X141260327Y-104093490D01*
X141260326Y-104093494D01*
X141240540Y-104281750D01*
X141260326Y-104470006D01*
X141260327Y-104470009D01*
X141318818Y-104650027D01*
X141318821Y-104650034D01*
X141412220Y-104811807D01*
X141428693Y-104879708D01*
X141405840Y-104945735D01*
X141396983Y-104956779D01*
X141313466Y-105049534D01*
X141218821Y-105213465D01*
X141218818Y-105213472D01*
X141184553Y-105318931D01*
X141160326Y-105393494D01*
X141140540Y-105581750D01*
X141160326Y-105770006D01*
X141160327Y-105770009D01*
X141218818Y-105950027D01*
X141218823Y-105950039D01*
X141314165Y-106115177D01*
X141330638Y-106183077D01*
X141307785Y-106249104D01*
X141298929Y-106260147D01*
X141263470Y-106299528D01*
X141263465Y-106299535D01*
X141168821Y-106463465D01*
X141168818Y-106463472D01*
X141110327Y-106643490D01*
X141110326Y-106643494D01*
X141090540Y-106831750D01*
X141110326Y-107020006D01*
X141110327Y-107020009D01*
X141168818Y-107200027D01*
X141168821Y-107200034D01*
X141263466Y-107363965D01*
X141319811Y-107426543D01*
X141350041Y-107489535D01*
X141341415Y-107558870D01*
X141319815Y-107592482D01*
X141313472Y-107599526D01*
X141313464Y-107599537D01*
X141218821Y-107763465D01*
X141218818Y-107763472D01*
X141160327Y-107943490D01*
X141160326Y-107943494D01*
X141140540Y-108131750D01*
X141160326Y-108320006D01*
X141160327Y-108320009D01*
X141218818Y-108500027D01*
X141218823Y-108500039D01*
X141314165Y-108665177D01*
X141330638Y-108733077D01*
X141307785Y-108799104D01*
X141298929Y-108810147D01*
X141263470Y-108849528D01*
X141263465Y-108849535D01*
X141168821Y-109013465D01*
X141168818Y-109013472D01*
X141110327Y-109193490D01*
X141110326Y-109193494D01*
X141090540Y-109381750D01*
X141110326Y-109570006D01*
X141110327Y-109570009D01*
X141168818Y-109750027D01*
X141168821Y-109750034D01*
X141263467Y-109913966D01*
X141279974Y-109932299D01*
X141294812Y-109948779D01*
X141325041Y-110011771D01*
X141316415Y-110081106D01*
X141294812Y-110114721D01*
X141263466Y-110149535D01*
X141168821Y-110313465D01*
X141168818Y-110313472D01*
X141136946Y-110411566D01*
X141110326Y-110493494D01*
X141090540Y-110681750D01*
X141110326Y-110870006D01*
X141110327Y-110870009D01*
X141168818Y-111050027D01*
X141168821Y-111050034D01*
X141263467Y-111213966D01*
X141267683Y-111218648D01*
X141272304Y-111223781D01*
X141302531Y-111286773D01*
X141293904Y-111356108D01*
X141272304Y-111389719D01*
X141263466Y-111399535D01*
X141168821Y-111563465D01*
X141168818Y-111563472D01*
X141126573Y-111693490D01*
X141110326Y-111743494D01*
X141090540Y-111931750D01*
X141110326Y-112120006D01*
X141110327Y-112120009D01*
X141168818Y-112300027D01*
X141168821Y-112300034D01*
X141263467Y-112463966D01*
X141269096Y-112470217D01*
X141272304Y-112473781D01*
X141302531Y-112536773D01*
X141293904Y-112606108D01*
X141272304Y-112639719D01*
X141263466Y-112649535D01*
X141168821Y-112813465D01*
X141168818Y-112813472D01*
X141110327Y-112993490D01*
X141110326Y-112993494D01*
X141090540Y-113181750D01*
X141110326Y-113370006D01*
X141110327Y-113370009D01*
X141168818Y-113550027D01*
X141168821Y-113550034D01*
X141263467Y-113713966D01*
X141385533Y-113849534D01*
X141390129Y-113854638D01*
X141543265Y-113965898D01*
X141543270Y-113965901D01*
X141716192Y-114042892D01*
X141716197Y-114042894D01*
X141901354Y-114082250D01*
X141901355Y-114082250D01*
X142090644Y-114082250D01*
X142090646Y-114082250D01*
X142275803Y-114042894D01*
X142316921Y-114024586D01*
X142331781Y-114017971D01*
X142382217Y-114007250D01*
X160080913Y-114007250D01*
X160147952Y-114026935D01*
X160182485Y-114060123D01*
X160262505Y-114174403D01*
X160262509Y-114174407D01*
X160429597Y-114341495D01*
X160429603Y-114341500D01*
X160615594Y-114471732D01*
X160659219Y-114526309D01*
X160666413Y-114595807D01*
X160634890Y-114658162D01*
X160615595Y-114674882D01*
X160429922Y-114804892D01*
X160429920Y-114804893D01*
X160262891Y-114971922D01*
X160262886Y-114971928D01*
X160127400Y-115165422D01*
X160127399Y-115165424D01*
X160027570Y-115379509D01*
X160027567Y-115379515D01*
X159970364Y-115593001D01*
X159970364Y-115593002D01*
X160867314Y-115593002D01*
X160841507Y-115633158D01*
X160801000Y-115771113D01*
X160801000Y-115914891D01*
X160841507Y-116052846D01*
X160867314Y-116093002D01*
X159970364Y-116093002D01*
X160027567Y-116306488D01*
X160027570Y-116306494D01*
X160127399Y-116520580D01*
X160262894Y-116714084D01*
X160384946Y-116836136D01*
X160418431Y-116897459D01*
X160413447Y-116967151D01*
X160371575Y-117023084D01*
X160340598Y-117039999D01*
X160208671Y-117089204D01*
X160208664Y-117089208D01*
X160093455Y-117175454D01*
X160093452Y-117175457D01*
X160007206Y-117290666D01*
X160007202Y-117290673D01*
X159956908Y-117425519D01*
X159950501Y-117485118D01*
X159950501Y-117485125D01*
X159950500Y-117485137D01*
X159950500Y-119280872D01*
X159950501Y-119280878D01*
X159956908Y-119340485D01*
X160007202Y-119475330D01*
X160007206Y-119475337D01*
X160093452Y-119590546D01*
X160093455Y-119590549D01*
X160208664Y-119676795D01*
X160208671Y-119676799D01*
X160343517Y-119727093D01*
X160343516Y-119727093D01*
X160350444Y-119727837D01*
X160403127Y-119733502D01*
X162198872Y-119733501D01*
X162258483Y-119727093D01*
X162393331Y-119676798D01*
X162508546Y-119590548D01*
X162594796Y-119475333D01*
X162645091Y-119340485D01*
X162651500Y-119280875D01*
X162651499Y-117485130D01*
X162645343Y-117427859D01*
X162645091Y-117425518D01*
X162594797Y-117290673D01*
X162594793Y-117290666D01*
X162508547Y-117175457D01*
X162508544Y-117175454D01*
X162393335Y-117089208D01*
X162393328Y-117089204D01*
X162261401Y-117039999D01*
X162205467Y-116998128D01*
X162181050Y-116932664D01*
X162195902Y-116864391D01*
X162217053Y-116836135D01*
X162339108Y-116714080D01*
X162474600Y-116520580D01*
X162574429Y-116306494D01*
X162574432Y-116306488D01*
X162631636Y-116093002D01*
X161734686Y-116093002D01*
X161760493Y-116052846D01*
X161801000Y-115914891D01*
X161801000Y-115771113D01*
X161760493Y-115633158D01*
X161734686Y-115593002D01*
X162631636Y-115593002D01*
X162631635Y-115593001D01*
X162574432Y-115379515D01*
X162574429Y-115379509D01*
X162474600Y-115165424D01*
X162474599Y-115165422D01*
X162339113Y-114971928D01*
X162339108Y-114971922D01*
X162172078Y-114804892D01*
X161986405Y-114674881D01*
X161942780Y-114620304D01*
X161935588Y-114550806D01*
X161967110Y-114488451D01*
X161986406Y-114471732D01*
X162172401Y-114341497D01*
X162339495Y-114174403D01*
X162475035Y-113980832D01*
X162574903Y-113766665D01*
X162636063Y-113538410D01*
X162656659Y-113303002D01*
X162656610Y-113302447D01*
X162648426Y-113208900D01*
X162636063Y-113067594D01*
X162574903Y-112839339D01*
X162475035Y-112625173D01*
X162457083Y-112599534D01*
X162339494Y-112431599D01*
X162172402Y-112264508D01*
X162172396Y-112264503D01*
X161986842Y-112134577D01*
X161943217Y-112080000D01*
X161936023Y-112010502D01*
X161967546Y-111948147D01*
X161986842Y-111931427D01*
X162057788Y-111881750D01*
X162172401Y-111801497D01*
X162339495Y-111634403D01*
X162475035Y-111440832D01*
X162574903Y-111226665D01*
X162636063Y-110998410D01*
X162656659Y-110763002D01*
X162636063Y-110527594D01*
X162574903Y-110299339D01*
X162475035Y-110085173D01*
X162474652Y-110084625D01*
X162339494Y-109891599D01*
X162172402Y-109724508D01*
X162172396Y-109724503D01*
X161986842Y-109594577D01*
X161943217Y-109540000D01*
X161936023Y-109470502D01*
X161967546Y-109408147D01*
X161986842Y-109391427D01*
X162108487Y-109306250D01*
X162172401Y-109261497D01*
X162339495Y-109094403D01*
X162475035Y-108900832D01*
X162574903Y-108686665D01*
X162636063Y-108458410D01*
X162656659Y-108223002D01*
X162656610Y-108222447D01*
X162646895Y-108111399D01*
X162636063Y-107987594D01*
X162589626Y-107814287D01*
X162574905Y-107759346D01*
X162574904Y-107759345D01*
X162574903Y-107759339D01*
X162475035Y-107545173D01*
X162474652Y-107544625D01*
X162339494Y-107351599D01*
X162172402Y-107184508D01*
X162172396Y-107184503D01*
X161986842Y-107054577D01*
X161943217Y-107000000D01*
X161936023Y-106930502D01*
X161967546Y-106868147D01*
X161986842Y-106851427D01*
X162069500Y-106793549D01*
X162172401Y-106721497D01*
X162339495Y-106554403D01*
X162475035Y-106360832D01*
X162574903Y-106146665D01*
X162636063Y-105918410D01*
X162656659Y-105683002D01*
X162656610Y-105682447D01*
X162647800Y-105581750D01*
X162636063Y-105447594D01*
X162574903Y-105219339D01*
X162475035Y-105005173D01*
X162441582Y-104957396D01*
X162339494Y-104811599D01*
X162172402Y-104644508D01*
X162172396Y-104644503D01*
X161986842Y-104514577D01*
X161943217Y-104460000D01*
X161936023Y-104390502D01*
X161967546Y-104328147D01*
X161986842Y-104311427D01*
X162029225Y-104281750D01*
X162172401Y-104181497D01*
X162339495Y-104014403D01*
X162475035Y-103820832D01*
X162574903Y-103606665D01*
X162636063Y-103378410D01*
X162656659Y-103143002D01*
X162656610Y-103142447D01*
X162648426Y-103048900D01*
X162636063Y-102907594D01*
X162574903Y-102679339D01*
X162475035Y-102465173D01*
X162411093Y-102373853D01*
X162339494Y-102271599D01*
X162172402Y-102104508D01*
X162172396Y-102104503D01*
X161986842Y-101974577D01*
X161943217Y-101920000D01*
X161936023Y-101850502D01*
X161967546Y-101788147D01*
X161986842Y-101771427D01*
X162017404Y-101750027D01*
X162172401Y-101641497D01*
X162339495Y-101474403D01*
X162475035Y-101280832D01*
X162574903Y-101066665D01*
X162636063Y-100838410D01*
X162656659Y-100603002D01*
X162656610Y-100602447D01*
X162647027Y-100492911D01*
X162636063Y-100367594D01*
X162583120Y-100170006D01*
X162574905Y-100139346D01*
X162574904Y-100139345D01*
X162574903Y-100139339D01*
X162475035Y-99925173D01*
X162462498Y-99907267D01*
X162339494Y-99731599D01*
X162172402Y-99564508D01*
X162172396Y-99564503D01*
X161986842Y-99434577D01*
X161943217Y-99380000D01*
X161936023Y-99310502D01*
X161967546Y-99248147D01*
X161986842Y-99231427D01*
X162034315Y-99198186D01*
X162172401Y-99101497D01*
X162339495Y-98934403D01*
X162475035Y-98740832D01*
X162574903Y-98526665D01*
X162636063Y-98298410D01*
X162656659Y-98063002D01*
X162656610Y-98062447D01*
X162650760Y-97995574D01*
X162636063Y-97827594D01*
X162574903Y-97599339D01*
X162475035Y-97385173D01*
X162339495Y-97191601D01*
X162339494Y-97191599D01*
X162172402Y-97024508D01*
X162172396Y-97024503D01*
X161986842Y-96894577D01*
X161943217Y-96840000D01*
X161936023Y-96770502D01*
X161967546Y-96708147D01*
X161986842Y-96691427D01*
X162053936Y-96644447D01*
X162172401Y-96561497D01*
X162339495Y-96394403D01*
X162475035Y-96200832D01*
X162574903Y-95986665D01*
X162636063Y-95758410D01*
X162656659Y-95523002D01*
X162656610Y-95522447D01*
X162650760Y-95455574D01*
X162636063Y-95287594D01*
X162574903Y-95059339D01*
X162475035Y-94845173D01*
X162407895Y-94749286D01*
X162339494Y-94651599D01*
X162172402Y-94484508D01*
X162172396Y-94484503D01*
X161986842Y-94354577D01*
X161943217Y-94300000D01*
X161936023Y-94230502D01*
X161967546Y-94168147D01*
X161986842Y-94151427D01*
X162009026Y-94135893D01*
X162172401Y-94021497D01*
X162339495Y-93854403D01*
X162475035Y-93660832D01*
X162574903Y-93446665D01*
X162636063Y-93218410D01*
X162656659Y-92983002D01*
X162656610Y-92982447D01*
X162650760Y-92915574D01*
X162636063Y-92747594D01*
X162574903Y-92519339D01*
X162475035Y-92305173D01*
X162358682Y-92139002D01*
X162339494Y-92111599D01*
X162172402Y-91944508D01*
X162172396Y-91944503D01*
X161986842Y-91814577D01*
X161943217Y-91760000D01*
X161936023Y-91690502D01*
X161967546Y-91628147D01*
X161986842Y-91611427D01*
X162009026Y-91595893D01*
X162172401Y-91481497D01*
X162339495Y-91314403D01*
X162475035Y-91120832D01*
X162574903Y-90906665D01*
X162636063Y-90678410D01*
X162656659Y-90443002D01*
X162636063Y-90207594D01*
X162574903Y-89979339D01*
X162475035Y-89765173D01*
X162376288Y-89624146D01*
X162339494Y-89571599D01*
X162172402Y-89404508D01*
X162172401Y-89404507D01*
X161986405Y-89274271D01*
X161942781Y-89219694D01*
X161935588Y-89150195D01*
X161967110Y-89087841D01*
X161986405Y-89071121D01*
X162172082Y-88941107D01*
X162339105Y-88774084D01*
X162474600Y-88580580D01*
X162574429Y-88366494D01*
X162574432Y-88366488D01*
X162631636Y-88153002D01*
X161734686Y-88153002D01*
X161760493Y-88112846D01*
X161801000Y-87974891D01*
X161801000Y-87831113D01*
X161760493Y-87693158D01*
X161734686Y-87653002D01*
X162631636Y-87653002D01*
X162631635Y-87653001D01*
X162574432Y-87439515D01*
X162574429Y-87439509D01*
X162474600Y-87225424D01*
X162474599Y-87225422D01*
X162339113Y-87031928D01*
X162339108Y-87031922D01*
X162172078Y-86864892D01*
X161986405Y-86734881D01*
X161942780Y-86680304D01*
X161935588Y-86610806D01*
X161967110Y-86548451D01*
X161986406Y-86531732D01*
X162172401Y-86401497D01*
X162339495Y-86234403D01*
X162475035Y-86040832D01*
X162574903Y-85826665D01*
X162636063Y-85598410D01*
X162656659Y-85363002D01*
X162636063Y-85127594D01*
X162574903Y-84899339D01*
X162475035Y-84685173D01*
X162460185Y-84663964D01*
X162339494Y-84491599D01*
X162172402Y-84324508D01*
X162172395Y-84324503D01*
X161978834Y-84188969D01*
X161978830Y-84188967D01*
X161896953Y-84150787D01*
X161764663Y-84089099D01*
X161764659Y-84089098D01*
X161764655Y-84089096D01*
X161536413Y-84027940D01*
X161536403Y-84027938D01*
X161301001Y-84007343D01*
X161300999Y-84007343D01*
X161065596Y-84027938D01*
X161065586Y-84027940D01*
X160837344Y-84089096D01*
X160837335Y-84089100D01*
X160623171Y-84188966D01*
X160623169Y-84188967D01*
X160429597Y-84324507D01*
X160262505Y-84491599D01*
X160126965Y-84685171D01*
X160126964Y-84685173D01*
X160027098Y-84899337D01*
X160027094Y-84899346D01*
X159965938Y-85127588D01*
X159965936Y-85127598D01*
X159945341Y-85363001D01*
X159945341Y-85363002D01*
X159965937Y-85598411D01*
X159965937Y-85598412D01*
X159970442Y-85615227D01*
X159968776Y-85685077D01*
X159938347Y-85734996D01*
X159028414Y-86644931D01*
X158967091Y-86678416D01*
X158940733Y-86681250D01*
X148822393Y-86681250D01*
X148755354Y-86661565D01*
X148709599Y-86608761D01*
X148699655Y-86539603D01*
X148728680Y-86476047D01*
X148734712Y-86469569D01*
X148969884Y-86234397D01*
X150144847Y-85059432D01*
X150206168Y-85025949D01*
X150206584Y-85025859D01*
X150361677Y-84992894D01*
X150534604Y-84915901D01*
X150602923Y-84866263D01*
X150668730Y-84842784D01*
X150675809Y-84842582D01*
X152823324Y-84842582D01*
X152890363Y-84862267D01*
X152896209Y-84866264D01*
X152978745Y-84926230D01*
X152978750Y-84926233D01*
X153151672Y-85003224D01*
X153151677Y-85003226D01*
X153336834Y-85042582D01*
X153336835Y-85042582D01*
X153526124Y-85042582D01*
X153526126Y-85042582D01*
X153711283Y-85003226D01*
X153884210Y-84926233D01*
X153966751Y-84866264D01*
X153980972Y-84855932D01*
X154046778Y-84832452D01*
X154053857Y-84832250D01*
X154837844Y-84832250D01*
X154904883Y-84851935D01*
X154910729Y-84855932D01*
X154993265Y-84915898D01*
X154993270Y-84915901D01*
X155166192Y-84992892D01*
X155166197Y-84992894D01*
X155351354Y-85032250D01*
X155351355Y-85032250D01*
X155540644Y-85032250D01*
X155540646Y-85032250D01*
X155725803Y-84992894D01*
X155898730Y-84915901D01*
X156051871Y-84804638D01*
X156178533Y-84663966D01*
X156273179Y-84500034D01*
X156331674Y-84320006D01*
X156351460Y-84131750D01*
X156331674Y-83943494D01*
X156273179Y-83763466D01*
X156178533Y-83599534D01*
X156051871Y-83458862D01*
X156051870Y-83458861D01*
X155898734Y-83347601D01*
X155898729Y-83347598D01*
X155725807Y-83270607D01*
X155725802Y-83270605D01*
X155580001Y-83239615D01*
X155540646Y-83231250D01*
X155351354Y-83231250D01*
X155318897Y-83238148D01*
X155166197Y-83270605D01*
X155166192Y-83270607D01*
X154993270Y-83347598D01*
X154993265Y-83347601D01*
X154910729Y-83407568D01*
X154844923Y-83431048D01*
X154837844Y-83431250D01*
X154025415Y-83431250D01*
X153958376Y-83411565D01*
X153952537Y-83407573D01*
X153884210Y-83357931D01*
X153884209Y-83357930D01*
X153711287Y-83280939D01*
X153711282Y-83280937D01*
X153565481Y-83249947D01*
X153526126Y-83241582D01*
X153336834Y-83241582D01*
X153304377Y-83248480D01*
X153151677Y-83280937D01*
X153151672Y-83280939D01*
X152978750Y-83357930D01*
X152978745Y-83357933D01*
X152896209Y-83417900D01*
X152830403Y-83441380D01*
X152823324Y-83441582D01*
X150704251Y-83441582D01*
X150637212Y-83421897D01*
X150631366Y-83417900D01*
X150534608Y-83347601D01*
X150534603Y-83347598D01*
X150361681Y-83270607D01*
X150361676Y-83270605D01*
X150215875Y-83239615D01*
X150176520Y-83231250D01*
X149987228Y-83231250D01*
X149954771Y-83238148D01*
X149802071Y-83270605D01*
X149802066Y-83270607D01*
X149629144Y-83347598D01*
X149629139Y-83347601D01*
X149476003Y-83458861D01*
X149349340Y-83599535D01*
X149254695Y-83763465D01*
X149254692Y-83763472D01*
X149196201Y-83943489D01*
X149196199Y-83943500D01*
X149191008Y-83992879D01*
X149164423Y-84057493D01*
X149155369Y-84067596D01*
X147578036Y-85644931D01*
X147516713Y-85678416D01*
X147490355Y-85681250D01*
X136931348Y-85681250D01*
X136864309Y-85661565D01*
X136832394Y-85631976D01*
X136723428Y-85487681D01*
X136723426Y-85487679D01*
X136606660Y-85381233D01*
X136562432Y-85340914D01*
X136562428Y-85340911D01*
X136562423Y-85340908D01*
X136377213Y-85226231D01*
X136377207Y-85226228D01*
X136284114Y-85190164D01*
X136174069Y-85147532D01*
X135959926Y-85107502D01*
X135742074Y-85107502D01*
X135527931Y-85147532D01*
X135484896Y-85164204D01*
X135324792Y-85226228D01*
X135324786Y-85226231D01*
X135139576Y-85340908D01*
X135139566Y-85340915D01*
X134978573Y-85487678D01*
X134949953Y-85525578D01*
X134893844Y-85567213D01*
X134824132Y-85571904D01*
X134762950Y-85538161D01*
X134752047Y-85525578D01*
X134723426Y-85487678D01*
X134562433Y-85340915D01*
X134562423Y-85340908D01*
X134377213Y-85226231D01*
X134377207Y-85226228D01*
X134284114Y-85190164D01*
X134174069Y-85147532D01*
X133959926Y-85107502D01*
X133742074Y-85107502D01*
X133527931Y-85147532D01*
X133484896Y-85164204D01*
X133324792Y-85226228D01*
X133324786Y-85226231D01*
X133139565Y-85340915D01*
X133128585Y-85350925D01*
X133065780Y-85381539D01*
X132996393Y-85373338D01*
X132945785Y-85333596D01*
X132902029Y-85275146D01*
X132883546Y-85250456D01*
X132883544Y-85250455D01*
X132883544Y-85250454D01*
X132768335Y-85164208D01*
X132768328Y-85164204D01*
X132633482Y-85113910D01*
X132633483Y-85113910D01*
X132573883Y-85107503D01*
X132573881Y-85107502D01*
X132573873Y-85107502D01*
X132573864Y-85107502D01*
X131128129Y-85107502D01*
X131128123Y-85107503D01*
X131068516Y-85113910D01*
X130933671Y-85164204D01*
X130933664Y-85164208D01*
X130818455Y-85250454D01*
X130818452Y-85250457D01*
X130732206Y-85365666D01*
X130732202Y-85365673D01*
X130681908Y-85500519D01*
X130675501Y-85560118D01*
X130675500Y-85560137D01*
X130675500Y-87005872D01*
X129376500Y-87005872D01*
X129376500Y-85381689D01*
X129396185Y-85314650D01*
X129408350Y-85298717D01*
X129438514Y-85265216D01*
X129483533Y-85215218D01*
X129578179Y-85051286D01*
X129636674Y-84871258D01*
X129656460Y-84683002D01*
X129636674Y-84494746D01*
X129578179Y-84314718D01*
X129483533Y-84150786D01*
X129356871Y-84010114D01*
X129333149Y-83992879D01*
X129203734Y-83898853D01*
X129203729Y-83898850D01*
X129030807Y-83821859D01*
X129030802Y-83821857D01*
X128885001Y-83790867D01*
X128845646Y-83782502D01*
X128656354Y-83782502D01*
X128623897Y-83789400D01*
X128471197Y-83821857D01*
X128471192Y-83821859D01*
X128298270Y-83898850D01*
X128298265Y-83898853D01*
X128145129Y-84010113D01*
X128018466Y-84150787D01*
X127923821Y-84314717D01*
X127923818Y-84314724D01*
X127866348Y-84491601D01*
X127865326Y-84494746D01*
X127845540Y-84683002D01*
X127865326Y-84871258D01*
X127865327Y-84871261D01*
X127923818Y-85051279D01*
X127923821Y-85051286D01*
X128018467Y-85215218D01*
X128050194Y-85250454D01*
X128093650Y-85298717D01*
X128123880Y-85361708D01*
X128125500Y-85381689D01*
X128125500Y-94607250D01*
X128105815Y-94674289D01*
X128053011Y-94720044D01*
X128001500Y-94731250D01*
X127851354Y-94731250D01*
X127786279Y-94745081D01*
X127716612Y-94739765D01*
X127660879Y-94697627D01*
X127636775Y-94632047D01*
X127636500Y-94623791D01*
X127636500Y-85475744D01*
X127638224Y-85460124D01*
X127637939Y-85460098D01*
X127638671Y-85452342D01*
X127638673Y-85452335D01*
X127636561Y-85385128D01*
X127636500Y-85381233D01*
X127636500Y-85353656D01*
X127636500Y-85353652D01*
X127635996Y-85349667D01*
X127635080Y-85338023D01*
X127633709Y-85294375D01*
X127628122Y-85275146D01*
X127624174Y-85256086D01*
X127621663Y-85236206D01*
X127605588Y-85195606D01*
X127601804Y-85184554D01*
X127589618Y-85142611D01*
X127589616Y-85142608D01*
X127579423Y-85125373D01*
X127570861Y-85107896D01*
X127563487Y-85089271D01*
X127553929Y-85076116D01*
X127537811Y-85053932D01*
X127531405Y-85044179D01*
X127509170Y-85006582D01*
X127509168Y-85006580D01*
X127509165Y-85006576D01*
X127495006Y-84992417D01*
X127482368Y-84977621D01*
X127470594Y-84961415D01*
X127436940Y-84933574D01*
X127428299Y-84925711D01*
X127345170Y-84842582D01*
X127289959Y-84787370D01*
X127256475Y-84726049D01*
X127254323Y-84712673D01*
X127236674Y-84544746D01*
X127178179Y-84364718D01*
X127083533Y-84200786D01*
X126956871Y-84060114D01*
X126956870Y-84060113D01*
X126803734Y-83948853D01*
X126803729Y-83948850D01*
X126630807Y-83871859D01*
X126630802Y-83871857D01*
X126485001Y-83840867D01*
X126445646Y-83832502D01*
X126256354Y-83832502D01*
X126223897Y-83839400D01*
X126071197Y-83871857D01*
X126071192Y-83871859D01*
X125898270Y-83948850D01*
X125898265Y-83948853D01*
X125745129Y-84060113D01*
X125618466Y-84200787D01*
X125523821Y-84364717D01*
X125523818Y-84364724D01*
X125465327Y-84544742D01*
X125465326Y-84544746D01*
X125445540Y-84733002D01*
X117497338Y-84733002D01*
X117475035Y-84685173D01*
X117460185Y-84663964D01*
X117339494Y-84491599D01*
X117172402Y-84324508D01*
X117172395Y-84324503D01*
X116978834Y-84188969D01*
X116978830Y-84188967D01*
X116896953Y-84150787D01*
X116764663Y-84089099D01*
X116764659Y-84089098D01*
X116764655Y-84089096D01*
X116536413Y-84027940D01*
X116536403Y-84027938D01*
X116301001Y-84007343D01*
X116300999Y-84007343D01*
X116065596Y-84027938D01*
X116065586Y-84027940D01*
X115837344Y-84089096D01*
X115837335Y-84089100D01*
X115623171Y-84188966D01*
X115623169Y-84188967D01*
X115429597Y-84324507D01*
X115262505Y-84491599D01*
X115126965Y-84685171D01*
X115126964Y-84685173D01*
X115027098Y-84899337D01*
X115027094Y-84899346D01*
X114965938Y-85127588D01*
X114965936Y-85127598D01*
X114945341Y-85363001D01*
X114945341Y-85363002D01*
X114965936Y-85598405D01*
X114965938Y-85598415D01*
X115027094Y-85826657D01*
X115027096Y-85826661D01*
X115027097Y-85826665D01*
X115126965Y-86040832D01*
X115126967Y-86040836D01*
X115262501Y-86234397D01*
X115262506Y-86234404D01*
X115429597Y-86401495D01*
X115429603Y-86401500D01*
X115615594Y-86531732D01*
X115659219Y-86586309D01*
X115666413Y-86655807D01*
X115634890Y-86718162D01*
X115615595Y-86734882D01*
X115429922Y-86864892D01*
X115429920Y-86864893D01*
X115262891Y-87031922D01*
X115262886Y-87031928D01*
X115127400Y-87225422D01*
X115127399Y-87225424D01*
X115027570Y-87439509D01*
X115027567Y-87439515D01*
X114970364Y-87653001D01*
X114970364Y-87653002D01*
X115867314Y-87653002D01*
X115841507Y-87693158D01*
X115801000Y-87831113D01*
X115801000Y-87974891D01*
X115841507Y-88112846D01*
X115867314Y-88153002D01*
X114970364Y-88153002D01*
X115027567Y-88366488D01*
X115027570Y-88366494D01*
X115127399Y-88580580D01*
X115262894Y-88774084D01*
X115429917Y-88941107D01*
X115615595Y-89071121D01*
X115659219Y-89125698D01*
X115666412Y-89195197D01*
X115634890Y-89257551D01*
X115615595Y-89274271D01*
X115429594Y-89404510D01*
X115262505Y-89571599D01*
X115126965Y-89765171D01*
X115126964Y-89765173D01*
X115027098Y-89979337D01*
X115027094Y-89979346D01*
X114965938Y-90207588D01*
X114965936Y-90207598D01*
X114945341Y-90443001D01*
X114945341Y-90443002D01*
X114965936Y-90678405D01*
X114965938Y-90678415D01*
X115027094Y-90906657D01*
X115027096Y-90906661D01*
X115027097Y-90906665D01*
X115126965Y-91120832D01*
X115126967Y-91120836D01*
X115162477Y-91171549D01*
X115246537Y-91291599D01*
X115262501Y-91314397D01*
X115262506Y-91314404D01*
X115429597Y-91481495D01*
X115429603Y-91481500D01*
X115615158Y-91611427D01*
X115658783Y-91666004D01*
X115665977Y-91735502D01*
X115634454Y-91797857D01*
X115615158Y-91814577D01*
X115429597Y-91944507D01*
X115262505Y-92111599D01*
X115126965Y-92305171D01*
X115126964Y-92305173D01*
X115027098Y-92519337D01*
X115027094Y-92519346D01*
X114965938Y-92747588D01*
X114965936Y-92747598D01*
X114945341Y-92983001D01*
X114945341Y-92983002D01*
X114965936Y-93218405D01*
X114965938Y-93218415D01*
X115027094Y-93446657D01*
X115027096Y-93446661D01*
X115027097Y-93446665D01*
X115126965Y-93660832D01*
X115126967Y-93660836D01*
X115262501Y-93854397D01*
X115262506Y-93854404D01*
X115429597Y-94021495D01*
X115429603Y-94021500D01*
X115615158Y-94151427D01*
X115658783Y-94206004D01*
X115665977Y-94275502D01*
X115634454Y-94337857D01*
X115615158Y-94354577D01*
X115429597Y-94484507D01*
X115262505Y-94651599D01*
X115126965Y-94845171D01*
X115126964Y-94845173D01*
X115027098Y-95059337D01*
X115027094Y-95059346D01*
X114965938Y-95287588D01*
X114965936Y-95287598D01*
X114945341Y-95523001D01*
X114945341Y-95523002D01*
X114965936Y-95758405D01*
X114965938Y-95758415D01*
X115027094Y-95986657D01*
X115027096Y-95986661D01*
X115027097Y-95986665D01*
X115117877Y-96181343D01*
X115126965Y-96200832D01*
X115126967Y-96200836D01*
X115192624Y-96294603D01*
X115255345Y-96384178D01*
X115262501Y-96394397D01*
X115262506Y-96394404D01*
X115429597Y-96561495D01*
X115429603Y-96561500D01*
X115615158Y-96691427D01*
X115658783Y-96746004D01*
X115665977Y-96815502D01*
X115634454Y-96877857D01*
X115615158Y-96894577D01*
X115429597Y-97024507D01*
X115262505Y-97191599D01*
X115126965Y-97385171D01*
X115126964Y-97385173D01*
X115027098Y-97599337D01*
X115027094Y-97599346D01*
X114965938Y-97827588D01*
X114965936Y-97827598D01*
X114945341Y-98063001D01*
X114945341Y-98063002D01*
X114965936Y-98298405D01*
X114965938Y-98298415D01*
X115027094Y-98526657D01*
X115027096Y-98526661D01*
X115027097Y-98526665D01*
X115111305Y-98707250D01*
X115126965Y-98740832D01*
X115126967Y-98740836D01*
X115199351Y-98844210D01*
X115262504Y-98934402D01*
X115262506Y-98934404D01*
X115429597Y-99101495D01*
X115429603Y-99101500D01*
X115615158Y-99231427D01*
X115658783Y-99286004D01*
X115665977Y-99355502D01*
X115634454Y-99417857D01*
X115615158Y-99434577D01*
X115429597Y-99564507D01*
X115262505Y-99731599D01*
X115126965Y-99925171D01*
X115126964Y-99925173D01*
X115027098Y-100139337D01*
X115027094Y-100139346D01*
X114965938Y-100367588D01*
X114965936Y-100367598D01*
X114945341Y-100603001D01*
X114945341Y-100603002D01*
X114965936Y-100838405D01*
X114965938Y-100838415D01*
X115027094Y-101066657D01*
X115027096Y-101066661D01*
X115027097Y-101066665D01*
X115086237Y-101193490D01*
X115126965Y-101280832D01*
X115126967Y-101280836D01*
X115262501Y-101474397D01*
X115262506Y-101474404D01*
X115429597Y-101641495D01*
X115429603Y-101641500D01*
X115615158Y-101771427D01*
X115658783Y-101826004D01*
X115665977Y-101895502D01*
X115634454Y-101957857D01*
X115615158Y-101974577D01*
X115429597Y-102104507D01*
X115262505Y-102271599D01*
X115126965Y-102465171D01*
X115126964Y-102465173D01*
X115027098Y-102679337D01*
X115027094Y-102679346D01*
X114965938Y-102907588D01*
X114965936Y-102907598D01*
X114945341Y-103143001D01*
X114945341Y-103143002D01*
X114965936Y-103378405D01*
X114965938Y-103378415D01*
X115027094Y-103606657D01*
X115027096Y-103606661D01*
X115027097Y-103606665D01*
X115126545Y-103819931D01*
X115126965Y-103820832D01*
X115126967Y-103820836D01*
X115262501Y-104014397D01*
X115262506Y-104014404D01*
X115429597Y-104181495D01*
X115429603Y-104181500D01*
X115615158Y-104311427D01*
X115658783Y-104366004D01*
X115665977Y-104435502D01*
X115634454Y-104497857D01*
X115615158Y-104514577D01*
X115429597Y-104644507D01*
X115262505Y-104811599D01*
X115126965Y-105005171D01*
X115126964Y-105005173D01*
X115027098Y-105219337D01*
X115027094Y-105219346D01*
X114965938Y-105447588D01*
X114965936Y-105447598D01*
X114945341Y-105683001D01*
X114945341Y-105683002D01*
X114965936Y-105918405D01*
X114965938Y-105918415D01*
X115027094Y-106146657D01*
X115027096Y-106146661D01*
X115027097Y-106146665D01*
X115098381Y-106299534D01*
X115126965Y-106360832D01*
X115126967Y-106360836D01*
X115180650Y-106437502D01*
X115262501Y-106554398D01*
X115262506Y-106554404D01*
X115429597Y-106721495D01*
X115429603Y-106721500D01*
X115615158Y-106851427D01*
X115658783Y-106906004D01*
X115665977Y-106975502D01*
X115634454Y-107037857D01*
X115615158Y-107054577D01*
X115429597Y-107184507D01*
X115262505Y-107351599D01*
X115126965Y-107545171D01*
X115126964Y-107545173D01*
X115027098Y-107759337D01*
X115027094Y-107759346D01*
X114965938Y-107987588D01*
X114965936Y-107987598D01*
X114945341Y-108223001D01*
X114945341Y-108223002D01*
X114965936Y-108458405D01*
X114965938Y-108458415D01*
X115027094Y-108686657D01*
X115027096Y-108686661D01*
X115027097Y-108686665D01*
X115103044Y-108849534D01*
X115126965Y-108900832D01*
X115126967Y-108900836D01*
X115205832Y-109013466D01*
X115262501Y-109094398D01*
X115262506Y-109094404D01*
X115429597Y-109261495D01*
X115429603Y-109261500D01*
X115615158Y-109391427D01*
X115658783Y-109446004D01*
X115665977Y-109515502D01*
X115634454Y-109577857D01*
X115615158Y-109594577D01*
X115429597Y-109724507D01*
X115262505Y-109891599D01*
X115126965Y-110085171D01*
X115126964Y-110085173D01*
X115027098Y-110299337D01*
X115027094Y-110299346D01*
X114965938Y-110527588D01*
X114965936Y-110527598D01*
X114945341Y-110763001D01*
X114945341Y-110763002D01*
X114965936Y-110998405D01*
X114965938Y-110998415D01*
X115027094Y-111226657D01*
X115027096Y-111226661D01*
X115027097Y-111226665D01*
X115102563Y-111388502D01*
X115126965Y-111440832D01*
X115126967Y-111440836D01*
X115235281Y-111595523D01*
X115262501Y-111634398D01*
X115262506Y-111634404D01*
X115429597Y-111801495D01*
X115429603Y-111801500D01*
X115615158Y-111931427D01*
X115658783Y-111986004D01*
X115665977Y-112055502D01*
X115634454Y-112117857D01*
X115615158Y-112134577D01*
X115429597Y-112264507D01*
X115262505Y-112431599D01*
X115126965Y-112625171D01*
X115126964Y-112625173D01*
X115027098Y-112839337D01*
X115027094Y-112839346D01*
X114965938Y-113067588D01*
X114965936Y-113067598D01*
X114945341Y-113303001D01*
X114945341Y-113303002D01*
X111301500Y-113303002D01*
X111301500Y-79383004D01*
X112996153Y-79383004D01*
X113015526Y-79740316D01*
X113015527Y-79740333D01*
X113073415Y-80093433D01*
X113073421Y-80093459D01*
X113169147Y-80438234D01*
X113169149Y-80438241D01*
X113301597Y-80770661D01*
X113301606Y-80770679D01*
X113469218Y-81086829D01*
X113670024Y-81382996D01*
X113670035Y-81383010D01*
X113797441Y-81533004D01*
X113797442Y-81533004D01*
X115003265Y-80327181D01*
X115166130Y-80517872D01*
X115356819Y-80680735D01*
X114148257Y-81889296D01*
X114161495Y-81901838D01*
X114446367Y-82118390D01*
X114446370Y-82118392D01*
X114752990Y-82302878D01*
X115077739Y-82453124D01*
X115077744Y-82453125D01*
X115416855Y-82567385D01*
X115766339Y-82644313D01*
X116122075Y-82683001D01*
X116122085Y-82683002D01*
X116479915Y-82683002D01*
X116479924Y-82683001D01*
X116835660Y-82644313D01*
X117185144Y-82567385D01*
X117524255Y-82453125D01*
X117524260Y-82453124D01*
X117751547Y-82347969D01*
X139572500Y-82347969D01*
X139587936Y-82524405D01*
X139587938Y-82524415D01*
X139649094Y-82752657D01*
X139649096Y-82752661D01*
X139649097Y-82752665D01*
X139677629Y-82813852D01*
X139748964Y-82966830D01*
X139748965Y-82966832D01*
X139884505Y-83160404D01*
X139994707Y-83270605D01*
X140051599Y-83327497D01*
X140095066Y-83357933D01*
X140245165Y-83463034D01*
X140245167Y-83463035D01*
X140245170Y-83463037D01*
X140459337Y-83562905D01*
X140687592Y-83624065D01*
X140864034Y-83639502D01*
X140922999Y-83644661D01*
X140923000Y-83644661D01*
X140923001Y-83644661D01*
X140981966Y-83639502D01*
X141158408Y-83624065D01*
X141386663Y-83562905D01*
X141600829Y-83463037D01*
X141794401Y-83327497D01*
X141941602Y-83180295D01*
X142002924Y-83146812D01*
X142072615Y-83151796D01*
X142128549Y-83193667D01*
X142134821Y-83202881D01*
X142138186Y-83208336D01*
X142230288Y-83357658D01*
X142354344Y-83481714D01*
X142503666Y-83573816D01*
X142670203Y-83629001D01*
X142772991Y-83639502D01*
X144073008Y-83639501D01*
X144175797Y-83629001D01*
X144342334Y-83573816D01*
X144491656Y-83481714D01*
X144615712Y-83357658D01*
X144707814Y-83208336D01*
X144762999Y-83041799D01*
X144773500Y-82939011D01*
X144773499Y-82069715D01*
X147103000Y-82069715D01*
X147118418Y-82221340D01*
X147179299Y-82415383D01*
X147179304Y-82415393D01*
X147278005Y-82593217D01*
X147278005Y-82593218D01*
X147410478Y-82747532D01*
X147410479Y-82747533D01*
X147571304Y-82872020D01*
X147753907Y-82961591D01*
X147853000Y-82987246D01*
X147853000Y-82185112D01*
X147877457Y-82224612D01*
X147966962Y-82292203D01*
X148074840Y-82322897D01*
X148186521Y-82312548D01*
X148286922Y-82262554D01*
X148353000Y-82190071D01*
X148353000Y-82992367D01*
X148354944Y-82992071D01*
X148354945Y-82992071D01*
X148545660Y-82921438D01*
X148545664Y-82921436D01*
X148718267Y-82813852D01*
X148865668Y-82673737D01*
X148865669Y-82673735D01*
X148981856Y-82506806D01*
X149062059Y-82319909D01*
X149103000Y-82120692D01*
X149103000Y-81573715D01*
X149122685Y-81506676D01*
X149175489Y-81460921D01*
X149244647Y-81450977D01*
X149274450Y-81459153D01*
X149381720Y-81503586D01*
X149438370Y-81511044D01*
X149495019Y-81518502D01*
X149495020Y-81518502D01*
X149570981Y-81518502D01*
X149608746Y-81513530D01*
X149684280Y-81503586D01*
X149825250Y-81445194D01*
X149946304Y-81352306D01*
X150039192Y-81231252D01*
X150097584Y-81090282D01*
X150117500Y-80939003D01*
X154728500Y-80939003D01*
X154748415Y-81090280D01*
X154748416Y-81090282D01*
X154806806Y-81231249D01*
X154806807Y-81231251D01*
X154806808Y-81231252D01*
X154899696Y-81352306D01*
X155020750Y-81445194D01*
X155020751Y-81445194D01*
X155020752Y-81445195D01*
X155052686Y-81458422D01*
X155161720Y-81503586D01*
X155218370Y-81511044D01*
X155275019Y-81518502D01*
X155275020Y-81518502D01*
X155350981Y-81518502D01*
X155388746Y-81513530D01*
X155464280Y-81503586D01*
X155571548Y-81459153D01*
X155641016Y-81451685D01*
X155703496Y-81482960D01*
X155739148Y-81543049D01*
X155743000Y-81573715D01*
X155743000Y-82069715D01*
X155758418Y-82221340D01*
X155819299Y-82415383D01*
X155819304Y-82415393D01*
X155918005Y-82593217D01*
X155918005Y-82593218D01*
X156050478Y-82747532D01*
X156050479Y-82747533D01*
X156211304Y-82872020D01*
X156393907Y-82961591D01*
X156493000Y-82987246D01*
X156493000Y-82185112D01*
X156517457Y-82224612D01*
X156606962Y-82292203D01*
X156714840Y-82322897D01*
X156826521Y-82312548D01*
X156926922Y-82262554D01*
X156993000Y-82190071D01*
X156993000Y-82992368D01*
X156994944Y-82992071D01*
X156994945Y-82992071D01*
X157185660Y-82921438D01*
X157185664Y-82921436D01*
X157358267Y-82813852D01*
X157505668Y-82673737D01*
X157505669Y-82673735D01*
X157621856Y-82506806D01*
X157702059Y-82319909D01*
X157743000Y-82120692D01*
X157743000Y-81719002D01*
X157043000Y-81719002D01*
X157043000Y-81219002D01*
X157743000Y-81219002D01*
X157743000Y-80868288D01*
X157727581Y-80716663D01*
X157666700Y-80522620D01*
X157666695Y-80522610D01*
X157567994Y-80344786D01*
X157567994Y-80344785D01*
X157435521Y-80190471D01*
X157435520Y-80190470D01*
X157274695Y-80065983D01*
X157092093Y-79976413D01*
X156993000Y-79950755D01*
X156993000Y-80752891D01*
X156968543Y-80713392D01*
X156879038Y-80645801D01*
X156771160Y-80615107D01*
X156659479Y-80625456D01*
X156559078Y-80675450D01*
X156493000Y-80747932D01*
X156493000Y-79945635D01*
X156491053Y-79945933D01*
X156491047Y-79945935D01*
X156300342Y-80016564D01*
X156300335Y-80016567D01*
X156127732Y-80124151D01*
X155980331Y-80264266D01*
X155980330Y-80264268D01*
X155864142Y-80431199D01*
X155864140Y-80431203D01*
X155862384Y-80435295D01*
X155817852Y-80489135D01*
X155751281Y-80510351D01*
X155683808Y-80492209D01*
X155672965Y-80484770D01*
X155605250Y-80432810D01*
X155605246Y-80432808D01*
X155464280Y-80374418D01*
X155464278Y-80374417D01*
X155350981Y-80359502D01*
X155350980Y-80359502D01*
X155275020Y-80359502D01*
X155275019Y-80359502D01*
X155161721Y-80374417D01*
X155161719Y-80374418D01*
X155020752Y-80432808D01*
X154899696Y-80525698D01*
X154806806Y-80646754D01*
X154748416Y-80787721D01*
X154748415Y-80787723D01*
X154728500Y-80939000D01*
X154728500Y-80939003D01*
X150117500Y-80939003D01*
X150117500Y-80939002D01*
X150097584Y-80787722D01*
X150051079Y-80675450D01*
X150039193Y-80646754D01*
X150039192Y-80646753D01*
X150039192Y-80646752D01*
X149946304Y-80525698D01*
X149825250Y-80432810D01*
X149825249Y-80432809D01*
X149825247Y-80432808D01*
X149684280Y-80374418D01*
X149684278Y-80374417D01*
X149570981Y-80359502D01*
X149570980Y-80359502D01*
X149495020Y-80359502D01*
X149495019Y-80359502D01*
X149381721Y-80374417D01*
X149381719Y-80374418D01*
X149240752Y-80432808D01*
X149240749Y-80432810D01*
X149169781Y-80487266D01*
X149104612Y-80512460D01*
X149036167Y-80498421D01*
X148986177Y-80449607D01*
X148985876Y-80449068D01*
X148927994Y-80344786D01*
X148927994Y-80344785D01*
X148795521Y-80190471D01*
X148795520Y-80190470D01*
X148634695Y-80065983D01*
X148452093Y-79976413D01*
X148353000Y-79950755D01*
X148353000Y-80752891D01*
X148328543Y-80713392D01*
X148239038Y-80645801D01*
X148131160Y-80615107D01*
X148019479Y-80625456D01*
X147919078Y-80675450D01*
X147853000Y-80747932D01*
X147853000Y-79945635D01*
X147851053Y-79945933D01*
X147851047Y-79945935D01*
X147660342Y-80016564D01*
X147660335Y-80016567D01*
X147487732Y-80124151D01*
X147340331Y-80264266D01*
X147340330Y-80264268D01*
X147224143Y-80431197D01*
X147143940Y-80618094D01*
X147103000Y-80817311D01*
X147103000Y-81219002D01*
X147803000Y-81219002D01*
X147803000Y-81719002D01*
X147103000Y-81719002D01*
X147103000Y-82069715D01*
X144773499Y-82069715D01*
X144773499Y-81338994D01*
X144762999Y-81236205D01*
X144707814Y-81069668D01*
X144615712Y-80920346D01*
X144491656Y-80796290D01*
X144398888Y-80739071D01*
X144342336Y-80704189D01*
X144342331Y-80704187D01*
X144340862Y-80703700D01*
X144175797Y-80649003D01*
X144175795Y-80649002D01*
X144073010Y-80638502D01*
X142772998Y-80638502D01*
X142772981Y-80638503D01*
X142670203Y-80649002D01*
X142670200Y-80649003D01*
X142503668Y-80704187D01*
X142503663Y-80704189D01*
X142354342Y-80796291D01*
X142230289Y-80920344D01*
X142134821Y-81075123D01*
X142082873Y-81121847D01*
X142013910Y-81133070D01*
X141949828Y-81105226D01*
X141941601Y-81097707D01*
X141794402Y-80950508D01*
X141794395Y-80950503D01*
X141777971Y-80939003D01*
X141709702Y-80891200D01*
X141600834Y-80814969D01*
X141600830Y-80814967D01*
X141505854Y-80770679D01*
X141386663Y-80715099D01*
X141386659Y-80715098D01*
X141386655Y-80715096D01*
X141158413Y-80653940D01*
X141158403Y-80653938D01*
X140923001Y-80633343D01*
X140922999Y-80633343D01*
X140687596Y-80653938D01*
X140687586Y-80653940D01*
X140459344Y-80715096D01*
X140459335Y-80715100D01*
X140245171Y-80814966D01*
X140245169Y-80814967D01*
X140051597Y-80950507D01*
X139884505Y-81117599D01*
X139748965Y-81311171D01*
X139748964Y-81311173D01*
X139649098Y-81525337D01*
X139649094Y-81525346D01*
X139587938Y-81753588D01*
X139587936Y-81753598D01*
X139572500Y-81930034D01*
X139572500Y-82347969D01*
X117751547Y-82347969D01*
X117849009Y-82302878D01*
X118155629Y-82118392D01*
X118155632Y-82118390D01*
X118440509Y-81901833D01*
X118453742Y-81889297D01*
X118453742Y-81889296D01*
X117245181Y-80680735D01*
X117435870Y-80517872D01*
X117598733Y-80327182D01*
X118804556Y-81533004D01*
X118931972Y-81383000D01*
X118931975Y-81382996D01*
X119132781Y-81086829D01*
X119300393Y-80770679D01*
X119300402Y-80770661D01*
X119432850Y-80438241D01*
X119432852Y-80438234D01*
X119528578Y-80093459D01*
X119528584Y-80093433D01*
X119586472Y-79740333D01*
X119586473Y-79740316D01*
X119605847Y-79383004D01*
X157996153Y-79383004D01*
X158015526Y-79740316D01*
X158015527Y-79740333D01*
X158073415Y-80093433D01*
X158073421Y-80093459D01*
X158169147Y-80438234D01*
X158169149Y-80438241D01*
X158301597Y-80770661D01*
X158301606Y-80770679D01*
X158469218Y-81086829D01*
X158670024Y-81382996D01*
X158670035Y-81383010D01*
X158797441Y-81533004D01*
X158797442Y-81533004D01*
X160003265Y-80327181D01*
X160166130Y-80517872D01*
X160356819Y-80680735D01*
X159148257Y-81889296D01*
X159161495Y-81901838D01*
X159446367Y-82118390D01*
X159446370Y-82118392D01*
X159752990Y-82302878D01*
X160077739Y-82453124D01*
X160077744Y-82453125D01*
X160416855Y-82567385D01*
X160766339Y-82644313D01*
X161122075Y-82683001D01*
X161122085Y-82683002D01*
X161479915Y-82683002D01*
X161479924Y-82683001D01*
X161835660Y-82644313D01*
X162185144Y-82567385D01*
X162524255Y-82453125D01*
X162524260Y-82453124D01*
X162849009Y-82302878D01*
X163155629Y-82118392D01*
X163155632Y-82118390D01*
X163440509Y-81901833D01*
X163453742Y-81889297D01*
X163453742Y-81889296D01*
X162245181Y-80680735D01*
X162435870Y-80517872D01*
X162598733Y-80327182D01*
X163804556Y-81533004D01*
X163931972Y-81383000D01*
X163931975Y-81382996D01*
X164132781Y-81086829D01*
X164300393Y-80770679D01*
X164300402Y-80770661D01*
X164432850Y-80438241D01*
X164432852Y-80438234D01*
X164528578Y-80093459D01*
X164528584Y-80093433D01*
X164586472Y-79740333D01*
X164586473Y-79740316D01*
X164605847Y-79383004D01*
X164605847Y-79382999D01*
X164586473Y-79025687D01*
X164586472Y-79025670D01*
X164528584Y-78672570D01*
X164528578Y-78672544D01*
X164432852Y-78327769D01*
X164432850Y-78327762D01*
X164300402Y-77995342D01*
X164300393Y-77995324D01*
X164132781Y-77679174D01*
X163931975Y-77383007D01*
X163931964Y-77382993D01*
X163804556Y-77232998D01*
X162598733Y-78438820D01*
X162435870Y-78248132D01*
X162245180Y-78085268D01*
X163453742Y-76876706D01*
X163440504Y-76864165D01*
X163155632Y-76647613D01*
X163155629Y-76647611D01*
X162849009Y-76463125D01*
X162524260Y-76312879D01*
X162524255Y-76312878D01*
X162185144Y-76198618D01*
X161835660Y-76121690D01*
X161479924Y-76083002D01*
X161122075Y-76083002D01*
X160766339Y-76121690D01*
X160416855Y-76198618D01*
X160077744Y-76312878D01*
X160077739Y-76312879D01*
X159752990Y-76463125D01*
X159446370Y-76647611D01*
X159446367Y-76647613D01*
X159161486Y-76864172D01*
X159161485Y-76864173D01*
X159148257Y-76876704D01*
X159148256Y-76876705D01*
X160356819Y-78085268D01*
X160166130Y-78248132D01*
X160003266Y-78438821D01*
X158797442Y-77232997D01*
X158797441Y-77232998D01*
X158670033Y-77382994D01*
X158469218Y-77679174D01*
X158301606Y-77995324D01*
X158301597Y-77995342D01*
X158169149Y-78327762D01*
X158169147Y-78327769D01*
X158073421Y-78672544D01*
X158073415Y-78672570D01*
X158015527Y-79025670D01*
X158015526Y-79025687D01*
X157996153Y-79382999D01*
X157996153Y-79383004D01*
X119605847Y-79383004D01*
X119605847Y-79382999D01*
X119586473Y-79025687D01*
X119586472Y-79025670D01*
X119528584Y-78672570D01*
X119528578Y-78672544D01*
X119432852Y-78327769D01*
X119432850Y-78327762D01*
X119300402Y-77995342D01*
X119300393Y-77995324D01*
X119132781Y-77679174D01*
X119106027Y-77639715D01*
X147103000Y-77639715D01*
X147118418Y-77791340D01*
X147179299Y-77985383D01*
X147179304Y-77985393D01*
X147278005Y-78163217D01*
X147278005Y-78163218D01*
X147410478Y-78317532D01*
X147410479Y-78317533D01*
X147571304Y-78442020D01*
X147753907Y-78531591D01*
X147853000Y-78557246D01*
X147853000Y-77755112D01*
X147877457Y-77794612D01*
X147966962Y-77862203D01*
X148074840Y-77892897D01*
X148186521Y-77882548D01*
X148286922Y-77832554D01*
X148353000Y-77760071D01*
X148353000Y-78562367D01*
X148354944Y-78562071D01*
X148354945Y-78562071D01*
X148545660Y-78491438D01*
X148545664Y-78491436D01*
X148718267Y-78383852D01*
X148865668Y-78243737D01*
X148865669Y-78243735D01*
X148981856Y-78076806D01*
X149062059Y-77889909D01*
X149103000Y-77690692D01*
X149103000Y-77639715D01*
X155743000Y-77639715D01*
X155758418Y-77791340D01*
X155819299Y-77985383D01*
X155819304Y-77985393D01*
X155918005Y-78163217D01*
X155918005Y-78163218D01*
X156050478Y-78317532D01*
X156050479Y-78317533D01*
X156211304Y-78442020D01*
X156393907Y-78531591D01*
X156493000Y-78557246D01*
X156493000Y-77755112D01*
X156517457Y-77794612D01*
X156606962Y-77862203D01*
X156714840Y-77892897D01*
X156826521Y-77882548D01*
X156926922Y-77832554D01*
X156993000Y-77760071D01*
X156993000Y-78562368D01*
X156994944Y-78562071D01*
X156994945Y-78562071D01*
X157185660Y-78491438D01*
X157185664Y-78491436D01*
X157358267Y-78383852D01*
X157505668Y-78243737D01*
X157505669Y-78243735D01*
X157621856Y-78076806D01*
X157702059Y-77889909D01*
X157743000Y-77690692D01*
X157743000Y-77539002D01*
X157043000Y-77539002D01*
X157043000Y-77039002D01*
X157743000Y-77039002D01*
X157743000Y-76938288D01*
X157727581Y-76786663D01*
X157666700Y-76592620D01*
X157666695Y-76592610D01*
X157567994Y-76414786D01*
X157567994Y-76414785D01*
X157435521Y-76260471D01*
X157435520Y-76260470D01*
X157274695Y-76135983D01*
X157092093Y-76046413D01*
X156993000Y-76020755D01*
X156993000Y-76822891D01*
X156968543Y-76783392D01*
X156879038Y-76715801D01*
X156771160Y-76685107D01*
X156659479Y-76695456D01*
X156559078Y-76745450D01*
X156493000Y-76817932D01*
X156493000Y-76015635D01*
X156491053Y-76015933D01*
X156491047Y-76015935D01*
X156300342Y-76086564D01*
X156300335Y-76086567D01*
X156127732Y-76194151D01*
X155980331Y-76334266D01*
X155980330Y-76334268D01*
X155864143Y-76501197D01*
X155783940Y-76688094D01*
X155743000Y-76887311D01*
X155743000Y-77039002D01*
X156443000Y-77039002D01*
X156443000Y-77539002D01*
X155743000Y-77539002D01*
X155743000Y-77639715D01*
X149103000Y-77639715D01*
X149103000Y-77539002D01*
X148403000Y-77539002D01*
X148403000Y-77039002D01*
X149103000Y-77039002D01*
X149103000Y-76938288D01*
X149087581Y-76786663D01*
X149026700Y-76592620D01*
X149026695Y-76592610D01*
X148927994Y-76414786D01*
X148927994Y-76414785D01*
X148795521Y-76260471D01*
X148795520Y-76260470D01*
X148634695Y-76135983D01*
X148452093Y-76046413D01*
X148353000Y-76020755D01*
X148353000Y-76822891D01*
X148328543Y-76783392D01*
X148239038Y-76715801D01*
X148131160Y-76685107D01*
X148019479Y-76695456D01*
X147919078Y-76745450D01*
X147853000Y-76817932D01*
X147853000Y-76015635D01*
X147851053Y-76015933D01*
X147851047Y-76015935D01*
X147660342Y-76086564D01*
X147660335Y-76086567D01*
X147487732Y-76194151D01*
X147340331Y-76334266D01*
X147340330Y-76334268D01*
X147224143Y-76501197D01*
X147143940Y-76688094D01*
X147103000Y-76887311D01*
X147103000Y-77039002D01*
X147803000Y-77039002D01*
X147803000Y-77539002D01*
X147103000Y-77539002D01*
X147103000Y-77639715D01*
X119106027Y-77639715D01*
X118931975Y-77383007D01*
X118931964Y-77382993D01*
X118804556Y-77232998D01*
X117598733Y-78438820D01*
X117435870Y-78248132D01*
X117245180Y-78085268D01*
X118453742Y-76876706D01*
X118440504Y-76864165D01*
X118155632Y-76647613D01*
X118155629Y-76647611D01*
X117849009Y-76463125D01*
X117524260Y-76312879D01*
X117524255Y-76312878D01*
X117185144Y-76198618D01*
X116835660Y-76121690D01*
X116479924Y-76083002D01*
X116122075Y-76083002D01*
X115766339Y-76121690D01*
X115416855Y-76198618D01*
X115077744Y-76312878D01*
X115077739Y-76312879D01*
X114752990Y-76463125D01*
X114446370Y-76647611D01*
X114446367Y-76647613D01*
X114161486Y-76864172D01*
X114161485Y-76864173D01*
X114148257Y-76876704D01*
X114148256Y-76876705D01*
X115356819Y-78085268D01*
X115166130Y-78248132D01*
X115003266Y-78438821D01*
X113797442Y-77232997D01*
X113797441Y-77232998D01*
X113670033Y-77382994D01*
X113469218Y-77679174D01*
X113301606Y-77995324D01*
X113301597Y-77995342D01*
X113169149Y-78327762D01*
X113169147Y-78327769D01*
X113073421Y-78672544D01*
X113073415Y-78672570D01*
X113015527Y-79025670D01*
X113015526Y-79025687D01*
X112996153Y-79382999D01*
X112996153Y-79383004D01*
X111301500Y-79383004D01*
X111301500Y-74513184D01*
X111321185Y-74446145D01*
X111373989Y-74400390D01*
X111425607Y-74389185D01*
X166149226Y-74438889D01*
G37*
%TD.AperFunction*%
%TD*%
M02*
