%TF.GenerationSoftware,KiCad,Pcbnew,7.0.11*%
%TF.CreationDate,2024-04-21T20:12:22+02:00*%
%TF.ProjectId,cyberboard,63796265-7262-46f6-9172-642e6b696361,rev?*%
%TF.SameCoordinates,Original*%
%TF.FileFunction,Copper,L3,Inr*%
%TF.FilePolarity,Positive*%
%FSLAX46Y46*%
G04 Gerber Fmt 4.6, Leading zero omitted, Abs format (unit mm)*
G04 Created by KiCad (PCBNEW 7.0.11) date 2024-04-21 20:12:22*
%MOMM*%
%LPD*%
G01*
G04 APERTURE LIST*
G04 Aperture macros list*
%AMRoundRect*
0 Rectangle with rounded corners*
0 $1 Rounding radius*
0 $2 $3 $4 $5 $6 $7 $8 $9 X,Y pos of 4 corners*
0 Add a 4 corners polygon primitive as box body*
4,1,4,$2,$3,$4,$5,$6,$7,$8,$9,$2,$3,0*
0 Add four circle primitives for the rounded corners*
1,1,$1+$1,$2,$3*
1,1,$1+$1,$4,$5*
1,1,$1+$1,$6,$7*
1,1,$1+$1,$8,$9*
0 Add four rect primitives between the rounded corners*
20,1,$1+$1,$2,$3,$4,$5,0*
20,1,$1+$1,$4,$5,$6,$7,0*
20,1,$1+$1,$6,$7,$8,$9,0*
20,1,$1+$1,$8,$9,$2,$3,0*%
G04 Aperture macros list end*
%TA.AperFunction,ComponentPad*%
%ADD10R,1.700000X1.700000*%
%TD*%
%TA.AperFunction,ComponentPad*%
%ADD11O,1.700000X1.700000*%
%TD*%
%TA.AperFunction,ComponentPad*%
%ADD12C,5.600000*%
%TD*%
%TA.AperFunction,ComponentPad*%
%ADD13R,1.350000X1.350000*%
%TD*%
%TA.AperFunction,ComponentPad*%
%ADD14O,1.350000X1.350000*%
%TD*%
%TA.AperFunction,ComponentPad*%
%ADD15RoundRect,0.250000X0.600000X0.750000X-0.600000X0.750000X-0.600000X-0.750000X0.600000X-0.750000X0*%
%TD*%
%TA.AperFunction,ComponentPad*%
%ADD16O,1.700000X2.000000*%
%TD*%
%TA.AperFunction,ComponentPad*%
%ADD17O,1.000000X2.100000*%
%TD*%
%TA.AperFunction,ComponentPad*%
%ADD18O,1.000000X1.600000*%
%TD*%
%TA.AperFunction,ViaPad*%
%ADD19C,0.800000*%
%TD*%
G04 APERTURE END LIST*
D10*
%TO.N,+3.3V*%
%TO.C,J8*%
X161301000Y-118383002D03*
D11*
%TO.N,GND*%
X161301000Y-115843002D03*
%TO.N,/GPIO1_1*%
X161301000Y-113303002D03*
%TO.N,/GPIO1_2*%
X161301000Y-110763002D03*
%TO.N,/GPIO1_3*%
X161301000Y-108223002D03*
%TO.N,/GPIO1_4*%
X161301000Y-105683002D03*
%TO.N,/GPIO1_5*%
X161301000Y-103143002D03*
%TO.N,/GPIO1_6*%
X161301000Y-100603002D03*
%TO.N,/GPIO1_7*%
X161301000Y-98063002D03*
%TO.N,/GPIO1_8*%
X161301000Y-95523002D03*
%TO.N,/GPIO1_9*%
X161301000Y-92983002D03*
%TO.N,/GPIO1_10*%
X161301000Y-90443002D03*
%TO.N,GND*%
X161301000Y-87903002D03*
%TO.N,+5V*%
X161301000Y-85363002D03*
%TD*%
D12*
%TO.N,GND*%
%TO.C,H4*%
X116301000Y-124383002D03*
%TD*%
D13*
%TO.N,/Power/5V_PDB*%
%TO.C,JP1*%
X131851000Y-86283002D03*
D14*
%TO.N,+5V*%
X133851000Y-86283002D03*
%TO.N,/Power/5V_USB*%
X135851000Y-86283002D03*
%TD*%
D15*
%TO.N,Net-(J1-Pin_1)*%
%TO.C,J1*%
X143423000Y-82139002D03*
D16*
%TO.N,Net-(J1-Pin_2)*%
X140923000Y-82139002D03*
%TD*%
D10*
%TO.N,+3.3V*%
%TO.C,J4*%
X116301000Y-118383002D03*
D11*
%TO.N,GND*%
X116301000Y-115843002D03*
%TO.N,/GPIO2_1*%
X116301000Y-113303002D03*
%TO.N,/GPIO2_2*%
X116301000Y-110763002D03*
%TO.N,/GPIO2_3*%
X116301000Y-108223002D03*
%TO.N,/GPIO2_4*%
X116301000Y-105683002D03*
%TO.N,/GPIO2_5*%
X116301000Y-103143002D03*
%TO.N,/GPIO2_6*%
X116301000Y-100603002D03*
%TO.N,/GPIO2_7*%
X116301000Y-98063002D03*
%TO.N,/GPIO2_8*%
X116301000Y-95523002D03*
%TO.N,/GPIO2_9*%
X116301000Y-92983002D03*
%TO.N,/GPIO2_10*%
X116301000Y-90443002D03*
%TO.N,GND*%
X116301000Y-87903002D03*
%TO.N,+5V*%
X116301000Y-85363002D03*
%TD*%
D13*
%TO.N,Net-(JP3-A)*%
%TO.C,JP3*%
X144123000Y-90139002D03*
D14*
%TO.N,Net-(J1-Pin_1)*%
X144123000Y-92139002D03*
%TD*%
D12*
%TO.N,GND*%
%TO.C,H2*%
X161301000Y-124383002D03*
%TD*%
%TO.N,GND*%
%TO.C,H3*%
X161301000Y-79383002D03*
%TD*%
%TO.N,GND*%
%TO.C,H1*%
X116301000Y-79383002D03*
%TD*%
D17*
%TO.N,GND*%
%TO.C,J2*%
X156743000Y-81469002D03*
D18*
X156743000Y-77289002D03*
D17*
X148103000Y-81469002D03*
D18*
X148103000Y-77289002D03*
%TD*%
D19*
%TO.N,GND*%
X133096000Y-114681750D03*
X130246000Y-111781750D03*
X133146000Y-109031750D03*
X142196000Y-85131750D03*
X132446000Y-94631750D03*
X127946000Y-96881750D03*
X154196000Y-88131750D03*
X148446000Y-84131750D03*
%TO.N,/USB_P*%
X155671000Y-101381750D03*
%TO.N,/USB_N*%
X156721000Y-101381750D03*
%TO.N,+3.3V*%
X127946000Y-95631750D03*
%TO.N,/GPIO2_1*%
X121196000Y-115631750D03*
%TO.N,/GPIO2_2*%
X121196000Y-114381750D03*
%TO.N,/GPIO2_3*%
X121196000Y-113131750D03*
%TO.N,/GPIO2_4*%
X121196000Y-111881750D03*
%TO.N,/GPIO2_5*%
X121196000Y-110631750D03*
%TO.N,/GPIO2_6*%
X121196000Y-109381750D03*
%TO.N,/GPIO2_7*%
X121196000Y-108131750D03*
%TO.N,/GPIO2_8*%
X121196000Y-106881750D03*
%TO.N,/GPIO2_9*%
X121196000Y-105631750D03*
%TO.N,/GPIO2_10*%
X121196000Y-104381750D03*
%TO.N,GND*%
X133081000Y-126753002D03*
X121196000Y-119559002D03*
X138446000Y-88631750D03*
X141896000Y-119531750D03*
X151246000Y-106381750D03*
X148123000Y-93789002D03*
X131401000Y-90904002D03*
X119643000Y-86963002D03*
X151146000Y-111381750D03*
X130471000Y-126703002D03*
X157196000Y-84131750D03*
X144096000Y-101731750D03*
X144761000Y-126878002D03*
X135946000Y-111831750D03*
X151051000Y-89033002D03*
X123573000Y-84633002D03*
%TO.N,+3.3V*%
X154223000Y-95839002D03*
X119643000Y-88763002D03*
X121891000Y-123123002D03*
X156651000Y-115950498D03*
X144981000Y-95753002D03*
X151246000Y-108381750D03*
X155128000Y-121157750D03*
X141873000Y-118289002D03*
X149201000Y-89033002D03*
X148378000Y-121007750D03*
%TO.N,/GPIO_LED*%
X130446000Y-123431750D03*
X121196000Y-118281750D03*
%TO.N,/Power/5V_USB*%
X155446000Y-84131750D03*
X153431480Y-84142082D03*
X150081874Y-84131750D03*
%TO.N,/Power/5V_PDB*%
X155196000Y-88131750D03*
%TO.N,/GPIO_ACTION*%
X133196000Y-122981750D03*
X121196000Y-117031750D03*
%TO.N,/IMU_CS*%
X141996000Y-106831750D03*
X152346000Y-105831750D03*
%TO.N,/USB_P*%
X142146000Y-103158002D03*
%TO.N,/USB_N*%
X142146000Y-104281750D03*
%TO.N,/I2C_SCL*%
X128446000Y-100031750D03*
X128751000Y-84683002D03*
%TO.N,/I2C_SDA*%
X126351000Y-84733002D03*
X127096000Y-99981750D03*
%TO.N,/GPIO1_1*%
X141996000Y-113181750D03*
%TO.N,/GPIO1_2*%
X141996000Y-111931750D03*
%TO.N,/GPIO1_3*%
X141996000Y-110681750D03*
%TO.N,/GPIO1_4*%
X141996000Y-109381750D03*
%TO.N,/IMU_SDA*%
X142751000Y-98863002D03*
X137346000Y-100181750D03*
%TO.N,/IMU_SCL*%
X152871000Y-98853002D03*
X138596000Y-100181750D03*
%TO.N,/GPIO1_5*%
X142046000Y-108131750D03*
%TO.N,/GPIO1_6*%
X142046000Y-105581750D03*
%TO.N,/GPIO1_7*%
X136046000Y-100181750D03*
%TO.N,/GPIO1_8*%
X134796000Y-100181750D03*
%TO.N,/GPIO1_9*%
X133546000Y-100181750D03*
%TO.N,/GPIO1_10*%
X132246000Y-100131750D03*
%TD*%
%TA.AperFunction,Conductor*%
%TO.N,+3.3V*%
G36*
X165177213Y-75432791D02*
G01*
X165244217Y-75452590D01*
X165289882Y-75505471D01*
X165301000Y-75556791D01*
X165301000Y-128259118D01*
X165281315Y-128326157D01*
X165228511Y-128371912D01*
X165177117Y-128383118D01*
X112445093Y-128432884D01*
X112378035Y-128413263D01*
X112332230Y-128360502D01*
X112320976Y-128308909D01*
X112320237Y-124383004D01*
X112995652Y-124383004D01*
X113015028Y-124740370D01*
X113015029Y-124740387D01*
X113072926Y-125093541D01*
X113072932Y-125093567D01*
X113168672Y-125438394D01*
X113168674Y-125438401D01*
X113301142Y-125770872D01*
X113301151Y-125770890D01*
X113468784Y-126087079D01*
X113468787Y-126087084D01*
X113468789Y-126087087D01*
X113548813Y-126205114D01*
X113669634Y-126383311D01*
X113669641Y-126383321D01*
X113781275Y-126514746D01*
X113901332Y-126656088D01*
X114161163Y-126902213D01*
X114446081Y-127118802D01*
X114752747Y-127303317D01*
X114752749Y-127303318D01*
X114752751Y-127303319D01*
X114752755Y-127303321D01*
X115077552Y-127453587D01*
X115077565Y-127453593D01*
X115416726Y-127567870D01*
X115766254Y-127644807D01*
X116122052Y-127683502D01*
X116122058Y-127683502D01*
X116479942Y-127683502D01*
X116479948Y-127683502D01*
X116835746Y-127644807D01*
X117185274Y-127567870D01*
X117524435Y-127453593D01*
X117849253Y-127303317D01*
X118155919Y-127118802D01*
X118440837Y-126902213D01*
X118651141Y-126703002D01*
X129565540Y-126703002D01*
X129585326Y-126891258D01*
X129585327Y-126891261D01*
X129643818Y-127071279D01*
X129643821Y-127071286D01*
X129738467Y-127235218D01*
X129865129Y-127375890D01*
X130018265Y-127487150D01*
X130018270Y-127487153D01*
X130191192Y-127564144D01*
X130191197Y-127564146D01*
X130376354Y-127603502D01*
X130376355Y-127603502D01*
X130565644Y-127603502D01*
X130565646Y-127603502D01*
X130750803Y-127564146D01*
X130923730Y-127487153D01*
X131076871Y-127375890D01*
X131203533Y-127235218D01*
X131298179Y-127071286D01*
X131356674Y-126891258D01*
X131371205Y-126753002D01*
X132175540Y-126753002D01*
X132195326Y-126941258D01*
X132195327Y-126941261D01*
X132253818Y-127121279D01*
X132253821Y-127121286D01*
X132348467Y-127285218D01*
X132430109Y-127375890D01*
X132475129Y-127425890D01*
X132628265Y-127537150D01*
X132628270Y-127537153D01*
X132801192Y-127614144D01*
X132801197Y-127614146D01*
X132986354Y-127653502D01*
X132986355Y-127653502D01*
X133175644Y-127653502D01*
X133175646Y-127653502D01*
X133360803Y-127614146D01*
X133533730Y-127537153D01*
X133686871Y-127425890D01*
X133813533Y-127285218D01*
X133908179Y-127121286D01*
X133966674Y-126941258D01*
X133973322Y-126878002D01*
X143855540Y-126878002D01*
X143875326Y-127066258D01*
X143875327Y-127066261D01*
X143933818Y-127246279D01*
X143933821Y-127246286D01*
X144028467Y-127410218D01*
X144097737Y-127487150D01*
X144155129Y-127550890D01*
X144308265Y-127662150D01*
X144308270Y-127662153D01*
X144481192Y-127739144D01*
X144481197Y-127739146D01*
X144666354Y-127778502D01*
X144666355Y-127778502D01*
X144855644Y-127778502D01*
X144855646Y-127778502D01*
X145040803Y-127739146D01*
X145213730Y-127662153D01*
X145366871Y-127550890D01*
X145493533Y-127410218D01*
X145588179Y-127246286D01*
X145646674Y-127066258D01*
X145666460Y-126878002D01*
X145646674Y-126689746D01*
X145588179Y-126509718D01*
X145493533Y-126345786D01*
X145366871Y-126205114D01*
X145319624Y-126170787D01*
X145213734Y-126093853D01*
X145213729Y-126093850D01*
X145040807Y-126016859D01*
X145040802Y-126016857D01*
X144895001Y-125985867D01*
X144855646Y-125977502D01*
X144666354Y-125977502D01*
X144633897Y-125984400D01*
X144481197Y-126016857D01*
X144481192Y-126016859D01*
X144308270Y-126093850D01*
X144308265Y-126093853D01*
X144155129Y-126205113D01*
X144028466Y-126345787D01*
X143933821Y-126509717D01*
X143933818Y-126509724D01*
X143886262Y-126656088D01*
X143875326Y-126689746D01*
X143855540Y-126878002D01*
X133973322Y-126878002D01*
X133986460Y-126753002D01*
X133966674Y-126564746D01*
X133908179Y-126384718D01*
X133813533Y-126220786D01*
X133686871Y-126080114D01*
X133618052Y-126030114D01*
X133533734Y-125968853D01*
X133533729Y-125968850D01*
X133360807Y-125891859D01*
X133360802Y-125891857D01*
X133215001Y-125860867D01*
X133175646Y-125852502D01*
X132986354Y-125852502D01*
X132953897Y-125859400D01*
X132801197Y-125891857D01*
X132801192Y-125891859D01*
X132628270Y-125968850D01*
X132628265Y-125968853D01*
X132475129Y-126080113D01*
X132348466Y-126220787D01*
X132253821Y-126384717D01*
X132253818Y-126384724D01*
X132211573Y-126514742D01*
X132195326Y-126564746D01*
X132175540Y-126753002D01*
X131371205Y-126753002D01*
X131376460Y-126703002D01*
X131356674Y-126514746D01*
X131298179Y-126334718D01*
X131203533Y-126170786D01*
X131076871Y-126030114D01*
X131058626Y-126016858D01*
X130923734Y-125918853D01*
X130923729Y-125918850D01*
X130750807Y-125841859D01*
X130750802Y-125841857D01*
X130605001Y-125810867D01*
X130565646Y-125802502D01*
X130376354Y-125802502D01*
X130343897Y-125809400D01*
X130191197Y-125841857D01*
X130191192Y-125841859D01*
X130018270Y-125918850D01*
X130018265Y-125918853D01*
X129865129Y-126030113D01*
X129738466Y-126170787D01*
X129643821Y-126334717D01*
X129643818Y-126334724D01*
X129585327Y-126514742D01*
X129585326Y-126514746D01*
X129565540Y-126703002D01*
X118651141Y-126703002D01*
X118700668Y-126656088D01*
X118932365Y-126383313D01*
X119133211Y-126087087D01*
X119300853Y-125770882D01*
X119433324Y-125438405D01*
X119529071Y-125093554D01*
X119586972Y-124740373D01*
X119606348Y-124383004D01*
X157995652Y-124383004D01*
X158015028Y-124740370D01*
X158015029Y-124740387D01*
X158072926Y-125093541D01*
X158072932Y-125093567D01*
X158168672Y-125438394D01*
X158168674Y-125438401D01*
X158301142Y-125770872D01*
X158301151Y-125770890D01*
X158468784Y-126087079D01*
X158468787Y-126087084D01*
X158468789Y-126087087D01*
X158548813Y-126205114D01*
X158669634Y-126383311D01*
X158669641Y-126383321D01*
X158781275Y-126514746D01*
X158901332Y-126656088D01*
X159161163Y-126902213D01*
X159446081Y-127118802D01*
X159752747Y-127303317D01*
X159752749Y-127303318D01*
X159752751Y-127303319D01*
X159752755Y-127303321D01*
X160077552Y-127453587D01*
X160077565Y-127453593D01*
X160416726Y-127567870D01*
X160766254Y-127644807D01*
X161122052Y-127683502D01*
X161122058Y-127683502D01*
X161479942Y-127683502D01*
X161479948Y-127683502D01*
X161835746Y-127644807D01*
X162185274Y-127567870D01*
X162524435Y-127453593D01*
X162849253Y-127303317D01*
X163155919Y-127118802D01*
X163440837Y-126902213D01*
X163700668Y-126656088D01*
X163932365Y-126383313D01*
X164133211Y-126087087D01*
X164300853Y-125770882D01*
X164433324Y-125438405D01*
X164529071Y-125093554D01*
X164586972Y-124740373D01*
X164606348Y-124383002D01*
X164586972Y-124025631D01*
X164576862Y-123963964D01*
X164529073Y-123672462D01*
X164529072Y-123672461D01*
X164529071Y-123672450D01*
X164433324Y-123327599D01*
X164328084Y-123063466D01*
X164300857Y-122995131D01*
X164300848Y-122995113D01*
X164293763Y-122981750D01*
X164133211Y-122678917D01*
X163932365Y-122382691D01*
X163932361Y-122382686D01*
X163932358Y-122382682D01*
X163700668Y-122109916D01*
X163670406Y-122081250D01*
X163440837Y-121863791D01*
X163440830Y-121863785D01*
X163440827Y-121863783D01*
X163373245Y-121812409D01*
X163155919Y-121647202D01*
X162849253Y-121462687D01*
X162849252Y-121462686D01*
X162849248Y-121462684D01*
X162849244Y-121462682D01*
X162524447Y-121312416D01*
X162524441Y-121312413D01*
X162524435Y-121312411D01*
X162354854Y-121255272D01*
X162185273Y-121198133D01*
X161835744Y-121121196D01*
X161479949Y-121082502D01*
X161479948Y-121082502D01*
X161122052Y-121082502D01*
X161122050Y-121082502D01*
X160766255Y-121121196D01*
X160416726Y-121198133D01*
X160160970Y-121284308D01*
X160077565Y-121312411D01*
X160077563Y-121312412D01*
X160077552Y-121312416D01*
X159752755Y-121462682D01*
X159752751Y-121462684D01*
X159524367Y-121600098D01*
X159446081Y-121647202D01*
X159357768Y-121714335D01*
X159161172Y-121863783D01*
X159161163Y-121863791D01*
X158901331Y-122109916D01*
X158669641Y-122382682D01*
X158669634Y-122382692D01*
X158468790Y-122678915D01*
X158468784Y-122678924D01*
X158301151Y-122995113D01*
X158301142Y-122995131D01*
X158168674Y-123327602D01*
X158168672Y-123327609D01*
X158072932Y-123672436D01*
X158072926Y-123672462D01*
X158015029Y-124025616D01*
X158015028Y-124025633D01*
X157995652Y-124382999D01*
X157995652Y-124383004D01*
X119606348Y-124383004D01*
X119606348Y-124383002D01*
X119586972Y-124025631D01*
X119576862Y-123963964D01*
X119529073Y-123672462D01*
X119529072Y-123672461D01*
X119529071Y-123672450D01*
X119462241Y-123431750D01*
X129540540Y-123431750D01*
X129560326Y-123620006D01*
X129560327Y-123620009D01*
X129618818Y-123800027D01*
X129618821Y-123800034D01*
X129713467Y-123963966D01*
X129840129Y-124104638D01*
X129993265Y-124215898D01*
X129993270Y-124215901D01*
X130166192Y-124292892D01*
X130166197Y-124292894D01*
X130351354Y-124332250D01*
X130351355Y-124332250D01*
X130540644Y-124332250D01*
X130540646Y-124332250D01*
X130725803Y-124292894D01*
X130898730Y-124215901D01*
X131051871Y-124104638D01*
X131178533Y-123963966D01*
X131273179Y-123800034D01*
X131331674Y-123620006D01*
X131351460Y-123431750D01*
X131331674Y-123243494D01*
X131273179Y-123063466D01*
X131226000Y-122981750D01*
X132290540Y-122981750D01*
X132310326Y-123170006D01*
X132310327Y-123170009D01*
X132368818Y-123350027D01*
X132368821Y-123350034D01*
X132463467Y-123513966D01*
X132558946Y-123620006D01*
X132590129Y-123654638D01*
X132743265Y-123765898D01*
X132743270Y-123765901D01*
X132916192Y-123842892D01*
X132916197Y-123842894D01*
X133101354Y-123882250D01*
X133101355Y-123882250D01*
X133290644Y-123882250D01*
X133290646Y-123882250D01*
X133475803Y-123842894D01*
X133648730Y-123765901D01*
X133801871Y-123654638D01*
X133928533Y-123513966D01*
X134023179Y-123350034D01*
X134081674Y-123170006D01*
X134101460Y-122981750D01*
X134081674Y-122793494D01*
X134023179Y-122613466D01*
X133928533Y-122449534D01*
X133801871Y-122308862D01*
X133801870Y-122308861D01*
X133648734Y-122197601D01*
X133648729Y-122197598D01*
X133475807Y-122120607D01*
X133475802Y-122120605D01*
X133330001Y-122089615D01*
X133290646Y-122081250D01*
X133101354Y-122081250D01*
X133068897Y-122088148D01*
X132916197Y-122120605D01*
X132916192Y-122120607D01*
X132743270Y-122197598D01*
X132743265Y-122197601D01*
X132590129Y-122308861D01*
X132463466Y-122449535D01*
X132368821Y-122613465D01*
X132368818Y-122613472D01*
X132310327Y-122793490D01*
X132310326Y-122793494D01*
X132290540Y-122981750D01*
X131226000Y-122981750D01*
X131178533Y-122899534D01*
X131051871Y-122758862D01*
X131051870Y-122758861D01*
X130898734Y-122647601D01*
X130898729Y-122647598D01*
X130725807Y-122570607D01*
X130725802Y-122570605D01*
X130580001Y-122539615D01*
X130540646Y-122531250D01*
X130351354Y-122531250D01*
X130318897Y-122538148D01*
X130166197Y-122570605D01*
X130166192Y-122570607D01*
X129993270Y-122647598D01*
X129993265Y-122647601D01*
X129840129Y-122758861D01*
X129713466Y-122899535D01*
X129618821Y-123063465D01*
X129618818Y-123063472D01*
X129560327Y-123243490D01*
X129560326Y-123243494D01*
X129540540Y-123431750D01*
X119462241Y-123431750D01*
X119433324Y-123327599D01*
X119328084Y-123063466D01*
X119300857Y-122995131D01*
X119300848Y-122995113D01*
X119293763Y-122981750D01*
X119133211Y-122678917D01*
X118932365Y-122382691D01*
X118932361Y-122382686D01*
X118932358Y-122382682D01*
X118700668Y-122109916D01*
X118670406Y-122081250D01*
X118440837Y-121863791D01*
X118440830Y-121863785D01*
X118440827Y-121863783D01*
X118373245Y-121812409D01*
X118155919Y-121647202D01*
X117849253Y-121462687D01*
X117849252Y-121462686D01*
X117849248Y-121462684D01*
X117849244Y-121462682D01*
X117524447Y-121312416D01*
X117524441Y-121312413D01*
X117524435Y-121312411D01*
X117354854Y-121255272D01*
X117185273Y-121198133D01*
X116835744Y-121121196D01*
X116479949Y-121082502D01*
X116479948Y-121082502D01*
X116122052Y-121082502D01*
X116122050Y-121082502D01*
X115766255Y-121121196D01*
X115416726Y-121198133D01*
X115160970Y-121284308D01*
X115077565Y-121312411D01*
X115077563Y-121312412D01*
X115077552Y-121312416D01*
X114752755Y-121462682D01*
X114752751Y-121462684D01*
X114524367Y-121600098D01*
X114446081Y-121647202D01*
X114357768Y-121714335D01*
X114161172Y-121863783D01*
X114161163Y-121863791D01*
X113901331Y-122109916D01*
X113669641Y-122382682D01*
X113669634Y-122382692D01*
X113468790Y-122678915D01*
X113468784Y-122678924D01*
X113301151Y-122995113D01*
X113301142Y-122995131D01*
X113168674Y-123327602D01*
X113168672Y-123327609D01*
X113072932Y-123672436D01*
X113072926Y-123672462D01*
X113015029Y-124025616D01*
X113015028Y-124025633D01*
X112995652Y-124382999D01*
X112995652Y-124383004D01*
X112320237Y-124383004D01*
X112318628Y-115843002D01*
X114945341Y-115843002D01*
X114965936Y-116078405D01*
X114965938Y-116078415D01*
X115027094Y-116306657D01*
X115027096Y-116306661D01*
X115027097Y-116306665D01*
X115117034Y-116499534D01*
X115126965Y-116520832D01*
X115126967Y-116520836D01*
X115226838Y-116663465D01*
X115262501Y-116714398D01*
X115262506Y-116714404D01*
X115384818Y-116836716D01*
X115418303Y-116898039D01*
X115413319Y-116967731D01*
X115371447Y-117023664D01*
X115340471Y-117040579D01*
X115208912Y-117089648D01*
X115208906Y-117089651D01*
X115093812Y-117175811D01*
X115093809Y-117175814D01*
X115007649Y-117290908D01*
X115007645Y-117290915D01*
X114957403Y-117425622D01*
X114957401Y-117425629D01*
X114951000Y-117485157D01*
X114951000Y-118133002D01*
X115867314Y-118133002D01*
X115841507Y-118173158D01*
X115801000Y-118311113D01*
X115801000Y-118454891D01*
X115841507Y-118592846D01*
X115867314Y-118633002D01*
X114951000Y-118633002D01*
X114951000Y-119280846D01*
X114957401Y-119340374D01*
X114957403Y-119340381D01*
X115007645Y-119475088D01*
X115007649Y-119475095D01*
X115093809Y-119590189D01*
X115093812Y-119590192D01*
X115208906Y-119676352D01*
X115208913Y-119676356D01*
X115343620Y-119726598D01*
X115343627Y-119726600D01*
X115403155Y-119733001D01*
X115403172Y-119733002D01*
X116051000Y-119733002D01*
X116051000Y-118818503D01*
X116158685Y-118867682D01*
X116265237Y-118883002D01*
X116336763Y-118883002D01*
X116443315Y-118867682D01*
X116551000Y-118818503D01*
X116551000Y-119733002D01*
X117198828Y-119733002D01*
X117198844Y-119733001D01*
X117258372Y-119726600D01*
X117258379Y-119726598D01*
X117393086Y-119676356D01*
X117393093Y-119676352D01*
X117508187Y-119590192D01*
X117508190Y-119590189D01*
X117531537Y-119559002D01*
X120290540Y-119559002D01*
X120310326Y-119747258D01*
X120310327Y-119747261D01*
X120368818Y-119927279D01*
X120368821Y-119927286D01*
X120463467Y-120091218D01*
X120565591Y-120204638D01*
X120590129Y-120231890D01*
X120743265Y-120343150D01*
X120743270Y-120343153D01*
X120916192Y-120420144D01*
X120916197Y-120420146D01*
X121101354Y-120459502D01*
X121101355Y-120459502D01*
X121290644Y-120459502D01*
X121290646Y-120459502D01*
X121475803Y-120420146D01*
X121648730Y-120343153D01*
X121801871Y-120231890D01*
X121928533Y-120091218D01*
X122023179Y-119927286D01*
X122081674Y-119747258D01*
X122101460Y-119559002D01*
X122098596Y-119531750D01*
X140990540Y-119531750D01*
X141010326Y-119720006D01*
X141010327Y-119720009D01*
X141068818Y-119900027D01*
X141068821Y-119900034D01*
X141163467Y-120063966D01*
X141290129Y-120204638D01*
X141443265Y-120315898D01*
X141443270Y-120315901D01*
X141616192Y-120392892D01*
X141616197Y-120392894D01*
X141801354Y-120432250D01*
X141801355Y-120432250D01*
X141990644Y-120432250D01*
X141990646Y-120432250D01*
X142175803Y-120392894D01*
X142348730Y-120315901D01*
X142501871Y-120204638D01*
X142628533Y-120063966D01*
X142723179Y-119900034D01*
X142781674Y-119720006D01*
X142801460Y-119531750D01*
X142781674Y-119343494D01*
X142723179Y-119163466D01*
X142628533Y-118999534D01*
X142501871Y-118858862D01*
X142472338Y-118837405D01*
X142348734Y-118747601D01*
X142348729Y-118747598D01*
X142175807Y-118670607D01*
X142175802Y-118670605D01*
X142030001Y-118639615D01*
X141990646Y-118631250D01*
X141801354Y-118631250D01*
X141768897Y-118638148D01*
X141616197Y-118670605D01*
X141616192Y-118670607D01*
X141443270Y-118747598D01*
X141443265Y-118747601D01*
X141290129Y-118858861D01*
X141163466Y-118999535D01*
X141068821Y-119163465D01*
X141068818Y-119163472D01*
X141011337Y-119340381D01*
X141010326Y-119343494D01*
X140990540Y-119531750D01*
X122098596Y-119531750D01*
X122081674Y-119370746D01*
X122023179Y-119190718D01*
X121928533Y-119026786D01*
X121907427Y-119003346D01*
X121877199Y-118940357D01*
X121885824Y-118871022D01*
X121907428Y-118837405D01*
X121928533Y-118813966D01*
X122023179Y-118650034D01*
X122081674Y-118470006D01*
X122101460Y-118281750D01*
X122081674Y-118093494D01*
X122023179Y-117913466D01*
X121928533Y-117749534D01*
X121919698Y-117739722D01*
X121889469Y-117676731D01*
X121898093Y-117607396D01*
X121919699Y-117573777D01*
X121928533Y-117563966D01*
X122023179Y-117400034D01*
X122081674Y-117220006D01*
X122101460Y-117031750D01*
X122081674Y-116843494D01*
X122023179Y-116663466D01*
X121928533Y-116499534D01*
X121852165Y-116414719D01*
X121821937Y-116351731D01*
X121830562Y-116282396D01*
X121852162Y-116248783D01*
X121928533Y-116163966D01*
X122023179Y-116000034D01*
X122074202Y-115843002D01*
X159945341Y-115843002D01*
X159965936Y-116078405D01*
X159965938Y-116078415D01*
X160027094Y-116306657D01*
X160027096Y-116306661D01*
X160027097Y-116306665D01*
X160117034Y-116499534D01*
X160126965Y-116520832D01*
X160126967Y-116520836D01*
X160226838Y-116663465D01*
X160262501Y-116714398D01*
X160262506Y-116714404D01*
X160384818Y-116836716D01*
X160418303Y-116898039D01*
X160413319Y-116967731D01*
X160371447Y-117023664D01*
X160340471Y-117040579D01*
X160208912Y-117089648D01*
X160208906Y-117089651D01*
X160093812Y-117175811D01*
X160093809Y-117175814D01*
X160007649Y-117290908D01*
X160007645Y-117290915D01*
X159957403Y-117425622D01*
X159957401Y-117425629D01*
X159951000Y-117485157D01*
X159951000Y-118133002D01*
X160867314Y-118133002D01*
X160841507Y-118173158D01*
X160801000Y-118311113D01*
X160801000Y-118454891D01*
X160841507Y-118592846D01*
X160867314Y-118633002D01*
X159951000Y-118633002D01*
X159951000Y-119280846D01*
X159957401Y-119340374D01*
X159957403Y-119340381D01*
X160007645Y-119475088D01*
X160007649Y-119475095D01*
X160093809Y-119590189D01*
X160093812Y-119590192D01*
X160208906Y-119676352D01*
X160208913Y-119676356D01*
X160343620Y-119726598D01*
X160343627Y-119726600D01*
X160403155Y-119733001D01*
X160403172Y-119733002D01*
X161051000Y-119733002D01*
X161051000Y-118818503D01*
X161158685Y-118867682D01*
X161265237Y-118883002D01*
X161336763Y-118883002D01*
X161443315Y-118867682D01*
X161551000Y-118818503D01*
X161551000Y-119733002D01*
X162198828Y-119733002D01*
X162198844Y-119733001D01*
X162258372Y-119726600D01*
X162258379Y-119726598D01*
X162393086Y-119676356D01*
X162393093Y-119676352D01*
X162508187Y-119590192D01*
X162508190Y-119590189D01*
X162594350Y-119475095D01*
X162594354Y-119475088D01*
X162644596Y-119340381D01*
X162644598Y-119340374D01*
X162650999Y-119280846D01*
X162651000Y-119280829D01*
X162651000Y-118633002D01*
X161734686Y-118633002D01*
X161760493Y-118592846D01*
X161801000Y-118454891D01*
X161801000Y-118311113D01*
X161760493Y-118173158D01*
X161734686Y-118133002D01*
X162651000Y-118133002D01*
X162651000Y-117485174D01*
X162650999Y-117485157D01*
X162644598Y-117425629D01*
X162644596Y-117425622D01*
X162594354Y-117290915D01*
X162594350Y-117290908D01*
X162508190Y-117175814D01*
X162508187Y-117175811D01*
X162393093Y-117089651D01*
X162393088Y-117089648D01*
X162261528Y-117040579D01*
X162205595Y-116998707D01*
X162181178Y-116933243D01*
X162196030Y-116864970D01*
X162217175Y-116836722D01*
X162339495Y-116714403D01*
X162475035Y-116520832D01*
X162574903Y-116306665D01*
X162636063Y-116078410D01*
X162656659Y-115843002D01*
X162636063Y-115607594D01*
X162574903Y-115379339D01*
X162475035Y-115165173D01*
X162429075Y-115099534D01*
X162339494Y-114971599D01*
X162172402Y-114804508D01*
X162172396Y-114804503D01*
X161986842Y-114674577D01*
X161943217Y-114620000D01*
X161936023Y-114550502D01*
X161967546Y-114488147D01*
X161986842Y-114471427D01*
X162009026Y-114455893D01*
X162172401Y-114341497D01*
X162339495Y-114174403D01*
X162475035Y-113980832D01*
X162574903Y-113766665D01*
X162636063Y-113538410D01*
X162656659Y-113303002D01*
X162636063Y-113067594D01*
X162574903Y-112839339D01*
X162475035Y-112625173D01*
X162457084Y-112599535D01*
X162339494Y-112431599D01*
X162172402Y-112264508D01*
X162172396Y-112264503D01*
X161986842Y-112134577D01*
X161943217Y-112080000D01*
X161936023Y-112010502D01*
X161967546Y-111948147D01*
X161986842Y-111931427D01*
X162129195Y-111831750D01*
X162172401Y-111801497D01*
X162339495Y-111634403D01*
X162475035Y-111440832D01*
X162574903Y-111226665D01*
X162636063Y-110998410D01*
X162656659Y-110763002D01*
X162636063Y-110527594D01*
X162574903Y-110299339D01*
X162475035Y-110085173D01*
X162472188Y-110081106D01*
X162339494Y-109891599D01*
X162172402Y-109724508D01*
X162172396Y-109724503D01*
X161986842Y-109594577D01*
X161943217Y-109540000D01*
X161936023Y-109470502D01*
X161967546Y-109408147D01*
X161986842Y-109391427D01*
X162009026Y-109375893D01*
X162172401Y-109261497D01*
X162339495Y-109094403D01*
X162475035Y-108900832D01*
X162574903Y-108686665D01*
X162636063Y-108458410D01*
X162656659Y-108223002D01*
X162636063Y-107987594D01*
X162589626Y-107814287D01*
X162574905Y-107759346D01*
X162574904Y-107759345D01*
X162574903Y-107759339D01*
X162475035Y-107545173D01*
X162469283Y-107536957D01*
X162339494Y-107351599D01*
X162172402Y-107184508D01*
X162172396Y-107184503D01*
X161986842Y-107054577D01*
X161943217Y-107000000D01*
X161936023Y-106930502D01*
X161967546Y-106868147D01*
X161986842Y-106851427D01*
X162014944Y-106831750D01*
X162172401Y-106721497D01*
X162339495Y-106554403D01*
X162475035Y-106360832D01*
X162574903Y-106146665D01*
X162636063Y-105918410D01*
X162656659Y-105683002D01*
X162636063Y-105447594D01*
X162574903Y-105219339D01*
X162475035Y-105005173D01*
X162462152Y-104986773D01*
X162339494Y-104811599D01*
X162172402Y-104644508D01*
X162172396Y-104644503D01*
X161986842Y-104514577D01*
X161943217Y-104460000D01*
X161936023Y-104390502D01*
X161967546Y-104328147D01*
X161986842Y-104311427D01*
X162029225Y-104281750D01*
X162172401Y-104181497D01*
X162339495Y-104014403D01*
X162475035Y-103820832D01*
X162574903Y-103606665D01*
X162636063Y-103378410D01*
X162656659Y-103143002D01*
X162636063Y-102907594D01*
X162574903Y-102679339D01*
X162475035Y-102465173D01*
X162432649Y-102404638D01*
X162339494Y-102271599D01*
X162172402Y-102104508D01*
X162172396Y-102104503D01*
X161986842Y-101974577D01*
X161943217Y-101920000D01*
X161936023Y-101850502D01*
X161967546Y-101788147D01*
X161986842Y-101771427D01*
X162043506Y-101731750D01*
X162172401Y-101641497D01*
X162339495Y-101474403D01*
X162475035Y-101280832D01*
X162574903Y-101066665D01*
X162636063Y-100838410D01*
X162656659Y-100603002D01*
X162656226Y-100598058D01*
X162638901Y-100400034D01*
X162636063Y-100367594D01*
X162574903Y-100139339D01*
X162475035Y-99925173D01*
X162417841Y-99843490D01*
X162339494Y-99731599D01*
X162172402Y-99564508D01*
X162172396Y-99564503D01*
X161986842Y-99434577D01*
X161943217Y-99380000D01*
X161936023Y-99310502D01*
X161967546Y-99248147D01*
X161986842Y-99231427D01*
X162073703Y-99170606D01*
X162172401Y-99101497D01*
X162339495Y-98934403D01*
X162475035Y-98740832D01*
X162574903Y-98526665D01*
X162636063Y-98298410D01*
X162656659Y-98063002D01*
X162636063Y-97827594D01*
X162574903Y-97599339D01*
X162475035Y-97385173D01*
X162380406Y-97250027D01*
X162339494Y-97191599D01*
X162172402Y-97024508D01*
X162172396Y-97024503D01*
X161986842Y-96894577D01*
X161943217Y-96840000D01*
X161936023Y-96770502D01*
X161967546Y-96708147D01*
X161986842Y-96691427D01*
X162009026Y-96675893D01*
X162172401Y-96561497D01*
X162339495Y-96394403D01*
X162475035Y-96200832D01*
X162574903Y-95986665D01*
X162636063Y-95758410D01*
X162656659Y-95523002D01*
X162636063Y-95287594D01*
X162574903Y-95059339D01*
X162475035Y-94845173D01*
X162366034Y-94689502D01*
X162339494Y-94651599D01*
X162172402Y-94484508D01*
X162172396Y-94484503D01*
X161986842Y-94354577D01*
X161943217Y-94300000D01*
X161936023Y-94230502D01*
X161967546Y-94168147D01*
X161986842Y-94151427D01*
X162060951Y-94099535D01*
X162172401Y-94021497D01*
X162339495Y-93854403D01*
X162475035Y-93660832D01*
X162574903Y-93446665D01*
X162636063Y-93218410D01*
X162656659Y-92983002D01*
X162636063Y-92747594D01*
X162574903Y-92519339D01*
X162475035Y-92305173D01*
X162358682Y-92139002D01*
X162339494Y-92111599D01*
X162172402Y-91944508D01*
X162172396Y-91944503D01*
X161986842Y-91814577D01*
X161943217Y-91760000D01*
X161936023Y-91690502D01*
X161967546Y-91628147D01*
X161986842Y-91611427D01*
X162036166Y-91576890D01*
X162172401Y-91481497D01*
X162339495Y-91314403D01*
X162475035Y-91120832D01*
X162574903Y-90906665D01*
X162636063Y-90678410D01*
X162656659Y-90443002D01*
X162636063Y-90207594D01*
X162574903Y-89979339D01*
X162475035Y-89765173D01*
X162339495Y-89571601D01*
X162339494Y-89571599D01*
X162172402Y-89404508D01*
X162172396Y-89404503D01*
X161986842Y-89274577D01*
X161943217Y-89220000D01*
X161936023Y-89150502D01*
X161967546Y-89088147D01*
X161986842Y-89071427D01*
X162059996Y-89020204D01*
X162172401Y-88941497D01*
X162339495Y-88774403D01*
X162475035Y-88580832D01*
X162574903Y-88366665D01*
X162636063Y-88138410D01*
X162656659Y-87903002D01*
X162636063Y-87667594D01*
X162574903Y-87439339D01*
X162475035Y-87225173D01*
X162474981Y-87225095D01*
X162339494Y-87031599D01*
X162172402Y-86864508D01*
X162172396Y-86864503D01*
X161986842Y-86734577D01*
X161943217Y-86680000D01*
X161936023Y-86610502D01*
X161967546Y-86548147D01*
X161986842Y-86531427D01*
X162031831Y-86499925D01*
X162172401Y-86401497D01*
X162339495Y-86234403D01*
X162475035Y-86040832D01*
X162574903Y-85826665D01*
X162636063Y-85598410D01*
X162656659Y-85363002D01*
X162636063Y-85127594D01*
X162574903Y-84899339D01*
X162475035Y-84685173D01*
X162467421Y-84674298D01*
X162339494Y-84491599D01*
X162172402Y-84324508D01*
X162172395Y-84324503D01*
X162171655Y-84323985D01*
X162095424Y-84270607D01*
X161978834Y-84188969D01*
X161978830Y-84188967D01*
X161896953Y-84150787D01*
X161764663Y-84089099D01*
X161764659Y-84089098D01*
X161764655Y-84089096D01*
X161536413Y-84027940D01*
X161536403Y-84027938D01*
X161301001Y-84007343D01*
X161300999Y-84007343D01*
X161065596Y-84027938D01*
X161065586Y-84027940D01*
X160837344Y-84089096D01*
X160837335Y-84089100D01*
X160623171Y-84188966D01*
X160623169Y-84188967D01*
X160429597Y-84324507D01*
X160262505Y-84491599D01*
X160126965Y-84685171D01*
X160126964Y-84685173D01*
X160027098Y-84899337D01*
X160027094Y-84899346D01*
X159965938Y-85127588D01*
X159965936Y-85127598D01*
X159945341Y-85363001D01*
X159945341Y-85363002D01*
X159965936Y-85598405D01*
X159965938Y-85598415D01*
X160027094Y-85826657D01*
X160027096Y-85826661D01*
X160027097Y-85826665D01*
X160068707Y-85915898D01*
X160126965Y-86040832D01*
X160126967Y-86040836D01*
X160262501Y-86234397D01*
X160262506Y-86234404D01*
X160429597Y-86401495D01*
X160429603Y-86401500D01*
X160615158Y-86531427D01*
X160658783Y-86586004D01*
X160665977Y-86655502D01*
X160634454Y-86717857D01*
X160615158Y-86734577D01*
X160429597Y-86864507D01*
X160262505Y-87031599D01*
X160126965Y-87225171D01*
X160126964Y-87225173D01*
X160027098Y-87439337D01*
X160027094Y-87439346D01*
X159965938Y-87667588D01*
X159965936Y-87667598D01*
X159945341Y-87903001D01*
X159945341Y-87903002D01*
X159965936Y-88138405D01*
X159965938Y-88138415D01*
X160027094Y-88366657D01*
X160027096Y-88366661D01*
X160027097Y-88366665D01*
X160062923Y-88443494D01*
X160126965Y-88580832D01*
X160126967Y-88580836D01*
X160262501Y-88774397D01*
X160262506Y-88774404D01*
X160429597Y-88941495D01*
X160429603Y-88941500D01*
X160615158Y-89071427D01*
X160658783Y-89126004D01*
X160665977Y-89195502D01*
X160634454Y-89257857D01*
X160615158Y-89274577D01*
X160429597Y-89404507D01*
X160262505Y-89571599D01*
X160126965Y-89765171D01*
X160126964Y-89765173D01*
X160027098Y-89979337D01*
X160027094Y-89979346D01*
X159965938Y-90207588D01*
X159965936Y-90207598D01*
X159945341Y-90443001D01*
X159945341Y-90443002D01*
X159965936Y-90678405D01*
X159965938Y-90678415D01*
X160027094Y-90906657D01*
X160027096Y-90906661D01*
X160027097Y-90906665D01*
X160113641Y-91092258D01*
X160126965Y-91120832D01*
X160126967Y-91120836D01*
X160162477Y-91171549D01*
X160246537Y-91291599D01*
X160262501Y-91314397D01*
X160262506Y-91314404D01*
X160429597Y-91481495D01*
X160429603Y-91481500D01*
X160615158Y-91611427D01*
X160658783Y-91666004D01*
X160665977Y-91735502D01*
X160634454Y-91797857D01*
X160615158Y-91814577D01*
X160429597Y-91944507D01*
X160262505Y-92111599D01*
X160126965Y-92305171D01*
X160126964Y-92305173D01*
X160027098Y-92519337D01*
X160027094Y-92519346D01*
X159965938Y-92747588D01*
X159965936Y-92747598D01*
X159945341Y-92983001D01*
X159945341Y-92983002D01*
X159965936Y-93218405D01*
X159965938Y-93218415D01*
X160027094Y-93446657D01*
X160027096Y-93446661D01*
X160027097Y-93446665D01*
X160126965Y-93660832D01*
X160126967Y-93660836D01*
X160262501Y-93854397D01*
X160262506Y-93854404D01*
X160429597Y-94021495D01*
X160429603Y-94021500D01*
X160615158Y-94151427D01*
X160658783Y-94206004D01*
X160665977Y-94275502D01*
X160634454Y-94337857D01*
X160615158Y-94354577D01*
X160429597Y-94484507D01*
X160262505Y-94651599D01*
X160126965Y-94845171D01*
X160126964Y-94845173D01*
X160027098Y-95059337D01*
X160027094Y-95059346D01*
X159965938Y-95287588D01*
X159965936Y-95287598D01*
X159945341Y-95523001D01*
X159945341Y-95523002D01*
X159965936Y-95758405D01*
X159965938Y-95758415D01*
X160027094Y-95986657D01*
X160027096Y-95986661D01*
X160027097Y-95986665D01*
X160126965Y-96200832D01*
X160126967Y-96200836D01*
X160262501Y-96394397D01*
X160262506Y-96394404D01*
X160429597Y-96561495D01*
X160429603Y-96561500D01*
X160615158Y-96691427D01*
X160658783Y-96746004D01*
X160665977Y-96815502D01*
X160634454Y-96877857D01*
X160615158Y-96894577D01*
X160429597Y-97024507D01*
X160262505Y-97191599D01*
X160126965Y-97385171D01*
X160126964Y-97385173D01*
X160027098Y-97599337D01*
X160027094Y-97599346D01*
X159965938Y-97827588D01*
X159965936Y-97827598D01*
X159945341Y-98063001D01*
X159945341Y-98063002D01*
X159965936Y-98298405D01*
X159965938Y-98298415D01*
X160027094Y-98526657D01*
X160027096Y-98526661D01*
X160027097Y-98526665D01*
X160096147Y-98674742D01*
X160126965Y-98740832D01*
X160126967Y-98740836D01*
X160262501Y-98934397D01*
X160262506Y-98934404D01*
X160429597Y-99101495D01*
X160429603Y-99101500D01*
X160615158Y-99231427D01*
X160658783Y-99286004D01*
X160665977Y-99355502D01*
X160634454Y-99417857D01*
X160615158Y-99434577D01*
X160429597Y-99564507D01*
X160262505Y-99731599D01*
X160126965Y-99925171D01*
X160126964Y-99925173D01*
X160027098Y-100139337D01*
X160027094Y-100139346D01*
X159965938Y-100367588D01*
X159965936Y-100367598D01*
X159945341Y-100603001D01*
X159945341Y-100603002D01*
X159965936Y-100838405D01*
X159965938Y-100838415D01*
X160027094Y-101066657D01*
X160027096Y-101066661D01*
X160027097Y-101066665D01*
X160126965Y-101280832D01*
X160126967Y-101280836D01*
X160262501Y-101474397D01*
X160262506Y-101474404D01*
X160429597Y-101641495D01*
X160429603Y-101641500D01*
X160615158Y-101771427D01*
X160658783Y-101826004D01*
X160665977Y-101895502D01*
X160634454Y-101957857D01*
X160615158Y-101974577D01*
X160429597Y-102104507D01*
X160262505Y-102271599D01*
X160126965Y-102465171D01*
X160126964Y-102465173D01*
X160027098Y-102679337D01*
X160027094Y-102679346D01*
X159965938Y-102907588D01*
X159965936Y-102907598D01*
X159945341Y-103143001D01*
X159945341Y-103143002D01*
X159965936Y-103378405D01*
X159965938Y-103378415D01*
X160027094Y-103606657D01*
X160027096Y-103606661D01*
X160027097Y-103606665D01*
X160126965Y-103820832D01*
X160126967Y-103820836D01*
X160262501Y-104014397D01*
X160262506Y-104014404D01*
X160429597Y-104181495D01*
X160429603Y-104181500D01*
X160615158Y-104311427D01*
X160658783Y-104366004D01*
X160665977Y-104435502D01*
X160634454Y-104497857D01*
X160615158Y-104514577D01*
X160429597Y-104644507D01*
X160262505Y-104811599D01*
X160126965Y-105005171D01*
X160126964Y-105005173D01*
X160027098Y-105219337D01*
X160027094Y-105219346D01*
X159965938Y-105447588D01*
X159965936Y-105447598D01*
X159945341Y-105683001D01*
X159945341Y-105683002D01*
X159965936Y-105918405D01*
X159965938Y-105918415D01*
X160027094Y-106146657D01*
X160027096Y-106146661D01*
X160027097Y-106146665D01*
X160098381Y-106299534D01*
X160126965Y-106360832D01*
X160126967Y-106360836D01*
X160262501Y-106554397D01*
X160262506Y-106554404D01*
X160429597Y-106721495D01*
X160429603Y-106721500D01*
X160615158Y-106851427D01*
X160658783Y-106906004D01*
X160665977Y-106975502D01*
X160634454Y-107037857D01*
X160615158Y-107054577D01*
X160429597Y-107184507D01*
X160262505Y-107351599D01*
X160126965Y-107545171D01*
X160126964Y-107545173D01*
X160027098Y-107759337D01*
X160027094Y-107759346D01*
X159965938Y-107987588D01*
X159965936Y-107987598D01*
X159945341Y-108223001D01*
X159945341Y-108223002D01*
X159965936Y-108458405D01*
X159965938Y-108458415D01*
X160027094Y-108686657D01*
X160027096Y-108686661D01*
X160027097Y-108686665D01*
X160103044Y-108849534D01*
X160126965Y-108900832D01*
X160126967Y-108900836D01*
X160262501Y-109094397D01*
X160262506Y-109094404D01*
X160429597Y-109261495D01*
X160429603Y-109261500D01*
X160615158Y-109391427D01*
X160658783Y-109446004D01*
X160665977Y-109515502D01*
X160634454Y-109577857D01*
X160615158Y-109594577D01*
X160429597Y-109724507D01*
X160262505Y-109891599D01*
X160126965Y-110085171D01*
X160126964Y-110085173D01*
X160027098Y-110299337D01*
X160027094Y-110299346D01*
X159965938Y-110527588D01*
X159965936Y-110527598D01*
X159945341Y-110763001D01*
X159945341Y-110763002D01*
X159965936Y-110998405D01*
X159965938Y-110998415D01*
X160027094Y-111226657D01*
X160027096Y-111226661D01*
X160027097Y-111226665D01*
X160107707Y-111399534D01*
X160126965Y-111440832D01*
X160126967Y-111440836D01*
X160262501Y-111634397D01*
X160262506Y-111634404D01*
X160429597Y-111801495D01*
X160429603Y-111801500D01*
X160615158Y-111931427D01*
X160658783Y-111986004D01*
X160665977Y-112055502D01*
X160634454Y-112117857D01*
X160615158Y-112134577D01*
X160429597Y-112264507D01*
X160262505Y-112431599D01*
X160126965Y-112625171D01*
X160126964Y-112625173D01*
X160027098Y-112839337D01*
X160027094Y-112839346D01*
X159965938Y-113067588D01*
X159965936Y-113067598D01*
X159945341Y-113303001D01*
X159945341Y-113303002D01*
X159965936Y-113538405D01*
X159965938Y-113538415D01*
X160027094Y-113766657D01*
X160027096Y-113766661D01*
X160027097Y-113766665D01*
X160052251Y-113820607D01*
X160126965Y-113980832D01*
X160126967Y-113980836D01*
X160262501Y-114174397D01*
X160262506Y-114174404D01*
X160429597Y-114341495D01*
X160429603Y-114341500D01*
X160615158Y-114471427D01*
X160658783Y-114526004D01*
X160665977Y-114595502D01*
X160634454Y-114657857D01*
X160615158Y-114674577D01*
X160429597Y-114804507D01*
X160262505Y-114971599D01*
X160126965Y-115165171D01*
X160126964Y-115165173D01*
X160027098Y-115379337D01*
X160027094Y-115379346D01*
X159965938Y-115607588D01*
X159965936Y-115607598D01*
X159945341Y-115843001D01*
X159945341Y-115843002D01*
X122074202Y-115843002D01*
X122081674Y-115820006D01*
X122101460Y-115631750D01*
X122081674Y-115443494D01*
X122023179Y-115263466D01*
X121928533Y-115099534D01*
X121919698Y-115089722D01*
X121889469Y-115026731D01*
X121898093Y-114957396D01*
X121919699Y-114923777D01*
X121928533Y-114913966D01*
X122023179Y-114750034D01*
X122045366Y-114681750D01*
X132190540Y-114681750D01*
X132210326Y-114870006D01*
X132210327Y-114870009D01*
X132268818Y-115050027D01*
X132268821Y-115050034D01*
X132363467Y-115213966D01*
X132408043Y-115263472D01*
X132490129Y-115354638D01*
X132643265Y-115465898D01*
X132643270Y-115465901D01*
X132816192Y-115542892D01*
X132816197Y-115542894D01*
X133001354Y-115582250D01*
X133001355Y-115582250D01*
X133190644Y-115582250D01*
X133190646Y-115582250D01*
X133375803Y-115542894D01*
X133548730Y-115465901D01*
X133701871Y-115354638D01*
X133828533Y-115213966D01*
X133923179Y-115050034D01*
X133981674Y-114870006D01*
X134001460Y-114681750D01*
X133981674Y-114493494D01*
X133923179Y-114313466D01*
X133828533Y-114149534D01*
X133701871Y-114008862D01*
X133701870Y-114008861D01*
X133548734Y-113897601D01*
X133548729Y-113897598D01*
X133375807Y-113820607D01*
X133375802Y-113820605D01*
X133230001Y-113789615D01*
X133190646Y-113781250D01*
X133001354Y-113781250D01*
X132968897Y-113788148D01*
X132816197Y-113820605D01*
X132816192Y-113820607D01*
X132643270Y-113897598D01*
X132643265Y-113897601D01*
X132490129Y-114008861D01*
X132363466Y-114149535D01*
X132268821Y-114313465D01*
X132268818Y-114313472D01*
X132217496Y-114471427D01*
X132210326Y-114493494D01*
X132190540Y-114681750D01*
X122045366Y-114681750D01*
X122081674Y-114570006D01*
X122101460Y-114381750D01*
X122081674Y-114193494D01*
X122023179Y-114013466D01*
X121928533Y-113849534D01*
X121919698Y-113839722D01*
X121889469Y-113776731D01*
X121898093Y-113707396D01*
X121919699Y-113673777D01*
X121928533Y-113663966D01*
X122023179Y-113500034D01*
X122081674Y-113320006D01*
X122096205Y-113181750D01*
X141090540Y-113181750D01*
X141110326Y-113370006D01*
X141110327Y-113370009D01*
X141168818Y-113550027D01*
X141168821Y-113550034D01*
X141263467Y-113713966D01*
X141385533Y-113849534D01*
X141390129Y-113854638D01*
X141543265Y-113965898D01*
X141543270Y-113965901D01*
X141716192Y-114042892D01*
X141716197Y-114042894D01*
X141901354Y-114082250D01*
X141901355Y-114082250D01*
X142090644Y-114082250D01*
X142090646Y-114082250D01*
X142275803Y-114042894D01*
X142448730Y-113965901D01*
X142601871Y-113854638D01*
X142728533Y-113713966D01*
X142823179Y-113550034D01*
X142881674Y-113370006D01*
X142901460Y-113181750D01*
X142881674Y-112993494D01*
X142823179Y-112813466D01*
X142728533Y-112649534D01*
X142719698Y-112639722D01*
X142689469Y-112576731D01*
X142698093Y-112507396D01*
X142719699Y-112473777D01*
X142728533Y-112463966D01*
X142823179Y-112300034D01*
X142881674Y-112120006D01*
X142901460Y-111931750D01*
X142881674Y-111743494D01*
X142823179Y-111563466D01*
X142728533Y-111399534D01*
X142719698Y-111389722D01*
X142715872Y-111381750D01*
X150240540Y-111381750D01*
X150260326Y-111570006D01*
X150260327Y-111570009D01*
X150318818Y-111750027D01*
X150318821Y-111750034D01*
X150413467Y-111913966D01*
X150500389Y-112010502D01*
X150540129Y-112054638D01*
X150693265Y-112165898D01*
X150693270Y-112165901D01*
X150866192Y-112242892D01*
X150866197Y-112242894D01*
X151051354Y-112282250D01*
X151051355Y-112282250D01*
X151240644Y-112282250D01*
X151240646Y-112282250D01*
X151425803Y-112242894D01*
X151598730Y-112165901D01*
X151751871Y-112054638D01*
X151878533Y-111913966D01*
X151973179Y-111750034D01*
X152031674Y-111570006D01*
X152051460Y-111381750D01*
X152031674Y-111193494D01*
X151973179Y-111013466D01*
X151878533Y-110849534D01*
X151751871Y-110708862D01*
X151751870Y-110708861D01*
X151598734Y-110597601D01*
X151598729Y-110597598D01*
X151425807Y-110520607D01*
X151425802Y-110520605D01*
X151280001Y-110489615D01*
X151240646Y-110481250D01*
X151051354Y-110481250D01*
X151018897Y-110488148D01*
X150866197Y-110520605D01*
X150866192Y-110520607D01*
X150693270Y-110597598D01*
X150693265Y-110597601D01*
X150540129Y-110708861D01*
X150413466Y-110849535D01*
X150318821Y-111013465D01*
X150318818Y-111013472D01*
X150269920Y-111163966D01*
X150260326Y-111193494D01*
X150240540Y-111381750D01*
X142715872Y-111381750D01*
X142689469Y-111326731D01*
X142698093Y-111257396D01*
X142719699Y-111223777D01*
X142728533Y-111213966D01*
X142823179Y-111050034D01*
X142881674Y-110870006D01*
X142901460Y-110681750D01*
X142881674Y-110493494D01*
X142823179Y-110313466D01*
X142728533Y-110149534D01*
X142697188Y-110114722D01*
X142666958Y-110051731D01*
X142675583Y-109982395D01*
X142697188Y-109948778D01*
X142698915Y-109946859D01*
X142728533Y-109913966D01*
X142823179Y-109750034D01*
X142881674Y-109570006D01*
X142901460Y-109381750D01*
X142881674Y-109193494D01*
X142823179Y-109013466D01*
X142728533Y-108849534D01*
X142728532Y-108849533D01*
X142727833Y-108848322D01*
X142711360Y-108780422D01*
X142734213Y-108714395D01*
X142743064Y-108703357D01*
X142778533Y-108663966D01*
X142873179Y-108500034D01*
X142931674Y-108320006D01*
X142951460Y-108131750D01*
X142931674Y-107943494D01*
X142873179Y-107763466D01*
X142778533Y-107599534D01*
X142722185Y-107536954D01*
X142691957Y-107473965D01*
X142700582Y-107404630D01*
X142722191Y-107371008D01*
X142728533Y-107363966D01*
X142823179Y-107200034D01*
X142881674Y-107020006D01*
X142901460Y-106831750D01*
X142881674Y-106643494D01*
X142823179Y-106463466D01*
X142776000Y-106381750D01*
X150340540Y-106381750D01*
X150360326Y-106570006D01*
X150360327Y-106570009D01*
X150418818Y-106750027D01*
X150418821Y-106750034D01*
X150513467Y-106913966D01*
X150590933Y-107000000D01*
X150640129Y-107054638D01*
X150793265Y-107165898D01*
X150793270Y-107165901D01*
X150966192Y-107242892D01*
X150966197Y-107242894D01*
X151151354Y-107282250D01*
X151151355Y-107282250D01*
X151340644Y-107282250D01*
X151340646Y-107282250D01*
X151525803Y-107242894D01*
X151698730Y-107165901D01*
X151851871Y-107054638D01*
X151978533Y-106913966D01*
X152056754Y-106778483D01*
X152107320Y-106730267D01*
X152175927Y-106717043D01*
X152189919Y-106719191D01*
X152251354Y-106732250D01*
X152440644Y-106732250D01*
X152440646Y-106732250D01*
X152625803Y-106692894D01*
X152798730Y-106615901D01*
X152951871Y-106504638D01*
X153078533Y-106363966D01*
X153173179Y-106200034D01*
X153231674Y-106020006D01*
X153251460Y-105831750D01*
X153231674Y-105643494D01*
X153173179Y-105463466D01*
X153078533Y-105299534D01*
X152951871Y-105158862D01*
X152951870Y-105158861D01*
X152798734Y-105047601D01*
X152798729Y-105047598D01*
X152625807Y-104970607D01*
X152625802Y-104970605D01*
X152480001Y-104939615D01*
X152440646Y-104931250D01*
X152251354Y-104931250D01*
X152218897Y-104938148D01*
X152066197Y-104970605D01*
X152066192Y-104970607D01*
X151893270Y-105047598D01*
X151893265Y-105047601D01*
X151740129Y-105158861D01*
X151613465Y-105299535D01*
X151535245Y-105435017D01*
X151484678Y-105483233D01*
X151416071Y-105496455D01*
X151402086Y-105494309D01*
X151340646Y-105481250D01*
X151151354Y-105481250D01*
X151142025Y-105483233D01*
X150966197Y-105520605D01*
X150966192Y-105520607D01*
X150793270Y-105597598D01*
X150793265Y-105597601D01*
X150640129Y-105708861D01*
X150513466Y-105849535D01*
X150418821Y-106013465D01*
X150418818Y-106013472D01*
X150360327Y-106193490D01*
X150360326Y-106193494D01*
X150340540Y-106381750D01*
X142776000Y-106381750D01*
X142728533Y-106299534D01*
X142728532Y-106299533D01*
X142727833Y-106298322D01*
X142711360Y-106230422D01*
X142734213Y-106164395D01*
X142743064Y-106153357D01*
X142778533Y-106113966D01*
X142873179Y-105950034D01*
X142931674Y-105770006D01*
X142951460Y-105581750D01*
X142931674Y-105393494D01*
X142873179Y-105213466D01*
X142794729Y-105077586D01*
X142779779Y-105051692D01*
X142763306Y-104983792D01*
X142786159Y-104917765D01*
X142795003Y-104906735D01*
X142878533Y-104813966D01*
X142973179Y-104650034D01*
X143031674Y-104470006D01*
X143051460Y-104281750D01*
X143031674Y-104093494D01*
X142973179Y-103913466D01*
X142897204Y-103781874D01*
X142880732Y-103713976D01*
X142897204Y-103657878D01*
X142973179Y-103526286D01*
X143031674Y-103346258D01*
X143051460Y-103158002D01*
X143031674Y-102969746D01*
X142973179Y-102789718D01*
X142878533Y-102625786D01*
X142751871Y-102485114D01*
X142751870Y-102485113D01*
X142598734Y-102373853D01*
X142598729Y-102373850D01*
X142425807Y-102296859D01*
X142425802Y-102296857D01*
X142271057Y-102263966D01*
X142240646Y-102257502D01*
X142051354Y-102257502D01*
X142020952Y-102263964D01*
X141866197Y-102296857D01*
X141866192Y-102296859D01*
X141693270Y-102373850D01*
X141693265Y-102373853D01*
X141540129Y-102485113D01*
X141413466Y-102625787D01*
X141318821Y-102789717D01*
X141318818Y-102789724D01*
X141280519Y-102907598D01*
X141260326Y-102969746D01*
X141240540Y-103158002D01*
X141260326Y-103346258D01*
X141260327Y-103346261D01*
X141318818Y-103526279D01*
X141318821Y-103526286D01*
X141394794Y-103657876D01*
X141411267Y-103725777D01*
X141394794Y-103781876D01*
X141318821Y-103913465D01*
X141318818Y-103913472D01*
X141260327Y-104093490D01*
X141260326Y-104093494D01*
X141240540Y-104281750D01*
X141260326Y-104470006D01*
X141260327Y-104470009D01*
X141318818Y-104650027D01*
X141318821Y-104650034D01*
X141412220Y-104811807D01*
X141428693Y-104879708D01*
X141405840Y-104945735D01*
X141396983Y-104956779D01*
X141313466Y-105049534D01*
X141218821Y-105213465D01*
X141218818Y-105213472D01*
X141190855Y-105299535D01*
X141160326Y-105393494D01*
X141140540Y-105581750D01*
X141160326Y-105770006D01*
X141160327Y-105770009D01*
X141218818Y-105950027D01*
X141218823Y-105950039D01*
X141314165Y-106115177D01*
X141330638Y-106183077D01*
X141307785Y-106249104D01*
X141298929Y-106260147D01*
X141263470Y-106299528D01*
X141263465Y-106299535D01*
X141168821Y-106463465D01*
X141168818Y-106463472D01*
X141110327Y-106643490D01*
X141110326Y-106643494D01*
X141090540Y-106831750D01*
X141110326Y-107020006D01*
X141110327Y-107020009D01*
X141168818Y-107200027D01*
X141168821Y-107200034D01*
X141263466Y-107363965D01*
X141319811Y-107426543D01*
X141350041Y-107489535D01*
X141341415Y-107558870D01*
X141319815Y-107592482D01*
X141313472Y-107599526D01*
X141313464Y-107599537D01*
X141218821Y-107763465D01*
X141218818Y-107763472D01*
X141160327Y-107943490D01*
X141160326Y-107943494D01*
X141140540Y-108131750D01*
X141160326Y-108320006D01*
X141160327Y-108320009D01*
X141218818Y-108500027D01*
X141218823Y-108500039D01*
X141314165Y-108665177D01*
X141330638Y-108733077D01*
X141307785Y-108799104D01*
X141298929Y-108810147D01*
X141263470Y-108849528D01*
X141263465Y-108849535D01*
X141168821Y-109013465D01*
X141168818Y-109013472D01*
X141142522Y-109094404D01*
X141110326Y-109193494D01*
X141090540Y-109381750D01*
X141110326Y-109570006D01*
X141110327Y-109570009D01*
X141168818Y-109750027D01*
X141168821Y-109750034D01*
X141263467Y-109913966D01*
X141279930Y-109932250D01*
X141294812Y-109948779D01*
X141325041Y-110011771D01*
X141316415Y-110081106D01*
X141294812Y-110114721D01*
X141263466Y-110149535D01*
X141168821Y-110313465D01*
X141168818Y-110313472D01*
X141126573Y-110443490D01*
X141110326Y-110493494D01*
X141090540Y-110681750D01*
X141110326Y-110870006D01*
X141110327Y-110870009D01*
X141168818Y-111050027D01*
X141168821Y-111050034D01*
X141263467Y-111213966D01*
X141269096Y-111220217D01*
X141272304Y-111223781D01*
X141302531Y-111286773D01*
X141293904Y-111356108D01*
X141272304Y-111389719D01*
X141263466Y-111399535D01*
X141168821Y-111563465D01*
X141168818Y-111563472D01*
X141126573Y-111693490D01*
X141110326Y-111743494D01*
X141090540Y-111931750D01*
X141110326Y-112120006D01*
X141110327Y-112120009D01*
X141168818Y-112300027D01*
X141168821Y-112300034D01*
X141263467Y-112463966D01*
X141269096Y-112470217D01*
X141272304Y-112473781D01*
X141302531Y-112536773D01*
X141293904Y-112606108D01*
X141272304Y-112639719D01*
X141263466Y-112649535D01*
X141168821Y-112813465D01*
X141168818Y-112813472D01*
X141126573Y-112943490D01*
X141110326Y-112993494D01*
X141090540Y-113181750D01*
X122096205Y-113181750D01*
X122101460Y-113131750D01*
X122081674Y-112943494D01*
X122023179Y-112763466D01*
X121928533Y-112599534D01*
X121919698Y-112589722D01*
X121889469Y-112526731D01*
X121898093Y-112457396D01*
X121919699Y-112423777D01*
X121928533Y-112413966D01*
X122023179Y-112250034D01*
X122081674Y-112070006D01*
X122101460Y-111881750D01*
X122090950Y-111781750D01*
X129340540Y-111781750D01*
X129360326Y-111970006D01*
X129360327Y-111970009D01*
X129418818Y-112150027D01*
X129418821Y-112150034D01*
X129513467Y-112313966D01*
X129603506Y-112413964D01*
X129640129Y-112454638D01*
X129793265Y-112565898D01*
X129793270Y-112565901D01*
X129966192Y-112642892D01*
X129966197Y-112642894D01*
X130151354Y-112682250D01*
X130151355Y-112682250D01*
X130340644Y-112682250D01*
X130340646Y-112682250D01*
X130525803Y-112642894D01*
X130698730Y-112565901D01*
X130851871Y-112454638D01*
X130978533Y-112313966D01*
X131073179Y-112150034D01*
X131131674Y-111970006D01*
X131146205Y-111831750D01*
X135040540Y-111831750D01*
X135060326Y-112020006D01*
X135060327Y-112020009D01*
X135118818Y-112200027D01*
X135118821Y-112200034D01*
X135213467Y-112363966D01*
X135274366Y-112431601D01*
X135340129Y-112504638D01*
X135493265Y-112615898D01*
X135493270Y-112615901D01*
X135666192Y-112692892D01*
X135666197Y-112692894D01*
X135851354Y-112732250D01*
X135851355Y-112732250D01*
X136040644Y-112732250D01*
X136040646Y-112732250D01*
X136225803Y-112692894D01*
X136398730Y-112615901D01*
X136551871Y-112504638D01*
X136678533Y-112363966D01*
X136773179Y-112200034D01*
X136831674Y-112020006D01*
X136851460Y-111831750D01*
X136831674Y-111643494D01*
X136773179Y-111463466D01*
X136678533Y-111299534D01*
X136551871Y-111158862D01*
X136483052Y-111108862D01*
X136398734Y-111047601D01*
X136398729Y-111047598D01*
X136225807Y-110970607D01*
X136225802Y-110970605D01*
X136080001Y-110939615D01*
X136040646Y-110931250D01*
X135851354Y-110931250D01*
X135818897Y-110938148D01*
X135666197Y-110970605D01*
X135666192Y-110970607D01*
X135493270Y-111047598D01*
X135493265Y-111047601D01*
X135340129Y-111158861D01*
X135213466Y-111299535D01*
X135118821Y-111463465D01*
X135118818Y-111463472D01*
X135060327Y-111643490D01*
X135060326Y-111643494D01*
X135040540Y-111831750D01*
X131146205Y-111831750D01*
X131151460Y-111781750D01*
X131131674Y-111593494D01*
X131073179Y-111413466D01*
X130978533Y-111249534D01*
X130851871Y-111108862D01*
X130851870Y-111108861D01*
X130698734Y-110997601D01*
X130698729Y-110997598D01*
X130525807Y-110920607D01*
X130525802Y-110920605D01*
X130380001Y-110889615D01*
X130340646Y-110881250D01*
X130151354Y-110881250D01*
X130118897Y-110888148D01*
X129966197Y-110920605D01*
X129966192Y-110920607D01*
X129793270Y-110997598D01*
X129793265Y-110997601D01*
X129640129Y-111108861D01*
X129513466Y-111249535D01*
X129418821Y-111413465D01*
X129418818Y-111413472D01*
X129360327Y-111593490D01*
X129360326Y-111593494D01*
X129340540Y-111781750D01*
X122090950Y-111781750D01*
X122081674Y-111693494D01*
X122023179Y-111513466D01*
X121928533Y-111349534D01*
X121919698Y-111339722D01*
X121889469Y-111276731D01*
X121898093Y-111207396D01*
X121919699Y-111173777D01*
X121928533Y-111163966D01*
X122023179Y-111000034D01*
X122081674Y-110820006D01*
X122101460Y-110631750D01*
X122081674Y-110443494D01*
X122023179Y-110263466D01*
X121928533Y-110099534D01*
X121919698Y-110089722D01*
X121889469Y-110026731D01*
X121898093Y-109957396D01*
X121919699Y-109923777D01*
X121928533Y-109913966D01*
X122023179Y-109750034D01*
X122081674Y-109570006D01*
X122101460Y-109381750D01*
X122081674Y-109193494D01*
X122029120Y-109031750D01*
X132240540Y-109031750D01*
X132260326Y-109220006D01*
X132260327Y-109220009D01*
X132318818Y-109400027D01*
X132318821Y-109400034D01*
X132413467Y-109563966D01*
X132540129Y-109704638D01*
X132693265Y-109815898D01*
X132693270Y-109815901D01*
X132866192Y-109892892D01*
X132866197Y-109892894D01*
X133051354Y-109932250D01*
X133051355Y-109932250D01*
X133240644Y-109932250D01*
X133240646Y-109932250D01*
X133425803Y-109892894D01*
X133598730Y-109815901D01*
X133751871Y-109704638D01*
X133878533Y-109563966D01*
X133973179Y-109400034D01*
X134031674Y-109220006D01*
X134051460Y-109031750D01*
X134031674Y-108843494D01*
X133973735Y-108665177D01*
X133973181Y-108663472D01*
X133973180Y-108663471D01*
X133973179Y-108663466D01*
X133878533Y-108499534D01*
X133751871Y-108358862D01*
X133751870Y-108358861D01*
X133598734Y-108247601D01*
X133598729Y-108247598D01*
X133425807Y-108170607D01*
X133425802Y-108170605D01*
X133280001Y-108139615D01*
X133240646Y-108131250D01*
X133051354Y-108131250D01*
X133018897Y-108138148D01*
X132866197Y-108170605D01*
X132866192Y-108170607D01*
X132693270Y-108247598D01*
X132693265Y-108247601D01*
X132540129Y-108358861D01*
X132413466Y-108499535D01*
X132318821Y-108663465D01*
X132318818Y-108663472D01*
X132261551Y-108839723D01*
X132260326Y-108843494D01*
X132240540Y-109031750D01*
X122029120Y-109031750D01*
X122023179Y-109013466D01*
X121928533Y-108849534D01*
X121919698Y-108839722D01*
X121889469Y-108776731D01*
X121898093Y-108707396D01*
X121919699Y-108673777D01*
X121928533Y-108663966D01*
X122023179Y-108500034D01*
X122081674Y-108320006D01*
X122101460Y-108131750D01*
X122081674Y-107943494D01*
X122023179Y-107763466D01*
X121928533Y-107599534D01*
X121919698Y-107589722D01*
X121889469Y-107526731D01*
X121898093Y-107457396D01*
X121919699Y-107423777D01*
X121928533Y-107413966D01*
X122023179Y-107250034D01*
X122081674Y-107070006D01*
X122101460Y-106881750D01*
X122081674Y-106693494D01*
X122023179Y-106513466D01*
X121928533Y-106349534D01*
X121919698Y-106339722D01*
X121889469Y-106276731D01*
X121898093Y-106207396D01*
X121919699Y-106173777D01*
X121928533Y-106163966D01*
X122023179Y-106000034D01*
X122081674Y-105820006D01*
X122101460Y-105631750D01*
X122081674Y-105443494D01*
X122023179Y-105263466D01*
X121928533Y-105099534D01*
X121919698Y-105089722D01*
X121889469Y-105026731D01*
X121898093Y-104957396D01*
X121919699Y-104923777D01*
X121925112Y-104917765D01*
X121928533Y-104913966D01*
X122023179Y-104750034D01*
X122081674Y-104570006D01*
X122101460Y-104381750D01*
X122081674Y-104193494D01*
X122023179Y-104013466D01*
X121928533Y-103849534D01*
X121801871Y-103708862D01*
X121731695Y-103657876D01*
X121648734Y-103597601D01*
X121648729Y-103597598D01*
X121475807Y-103520607D01*
X121475802Y-103520605D01*
X121330001Y-103489615D01*
X121290646Y-103481250D01*
X121101354Y-103481250D01*
X121068897Y-103488148D01*
X120916197Y-103520605D01*
X120916192Y-103520607D01*
X120743270Y-103597598D01*
X120743265Y-103597601D01*
X120590129Y-103708861D01*
X120463466Y-103849535D01*
X120368821Y-104013465D01*
X120368818Y-104013472D01*
X120314224Y-104181497D01*
X120310326Y-104193494D01*
X120290540Y-104381750D01*
X120310326Y-104570006D01*
X120310327Y-104570009D01*
X120368818Y-104750027D01*
X120368821Y-104750034D01*
X120463467Y-104913966D01*
X120466888Y-104917765D01*
X120472304Y-104923781D01*
X120502531Y-104986773D01*
X120493904Y-105056108D01*
X120472304Y-105089719D01*
X120463466Y-105099535D01*
X120368821Y-105263465D01*
X120368818Y-105263472D01*
X120326573Y-105393490D01*
X120310326Y-105443494D01*
X120290540Y-105631750D01*
X120310326Y-105820006D01*
X120310327Y-105820009D01*
X120368818Y-106000027D01*
X120368821Y-106000034D01*
X120463467Y-106163966D01*
X120469096Y-106170217D01*
X120472304Y-106173781D01*
X120502531Y-106236773D01*
X120493904Y-106306108D01*
X120472304Y-106339719D01*
X120463466Y-106349535D01*
X120368821Y-106513465D01*
X120368818Y-106513472D01*
X120310521Y-106692894D01*
X120310326Y-106693494D01*
X120290540Y-106881750D01*
X120310326Y-107070006D01*
X120310327Y-107070009D01*
X120368818Y-107250027D01*
X120368821Y-107250034D01*
X120463467Y-107413966D01*
X120469096Y-107420217D01*
X120472304Y-107423781D01*
X120502531Y-107486773D01*
X120493904Y-107556108D01*
X120472304Y-107589719D01*
X120463466Y-107599535D01*
X120368821Y-107763465D01*
X120368818Y-107763472D01*
X120310327Y-107943490D01*
X120310326Y-107943494D01*
X120290540Y-108131750D01*
X120310326Y-108320006D01*
X120310327Y-108320009D01*
X120368818Y-108500027D01*
X120368821Y-108500034D01*
X120463467Y-108663966D01*
X120469096Y-108670217D01*
X120472304Y-108673781D01*
X120502531Y-108736773D01*
X120493904Y-108806108D01*
X120472304Y-108839719D01*
X120463466Y-108849535D01*
X120368821Y-109013465D01*
X120368818Y-109013472D01*
X120342522Y-109094404D01*
X120310326Y-109193494D01*
X120290540Y-109381750D01*
X120310326Y-109570006D01*
X120310327Y-109570009D01*
X120368818Y-109750027D01*
X120368821Y-109750034D01*
X120463467Y-109913966D01*
X120469096Y-109920217D01*
X120472304Y-109923781D01*
X120502531Y-109986773D01*
X120493904Y-110056108D01*
X120472304Y-110089719D01*
X120463466Y-110099535D01*
X120368821Y-110263465D01*
X120368818Y-110263472D01*
X120310327Y-110443490D01*
X120310326Y-110443494D01*
X120290540Y-110631750D01*
X120310326Y-110820006D01*
X120310327Y-110820009D01*
X120368818Y-111000027D01*
X120368821Y-111000034D01*
X120463467Y-111163966D01*
X120469096Y-111170217D01*
X120472304Y-111173781D01*
X120502531Y-111236773D01*
X120493904Y-111306108D01*
X120472304Y-111339719D01*
X120463466Y-111349535D01*
X120368821Y-111513465D01*
X120368818Y-111513472D01*
X120326573Y-111643490D01*
X120310326Y-111693494D01*
X120290540Y-111881750D01*
X120310326Y-112070006D01*
X120310327Y-112070009D01*
X120368818Y-112250027D01*
X120368821Y-112250034D01*
X120463467Y-112413966D01*
X120469096Y-112420217D01*
X120472304Y-112423781D01*
X120502531Y-112486773D01*
X120493904Y-112556108D01*
X120472304Y-112589719D01*
X120463466Y-112599535D01*
X120368821Y-112763465D01*
X120368818Y-112763472D01*
X120310327Y-112943490D01*
X120310326Y-112943494D01*
X120290540Y-113131750D01*
X120310326Y-113320006D01*
X120310327Y-113320009D01*
X120368818Y-113500027D01*
X120368821Y-113500034D01*
X120463467Y-113663966D01*
X120469096Y-113670217D01*
X120472304Y-113673781D01*
X120502531Y-113736773D01*
X120493904Y-113806108D01*
X120472304Y-113839719D01*
X120463466Y-113849535D01*
X120368821Y-114013465D01*
X120368818Y-114013472D01*
X120310327Y-114193490D01*
X120310326Y-114193494D01*
X120290540Y-114381750D01*
X120310326Y-114570006D01*
X120310327Y-114570009D01*
X120368818Y-114750027D01*
X120368821Y-114750034D01*
X120463467Y-114913966D01*
X120469096Y-114920217D01*
X120472304Y-114923781D01*
X120502531Y-114986773D01*
X120493904Y-115056108D01*
X120472304Y-115089719D01*
X120463466Y-115099535D01*
X120368821Y-115263465D01*
X120368818Y-115263472D01*
X120331171Y-115379339D01*
X120310326Y-115443494D01*
X120290540Y-115631750D01*
X120310326Y-115820006D01*
X120310327Y-115820009D01*
X120368818Y-116000027D01*
X120368821Y-116000034D01*
X120463464Y-116163962D01*
X120463465Y-116163964D01*
X120463467Y-116163966D01*
X120515212Y-116221434D01*
X120539832Y-116248778D01*
X120570061Y-116311770D01*
X120561435Y-116381105D01*
X120539832Y-116414722D01*
X120463464Y-116499537D01*
X120368821Y-116663465D01*
X120368818Y-116663472D01*
X120312528Y-116836716D01*
X120310326Y-116843494D01*
X120290540Y-117031750D01*
X120310326Y-117220006D01*
X120310327Y-117220009D01*
X120368818Y-117400027D01*
X120368821Y-117400034D01*
X120463467Y-117563966D01*
X120469096Y-117570217D01*
X120472304Y-117573781D01*
X120502531Y-117636773D01*
X120493904Y-117706108D01*
X120472304Y-117739719D01*
X120463466Y-117749535D01*
X120368821Y-117913465D01*
X120368818Y-117913472D01*
X120323742Y-118052204D01*
X120310326Y-118093494D01*
X120290540Y-118281750D01*
X120310326Y-118470006D01*
X120310327Y-118470009D01*
X120368818Y-118650027D01*
X120368821Y-118650034D01*
X120463467Y-118813966D01*
X120475780Y-118827641D01*
X120484571Y-118837405D01*
X120514800Y-118900397D01*
X120506174Y-118969732D01*
X120484571Y-119003347D01*
X120463466Y-119026787D01*
X120368821Y-119190717D01*
X120368818Y-119190724D01*
X120310327Y-119370742D01*
X120310326Y-119370746D01*
X120290540Y-119559002D01*
X117531537Y-119559002D01*
X117594350Y-119475095D01*
X117594354Y-119475088D01*
X117644596Y-119340381D01*
X117644598Y-119340374D01*
X117650999Y-119280846D01*
X117651000Y-119280829D01*
X117651000Y-118633002D01*
X116734686Y-118633002D01*
X116760493Y-118592846D01*
X116801000Y-118454891D01*
X116801000Y-118311113D01*
X116760493Y-118173158D01*
X116734686Y-118133002D01*
X117651000Y-118133002D01*
X117651000Y-117485174D01*
X117650999Y-117485157D01*
X117644598Y-117425629D01*
X117644596Y-117425622D01*
X117594354Y-117290915D01*
X117594350Y-117290908D01*
X117508190Y-117175814D01*
X117508187Y-117175811D01*
X117393093Y-117089651D01*
X117393088Y-117089648D01*
X117261528Y-117040579D01*
X117205595Y-116998707D01*
X117181178Y-116933243D01*
X117196030Y-116864970D01*
X117217175Y-116836722D01*
X117339495Y-116714403D01*
X117475035Y-116520832D01*
X117574903Y-116306665D01*
X117636063Y-116078410D01*
X117656659Y-115843002D01*
X117636063Y-115607594D01*
X117574903Y-115379339D01*
X117475035Y-115165173D01*
X117429075Y-115099534D01*
X117339494Y-114971599D01*
X117172402Y-114804508D01*
X117172396Y-114804503D01*
X116986842Y-114674577D01*
X116943217Y-114620000D01*
X116936023Y-114550502D01*
X116967546Y-114488147D01*
X116986842Y-114471427D01*
X117009026Y-114455893D01*
X117172401Y-114341497D01*
X117339495Y-114174403D01*
X117475035Y-113980832D01*
X117574903Y-113766665D01*
X117636063Y-113538410D01*
X117656659Y-113303002D01*
X117636063Y-113067594D01*
X117574903Y-112839339D01*
X117475035Y-112625173D01*
X117457084Y-112599535D01*
X117339494Y-112431599D01*
X117172402Y-112264508D01*
X117172396Y-112264503D01*
X116986842Y-112134577D01*
X116943217Y-112080000D01*
X116936023Y-112010502D01*
X116967546Y-111948147D01*
X116986842Y-111931427D01*
X117129195Y-111831750D01*
X117172401Y-111801497D01*
X117339495Y-111634403D01*
X117475035Y-111440832D01*
X117574903Y-111226665D01*
X117636063Y-110998410D01*
X117656659Y-110763002D01*
X117636063Y-110527594D01*
X117574903Y-110299339D01*
X117475035Y-110085173D01*
X117472188Y-110081106D01*
X117339494Y-109891599D01*
X117172402Y-109724508D01*
X117172396Y-109724503D01*
X116986842Y-109594577D01*
X116943217Y-109540000D01*
X116936023Y-109470502D01*
X116967546Y-109408147D01*
X116986842Y-109391427D01*
X117009026Y-109375893D01*
X117172401Y-109261497D01*
X117339495Y-109094403D01*
X117475035Y-108900832D01*
X117574903Y-108686665D01*
X117636063Y-108458410D01*
X117656659Y-108223002D01*
X117636063Y-107987594D01*
X117589626Y-107814287D01*
X117574905Y-107759346D01*
X117574904Y-107759345D01*
X117574903Y-107759339D01*
X117475035Y-107545173D01*
X117469283Y-107536957D01*
X117339494Y-107351599D01*
X117172402Y-107184508D01*
X117172396Y-107184503D01*
X116986842Y-107054577D01*
X116943217Y-107000000D01*
X116936023Y-106930502D01*
X116967546Y-106868147D01*
X116986842Y-106851427D01*
X117014944Y-106831750D01*
X117172401Y-106721497D01*
X117339495Y-106554403D01*
X117475035Y-106360832D01*
X117574903Y-106146665D01*
X117636063Y-105918410D01*
X117656659Y-105683002D01*
X117636063Y-105447594D01*
X117574903Y-105219339D01*
X117475035Y-105005173D01*
X117462152Y-104986773D01*
X117339494Y-104811599D01*
X117172402Y-104644508D01*
X117172396Y-104644503D01*
X116986842Y-104514577D01*
X116943217Y-104460000D01*
X116936023Y-104390502D01*
X116967546Y-104328147D01*
X116986842Y-104311427D01*
X117029225Y-104281750D01*
X117172401Y-104181497D01*
X117339495Y-104014403D01*
X117475035Y-103820832D01*
X117574903Y-103606665D01*
X117636063Y-103378410D01*
X117656659Y-103143002D01*
X117636063Y-102907594D01*
X117574903Y-102679339D01*
X117475035Y-102465173D01*
X117432649Y-102404638D01*
X117339494Y-102271599D01*
X117172402Y-102104508D01*
X117172396Y-102104503D01*
X116986842Y-101974577D01*
X116943217Y-101920000D01*
X116936023Y-101850502D01*
X116967546Y-101788147D01*
X116986842Y-101771427D01*
X117043506Y-101731750D01*
X143190540Y-101731750D01*
X143210326Y-101920006D01*
X143210327Y-101920009D01*
X143268818Y-102100027D01*
X143268821Y-102100034D01*
X143363467Y-102263966D01*
X143462407Y-102373850D01*
X143490129Y-102404638D01*
X143643265Y-102515898D01*
X143643270Y-102515901D01*
X143816192Y-102592892D01*
X143816197Y-102592894D01*
X144001354Y-102632250D01*
X144001355Y-102632250D01*
X144190644Y-102632250D01*
X144190646Y-102632250D01*
X144375803Y-102592894D01*
X144548730Y-102515901D01*
X144701871Y-102404638D01*
X144828533Y-102263966D01*
X144923179Y-102100034D01*
X144981674Y-101920006D01*
X145001460Y-101731750D01*
X144981674Y-101543494D01*
X144929120Y-101381750D01*
X154765540Y-101381750D01*
X154785326Y-101570006D01*
X154785327Y-101570009D01*
X154843818Y-101750027D01*
X154843821Y-101750034D01*
X154938467Y-101913966D01*
X154993042Y-101974577D01*
X155065129Y-102054638D01*
X155218265Y-102165898D01*
X155218270Y-102165901D01*
X155391192Y-102242892D01*
X155391197Y-102242894D01*
X155576354Y-102282250D01*
X155576355Y-102282250D01*
X155765644Y-102282250D01*
X155765646Y-102282250D01*
X155950803Y-102242894D01*
X156123730Y-102165901D01*
X156123738Y-102165894D01*
X156129357Y-102162652D01*
X156130060Y-102163870D01*
X156188919Y-102142868D01*
X156256973Y-102158692D01*
X156267480Y-102165445D01*
X156268265Y-102165897D01*
X156268270Y-102165901D01*
X156371586Y-102211901D01*
X156441192Y-102242892D01*
X156441197Y-102242894D01*
X156626354Y-102282250D01*
X156626355Y-102282250D01*
X156815644Y-102282250D01*
X156815646Y-102282250D01*
X157000803Y-102242894D01*
X157173730Y-102165901D01*
X157326871Y-102054638D01*
X157453533Y-101913966D01*
X157548179Y-101750034D01*
X157606674Y-101570006D01*
X157626460Y-101381750D01*
X157606674Y-101193494D01*
X157548179Y-101013466D01*
X157453533Y-100849534D01*
X157326871Y-100708862D01*
X157321059Y-100704639D01*
X157173734Y-100597601D01*
X157173729Y-100597598D01*
X157000807Y-100520607D01*
X157000802Y-100520605D01*
X156855001Y-100489615D01*
X156815646Y-100481250D01*
X156626354Y-100481250D01*
X156593897Y-100488148D01*
X156441197Y-100520605D01*
X156441192Y-100520607D01*
X156268270Y-100597598D01*
X156262637Y-100600851D01*
X156261934Y-100599633D01*
X156203068Y-100620631D01*
X156135016Y-100604800D01*
X156124526Y-100598058D01*
X156123729Y-100597598D01*
X155950807Y-100520607D01*
X155950802Y-100520605D01*
X155805001Y-100489615D01*
X155765646Y-100481250D01*
X155576354Y-100481250D01*
X155543897Y-100488148D01*
X155391197Y-100520605D01*
X155391192Y-100520607D01*
X155218270Y-100597598D01*
X155218265Y-100597601D01*
X155065129Y-100708861D01*
X154938466Y-100849535D01*
X154843821Y-101013465D01*
X154843818Y-101013472D01*
X154785327Y-101193490D01*
X154785326Y-101193494D01*
X154765540Y-101381750D01*
X144929120Y-101381750D01*
X144923179Y-101363466D01*
X144828533Y-101199534D01*
X144701871Y-101058862D01*
X144679893Y-101042894D01*
X144548734Y-100947601D01*
X144548729Y-100947598D01*
X144375807Y-100870607D01*
X144375802Y-100870605D01*
X144224308Y-100838405D01*
X144190646Y-100831250D01*
X144001354Y-100831250D01*
X143968897Y-100838148D01*
X143816197Y-100870605D01*
X143816192Y-100870607D01*
X143643270Y-100947598D01*
X143643265Y-100947601D01*
X143490129Y-101058861D01*
X143363466Y-101199535D01*
X143268821Y-101363465D01*
X143268818Y-101363472D01*
X143210327Y-101543490D01*
X143210326Y-101543494D01*
X143190540Y-101731750D01*
X117043506Y-101731750D01*
X117172401Y-101641497D01*
X117339495Y-101474403D01*
X117475035Y-101280832D01*
X117574903Y-101066665D01*
X117636063Y-100838410D01*
X117656659Y-100603002D01*
X117656226Y-100598058D01*
X117638901Y-100400034D01*
X117636063Y-100367594D01*
X117574903Y-100139339D01*
X117501417Y-99981750D01*
X126190540Y-99981750D01*
X126210326Y-100170006D01*
X126210327Y-100170009D01*
X126268818Y-100350027D01*
X126268821Y-100350034D01*
X126363467Y-100513966D01*
X126438770Y-100597598D01*
X126490129Y-100654638D01*
X126643265Y-100765898D01*
X126643270Y-100765901D01*
X126816192Y-100842892D01*
X126816197Y-100842894D01*
X127001354Y-100882250D01*
X127001355Y-100882250D01*
X127190644Y-100882250D01*
X127190646Y-100882250D01*
X127375803Y-100842894D01*
X127548730Y-100765901D01*
X127667911Y-100679310D01*
X127733714Y-100655832D01*
X127801768Y-100671657D01*
X127832945Y-100696659D01*
X127840130Y-100704639D01*
X127840135Y-100704643D01*
X127993265Y-100815898D01*
X127993270Y-100815901D01*
X128166192Y-100892892D01*
X128166197Y-100892894D01*
X128351354Y-100932250D01*
X128351355Y-100932250D01*
X128540644Y-100932250D01*
X128540646Y-100932250D01*
X128725803Y-100892894D01*
X128898730Y-100815901D01*
X129051871Y-100704638D01*
X129178533Y-100563966D01*
X129273179Y-100400034D01*
X129331674Y-100220006D01*
X129340950Y-100131750D01*
X131340540Y-100131750D01*
X131360326Y-100320006D01*
X131360327Y-100320009D01*
X131418818Y-100500027D01*
X131418821Y-100500034D01*
X131513467Y-100663966D01*
X131605247Y-100765898D01*
X131640129Y-100804638D01*
X131793265Y-100915898D01*
X131793270Y-100915901D01*
X131966192Y-100992892D01*
X131966197Y-100992894D01*
X132151354Y-101032250D01*
X132151355Y-101032250D01*
X132340644Y-101032250D01*
X132340646Y-101032250D01*
X132525803Y-100992894D01*
X132698730Y-100915901D01*
X132788748Y-100850499D01*
X132854553Y-100827020D01*
X132922607Y-100842845D01*
X132934470Y-100851368D01*
X132934871Y-100850818D01*
X133093265Y-100965898D01*
X133093270Y-100965901D01*
X133266192Y-101042892D01*
X133266197Y-101042894D01*
X133451354Y-101082250D01*
X133451355Y-101082250D01*
X133640644Y-101082250D01*
X133640646Y-101082250D01*
X133825803Y-101042894D01*
X133998730Y-100965901D01*
X134098115Y-100893694D01*
X134163921Y-100870214D01*
X134231975Y-100886039D01*
X134243885Y-100893694D01*
X134343265Y-100965898D01*
X134343270Y-100965901D01*
X134516192Y-101042892D01*
X134516197Y-101042894D01*
X134701354Y-101082250D01*
X134701355Y-101082250D01*
X134890644Y-101082250D01*
X134890646Y-101082250D01*
X135075803Y-101042894D01*
X135248730Y-100965901D01*
X135348115Y-100893694D01*
X135413921Y-100870214D01*
X135481975Y-100886039D01*
X135493885Y-100893694D01*
X135593265Y-100965898D01*
X135593270Y-100965901D01*
X135766192Y-101042892D01*
X135766197Y-101042894D01*
X135951354Y-101082250D01*
X135951355Y-101082250D01*
X136140644Y-101082250D01*
X136140646Y-101082250D01*
X136325803Y-101042894D01*
X136498730Y-100965901D01*
X136623116Y-100875528D01*
X136688921Y-100852050D01*
X136756975Y-100867875D01*
X136768872Y-100875521D01*
X136868082Y-100947601D01*
X136893270Y-100965901D01*
X137066192Y-101042892D01*
X137066197Y-101042894D01*
X137251354Y-101082250D01*
X137251355Y-101082250D01*
X137440644Y-101082250D01*
X137440646Y-101082250D01*
X137625803Y-101042894D01*
X137798730Y-100965901D01*
X137898115Y-100893694D01*
X137963921Y-100870214D01*
X138031975Y-100886039D01*
X138043885Y-100893694D01*
X138143265Y-100965898D01*
X138143270Y-100965901D01*
X138316192Y-101042892D01*
X138316197Y-101042894D01*
X138501354Y-101082250D01*
X138501355Y-101082250D01*
X138690644Y-101082250D01*
X138690646Y-101082250D01*
X138875803Y-101042894D01*
X139048730Y-100965901D01*
X139201871Y-100854638D01*
X139328533Y-100713966D01*
X139423179Y-100550034D01*
X139481674Y-100370006D01*
X139501460Y-100181750D01*
X139481674Y-99993494D01*
X139423179Y-99813466D01*
X139328533Y-99649534D01*
X139201871Y-99508862D01*
X139201870Y-99508861D01*
X139048734Y-99397601D01*
X139048729Y-99397598D01*
X138875807Y-99320607D01*
X138875802Y-99320605D01*
X138713012Y-99286004D01*
X138690646Y-99281250D01*
X138501354Y-99281250D01*
X138478988Y-99286004D01*
X138316197Y-99320605D01*
X138316192Y-99320607D01*
X138143271Y-99397598D01*
X138043885Y-99469806D01*
X137978078Y-99493285D01*
X137910025Y-99477459D01*
X137898115Y-99469806D01*
X137849626Y-99434577D01*
X137798730Y-99397599D01*
X137798728Y-99397598D01*
X137798729Y-99397598D01*
X137625807Y-99320607D01*
X137625802Y-99320605D01*
X137463012Y-99286004D01*
X137440646Y-99281250D01*
X137251354Y-99281250D01*
X137228988Y-99286004D01*
X137066197Y-99320605D01*
X137066192Y-99320607D01*
X136893271Y-99397598D01*
X136768885Y-99487969D01*
X136703078Y-99511448D01*
X136635024Y-99495622D01*
X136623115Y-99487969D01*
X136549626Y-99434577D01*
X136498730Y-99397599D01*
X136498728Y-99397598D01*
X136498729Y-99397598D01*
X136325807Y-99320607D01*
X136325802Y-99320605D01*
X136163012Y-99286004D01*
X136140646Y-99281250D01*
X135951354Y-99281250D01*
X135928988Y-99286004D01*
X135766197Y-99320605D01*
X135766192Y-99320607D01*
X135593271Y-99397598D01*
X135493885Y-99469806D01*
X135428078Y-99493285D01*
X135360025Y-99477459D01*
X135348115Y-99469806D01*
X135299626Y-99434577D01*
X135248730Y-99397599D01*
X135248728Y-99397598D01*
X135248729Y-99397598D01*
X135075807Y-99320607D01*
X135075802Y-99320605D01*
X134913012Y-99286004D01*
X134890646Y-99281250D01*
X134701354Y-99281250D01*
X134678988Y-99286004D01*
X134516197Y-99320605D01*
X134516192Y-99320607D01*
X134343271Y-99397598D01*
X134243885Y-99469806D01*
X134178078Y-99493285D01*
X134110025Y-99477459D01*
X134098115Y-99469806D01*
X134049626Y-99434577D01*
X133998730Y-99397599D01*
X133998728Y-99397598D01*
X133998729Y-99397598D01*
X133825807Y-99320607D01*
X133825802Y-99320605D01*
X133663012Y-99286004D01*
X133640646Y-99281250D01*
X133451354Y-99281250D01*
X133428988Y-99286004D01*
X133266197Y-99320605D01*
X133266192Y-99320607D01*
X133093270Y-99397598D01*
X133093266Y-99397601D01*
X133003250Y-99463000D01*
X132937443Y-99486479D01*
X132869390Y-99470653D01*
X132857534Y-99462124D01*
X132857129Y-99462682D01*
X132698734Y-99347601D01*
X132698729Y-99347598D01*
X132525807Y-99270607D01*
X132525802Y-99270605D01*
X132367872Y-99237037D01*
X132340646Y-99231250D01*
X132151354Y-99231250D01*
X132124128Y-99237037D01*
X131966197Y-99270605D01*
X131966192Y-99270607D01*
X131793270Y-99347598D01*
X131793265Y-99347601D01*
X131640129Y-99458861D01*
X131513466Y-99599535D01*
X131418821Y-99763465D01*
X131418818Y-99763472D01*
X131366279Y-99925173D01*
X131360326Y-99943494D01*
X131340540Y-100131750D01*
X129340950Y-100131750D01*
X129351460Y-100031750D01*
X129331674Y-99843494D01*
X129273179Y-99663466D01*
X129178533Y-99499534D01*
X129051871Y-99358862D01*
X129050225Y-99357666D01*
X128898734Y-99247601D01*
X128898729Y-99247598D01*
X128725807Y-99170607D01*
X128725802Y-99170605D01*
X128580001Y-99139615D01*
X128540646Y-99131250D01*
X128351354Y-99131250D01*
X128318897Y-99138148D01*
X128166197Y-99170605D01*
X128166192Y-99170607D01*
X127993270Y-99247598D01*
X127993266Y-99247600D01*
X127874089Y-99334187D01*
X127808283Y-99357666D01*
X127740229Y-99341840D01*
X127709057Y-99316843D01*
X127701871Y-99308862D01*
X127701870Y-99308861D01*
X127701869Y-99308860D01*
X127548734Y-99197601D01*
X127548729Y-99197598D01*
X127375807Y-99120607D01*
X127375802Y-99120605D01*
X127230001Y-99089615D01*
X127190646Y-99081250D01*
X127001354Y-99081250D01*
X126968897Y-99088148D01*
X126816197Y-99120605D01*
X126816192Y-99120607D01*
X126643270Y-99197598D01*
X126643265Y-99197601D01*
X126490129Y-99308861D01*
X126363466Y-99449535D01*
X126268821Y-99613465D01*
X126268818Y-99613472D01*
X126220071Y-99763502D01*
X126210326Y-99793494D01*
X126190540Y-99981750D01*
X117501417Y-99981750D01*
X117475035Y-99925173D01*
X117417841Y-99843490D01*
X117339494Y-99731599D01*
X117172402Y-99564508D01*
X117172396Y-99564503D01*
X116986842Y-99434577D01*
X116943217Y-99380000D01*
X116936023Y-99310502D01*
X116967546Y-99248147D01*
X116986842Y-99231427D01*
X117073703Y-99170606D01*
X117172401Y-99101497D01*
X117339495Y-98934403D01*
X117389491Y-98863002D01*
X141845540Y-98863002D01*
X141865326Y-99051258D01*
X141865327Y-99051261D01*
X141923818Y-99231279D01*
X141923821Y-99231286D01*
X142018467Y-99395218D01*
X142112394Y-99499534D01*
X142145129Y-99535890D01*
X142298265Y-99647150D01*
X142298270Y-99647153D01*
X142471192Y-99724144D01*
X142471197Y-99724146D01*
X142656354Y-99763502D01*
X142656355Y-99763502D01*
X142845644Y-99763502D01*
X142845646Y-99763502D01*
X143030803Y-99724146D01*
X143203730Y-99647153D01*
X143356871Y-99535890D01*
X143483533Y-99395218D01*
X143578179Y-99231286D01*
X143636674Y-99051258D01*
X143656460Y-98863002D01*
X143655409Y-98853002D01*
X151965540Y-98853002D01*
X151985326Y-99041258D01*
X151985327Y-99041261D01*
X152043818Y-99221279D01*
X152043821Y-99221286D01*
X152138467Y-99385218D01*
X152241398Y-99499534D01*
X152265129Y-99525890D01*
X152418265Y-99637150D01*
X152418270Y-99637153D01*
X152591192Y-99714144D01*
X152591197Y-99714146D01*
X152776354Y-99753502D01*
X152776355Y-99753502D01*
X152965644Y-99753502D01*
X152965646Y-99753502D01*
X153150803Y-99714146D01*
X153323730Y-99637153D01*
X153476871Y-99525890D01*
X153603533Y-99385218D01*
X153698179Y-99221286D01*
X153756674Y-99041258D01*
X153776460Y-98853002D01*
X153756674Y-98664746D01*
X153698179Y-98484718D01*
X153603533Y-98320786D01*
X153476871Y-98180114D01*
X153476870Y-98180113D01*
X153323734Y-98068853D01*
X153323729Y-98068850D01*
X153150807Y-97991859D01*
X153150802Y-97991857D01*
X153005001Y-97960867D01*
X152965646Y-97952502D01*
X152776354Y-97952502D01*
X152743897Y-97959400D01*
X152591197Y-97991857D01*
X152591192Y-97991859D01*
X152418270Y-98068850D01*
X152418265Y-98068853D01*
X152265129Y-98180113D01*
X152138466Y-98320787D01*
X152043821Y-98484717D01*
X152043818Y-98484724D01*
X151985327Y-98664742D01*
X151985326Y-98664746D01*
X151965540Y-98853002D01*
X143655409Y-98853002D01*
X143636674Y-98674746D01*
X143578179Y-98494718D01*
X143483533Y-98330786D01*
X143356871Y-98190114D01*
X143356870Y-98190113D01*
X143203734Y-98078853D01*
X143203729Y-98078850D01*
X143030807Y-98001859D01*
X143030802Y-98001857D01*
X142885001Y-97970867D01*
X142845646Y-97962502D01*
X142656354Y-97962502D01*
X142623897Y-97969400D01*
X142471197Y-98001857D01*
X142471192Y-98001859D01*
X142298270Y-98078850D01*
X142298265Y-98078853D01*
X142145129Y-98190113D01*
X142018466Y-98330787D01*
X141923821Y-98494717D01*
X141923818Y-98494724D01*
X141868575Y-98664746D01*
X141865326Y-98674746D01*
X141845540Y-98863002D01*
X117389491Y-98863002D01*
X117475035Y-98740832D01*
X117574903Y-98526665D01*
X117636063Y-98298410D01*
X117656659Y-98063002D01*
X117636063Y-97827594D01*
X117574903Y-97599339D01*
X117475035Y-97385173D01*
X117380406Y-97250027D01*
X117339494Y-97191599D01*
X117172402Y-97024508D01*
X117172396Y-97024503D01*
X116986842Y-96894577D01*
X116976589Y-96881750D01*
X127040540Y-96881750D01*
X127060326Y-97070006D01*
X127060327Y-97070009D01*
X127118818Y-97250027D01*
X127118821Y-97250034D01*
X127213467Y-97413966D01*
X127340129Y-97554638D01*
X127493265Y-97665898D01*
X127493270Y-97665901D01*
X127666192Y-97742892D01*
X127666197Y-97742894D01*
X127851354Y-97782250D01*
X127851355Y-97782250D01*
X128040644Y-97782250D01*
X128040646Y-97782250D01*
X128225803Y-97742894D01*
X128398730Y-97665901D01*
X128551871Y-97554638D01*
X128678533Y-97413966D01*
X128773179Y-97250034D01*
X128831674Y-97070006D01*
X128851460Y-96881750D01*
X128831674Y-96693494D01*
X128773179Y-96513466D01*
X128678533Y-96349534D01*
X128551871Y-96208862D01*
X128551870Y-96208861D01*
X128398734Y-96097601D01*
X128398729Y-96097598D01*
X128225807Y-96020607D01*
X128225802Y-96020605D01*
X128066126Y-95986666D01*
X128040646Y-95981250D01*
X127851354Y-95981250D01*
X127825916Y-95986657D01*
X127666197Y-96020605D01*
X127666192Y-96020607D01*
X127493270Y-96097598D01*
X127493265Y-96097601D01*
X127340129Y-96208861D01*
X127213466Y-96349535D01*
X127118821Y-96513465D01*
X127118818Y-96513472D01*
X127060327Y-96693490D01*
X127060326Y-96693494D01*
X127040540Y-96881750D01*
X116976589Y-96881750D01*
X116943217Y-96840000D01*
X116936023Y-96770502D01*
X116967546Y-96708147D01*
X116986842Y-96691427D01*
X117009026Y-96675893D01*
X117172401Y-96561497D01*
X117339495Y-96394403D01*
X117475035Y-96200832D01*
X117574903Y-95986665D01*
X117636063Y-95758410D01*
X117656659Y-95523002D01*
X117636063Y-95287594D01*
X117574903Y-95059339D01*
X117475035Y-94845173D01*
X117366034Y-94689502D01*
X117339494Y-94651599D01*
X117319645Y-94631750D01*
X131540540Y-94631750D01*
X131560326Y-94820006D01*
X131560327Y-94820009D01*
X131618818Y-95000027D01*
X131618821Y-95000034D01*
X131713467Y-95163966D01*
X131824786Y-95287598D01*
X131840129Y-95304638D01*
X131993265Y-95415898D01*
X131993270Y-95415901D01*
X132166192Y-95492892D01*
X132166197Y-95492894D01*
X132351354Y-95532250D01*
X132351355Y-95532250D01*
X132540644Y-95532250D01*
X132540646Y-95532250D01*
X132725803Y-95492894D01*
X132898730Y-95415901D01*
X133051871Y-95304638D01*
X133178533Y-95163966D01*
X133273179Y-95000034D01*
X133331674Y-94820006D01*
X133351460Y-94631750D01*
X133331674Y-94443494D01*
X133273179Y-94263466D01*
X133178533Y-94099534D01*
X133051871Y-93958862D01*
X133051870Y-93958861D01*
X132898734Y-93847601D01*
X132898729Y-93847598D01*
X132767122Y-93789002D01*
X147217540Y-93789002D01*
X147237326Y-93977258D01*
X147237327Y-93977261D01*
X147295818Y-94157279D01*
X147295821Y-94157286D01*
X147390467Y-94321218D01*
X147420504Y-94354577D01*
X147517129Y-94461890D01*
X147670265Y-94573150D01*
X147670270Y-94573153D01*
X147843192Y-94650144D01*
X147843197Y-94650146D01*
X148028354Y-94689502D01*
X148028355Y-94689502D01*
X148217644Y-94689502D01*
X148217646Y-94689502D01*
X148402803Y-94650146D01*
X148575730Y-94573153D01*
X148728871Y-94461890D01*
X148855533Y-94321218D01*
X148950179Y-94157286D01*
X149008674Y-93977258D01*
X149028460Y-93789002D01*
X149008674Y-93600746D01*
X148950179Y-93420718D01*
X148855533Y-93256786D01*
X148728871Y-93116114D01*
X148728870Y-93116113D01*
X148575734Y-93004853D01*
X148575729Y-93004850D01*
X148402807Y-92927859D01*
X148402802Y-92927857D01*
X148257001Y-92896867D01*
X148217646Y-92888502D01*
X148028354Y-92888502D01*
X147995897Y-92895400D01*
X147843197Y-92927857D01*
X147843192Y-92927859D01*
X147670270Y-93004850D01*
X147670265Y-93004853D01*
X147517129Y-93116113D01*
X147390466Y-93256787D01*
X147295821Y-93420717D01*
X147295818Y-93420724D01*
X147237327Y-93600742D01*
X147237326Y-93600746D01*
X147217540Y-93789002D01*
X132767122Y-93789002D01*
X132725807Y-93770607D01*
X132725802Y-93770605D01*
X132580001Y-93739615D01*
X132540646Y-93731250D01*
X132351354Y-93731250D01*
X132318897Y-93738148D01*
X132166197Y-93770605D01*
X132166192Y-93770607D01*
X131993270Y-93847598D01*
X131993265Y-93847601D01*
X131840129Y-93958861D01*
X131713466Y-94099535D01*
X131618821Y-94263465D01*
X131618818Y-94263472D01*
X131560327Y-94443490D01*
X131560326Y-94443494D01*
X131540540Y-94631750D01*
X117319645Y-94631750D01*
X117172402Y-94484508D01*
X117172396Y-94484503D01*
X116986842Y-94354577D01*
X116943217Y-94300000D01*
X116936023Y-94230502D01*
X116967546Y-94168147D01*
X116986842Y-94151427D01*
X117060951Y-94099535D01*
X117172401Y-94021497D01*
X117339495Y-93854403D01*
X117475035Y-93660832D01*
X117574903Y-93446665D01*
X117636063Y-93218410D01*
X117656659Y-92983002D01*
X117636063Y-92747594D01*
X117574903Y-92519339D01*
X117475035Y-92305173D01*
X117358682Y-92139002D01*
X142942464Y-92139002D01*
X142962564Y-92355920D01*
X143022184Y-92565464D01*
X143119288Y-92760474D01*
X143250573Y-92934324D01*
X143411568Y-93081090D01*
X143411575Y-93081094D01*
X143411576Y-93081095D01*
X143596786Y-93195772D01*
X143596792Y-93195775D01*
X143619664Y-93204635D01*
X143799931Y-93274472D01*
X144014074Y-93314502D01*
X144014076Y-93314502D01*
X144231924Y-93314502D01*
X144231926Y-93314502D01*
X144446069Y-93274472D01*
X144649210Y-93195774D01*
X144834432Y-93081090D01*
X144995427Y-92934324D01*
X145126712Y-92760474D01*
X145223817Y-92565461D01*
X145283435Y-92355925D01*
X145303536Y-92139002D01*
X145283435Y-91922079D01*
X145223817Y-91712543D01*
X145126712Y-91517530D01*
X145045251Y-91409658D01*
X145020560Y-91344299D01*
X145035125Y-91275964D01*
X145069895Y-91235667D01*
X145117545Y-91199995D01*
X145155546Y-91171548D01*
X145241796Y-91056333D01*
X145292091Y-90921485D01*
X145298500Y-90861875D01*
X145298499Y-89416130D01*
X145292091Y-89356519D01*
X145259436Y-89268967D01*
X145241797Y-89221673D01*
X145241793Y-89221666D01*
X145155547Y-89106457D01*
X145155544Y-89106454D01*
X145057425Y-89033002D01*
X150145540Y-89033002D01*
X150165326Y-89221258D01*
X150165327Y-89221261D01*
X150223818Y-89401279D01*
X150223821Y-89401286D01*
X150318467Y-89565218D01*
X150445129Y-89705890D01*
X150598265Y-89817150D01*
X150598270Y-89817153D01*
X150771192Y-89894144D01*
X150771197Y-89894146D01*
X150956354Y-89933502D01*
X150956355Y-89933502D01*
X151145644Y-89933502D01*
X151145646Y-89933502D01*
X151330803Y-89894146D01*
X151503730Y-89817153D01*
X151656871Y-89705890D01*
X151783533Y-89565218D01*
X151878179Y-89401286D01*
X151936674Y-89221258D01*
X151956460Y-89033002D01*
X151936674Y-88844746D01*
X151878179Y-88664718D01*
X151783533Y-88500786D01*
X151656871Y-88360114D01*
X151656870Y-88360113D01*
X151503734Y-88248853D01*
X151503729Y-88248850D01*
X151330807Y-88171859D01*
X151330802Y-88171857D01*
X151185001Y-88140867D01*
X151145646Y-88132502D01*
X150956354Y-88132502D01*
X150928582Y-88138405D01*
X150771197Y-88171857D01*
X150771192Y-88171859D01*
X150598270Y-88248850D01*
X150598265Y-88248853D01*
X150445129Y-88360113D01*
X150318466Y-88500787D01*
X150223821Y-88664717D01*
X150223818Y-88664724D01*
X150165327Y-88844742D01*
X150165326Y-88844746D01*
X150145540Y-89033002D01*
X145057425Y-89033002D01*
X145040335Y-89020208D01*
X145040328Y-89020204D01*
X144905482Y-88969910D01*
X144905483Y-88969910D01*
X144845883Y-88963503D01*
X144845881Y-88963502D01*
X144845873Y-88963502D01*
X144845864Y-88963502D01*
X143400129Y-88963502D01*
X143400123Y-88963503D01*
X143340516Y-88969910D01*
X143205671Y-89020204D01*
X143205664Y-89020208D01*
X143090455Y-89106454D01*
X143090452Y-89106457D01*
X143004206Y-89221666D01*
X143004202Y-89221673D01*
X142953908Y-89356519D01*
X142947501Y-89416118D01*
X142947501Y-89416125D01*
X142947500Y-89416137D01*
X142947500Y-90861872D01*
X142947501Y-90861878D01*
X142953908Y-90921485D01*
X143004202Y-91056330D01*
X143004206Y-91056337D01*
X143052488Y-91120832D01*
X143090454Y-91171548D01*
X143176105Y-91235666D01*
X143217975Y-91291599D01*
X143222959Y-91361291D01*
X143200748Y-91409658D01*
X143119288Y-91517530D01*
X143022184Y-91712539D01*
X142962564Y-91922083D01*
X142942464Y-92139001D01*
X142942464Y-92139002D01*
X117358682Y-92139002D01*
X117339494Y-92111599D01*
X117172402Y-91944508D01*
X117172396Y-91944503D01*
X116986842Y-91814577D01*
X116943217Y-91760000D01*
X116936023Y-91690502D01*
X116967546Y-91628147D01*
X116986842Y-91611427D01*
X117036166Y-91576890D01*
X117172401Y-91481497D01*
X117339495Y-91314403D01*
X117475035Y-91120832D01*
X117574903Y-90906665D01*
X117575617Y-90904002D01*
X130495540Y-90904002D01*
X130515326Y-91092258D01*
X130515327Y-91092261D01*
X130573818Y-91272279D01*
X130573821Y-91272286D01*
X130668467Y-91436218D01*
X130741680Y-91517529D01*
X130795129Y-91576890D01*
X130948265Y-91688150D01*
X130948270Y-91688153D01*
X131121192Y-91765144D01*
X131121197Y-91765146D01*
X131306354Y-91804502D01*
X131306355Y-91804502D01*
X131495644Y-91804502D01*
X131495646Y-91804502D01*
X131680803Y-91765146D01*
X131853730Y-91688153D01*
X132006871Y-91576890D01*
X132133533Y-91436218D01*
X132228179Y-91272286D01*
X132286674Y-91092258D01*
X132306460Y-90904002D01*
X132286674Y-90715746D01*
X132228179Y-90535718D01*
X132133533Y-90371786D01*
X132006871Y-90231114D01*
X131974504Y-90207598D01*
X131853734Y-90119853D01*
X131853729Y-90119850D01*
X131680807Y-90042859D01*
X131680802Y-90042857D01*
X131535001Y-90011867D01*
X131495646Y-90003502D01*
X131306354Y-90003502D01*
X131273897Y-90010400D01*
X131121197Y-90042857D01*
X131121192Y-90042859D01*
X130948270Y-90119850D01*
X130948265Y-90119853D01*
X130795129Y-90231113D01*
X130668466Y-90371787D01*
X130573821Y-90535717D01*
X130573818Y-90535724D01*
X130515327Y-90715742D01*
X130515326Y-90715746D01*
X130495540Y-90904002D01*
X117575617Y-90904002D01*
X117636063Y-90678410D01*
X117656659Y-90443002D01*
X117636063Y-90207594D01*
X117574903Y-89979339D01*
X117475035Y-89765173D01*
X117339495Y-89571601D01*
X117339494Y-89571599D01*
X117172402Y-89404508D01*
X117172396Y-89404503D01*
X116986842Y-89274577D01*
X116943217Y-89220000D01*
X116936023Y-89150502D01*
X116967546Y-89088147D01*
X116986842Y-89071427D01*
X117059996Y-89020204D01*
X117172401Y-88941497D01*
X117339495Y-88774403D01*
X117439382Y-88631750D01*
X137540540Y-88631750D01*
X137560326Y-88820006D01*
X137560327Y-88820009D01*
X137618818Y-89000027D01*
X137618821Y-89000034D01*
X137713467Y-89163966D01*
X137765425Y-89221671D01*
X137840129Y-89304638D01*
X137993265Y-89415898D01*
X137993270Y-89415901D01*
X138166192Y-89492892D01*
X138166197Y-89492894D01*
X138351354Y-89532250D01*
X138351355Y-89532250D01*
X138540644Y-89532250D01*
X138540646Y-89532250D01*
X138725803Y-89492894D01*
X138898730Y-89415901D01*
X139051871Y-89304638D01*
X139178533Y-89163966D01*
X139273179Y-89000034D01*
X139331674Y-88820006D01*
X139351460Y-88631750D01*
X139331674Y-88443494D01*
X139273179Y-88263466D01*
X139197133Y-88131750D01*
X153290540Y-88131750D01*
X153310326Y-88320006D01*
X153310327Y-88320009D01*
X153368818Y-88500027D01*
X153368821Y-88500034D01*
X153463467Y-88663966D01*
X153464150Y-88664724D01*
X153590129Y-88804638D01*
X153743265Y-88915898D01*
X153743270Y-88915901D01*
X153916192Y-88992892D01*
X153916197Y-88992894D01*
X154101354Y-89032250D01*
X154101355Y-89032250D01*
X154290644Y-89032250D01*
X154290646Y-89032250D01*
X154475803Y-88992894D01*
X154645566Y-88917309D01*
X154714813Y-88908025D01*
X154746430Y-88917307D01*
X154916197Y-88992894D01*
X155101354Y-89032250D01*
X155101355Y-89032250D01*
X155290644Y-89032250D01*
X155290646Y-89032250D01*
X155475803Y-88992894D01*
X155648730Y-88915901D01*
X155801871Y-88804638D01*
X155928533Y-88663966D01*
X156023179Y-88500034D01*
X156081674Y-88320006D01*
X156101460Y-88131750D01*
X156081674Y-87943494D01*
X156023179Y-87763466D01*
X155928533Y-87599534D01*
X155801871Y-87458862D01*
X155801376Y-87458502D01*
X155648734Y-87347601D01*
X155648729Y-87347598D01*
X155475807Y-87270607D01*
X155475802Y-87270605D01*
X155330001Y-87239615D01*
X155290646Y-87231250D01*
X155101354Y-87231250D01*
X155068897Y-87238148D01*
X154916197Y-87270605D01*
X154916192Y-87270607D01*
X154746436Y-87346189D01*
X154677186Y-87355474D01*
X154645564Y-87346189D01*
X154475807Y-87270607D01*
X154475802Y-87270605D01*
X154330001Y-87239615D01*
X154290646Y-87231250D01*
X154101354Y-87231250D01*
X154068897Y-87238148D01*
X153916197Y-87270605D01*
X153916192Y-87270607D01*
X153743270Y-87347598D01*
X153743265Y-87347601D01*
X153590129Y-87458861D01*
X153463466Y-87599535D01*
X153368821Y-87763465D01*
X153368818Y-87763472D01*
X153310327Y-87943490D01*
X153310326Y-87943494D01*
X153290540Y-88131750D01*
X139197133Y-88131750D01*
X139178533Y-88099534D01*
X139051871Y-87958862D01*
X139030719Y-87943494D01*
X138898734Y-87847601D01*
X138898729Y-87847598D01*
X138725807Y-87770607D01*
X138725802Y-87770605D01*
X138580001Y-87739615D01*
X138540646Y-87731250D01*
X138351354Y-87731250D01*
X138318897Y-87738148D01*
X138166197Y-87770605D01*
X138166192Y-87770607D01*
X137993270Y-87847598D01*
X137993265Y-87847601D01*
X137840129Y-87958861D01*
X137713466Y-88099535D01*
X137618821Y-88263465D01*
X137618818Y-88263472D01*
X137560327Y-88443490D01*
X137560326Y-88443494D01*
X137540540Y-88631750D01*
X117439382Y-88631750D01*
X117475035Y-88580832D01*
X117574903Y-88366665D01*
X117636063Y-88138410D01*
X117656659Y-87903002D01*
X117636063Y-87667594D01*
X117574903Y-87439339D01*
X117475035Y-87225173D01*
X117474981Y-87225095D01*
X117339494Y-87031599D01*
X117270897Y-86963002D01*
X118737540Y-86963002D01*
X118757326Y-87151258D01*
X118757327Y-87151261D01*
X118815818Y-87331279D01*
X118815821Y-87331286D01*
X118910467Y-87495218D01*
X119004394Y-87599534D01*
X119037129Y-87635890D01*
X119190265Y-87747150D01*
X119190270Y-87747153D01*
X119363192Y-87824144D01*
X119363197Y-87824146D01*
X119548354Y-87863502D01*
X119548355Y-87863502D01*
X119737644Y-87863502D01*
X119737646Y-87863502D01*
X119922803Y-87824146D01*
X120095730Y-87747153D01*
X120248871Y-87635890D01*
X120375533Y-87495218D01*
X120470179Y-87331286D01*
X120528674Y-87151258D01*
X120543954Y-87005872D01*
X130675500Y-87005872D01*
X130675501Y-87005878D01*
X130681908Y-87065485D01*
X130732202Y-87200330D01*
X130732206Y-87200337D01*
X130818452Y-87315546D01*
X130818455Y-87315549D01*
X130933664Y-87401795D01*
X130933671Y-87401799D01*
X131068517Y-87452093D01*
X131068516Y-87452093D01*
X131075444Y-87452837D01*
X131128127Y-87458502D01*
X132573872Y-87458501D01*
X132633483Y-87452093D01*
X132768331Y-87401798D01*
X132883546Y-87315548D01*
X132945785Y-87232406D01*
X133001718Y-87190537D01*
X133071410Y-87185553D01*
X133128588Y-87215080D01*
X133139568Y-87225090D01*
X133139570Y-87225091D01*
X133139571Y-87225092D01*
X133324786Y-87339772D01*
X133324792Y-87339775D01*
X133341349Y-87346189D01*
X133527931Y-87418472D01*
X133742074Y-87458502D01*
X133742076Y-87458502D01*
X133959924Y-87458502D01*
X133959926Y-87458502D01*
X134174069Y-87418472D01*
X134377210Y-87339774D01*
X134562432Y-87225090D01*
X134723427Y-87078324D01*
X134752047Y-87040424D01*
X134808153Y-86998789D01*
X134877865Y-86994096D01*
X134939048Y-87027838D01*
X134949946Y-87040416D01*
X134978573Y-87078324D01*
X135139568Y-87225090D01*
X135139575Y-87225094D01*
X135139576Y-87225095D01*
X135324786Y-87339772D01*
X135324792Y-87339775D01*
X135341349Y-87346189D01*
X135527931Y-87418472D01*
X135742074Y-87458502D01*
X135742076Y-87458502D01*
X135959924Y-87458502D01*
X135959926Y-87458502D01*
X136174069Y-87418472D01*
X136377210Y-87339774D01*
X136562432Y-87225090D01*
X136723427Y-87078324D01*
X136854712Y-86904474D01*
X136951817Y-86709461D01*
X137011435Y-86499925D01*
X137031536Y-86283002D01*
X137011435Y-86066079D01*
X136951817Y-85856543D01*
X136854712Y-85661530D01*
X136723427Y-85487680D01*
X136696016Y-85462692D01*
X136606996Y-85381539D01*
X136562432Y-85340914D01*
X136562428Y-85340911D01*
X136562423Y-85340908D01*
X136377213Y-85226231D01*
X136377207Y-85226228D01*
X136292113Y-85193262D01*
X136174069Y-85147532D01*
X136089642Y-85131750D01*
X141290540Y-85131750D01*
X141310326Y-85320006D01*
X141310327Y-85320009D01*
X141368818Y-85500027D01*
X141368821Y-85500034D01*
X141463467Y-85663966D01*
X141590129Y-85804638D01*
X141743265Y-85915898D01*
X141743270Y-85915901D01*
X141916192Y-85992892D01*
X141916197Y-85992894D01*
X142101354Y-86032250D01*
X142101355Y-86032250D01*
X142290644Y-86032250D01*
X142290646Y-86032250D01*
X142475803Y-85992894D01*
X142648730Y-85915901D01*
X142801871Y-85804638D01*
X142928533Y-85663966D01*
X143023179Y-85500034D01*
X143081674Y-85320006D01*
X143101460Y-85131750D01*
X143081674Y-84943494D01*
X143023179Y-84763466D01*
X142928533Y-84599534D01*
X142801871Y-84458862D01*
X142782442Y-84444746D01*
X142648734Y-84347601D01*
X142648729Y-84347598D01*
X142475807Y-84270607D01*
X142475802Y-84270605D01*
X142330001Y-84239615D01*
X142290646Y-84231250D01*
X142101354Y-84231250D01*
X142068897Y-84238148D01*
X141916197Y-84270605D01*
X141916192Y-84270607D01*
X141743270Y-84347598D01*
X141743265Y-84347601D01*
X141590129Y-84458861D01*
X141463466Y-84599535D01*
X141368821Y-84763465D01*
X141368818Y-84763472D01*
X141317551Y-84921258D01*
X141310326Y-84943494D01*
X141290540Y-85131750D01*
X136089642Y-85131750D01*
X135959926Y-85107502D01*
X135742074Y-85107502D01*
X135527931Y-85147532D01*
X135484896Y-85164204D01*
X135324792Y-85226228D01*
X135324786Y-85226231D01*
X135139576Y-85340908D01*
X135139566Y-85340915D01*
X134978573Y-85487678D01*
X134949953Y-85525578D01*
X134893844Y-85567213D01*
X134824132Y-85571904D01*
X134762950Y-85538161D01*
X134752047Y-85525578D01*
X134723426Y-85487678D01*
X134562433Y-85340915D01*
X134562423Y-85340908D01*
X134377213Y-85226231D01*
X134377207Y-85226228D01*
X134292113Y-85193262D01*
X134174069Y-85147532D01*
X133959926Y-85107502D01*
X133742074Y-85107502D01*
X133527931Y-85147532D01*
X133484896Y-85164204D01*
X133324792Y-85226228D01*
X133324786Y-85226231D01*
X133139565Y-85340915D01*
X133128585Y-85350925D01*
X133065780Y-85381539D01*
X132996393Y-85373338D01*
X132945785Y-85333596D01*
X132919848Y-85298950D01*
X132883546Y-85250456D01*
X132883544Y-85250455D01*
X132883544Y-85250454D01*
X132768335Y-85164208D01*
X132768328Y-85164204D01*
X132633482Y-85113910D01*
X132633483Y-85113910D01*
X132573883Y-85107503D01*
X132573881Y-85107502D01*
X132573873Y-85107502D01*
X132573864Y-85107502D01*
X131128129Y-85107502D01*
X131128123Y-85107503D01*
X131068516Y-85113910D01*
X130933671Y-85164204D01*
X130933664Y-85164208D01*
X130818455Y-85250454D01*
X130818452Y-85250457D01*
X130732206Y-85365666D01*
X130732202Y-85365673D01*
X130681908Y-85500519D01*
X130675501Y-85560118D01*
X130675500Y-85560137D01*
X130675500Y-87005872D01*
X120543954Y-87005872D01*
X120548460Y-86963002D01*
X120528674Y-86774746D01*
X120470179Y-86594718D01*
X120375533Y-86430786D01*
X120248871Y-86290114D01*
X120248870Y-86290113D01*
X120095734Y-86178853D01*
X120095729Y-86178850D01*
X119922807Y-86101859D01*
X119922802Y-86101857D01*
X119754493Y-86066083D01*
X119737646Y-86062502D01*
X119548354Y-86062502D01*
X119531507Y-86066083D01*
X119363197Y-86101857D01*
X119363192Y-86101859D01*
X119190270Y-86178850D01*
X119190265Y-86178853D01*
X119037129Y-86290113D01*
X118910466Y-86430787D01*
X118815821Y-86594717D01*
X118815818Y-86594724D01*
X118757327Y-86774742D01*
X118757326Y-86774746D01*
X118737540Y-86963002D01*
X117270897Y-86963002D01*
X117172402Y-86864508D01*
X117172396Y-86864503D01*
X116986842Y-86734577D01*
X116943217Y-86680000D01*
X116936023Y-86610502D01*
X116967546Y-86548147D01*
X116986842Y-86531427D01*
X117031831Y-86499925D01*
X117172401Y-86401497D01*
X117339495Y-86234403D01*
X117475035Y-86040832D01*
X117574903Y-85826665D01*
X117636063Y-85598410D01*
X117656659Y-85363002D01*
X117636063Y-85127594D01*
X117574903Y-84899339D01*
X117475035Y-84685173D01*
X117467421Y-84674298D01*
X117438505Y-84633002D01*
X122667540Y-84633002D01*
X122687326Y-84821258D01*
X122687327Y-84821261D01*
X122745818Y-85001279D01*
X122745821Y-85001286D01*
X122840467Y-85165218D01*
X122895401Y-85226228D01*
X122967129Y-85305890D01*
X123120265Y-85417150D01*
X123120270Y-85417153D01*
X123293192Y-85494144D01*
X123293197Y-85494146D01*
X123478354Y-85533502D01*
X123478355Y-85533502D01*
X123667644Y-85533502D01*
X123667646Y-85533502D01*
X123852803Y-85494146D01*
X124025730Y-85417153D01*
X124178871Y-85305890D01*
X124305533Y-85165218D01*
X124400179Y-85001286D01*
X124458674Y-84821258D01*
X124467950Y-84733002D01*
X125445540Y-84733002D01*
X125465326Y-84921258D01*
X125465327Y-84921261D01*
X125523818Y-85101279D01*
X125523821Y-85101286D01*
X125618467Y-85265218D01*
X125715819Y-85373338D01*
X125745129Y-85405890D01*
X125898265Y-85517150D01*
X125898270Y-85517153D01*
X126071192Y-85594144D01*
X126071197Y-85594146D01*
X126256354Y-85633502D01*
X126256355Y-85633502D01*
X126445644Y-85633502D01*
X126445646Y-85633502D01*
X126630803Y-85594146D01*
X126803730Y-85517153D01*
X126956871Y-85405890D01*
X127083533Y-85265218D01*
X127178179Y-85101286D01*
X127236674Y-84921258D01*
X127256460Y-84733002D01*
X127251205Y-84683002D01*
X127845540Y-84683002D01*
X127865326Y-84871258D01*
X127865327Y-84871261D01*
X127923818Y-85051279D01*
X127923821Y-85051286D01*
X128018467Y-85215218D01*
X128145129Y-85355890D01*
X128298265Y-85467150D01*
X128298270Y-85467153D01*
X128471192Y-85544144D01*
X128471197Y-85544146D01*
X128656354Y-85583502D01*
X128656355Y-85583502D01*
X128845644Y-85583502D01*
X128845646Y-85583502D01*
X129030803Y-85544146D01*
X129203730Y-85467153D01*
X129356871Y-85355890D01*
X129483533Y-85215218D01*
X129578179Y-85051286D01*
X129636674Y-84871258D01*
X129656460Y-84683002D01*
X129636674Y-84494746D01*
X129578179Y-84314718D01*
X129483533Y-84150786D01*
X129356871Y-84010114D01*
X129356870Y-84010113D01*
X129203734Y-83898853D01*
X129203729Y-83898850D01*
X129030807Y-83821859D01*
X129030802Y-83821857D01*
X128885001Y-83790867D01*
X128845646Y-83782502D01*
X128656354Y-83782502D01*
X128623897Y-83789400D01*
X128471197Y-83821857D01*
X128471192Y-83821859D01*
X128298270Y-83898850D01*
X128298265Y-83898853D01*
X128145129Y-84010113D01*
X128018466Y-84150787D01*
X127923821Y-84314717D01*
X127923818Y-84314724D01*
X127866348Y-84491601D01*
X127865326Y-84494746D01*
X127845540Y-84683002D01*
X127251205Y-84683002D01*
X127236674Y-84544746D01*
X127178179Y-84364718D01*
X127083533Y-84200786D01*
X126956871Y-84060114D01*
X126935368Y-84044491D01*
X126803734Y-83948853D01*
X126803729Y-83948850D01*
X126630807Y-83871859D01*
X126630802Y-83871857D01*
X126485001Y-83840867D01*
X126445646Y-83832502D01*
X126256354Y-83832502D01*
X126223897Y-83839400D01*
X126071197Y-83871857D01*
X126071192Y-83871859D01*
X125898270Y-83948850D01*
X125898265Y-83948853D01*
X125745129Y-84060113D01*
X125618466Y-84200787D01*
X125523821Y-84364717D01*
X125523818Y-84364724D01*
X125466294Y-84541766D01*
X125465326Y-84544746D01*
X125445540Y-84733002D01*
X124467950Y-84733002D01*
X124478460Y-84633002D01*
X124458674Y-84444746D01*
X124400179Y-84264718D01*
X124305533Y-84100786D01*
X124178871Y-83960114D01*
X124178870Y-83960113D01*
X124025734Y-83848853D01*
X124025729Y-83848850D01*
X123852807Y-83771859D01*
X123852802Y-83771857D01*
X123707001Y-83740867D01*
X123667646Y-83732502D01*
X123478354Y-83732502D01*
X123445897Y-83739400D01*
X123293197Y-83771857D01*
X123293192Y-83771859D01*
X123120270Y-83848850D01*
X123120265Y-83848853D01*
X122967129Y-83960113D01*
X122840466Y-84100787D01*
X122745821Y-84264717D01*
X122745818Y-84264724D01*
X122687327Y-84444742D01*
X122687326Y-84444746D01*
X122667540Y-84633002D01*
X117438505Y-84633002D01*
X117339494Y-84491599D01*
X117172402Y-84324508D01*
X117172395Y-84324503D01*
X117171655Y-84323985D01*
X117095424Y-84270607D01*
X116978834Y-84188969D01*
X116978830Y-84188967D01*
X116896953Y-84150787D01*
X116764663Y-84089099D01*
X116764659Y-84089098D01*
X116764655Y-84089096D01*
X116536413Y-84027940D01*
X116536403Y-84027938D01*
X116301001Y-84007343D01*
X116300999Y-84007343D01*
X116065596Y-84027938D01*
X116065586Y-84027940D01*
X115837344Y-84089096D01*
X115837335Y-84089100D01*
X115623171Y-84188966D01*
X115623169Y-84188967D01*
X115429597Y-84324507D01*
X115262505Y-84491599D01*
X115126965Y-84685171D01*
X115126964Y-84685173D01*
X115027098Y-84899337D01*
X115027094Y-84899346D01*
X114965938Y-85127588D01*
X114965936Y-85127598D01*
X114945341Y-85363001D01*
X114945341Y-85363002D01*
X114965936Y-85598405D01*
X114965938Y-85598415D01*
X115027094Y-85826657D01*
X115027096Y-85826661D01*
X115027097Y-85826665D01*
X115068707Y-85915898D01*
X115126965Y-86040832D01*
X115126967Y-86040836D01*
X115262501Y-86234397D01*
X115262506Y-86234404D01*
X115429597Y-86401495D01*
X115429603Y-86401500D01*
X115615158Y-86531427D01*
X115658783Y-86586004D01*
X115665977Y-86655502D01*
X115634454Y-86717857D01*
X115615158Y-86734577D01*
X115429597Y-86864507D01*
X115262505Y-87031599D01*
X115126965Y-87225171D01*
X115126964Y-87225173D01*
X115027098Y-87439337D01*
X115027094Y-87439346D01*
X114965938Y-87667588D01*
X114965936Y-87667598D01*
X114945341Y-87903001D01*
X114945341Y-87903002D01*
X114965936Y-88138405D01*
X114965938Y-88138415D01*
X115027094Y-88366657D01*
X115027096Y-88366661D01*
X115027097Y-88366665D01*
X115062923Y-88443494D01*
X115126965Y-88580832D01*
X115126967Y-88580836D01*
X115262501Y-88774397D01*
X115262506Y-88774404D01*
X115429597Y-88941495D01*
X115429603Y-88941500D01*
X115615158Y-89071427D01*
X115658783Y-89126004D01*
X115665977Y-89195502D01*
X115634454Y-89257857D01*
X115615158Y-89274577D01*
X115429597Y-89404507D01*
X115262505Y-89571599D01*
X115126965Y-89765171D01*
X115126964Y-89765173D01*
X115027098Y-89979337D01*
X115027094Y-89979346D01*
X114965938Y-90207588D01*
X114965936Y-90207598D01*
X114945341Y-90443001D01*
X114945341Y-90443002D01*
X114965936Y-90678405D01*
X114965938Y-90678415D01*
X115027094Y-90906657D01*
X115027096Y-90906661D01*
X115027097Y-90906665D01*
X115113641Y-91092258D01*
X115126965Y-91120832D01*
X115126967Y-91120836D01*
X115162477Y-91171549D01*
X115246537Y-91291599D01*
X115262501Y-91314397D01*
X115262506Y-91314404D01*
X115429597Y-91481495D01*
X115429603Y-91481500D01*
X115615158Y-91611427D01*
X115658783Y-91666004D01*
X115665977Y-91735502D01*
X115634454Y-91797857D01*
X115615158Y-91814577D01*
X115429597Y-91944507D01*
X115262505Y-92111599D01*
X115126965Y-92305171D01*
X115126964Y-92305173D01*
X115027098Y-92519337D01*
X115027094Y-92519346D01*
X114965938Y-92747588D01*
X114965936Y-92747598D01*
X114945341Y-92983001D01*
X114945341Y-92983002D01*
X114965936Y-93218405D01*
X114965938Y-93218415D01*
X115027094Y-93446657D01*
X115027096Y-93446661D01*
X115027097Y-93446665D01*
X115126965Y-93660832D01*
X115126967Y-93660836D01*
X115262501Y-93854397D01*
X115262506Y-93854404D01*
X115429597Y-94021495D01*
X115429603Y-94021500D01*
X115615158Y-94151427D01*
X115658783Y-94206004D01*
X115665977Y-94275502D01*
X115634454Y-94337857D01*
X115615158Y-94354577D01*
X115429597Y-94484507D01*
X115262505Y-94651599D01*
X115126965Y-94845171D01*
X115126964Y-94845173D01*
X115027098Y-95059337D01*
X115027094Y-95059346D01*
X114965938Y-95287588D01*
X114965936Y-95287598D01*
X114945341Y-95523001D01*
X114945341Y-95523002D01*
X114965936Y-95758405D01*
X114965938Y-95758415D01*
X115027094Y-95986657D01*
X115027096Y-95986661D01*
X115027097Y-95986665D01*
X115126965Y-96200832D01*
X115126967Y-96200836D01*
X115262501Y-96394397D01*
X115262506Y-96394404D01*
X115429597Y-96561495D01*
X115429603Y-96561500D01*
X115615158Y-96691427D01*
X115658783Y-96746004D01*
X115665977Y-96815502D01*
X115634454Y-96877857D01*
X115615158Y-96894577D01*
X115429597Y-97024507D01*
X115262505Y-97191599D01*
X115126965Y-97385171D01*
X115126964Y-97385173D01*
X115027098Y-97599337D01*
X115027094Y-97599346D01*
X114965938Y-97827588D01*
X114965936Y-97827598D01*
X114945341Y-98063001D01*
X114945341Y-98063002D01*
X114965936Y-98298405D01*
X114965938Y-98298415D01*
X115027094Y-98526657D01*
X115027096Y-98526661D01*
X115027097Y-98526665D01*
X115096147Y-98674742D01*
X115126965Y-98740832D01*
X115126967Y-98740836D01*
X115262501Y-98934397D01*
X115262506Y-98934404D01*
X115429597Y-99101495D01*
X115429603Y-99101500D01*
X115615158Y-99231427D01*
X115658783Y-99286004D01*
X115665977Y-99355502D01*
X115634454Y-99417857D01*
X115615158Y-99434577D01*
X115429597Y-99564507D01*
X115262505Y-99731599D01*
X115126965Y-99925171D01*
X115126964Y-99925173D01*
X115027098Y-100139337D01*
X115027094Y-100139346D01*
X114965938Y-100367588D01*
X114965936Y-100367598D01*
X114945341Y-100603001D01*
X114945341Y-100603002D01*
X114965936Y-100838405D01*
X114965938Y-100838415D01*
X115027094Y-101066657D01*
X115027096Y-101066661D01*
X115027097Y-101066665D01*
X115126965Y-101280832D01*
X115126967Y-101280836D01*
X115262501Y-101474397D01*
X115262506Y-101474404D01*
X115429597Y-101641495D01*
X115429603Y-101641500D01*
X115615158Y-101771427D01*
X115658783Y-101826004D01*
X115665977Y-101895502D01*
X115634454Y-101957857D01*
X115615158Y-101974577D01*
X115429597Y-102104507D01*
X115262505Y-102271599D01*
X115126965Y-102465171D01*
X115126964Y-102465173D01*
X115027098Y-102679337D01*
X115027094Y-102679346D01*
X114965938Y-102907588D01*
X114965936Y-102907598D01*
X114945341Y-103143001D01*
X114945341Y-103143002D01*
X114965936Y-103378405D01*
X114965938Y-103378415D01*
X115027094Y-103606657D01*
X115027096Y-103606661D01*
X115027097Y-103606665D01*
X115126965Y-103820832D01*
X115126967Y-103820836D01*
X115262501Y-104014397D01*
X115262506Y-104014404D01*
X115429597Y-104181495D01*
X115429603Y-104181500D01*
X115615158Y-104311427D01*
X115658783Y-104366004D01*
X115665977Y-104435502D01*
X115634454Y-104497857D01*
X115615158Y-104514577D01*
X115429597Y-104644507D01*
X115262505Y-104811599D01*
X115126965Y-105005171D01*
X115126964Y-105005173D01*
X115027098Y-105219337D01*
X115027094Y-105219346D01*
X114965938Y-105447588D01*
X114965936Y-105447598D01*
X114945341Y-105683001D01*
X114945341Y-105683002D01*
X114965936Y-105918405D01*
X114965938Y-105918415D01*
X115027094Y-106146657D01*
X115027096Y-106146661D01*
X115027097Y-106146665D01*
X115098381Y-106299534D01*
X115126965Y-106360832D01*
X115126967Y-106360836D01*
X115262501Y-106554397D01*
X115262506Y-106554404D01*
X115429597Y-106721495D01*
X115429603Y-106721500D01*
X115615158Y-106851427D01*
X115658783Y-106906004D01*
X115665977Y-106975502D01*
X115634454Y-107037857D01*
X115615158Y-107054577D01*
X115429597Y-107184507D01*
X115262505Y-107351599D01*
X115126965Y-107545171D01*
X115126964Y-107545173D01*
X115027098Y-107759337D01*
X115027094Y-107759346D01*
X114965938Y-107987588D01*
X114965936Y-107987598D01*
X114945341Y-108223001D01*
X114945341Y-108223002D01*
X114965936Y-108458405D01*
X114965938Y-108458415D01*
X115027094Y-108686657D01*
X115027096Y-108686661D01*
X115027097Y-108686665D01*
X115103044Y-108849534D01*
X115126965Y-108900832D01*
X115126967Y-108900836D01*
X115262501Y-109094397D01*
X115262506Y-109094404D01*
X115429597Y-109261495D01*
X115429603Y-109261500D01*
X115615158Y-109391427D01*
X115658783Y-109446004D01*
X115665977Y-109515502D01*
X115634454Y-109577857D01*
X115615158Y-109594577D01*
X115429597Y-109724507D01*
X115262505Y-109891599D01*
X115126965Y-110085171D01*
X115126964Y-110085173D01*
X115027098Y-110299337D01*
X115027094Y-110299346D01*
X114965938Y-110527588D01*
X114965936Y-110527598D01*
X114945341Y-110763001D01*
X114945341Y-110763002D01*
X114965936Y-110998405D01*
X114965938Y-110998415D01*
X115027094Y-111226657D01*
X115027096Y-111226661D01*
X115027097Y-111226665D01*
X115107707Y-111399534D01*
X115126965Y-111440832D01*
X115126967Y-111440836D01*
X115262501Y-111634397D01*
X115262506Y-111634404D01*
X115429597Y-111801495D01*
X115429603Y-111801500D01*
X115615158Y-111931427D01*
X115658783Y-111986004D01*
X115665977Y-112055502D01*
X115634454Y-112117857D01*
X115615158Y-112134577D01*
X115429597Y-112264507D01*
X115262505Y-112431599D01*
X115126965Y-112625171D01*
X115126964Y-112625173D01*
X115027098Y-112839337D01*
X115027094Y-112839346D01*
X114965938Y-113067588D01*
X114965936Y-113067598D01*
X114945341Y-113303001D01*
X114945341Y-113303002D01*
X114965936Y-113538405D01*
X114965938Y-113538415D01*
X115027094Y-113766657D01*
X115027096Y-113766661D01*
X115027097Y-113766665D01*
X115052251Y-113820607D01*
X115126965Y-113980832D01*
X115126967Y-113980836D01*
X115262501Y-114174397D01*
X115262506Y-114174404D01*
X115429597Y-114341495D01*
X115429603Y-114341500D01*
X115615158Y-114471427D01*
X115658783Y-114526004D01*
X115665977Y-114595502D01*
X115634454Y-114657857D01*
X115615158Y-114674577D01*
X115429597Y-114804507D01*
X115262505Y-114971599D01*
X115126965Y-115165171D01*
X115126964Y-115165173D01*
X115027098Y-115379337D01*
X115027094Y-115379346D01*
X114965938Y-115607588D01*
X114965936Y-115607598D01*
X114945341Y-115843001D01*
X114945341Y-115843002D01*
X112318628Y-115843002D01*
X112311761Y-79383004D01*
X112995652Y-79383004D01*
X113015028Y-79740370D01*
X113015029Y-79740387D01*
X113072926Y-80093541D01*
X113072932Y-80093567D01*
X113168672Y-80438394D01*
X113168674Y-80438401D01*
X113301142Y-80770872D01*
X113301151Y-80770890D01*
X113468784Y-81087079D01*
X113468787Y-81087084D01*
X113468789Y-81087087D01*
X113634300Y-81331198D01*
X113669634Y-81383311D01*
X113669641Y-81383321D01*
X113901331Y-81656087D01*
X113901332Y-81656088D01*
X114161163Y-81902213D01*
X114446081Y-82118802D01*
X114752747Y-82303317D01*
X114752749Y-82303318D01*
X114752751Y-82303319D01*
X114752755Y-82303321D01*
X114849259Y-82347968D01*
X115077565Y-82453593D01*
X115416726Y-82567870D01*
X115766254Y-82644807D01*
X116122052Y-82683502D01*
X116122058Y-82683502D01*
X116479942Y-82683502D01*
X116479948Y-82683502D01*
X116835746Y-82644807D01*
X117185274Y-82567870D01*
X117524435Y-82453593D01*
X117752739Y-82347969D01*
X139572500Y-82347969D01*
X139587936Y-82524405D01*
X139587938Y-82524415D01*
X139649094Y-82752657D01*
X139649096Y-82752661D01*
X139649097Y-82752665D01*
X139677816Y-82814252D01*
X139748964Y-82966830D01*
X139748965Y-82966832D01*
X139884505Y-83160404D01*
X139992016Y-83267914D01*
X140051599Y-83327497D01*
X140095066Y-83357933D01*
X140245165Y-83463034D01*
X140245167Y-83463035D01*
X140245170Y-83463037D01*
X140459337Y-83562905D01*
X140687592Y-83624065D01*
X140864034Y-83639502D01*
X140922999Y-83644661D01*
X140923000Y-83644661D01*
X140923001Y-83644661D01*
X140981966Y-83639502D01*
X141158408Y-83624065D01*
X141386663Y-83562905D01*
X141600829Y-83463037D01*
X141794401Y-83327497D01*
X141941602Y-83180295D01*
X142002924Y-83146812D01*
X142072615Y-83151796D01*
X142128549Y-83193667D01*
X142134821Y-83202881D01*
X142158692Y-83241582D01*
X142230288Y-83357658D01*
X142354344Y-83481714D01*
X142503666Y-83573816D01*
X142670203Y-83629001D01*
X142772991Y-83639502D01*
X144073008Y-83639501D01*
X144175797Y-83629001D01*
X144342334Y-83573816D01*
X144491656Y-83481714D01*
X144615712Y-83357658D01*
X144707814Y-83208336D01*
X144762999Y-83041799D01*
X144773500Y-82939011D01*
X144773499Y-82069745D01*
X147102500Y-82069745D01*
X147117925Y-82221441D01*
X147178837Y-82415581D01*
X147178844Y-82415596D01*
X147277589Y-82593501D01*
X147277592Y-82593506D01*
X147410132Y-82747895D01*
X147410134Y-82747897D01*
X147571037Y-82872447D01*
X147571038Y-82872447D01*
X147571042Y-82872450D01*
X147753729Y-82962062D01*
X147950715Y-83013065D01*
X148153936Y-83023371D01*
X148153940Y-83023370D01*
X148156083Y-83023479D01*
X148222040Y-83046534D01*
X148265061Y-83101587D01*
X148271490Y-83171161D01*
X148239283Y-83233165D01*
X148178667Y-83267914D01*
X148175588Y-83268610D01*
X148166192Y-83270607D01*
X147993270Y-83347598D01*
X147993265Y-83347601D01*
X147840129Y-83458861D01*
X147713466Y-83599535D01*
X147618821Y-83763465D01*
X147618818Y-83763472D01*
X147571000Y-83910643D01*
X147560326Y-83943494D01*
X147540540Y-84131750D01*
X147560326Y-84320006D01*
X147560327Y-84320009D01*
X147618818Y-84500027D01*
X147618821Y-84500034D01*
X147713467Y-84663966D01*
X147803063Y-84763472D01*
X147840129Y-84804638D01*
X147993265Y-84915898D01*
X147993270Y-84915901D01*
X148166192Y-84992892D01*
X148166197Y-84992894D01*
X148351354Y-85032250D01*
X148351355Y-85032250D01*
X148540644Y-85032250D01*
X148540646Y-85032250D01*
X148725803Y-84992894D01*
X148898730Y-84915901D01*
X149051871Y-84804638D01*
X149171787Y-84671457D01*
X149231274Y-84634809D01*
X149301131Y-84636140D01*
X149356086Y-84671457D01*
X149438937Y-84763472D01*
X149476003Y-84804638D01*
X149629139Y-84915898D01*
X149629144Y-84915901D01*
X149802066Y-84992892D01*
X149802071Y-84992894D01*
X149987228Y-85032250D01*
X149987229Y-85032250D01*
X150176518Y-85032250D01*
X150176520Y-85032250D01*
X150361677Y-84992894D01*
X150534604Y-84915901D01*
X150687745Y-84804638D01*
X150814407Y-84663966D01*
X150909053Y-84500034D01*
X150967548Y-84320006D01*
X150986248Y-84142082D01*
X152526020Y-84142082D01*
X152545806Y-84330338D01*
X152545807Y-84330341D01*
X152604298Y-84510359D01*
X152604301Y-84510366D01*
X152698947Y-84674298D01*
X152779240Y-84763472D01*
X152825609Y-84814970D01*
X152978745Y-84926230D01*
X152978750Y-84926233D01*
X153151672Y-85003224D01*
X153151677Y-85003226D01*
X153336834Y-85042582D01*
X153336835Y-85042582D01*
X153526124Y-85042582D01*
X153526126Y-85042582D01*
X153711283Y-85003226D01*
X153884210Y-84926233D01*
X154037351Y-84814970D01*
X154164013Y-84674298D01*
X154258659Y-84510366D01*
X154317154Y-84330338D01*
X154317154Y-84330330D01*
X154318504Y-84323985D01*
X154321448Y-84324610D01*
X154342950Y-84272086D01*
X154400177Y-84232000D01*
X154469991Y-84229217D01*
X154530227Y-84264620D01*
X154556291Y-84314484D01*
X154558318Y-84313826D01*
X154618818Y-84500027D01*
X154618821Y-84500034D01*
X154713467Y-84663966D01*
X154803063Y-84763472D01*
X154840129Y-84804638D01*
X154993265Y-84915898D01*
X154993270Y-84915901D01*
X155166192Y-84992892D01*
X155166197Y-84992894D01*
X155351354Y-85032250D01*
X155351355Y-85032250D01*
X155540644Y-85032250D01*
X155540646Y-85032250D01*
X155725803Y-84992894D01*
X155898730Y-84915901D01*
X156051871Y-84804638D01*
X156178533Y-84663966D01*
X156213613Y-84603204D01*
X156264179Y-84554990D01*
X156332786Y-84541766D01*
X156397651Y-84567734D01*
X156428385Y-84603203D01*
X156447402Y-84636140D01*
X156463467Y-84663966D01*
X156590129Y-84804638D01*
X156743265Y-84915898D01*
X156743270Y-84915901D01*
X156916192Y-84992892D01*
X156916197Y-84992894D01*
X157101354Y-85032250D01*
X157101355Y-85032250D01*
X157290644Y-85032250D01*
X157290646Y-85032250D01*
X157475803Y-84992894D01*
X157648730Y-84915901D01*
X157801871Y-84804638D01*
X157928533Y-84663966D01*
X158023179Y-84500034D01*
X158081674Y-84320006D01*
X158101460Y-84131750D01*
X158081674Y-83943494D01*
X158023179Y-83763466D01*
X157928533Y-83599534D01*
X157801871Y-83458862D01*
X157801867Y-83458859D01*
X157648734Y-83347601D01*
X157648729Y-83347598D01*
X157475807Y-83270607D01*
X157475802Y-83270605D01*
X157299655Y-83233165D01*
X157290646Y-83231250D01*
X157101354Y-83231250D01*
X157092345Y-83233165D01*
X156916197Y-83270605D01*
X156916192Y-83270607D01*
X156743270Y-83347598D01*
X156743265Y-83347601D01*
X156590129Y-83458861D01*
X156463466Y-83599535D01*
X156428387Y-83660294D01*
X156377820Y-83708510D01*
X156309213Y-83721733D01*
X156244348Y-83695765D01*
X156213613Y-83660294D01*
X156192695Y-83624063D01*
X156178533Y-83599534D01*
X156051871Y-83458862D01*
X156051867Y-83458859D01*
X155898734Y-83347601D01*
X155898729Y-83347598D01*
X155725807Y-83270607D01*
X155725802Y-83270605D01*
X155549655Y-83233165D01*
X155540646Y-83231250D01*
X155351354Y-83231250D01*
X155342345Y-83233165D01*
X155166197Y-83270605D01*
X155166192Y-83270607D01*
X154993270Y-83347598D01*
X154993265Y-83347601D01*
X154840129Y-83458861D01*
X154713466Y-83599535D01*
X154618821Y-83763465D01*
X154618818Y-83763472D01*
X154560326Y-83943492D01*
X154558976Y-83949847D01*
X154556119Y-83949239D01*
X154534216Y-84002136D01*
X154476827Y-84041990D01*
X154407002Y-84044491D01*
X154346910Y-84008845D01*
X154321174Y-83959351D01*
X154319162Y-83960006D01*
X154258661Y-83773804D01*
X154258660Y-83773803D01*
X154258659Y-83773798D01*
X154164013Y-83609866D01*
X154037351Y-83469194D01*
X154028877Y-83463037D01*
X153884214Y-83357933D01*
X153884209Y-83357930D01*
X153711287Y-83280939D01*
X153711282Y-83280937D01*
X153565481Y-83249947D01*
X153526126Y-83241582D01*
X153336834Y-83241582D01*
X153304377Y-83248480D01*
X153151677Y-83280937D01*
X153151672Y-83280939D01*
X152978750Y-83357930D01*
X152978745Y-83357933D01*
X152825609Y-83469193D01*
X152698946Y-83609867D01*
X152604301Y-83773797D01*
X152604298Y-83773804D01*
X152547422Y-83948851D01*
X152545806Y-83953826D01*
X152526020Y-84142082D01*
X150986248Y-84142082D01*
X150987334Y-84131750D01*
X150967548Y-83943494D01*
X150909053Y-83763466D01*
X150814407Y-83599534D01*
X150687745Y-83458862D01*
X150687741Y-83458859D01*
X150534608Y-83347601D01*
X150534603Y-83347598D01*
X150361681Y-83270607D01*
X150361676Y-83270605D01*
X150185529Y-83233165D01*
X150176520Y-83231250D01*
X149987228Y-83231250D01*
X149978219Y-83233165D01*
X149802071Y-83270605D01*
X149802066Y-83270607D01*
X149629144Y-83347598D01*
X149629139Y-83347601D01*
X149476006Y-83458859D01*
X149476003Y-83458861D01*
X149476003Y-83458862D01*
X149372498Y-83573816D01*
X149356087Y-83592042D01*
X149296600Y-83628690D01*
X149226743Y-83627359D01*
X149171787Y-83592042D01*
X149155376Y-83573816D01*
X149051871Y-83458862D01*
X149051867Y-83458859D01*
X148898734Y-83347601D01*
X148898729Y-83347598D01*
X148725807Y-83270607D01*
X148725802Y-83270605D01*
X148549655Y-83233165D01*
X148540646Y-83231250D01*
X148402427Y-83231250D01*
X148335388Y-83211565D01*
X148289633Y-83158761D01*
X148279689Y-83089603D01*
X148308714Y-83026047D01*
X148359361Y-82990969D01*
X148545887Y-82921888D01*
X148718571Y-82814254D01*
X148866053Y-82674061D01*
X148982295Y-82507051D01*
X149062540Y-82320060D01*
X149103500Y-82120743D01*
X149103500Y-81573922D01*
X149123185Y-81506883D01*
X149175989Y-81461128D01*
X149245147Y-81451184D01*
X149274949Y-81459360D01*
X149381720Y-81503586D01*
X149406764Y-81506883D01*
X149495019Y-81518502D01*
X149495020Y-81518502D01*
X149570981Y-81518502D01*
X149608746Y-81513530D01*
X149684280Y-81503586D01*
X149825250Y-81445194D01*
X149946304Y-81352306D01*
X150039192Y-81231252D01*
X150097584Y-81090282D01*
X150117500Y-80939003D01*
X154728500Y-80939003D01*
X154748415Y-81090280D01*
X154748416Y-81090282D01*
X154806806Y-81231249D01*
X154806807Y-81231251D01*
X154806808Y-81231252D01*
X154899696Y-81352306D01*
X155020750Y-81445194D01*
X155161720Y-81503586D01*
X155186764Y-81506883D01*
X155275019Y-81518502D01*
X155275020Y-81518502D01*
X155350981Y-81518502D01*
X155388746Y-81513530D01*
X155464280Y-81503586D01*
X155571048Y-81459360D01*
X155640516Y-81451892D01*
X155702996Y-81483167D01*
X155738648Y-81543256D01*
X155742500Y-81573922D01*
X155742500Y-82069745D01*
X155757925Y-82221441D01*
X155818837Y-82415581D01*
X155818844Y-82415596D01*
X155917589Y-82593501D01*
X155917592Y-82593506D01*
X156050132Y-82747895D01*
X156050134Y-82747897D01*
X156211037Y-82872447D01*
X156211038Y-82872447D01*
X156211042Y-82872450D01*
X156393729Y-82962062D01*
X156590715Y-83013065D01*
X156793936Y-83023371D01*
X156995071Y-82992558D01*
X157185887Y-82921888D01*
X157358571Y-82814254D01*
X157506053Y-82674061D01*
X157622295Y-82507051D01*
X157702540Y-82320060D01*
X157743500Y-82120743D01*
X157743500Y-80868260D01*
X157736182Y-80796291D01*
X157728074Y-80716562D01*
X157667162Y-80522422D01*
X157667160Y-80522418D01*
X157667159Y-80522414D01*
X157568409Y-80344500D01*
X157568408Y-80344499D01*
X157568407Y-80344497D01*
X157435867Y-80190108D01*
X157435865Y-80190106D01*
X157274962Y-80065556D01*
X157274959Y-80065555D01*
X157274958Y-80065554D01*
X157092271Y-79975942D01*
X156895285Y-79924939D01*
X156895287Y-79924939D01*
X156759804Y-79918068D01*
X156692064Y-79914633D01*
X156692063Y-79914633D01*
X156692061Y-79914633D01*
X156490936Y-79945444D01*
X156490924Y-79945447D01*
X156300118Y-80016113D01*
X156300111Y-80016117D01*
X156127432Y-80123747D01*
X156127427Y-80123751D01*
X155979949Y-80263940D01*
X155979948Y-80263942D01*
X155863703Y-80430955D01*
X155863699Y-80430962D01*
X155861976Y-80434978D01*
X155817446Y-80488818D01*
X155750876Y-80510037D01*
X155683403Y-80491897D01*
X155672554Y-80484454D01*
X155605250Y-80432810D01*
X155605246Y-80432808D01*
X155464280Y-80374418D01*
X155464278Y-80374417D01*
X155350981Y-80359502D01*
X155350980Y-80359502D01*
X155275020Y-80359502D01*
X155275019Y-80359502D01*
X155161721Y-80374417D01*
X155161719Y-80374418D01*
X155020752Y-80432808D01*
X154899696Y-80525698D01*
X154806806Y-80646754D01*
X154748416Y-80787721D01*
X154748415Y-80787723D01*
X154728500Y-80939000D01*
X154728500Y-80939003D01*
X150117500Y-80939003D01*
X150117500Y-80939002D01*
X150097584Y-80787722D01*
X150052420Y-80678688D01*
X150039193Y-80646754D01*
X150039192Y-80646753D01*
X150039192Y-80646752D01*
X149946304Y-80525698D01*
X149825250Y-80432810D01*
X149825249Y-80432809D01*
X149825247Y-80432808D01*
X149684280Y-80374418D01*
X149684278Y-80374417D01*
X149570981Y-80359502D01*
X149570980Y-80359502D01*
X149495020Y-80359502D01*
X149495019Y-80359502D01*
X149381721Y-80374417D01*
X149381719Y-80374418D01*
X149240752Y-80432808D01*
X149240749Y-80432810D01*
X149170182Y-80486958D01*
X149105013Y-80512152D01*
X149036568Y-80498113D01*
X148986578Y-80449299D01*
X148986277Y-80448759D01*
X148928410Y-80344502D01*
X148928407Y-80344497D01*
X148795867Y-80190108D01*
X148795865Y-80190106D01*
X148634962Y-80065556D01*
X148634959Y-80065555D01*
X148634958Y-80065554D01*
X148452271Y-79975942D01*
X148255285Y-79924939D01*
X148255287Y-79924939D01*
X148119804Y-79918068D01*
X148052064Y-79914633D01*
X148052063Y-79914633D01*
X148052061Y-79914633D01*
X147850936Y-79945444D01*
X147850924Y-79945447D01*
X147660118Y-80016113D01*
X147660111Y-80016117D01*
X147487432Y-80123747D01*
X147487427Y-80123751D01*
X147339949Y-80263940D01*
X147339948Y-80263942D01*
X147223705Y-80430951D01*
X147143459Y-80617945D01*
X147102500Y-80817260D01*
X147102500Y-82069745D01*
X144773499Y-82069745D01*
X144773499Y-81338994D01*
X144762999Y-81236205D01*
X144707814Y-81069668D01*
X144615712Y-80920346D01*
X144491656Y-80796290D01*
X144362396Y-80716562D01*
X144342336Y-80704189D01*
X144342331Y-80704187D01*
X144340862Y-80703700D01*
X144175797Y-80649003D01*
X144175795Y-80649002D01*
X144073010Y-80638502D01*
X142772998Y-80638502D01*
X142772981Y-80638503D01*
X142670203Y-80649002D01*
X142670200Y-80649003D01*
X142503668Y-80704187D01*
X142503663Y-80704189D01*
X142354342Y-80796291D01*
X142230289Y-80920344D01*
X142134821Y-81075123D01*
X142082873Y-81121847D01*
X142013910Y-81133070D01*
X141949828Y-81105226D01*
X141941601Y-81097707D01*
X141794402Y-80950508D01*
X141794395Y-80950503D01*
X141777971Y-80939003D01*
X141751324Y-80920344D01*
X141600834Y-80814969D01*
X141600830Y-80814967D01*
X141542401Y-80787721D01*
X141386663Y-80715099D01*
X141386659Y-80715098D01*
X141386655Y-80715096D01*
X141158413Y-80653940D01*
X141158403Y-80653938D01*
X140923001Y-80633343D01*
X140922999Y-80633343D01*
X140687596Y-80653938D01*
X140687586Y-80653940D01*
X140459344Y-80715096D01*
X140459335Y-80715100D01*
X140245171Y-80814966D01*
X140245169Y-80814967D01*
X140051597Y-80950507D01*
X139884505Y-81117599D01*
X139748965Y-81311171D01*
X139748964Y-81311173D01*
X139649098Y-81525337D01*
X139649094Y-81525346D01*
X139587938Y-81753588D01*
X139587936Y-81753598D01*
X139572500Y-81930034D01*
X139572500Y-82347969D01*
X117752739Y-82347969D01*
X117849253Y-82303317D01*
X118155919Y-82118802D01*
X118440837Y-81902213D01*
X118700668Y-81656088D01*
X118932365Y-81383313D01*
X119133211Y-81087087D01*
X119300853Y-80770882D01*
X119433324Y-80438405D01*
X119529071Y-80093554D01*
X119586972Y-79740373D01*
X119606348Y-79383004D01*
X157995652Y-79383004D01*
X158015028Y-79740370D01*
X158015029Y-79740387D01*
X158072926Y-80093541D01*
X158072932Y-80093567D01*
X158168672Y-80438394D01*
X158168674Y-80438401D01*
X158301142Y-80770872D01*
X158301151Y-80770890D01*
X158468784Y-81087079D01*
X158468787Y-81087084D01*
X158468789Y-81087087D01*
X158634300Y-81331198D01*
X158669634Y-81383311D01*
X158669641Y-81383321D01*
X158901331Y-81656087D01*
X158901332Y-81656088D01*
X159161163Y-81902213D01*
X159446081Y-82118802D01*
X159752747Y-82303317D01*
X159752749Y-82303318D01*
X159752751Y-82303319D01*
X159752755Y-82303321D01*
X159849259Y-82347968D01*
X160077565Y-82453593D01*
X160416726Y-82567870D01*
X160766254Y-82644807D01*
X161122052Y-82683502D01*
X161122058Y-82683502D01*
X161479942Y-82683502D01*
X161479948Y-82683502D01*
X161835746Y-82644807D01*
X162185274Y-82567870D01*
X162524435Y-82453593D01*
X162849253Y-82303317D01*
X163155919Y-82118802D01*
X163440837Y-81902213D01*
X163700668Y-81656088D01*
X163932365Y-81383313D01*
X164133211Y-81087087D01*
X164300853Y-80770882D01*
X164433324Y-80438405D01*
X164529071Y-80093554D01*
X164586972Y-79740373D01*
X164606348Y-79383002D01*
X164586972Y-79025631D01*
X164529071Y-78672450D01*
X164433324Y-78327599D01*
X164300853Y-77995122D01*
X164133211Y-77678917D01*
X163932365Y-77382691D01*
X163932361Y-77382686D01*
X163932358Y-77382682D01*
X163700668Y-77109916D01*
X163440837Y-76863791D01*
X163440830Y-76863785D01*
X163440827Y-76863783D01*
X163373245Y-76812409D01*
X163155919Y-76647202D01*
X162849253Y-76462687D01*
X162849252Y-76462686D01*
X162849248Y-76462684D01*
X162849244Y-76462682D01*
X162524447Y-76312416D01*
X162524441Y-76312413D01*
X162524435Y-76312411D01*
X162354854Y-76255272D01*
X162185273Y-76198133D01*
X161835744Y-76121196D01*
X161479949Y-76082502D01*
X161479948Y-76082502D01*
X161122052Y-76082502D01*
X161122050Y-76082502D01*
X160766255Y-76121196D01*
X160416726Y-76198133D01*
X160160970Y-76284308D01*
X160077565Y-76312411D01*
X160077563Y-76312412D01*
X160077552Y-76312416D01*
X159752755Y-76462682D01*
X159752751Y-76462684D01*
X159689148Y-76500953D01*
X159446081Y-76647202D01*
X159357768Y-76714335D01*
X159161172Y-76863783D01*
X159161163Y-76863791D01*
X158901331Y-77109916D01*
X158669641Y-77382682D01*
X158669634Y-77382692D01*
X158468790Y-77678915D01*
X158468784Y-77678924D01*
X158301151Y-77995113D01*
X158301142Y-77995131D01*
X158168674Y-78327602D01*
X158168672Y-78327609D01*
X158072932Y-78672436D01*
X158072926Y-78672462D01*
X158015029Y-79025616D01*
X158015028Y-79025633D01*
X157995652Y-79382999D01*
X157995652Y-79383004D01*
X119606348Y-79383004D01*
X119606348Y-79383002D01*
X119586972Y-79025631D01*
X119529071Y-78672450D01*
X119433324Y-78327599D01*
X119300853Y-77995122D01*
X119133211Y-77678917D01*
X119106652Y-77639745D01*
X147102500Y-77639745D01*
X147117925Y-77791441D01*
X147178837Y-77985581D01*
X147178844Y-77985596D01*
X147277589Y-78163501D01*
X147277592Y-78163506D01*
X147410132Y-78317895D01*
X147410134Y-78317897D01*
X147571037Y-78442447D01*
X147571038Y-78442447D01*
X147571042Y-78442450D01*
X147753729Y-78532062D01*
X147950715Y-78583065D01*
X148153936Y-78593371D01*
X148355071Y-78562558D01*
X148545887Y-78491888D01*
X148718571Y-78384254D01*
X148866053Y-78244061D01*
X148982295Y-78077051D01*
X149062540Y-77890060D01*
X149103500Y-77690743D01*
X149103500Y-77639745D01*
X155742500Y-77639745D01*
X155757925Y-77791441D01*
X155818837Y-77985581D01*
X155818844Y-77985596D01*
X155917589Y-78163501D01*
X155917592Y-78163506D01*
X156050132Y-78317895D01*
X156050134Y-78317897D01*
X156211037Y-78442447D01*
X156211038Y-78442447D01*
X156211042Y-78442450D01*
X156393729Y-78532062D01*
X156590715Y-78583065D01*
X156793936Y-78593371D01*
X156995071Y-78562558D01*
X157185887Y-78491888D01*
X157358571Y-78384254D01*
X157506053Y-78244061D01*
X157622295Y-78077051D01*
X157702540Y-77890060D01*
X157743500Y-77690743D01*
X157743500Y-76938260D01*
X157735927Y-76863783D01*
X157728074Y-76786562D01*
X157667162Y-76592422D01*
X157667160Y-76592418D01*
X157667159Y-76592414D01*
X157568409Y-76414500D01*
X157568408Y-76414499D01*
X157568407Y-76414497D01*
X157435867Y-76260108D01*
X157435865Y-76260106D01*
X157274962Y-76135556D01*
X157274959Y-76135555D01*
X157274958Y-76135554D01*
X157092271Y-76045942D01*
X156895285Y-75994939D01*
X156895287Y-75994939D01*
X156759804Y-75988068D01*
X156692064Y-75984633D01*
X156692063Y-75984633D01*
X156692061Y-75984633D01*
X156490936Y-76015444D01*
X156490924Y-76015447D01*
X156300118Y-76086113D01*
X156300111Y-76086117D01*
X156127432Y-76193747D01*
X156127427Y-76193751D01*
X155979949Y-76333940D01*
X155979948Y-76333942D01*
X155863705Y-76500951D01*
X155783459Y-76687945D01*
X155742500Y-76887260D01*
X155742500Y-77639745D01*
X149103500Y-77639745D01*
X149103500Y-76938260D01*
X149095927Y-76863783D01*
X149088074Y-76786562D01*
X149027162Y-76592422D01*
X149027160Y-76592418D01*
X149027159Y-76592414D01*
X148928409Y-76414500D01*
X148928408Y-76414499D01*
X148928407Y-76414497D01*
X148795867Y-76260108D01*
X148795865Y-76260106D01*
X148634962Y-76135556D01*
X148634959Y-76135555D01*
X148634958Y-76135554D01*
X148452271Y-76045942D01*
X148255285Y-75994939D01*
X148255287Y-75994939D01*
X148119804Y-75988068D01*
X148052064Y-75984633D01*
X148052063Y-75984633D01*
X148052061Y-75984633D01*
X147850936Y-76015444D01*
X147850924Y-76015447D01*
X147660118Y-76086113D01*
X147660111Y-76086117D01*
X147487432Y-76193747D01*
X147487427Y-76193751D01*
X147339949Y-76333940D01*
X147339948Y-76333942D01*
X147223705Y-76500951D01*
X147143459Y-76687945D01*
X147102500Y-76887260D01*
X147102500Y-77639745D01*
X119106652Y-77639745D01*
X118932365Y-77382691D01*
X118932361Y-77382686D01*
X118932358Y-77382682D01*
X118700668Y-77109916D01*
X118440837Y-76863791D01*
X118440830Y-76863785D01*
X118440827Y-76863783D01*
X118373245Y-76812409D01*
X118155919Y-76647202D01*
X117849253Y-76462687D01*
X117849252Y-76462686D01*
X117849248Y-76462684D01*
X117849244Y-76462682D01*
X117524447Y-76312416D01*
X117524441Y-76312413D01*
X117524435Y-76312411D01*
X117354854Y-76255272D01*
X117185273Y-76198133D01*
X116835744Y-76121196D01*
X116479949Y-76082502D01*
X116479948Y-76082502D01*
X116122052Y-76082502D01*
X116122050Y-76082502D01*
X115766255Y-76121196D01*
X115416726Y-76198133D01*
X115160970Y-76284308D01*
X115077565Y-76312411D01*
X115077563Y-76312412D01*
X115077552Y-76312416D01*
X114752755Y-76462682D01*
X114752751Y-76462684D01*
X114689148Y-76500953D01*
X114446081Y-76647202D01*
X114357768Y-76714335D01*
X114161172Y-76863783D01*
X114161163Y-76863791D01*
X113901331Y-77109916D01*
X113669641Y-77382682D01*
X113669634Y-77382692D01*
X113468790Y-77678915D01*
X113468784Y-77678924D01*
X113301151Y-77995113D01*
X113301142Y-77995131D01*
X113168674Y-78327602D01*
X113168672Y-78327609D01*
X113072932Y-78672436D01*
X113072926Y-78672462D01*
X113015029Y-79025616D01*
X113015028Y-79025633D01*
X112995652Y-79382999D01*
X112995652Y-79383004D01*
X112311761Y-79383004D01*
X112311023Y-75467234D01*
X112330695Y-75400193D01*
X112383490Y-75354428D01*
X112435233Y-75343213D01*
X165177213Y-75432791D01*
G37*
%TD.AperFunction*%
%TD*%
M02*
