%TF.GenerationSoftware,KiCad,Pcbnew,7.0.11*%
%TF.CreationDate,2024-04-21T20:12:22+02:00*%
%TF.ProjectId,cyberboard,63796265-7262-46f6-9172-642e6b696361,rev?*%
%TF.SameCoordinates,Original*%
%TF.FileFunction,Legend,Top*%
%TF.FilePolarity,Positive*%
%FSLAX46Y46*%
G04 Gerber Fmt 4.6, Leading zero omitted, Abs format (unit mm)*
G04 Created by KiCad (PCBNEW 7.0.11) date 2024-04-21 20:12:22*
%MOMM*%
%LPD*%
G01*
G04 APERTURE LIST*
G04 Aperture macros list*
%AMRoundRect*
0 Rectangle with rounded corners*
0 $1 Rounding radius*
0 $2 $3 $4 $5 $6 $7 $8 $9 X,Y pos of 4 corners*
0 Add a 4 corners polygon primitive as box body*
4,1,4,$2,$3,$4,$5,$6,$7,$8,$9,$2,$3,0*
0 Add four circle primitives for the rounded corners*
1,1,$1+$1,$2,$3*
1,1,$1+$1,$4,$5*
1,1,$1+$1,$6,$7*
1,1,$1+$1,$8,$9*
0 Add four rect primitives between the rounded corners*
20,1,$1+$1,$2,$3,$4,$5,0*
20,1,$1+$1,$4,$5,$6,$7,0*
20,1,$1+$1,$6,$7,$8,$9,0*
20,1,$1+$1,$8,$9,$2,$3,0*%
G04 Aperture macros list end*
%ADD10C,0.200000*%
%ADD11C,0.100000*%
%ADD12C,0.150000*%
%ADD13C,0.120000*%
%ADD14RoundRect,0.250000X-0.475000X0.250000X-0.475000X-0.250000X0.475000X-0.250000X0.475000X0.250000X0*%
%ADD15RoundRect,0.375000X0.625000X0.375000X-0.625000X0.375000X-0.625000X-0.375000X0.625000X-0.375000X0*%
%ADD16RoundRect,0.500000X0.500000X1.400000X-0.500000X1.400000X-0.500000X-1.400000X0.500000X-1.400000X0*%
%ADD17RoundRect,0.250000X-0.262500X-0.450000X0.262500X-0.450000X0.262500X0.450000X-0.262500X0.450000X0*%
%ADD18RoundRect,0.250000X0.250000X1.100000X-0.250000X1.100000X-0.250000X-1.100000X0.250000X-1.100000X0*%
%ADD19RoundRect,0.250000X0.650000X1.650000X-0.650000X1.650000X-0.650000X-1.650000X0.650000X-1.650000X0*%
%ADD20RoundRect,0.250000X-0.450000X0.262500X-0.450000X-0.262500X0.450000X-0.262500X0.450000X0.262500X0*%
%ADD21R,1.000000X0.750000*%
%ADD22R,1.000000X1.000000*%
%ADD23RoundRect,0.150000X0.587500X0.150000X-0.587500X0.150000X-0.587500X-0.150000X0.587500X-0.150000X0*%
%ADD24RoundRect,0.225000X0.375000X-0.225000X0.375000X0.225000X-0.375000X0.225000X-0.375000X-0.225000X0*%
%ADD25R,0.655599X0.204000*%
%ADD26R,0.204000X0.655599*%
%ADD27R,1.700000X1.700000*%
%ADD28O,1.700000X1.700000*%
%ADD29RoundRect,0.150000X-0.587500X-0.150000X0.587500X-0.150000X0.587500X0.150000X-0.587500X0.150000X0*%
%ADD30C,5.600000*%
%ADD31RoundRect,0.150000X-0.825000X-0.150000X0.825000X-0.150000X0.825000X0.150000X-0.825000X0.150000X0*%
%ADD32RoundRect,0.250000X0.450000X-0.262500X0.450000X0.262500X-0.450000X0.262500X-0.450000X-0.262500X0*%
%ADD33R,1.350000X1.350000*%
%ADD34O,1.350000X1.350000*%
%ADD35RoundRect,0.250000X0.600000X0.750000X-0.600000X0.750000X-0.600000X-0.750000X0.600000X-0.750000X0*%
%ADD36O,1.700000X2.000000*%
%ADD37R,1.500000X0.900000*%
%ADD38RoundRect,0.218750X-0.256250X0.218750X-0.256250X-0.218750X0.256250X-0.218750X0.256250X0.218750X0*%
%ADD39RoundRect,0.250000X-0.250000X-0.475000X0.250000X-0.475000X0.250000X0.475000X-0.250000X0.475000X0*%
%ADD40RoundRect,0.250000X0.262500X0.450000X-0.262500X0.450000X-0.262500X-0.450000X0.262500X-0.450000X0*%
%ADD41RoundRect,0.250000X0.250000X0.475000X-0.250000X0.475000X-0.250000X-0.475000X0.250000X-0.475000X0*%
%ADD42R,0.900000X1.500000*%
%ADD43R,0.900000X0.900000*%
%ADD44C,0.650000*%
%ADD45R,0.600000X1.450000*%
%ADD46R,0.300000X1.450000*%
%ADD47O,1.000000X2.100000*%
%ADD48O,1.000000X1.600000*%
%ADD49R,0.250000X0.625000*%
%ADD50R,0.450000X0.700000*%
%ADD51R,0.450000X0.575000*%
%ADD52RoundRect,0.150000X-0.150000X0.512500X-0.150000X-0.512500X0.150000X-0.512500X0.150000X0.512500X0*%
G04 APERTURE END LIST*
D10*
X153341000Y-108130502D02*
X153861000Y-107700502D01*
X151961000Y-105770502D02*
X151511000Y-106250502D01*
X153861000Y-107700502D02*
X153351000Y-107310502D01*
X151971000Y-107710502D02*
X151971000Y-106555502D01*
X151961000Y-105770502D02*
X152331000Y-106130502D01*
X152421000Y-106200502D02*
X151961000Y-105770502D01*
X151971000Y-107710502D02*
X153091000Y-107713002D01*
D11*
X112351741Y-92751194D02*
X112304122Y-92722623D01*
X112304122Y-92722623D02*
X112232693Y-92722623D01*
X112232693Y-92722623D02*
X112161265Y-92751194D01*
X112161265Y-92751194D02*
X112113646Y-92808337D01*
X112113646Y-92808337D02*
X112089836Y-92865480D01*
X112089836Y-92865480D02*
X112066027Y-92979766D01*
X112066027Y-92979766D02*
X112066027Y-93065480D01*
X112066027Y-93065480D02*
X112089836Y-93179766D01*
X112089836Y-93179766D02*
X112113646Y-93236909D01*
X112113646Y-93236909D02*
X112161265Y-93294052D01*
X112161265Y-93294052D02*
X112232693Y-93322623D01*
X112232693Y-93322623D02*
X112280312Y-93322623D01*
X112280312Y-93322623D02*
X112351741Y-93294052D01*
X112351741Y-93294052D02*
X112375550Y-93265480D01*
X112375550Y-93265480D02*
X112375550Y-93065480D01*
X112375550Y-93065480D02*
X112280312Y-93065480D01*
X112589836Y-93322623D02*
X112589836Y-92722623D01*
X112589836Y-92722623D02*
X112780312Y-92722623D01*
X112780312Y-92722623D02*
X112827931Y-92751194D01*
X112827931Y-92751194D02*
X112851741Y-92779766D01*
X112851741Y-92779766D02*
X112875550Y-92836909D01*
X112875550Y-92836909D02*
X112875550Y-92922623D01*
X112875550Y-92922623D02*
X112851741Y-92979766D01*
X112851741Y-92979766D02*
X112827931Y-93008337D01*
X112827931Y-93008337D02*
X112780312Y-93036909D01*
X112780312Y-93036909D02*
X112589836Y-93036909D01*
X113089836Y-93322623D02*
X113089836Y-92722623D01*
X113423169Y-92722623D02*
X113518407Y-92722623D01*
X113518407Y-92722623D02*
X113566026Y-92751194D01*
X113566026Y-92751194D02*
X113613645Y-92808337D01*
X113613645Y-92808337D02*
X113637455Y-92922623D01*
X113637455Y-92922623D02*
X113637455Y-93122623D01*
X113637455Y-93122623D02*
X113613645Y-93236909D01*
X113613645Y-93236909D02*
X113566026Y-93294052D01*
X113566026Y-93294052D02*
X113518407Y-93322623D01*
X113518407Y-93322623D02*
X113423169Y-93322623D01*
X113423169Y-93322623D02*
X113375550Y-93294052D01*
X113375550Y-93294052D02*
X113327931Y-93236909D01*
X113327931Y-93236909D02*
X113304122Y-93122623D01*
X113304122Y-93122623D02*
X113304122Y-92922623D01*
X113304122Y-92922623D02*
X113327931Y-92808337D01*
X113327931Y-92808337D02*
X113375550Y-92751194D01*
X113375550Y-92751194D02*
X113423169Y-92722623D01*
X113804122Y-92722623D02*
X114113646Y-92722623D01*
X114113646Y-92722623D02*
X113946979Y-92951194D01*
X113946979Y-92951194D02*
X114018408Y-92951194D01*
X114018408Y-92951194D02*
X114066027Y-92979766D01*
X114066027Y-92979766D02*
X114089836Y-93008337D01*
X114089836Y-93008337D02*
X114113646Y-93065480D01*
X114113646Y-93065480D02*
X114113646Y-93208337D01*
X114113646Y-93208337D02*
X114089836Y-93265480D01*
X114089836Y-93265480D02*
X114066027Y-93294052D01*
X114066027Y-93294052D02*
X114018408Y-93322623D01*
X114018408Y-93322623D02*
X113875551Y-93322623D01*
X113875551Y-93322623D02*
X113827932Y-93294052D01*
X113827932Y-93294052D02*
X113804122Y-93265480D01*
X114542217Y-92722623D02*
X114446979Y-92722623D01*
X114446979Y-92722623D02*
X114399360Y-92751194D01*
X114399360Y-92751194D02*
X114375550Y-92779766D01*
X114375550Y-92779766D02*
X114327931Y-92865480D01*
X114327931Y-92865480D02*
X114304122Y-92979766D01*
X114304122Y-92979766D02*
X114304122Y-93208337D01*
X114304122Y-93208337D02*
X114327931Y-93265480D01*
X114327931Y-93265480D02*
X114351741Y-93294052D01*
X114351741Y-93294052D02*
X114399360Y-93322623D01*
X114399360Y-93322623D02*
X114494598Y-93322623D01*
X114494598Y-93322623D02*
X114542217Y-93294052D01*
X114542217Y-93294052D02*
X114566026Y-93265480D01*
X114566026Y-93265480D02*
X114589836Y-93208337D01*
X114589836Y-93208337D02*
X114589836Y-93065480D01*
X114589836Y-93065480D02*
X114566026Y-93008337D01*
X114566026Y-93008337D02*
X114542217Y-92979766D01*
X114542217Y-92979766D02*
X114494598Y-92951194D01*
X114494598Y-92951194D02*
X114399360Y-92951194D01*
X114399360Y-92951194D02*
X114351741Y-92979766D01*
X114351741Y-92979766D02*
X114327931Y-93008337D01*
X114327931Y-93008337D02*
X114304122Y-93065480D01*
X163351741Y-90001194D02*
X163304122Y-89972623D01*
X163304122Y-89972623D02*
X163232693Y-89972623D01*
X163232693Y-89972623D02*
X163161265Y-90001194D01*
X163161265Y-90001194D02*
X163113646Y-90058337D01*
X163113646Y-90058337D02*
X163089836Y-90115480D01*
X163089836Y-90115480D02*
X163066027Y-90229766D01*
X163066027Y-90229766D02*
X163066027Y-90315480D01*
X163066027Y-90315480D02*
X163089836Y-90429766D01*
X163089836Y-90429766D02*
X163113646Y-90486909D01*
X163113646Y-90486909D02*
X163161265Y-90544052D01*
X163161265Y-90544052D02*
X163232693Y-90572623D01*
X163232693Y-90572623D02*
X163280312Y-90572623D01*
X163280312Y-90572623D02*
X163351741Y-90544052D01*
X163351741Y-90544052D02*
X163375550Y-90515480D01*
X163375550Y-90515480D02*
X163375550Y-90315480D01*
X163375550Y-90315480D02*
X163280312Y-90315480D01*
X163589836Y-90572623D02*
X163589836Y-89972623D01*
X163589836Y-89972623D02*
X163780312Y-89972623D01*
X163780312Y-89972623D02*
X163827931Y-90001194D01*
X163827931Y-90001194D02*
X163851741Y-90029766D01*
X163851741Y-90029766D02*
X163875550Y-90086909D01*
X163875550Y-90086909D02*
X163875550Y-90172623D01*
X163875550Y-90172623D02*
X163851741Y-90229766D01*
X163851741Y-90229766D02*
X163827931Y-90258337D01*
X163827931Y-90258337D02*
X163780312Y-90286909D01*
X163780312Y-90286909D02*
X163589836Y-90286909D01*
X164089836Y-90572623D02*
X164089836Y-89972623D01*
X164423169Y-89972623D02*
X164518407Y-89972623D01*
X164518407Y-89972623D02*
X164566026Y-90001194D01*
X164566026Y-90001194D02*
X164613645Y-90058337D01*
X164613645Y-90058337D02*
X164637455Y-90172623D01*
X164637455Y-90172623D02*
X164637455Y-90372623D01*
X164637455Y-90372623D02*
X164613645Y-90486909D01*
X164613645Y-90486909D02*
X164566026Y-90544052D01*
X164566026Y-90544052D02*
X164518407Y-90572623D01*
X164518407Y-90572623D02*
X164423169Y-90572623D01*
X164423169Y-90572623D02*
X164375550Y-90544052D01*
X164375550Y-90544052D02*
X164327931Y-90486909D01*
X164327931Y-90486909D02*
X164304122Y-90372623D01*
X164304122Y-90372623D02*
X164304122Y-90172623D01*
X164304122Y-90172623D02*
X164327931Y-90058337D01*
X164327931Y-90058337D02*
X164375550Y-90001194D01*
X164375550Y-90001194D02*
X164423169Y-89972623D01*
X165113646Y-90572623D02*
X164827932Y-90572623D01*
X164970789Y-90572623D02*
X164970789Y-89972623D01*
X164970789Y-89972623D02*
X164923170Y-90058337D01*
X164923170Y-90058337D02*
X164875551Y-90115480D01*
X164875551Y-90115480D02*
X164827932Y-90144052D01*
X165304122Y-90029766D02*
X165327931Y-90001194D01*
X165327931Y-90001194D02*
X165375550Y-89972623D01*
X165375550Y-89972623D02*
X165494598Y-89972623D01*
X165494598Y-89972623D02*
X165542217Y-90001194D01*
X165542217Y-90001194D02*
X165566026Y-90029766D01*
X165566026Y-90029766D02*
X165589836Y-90086909D01*
X165589836Y-90086909D02*
X165589836Y-90144052D01*
X165589836Y-90144052D02*
X165566026Y-90229766D01*
X165566026Y-90229766D02*
X165280312Y-90572623D01*
X165280312Y-90572623D02*
X165589836Y-90572623D01*
X163351741Y-92751194D02*
X163304122Y-92722623D01*
X163304122Y-92722623D02*
X163232693Y-92722623D01*
X163232693Y-92722623D02*
X163161265Y-92751194D01*
X163161265Y-92751194D02*
X163113646Y-92808337D01*
X163113646Y-92808337D02*
X163089836Y-92865480D01*
X163089836Y-92865480D02*
X163066027Y-92979766D01*
X163066027Y-92979766D02*
X163066027Y-93065480D01*
X163066027Y-93065480D02*
X163089836Y-93179766D01*
X163089836Y-93179766D02*
X163113646Y-93236909D01*
X163113646Y-93236909D02*
X163161265Y-93294052D01*
X163161265Y-93294052D02*
X163232693Y-93322623D01*
X163232693Y-93322623D02*
X163280312Y-93322623D01*
X163280312Y-93322623D02*
X163351741Y-93294052D01*
X163351741Y-93294052D02*
X163375550Y-93265480D01*
X163375550Y-93265480D02*
X163375550Y-93065480D01*
X163375550Y-93065480D02*
X163280312Y-93065480D01*
X163589836Y-93322623D02*
X163589836Y-92722623D01*
X163589836Y-92722623D02*
X163780312Y-92722623D01*
X163780312Y-92722623D02*
X163827931Y-92751194D01*
X163827931Y-92751194D02*
X163851741Y-92779766D01*
X163851741Y-92779766D02*
X163875550Y-92836909D01*
X163875550Y-92836909D02*
X163875550Y-92922623D01*
X163875550Y-92922623D02*
X163851741Y-92979766D01*
X163851741Y-92979766D02*
X163827931Y-93008337D01*
X163827931Y-93008337D02*
X163780312Y-93036909D01*
X163780312Y-93036909D02*
X163589836Y-93036909D01*
X164089836Y-93322623D02*
X164089836Y-92722623D01*
X164423169Y-92722623D02*
X164518407Y-92722623D01*
X164518407Y-92722623D02*
X164566026Y-92751194D01*
X164566026Y-92751194D02*
X164613645Y-92808337D01*
X164613645Y-92808337D02*
X164637455Y-92922623D01*
X164637455Y-92922623D02*
X164637455Y-93122623D01*
X164637455Y-93122623D02*
X164613645Y-93236909D01*
X164613645Y-93236909D02*
X164566026Y-93294052D01*
X164566026Y-93294052D02*
X164518407Y-93322623D01*
X164518407Y-93322623D02*
X164423169Y-93322623D01*
X164423169Y-93322623D02*
X164375550Y-93294052D01*
X164375550Y-93294052D02*
X164327931Y-93236909D01*
X164327931Y-93236909D02*
X164304122Y-93122623D01*
X164304122Y-93122623D02*
X164304122Y-92922623D01*
X164304122Y-92922623D02*
X164327931Y-92808337D01*
X164327931Y-92808337D02*
X164375550Y-92751194D01*
X164375550Y-92751194D02*
X164423169Y-92722623D01*
X165113646Y-93322623D02*
X164827932Y-93322623D01*
X164970789Y-93322623D02*
X164970789Y-92722623D01*
X164970789Y-92722623D02*
X164923170Y-92808337D01*
X164923170Y-92808337D02*
X164875551Y-92865480D01*
X164875551Y-92865480D02*
X164827932Y-92894052D01*
X165589836Y-93322623D02*
X165304122Y-93322623D01*
X165446979Y-93322623D02*
X165446979Y-92722623D01*
X165446979Y-92722623D02*
X165399360Y-92808337D01*
X165399360Y-92808337D02*
X165351741Y-92865480D01*
X165351741Y-92865480D02*
X165304122Y-92894052D01*
X163042217Y-117972623D02*
X163351741Y-117972623D01*
X163351741Y-117972623D02*
X163185074Y-118201194D01*
X163185074Y-118201194D02*
X163256503Y-118201194D01*
X163256503Y-118201194D02*
X163304122Y-118229766D01*
X163304122Y-118229766D02*
X163327931Y-118258337D01*
X163327931Y-118258337D02*
X163351741Y-118315480D01*
X163351741Y-118315480D02*
X163351741Y-118458337D01*
X163351741Y-118458337D02*
X163327931Y-118515480D01*
X163327931Y-118515480D02*
X163304122Y-118544052D01*
X163304122Y-118544052D02*
X163256503Y-118572623D01*
X163256503Y-118572623D02*
X163113646Y-118572623D01*
X163113646Y-118572623D02*
X163066027Y-118544052D01*
X163066027Y-118544052D02*
X163042217Y-118515480D01*
X163566026Y-118515480D02*
X163589836Y-118544052D01*
X163589836Y-118544052D02*
X163566026Y-118572623D01*
X163566026Y-118572623D02*
X163542217Y-118544052D01*
X163542217Y-118544052D02*
X163566026Y-118515480D01*
X163566026Y-118515480D02*
X163566026Y-118572623D01*
X163756502Y-117972623D02*
X164066026Y-117972623D01*
X164066026Y-117972623D02*
X163899359Y-118201194D01*
X163899359Y-118201194D02*
X163970788Y-118201194D01*
X163970788Y-118201194D02*
X164018407Y-118229766D01*
X164018407Y-118229766D02*
X164042216Y-118258337D01*
X164042216Y-118258337D02*
X164066026Y-118315480D01*
X164066026Y-118315480D02*
X164066026Y-118458337D01*
X164066026Y-118458337D02*
X164042216Y-118515480D01*
X164042216Y-118515480D02*
X164018407Y-118544052D01*
X164018407Y-118544052D02*
X163970788Y-118572623D01*
X163970788Y-118572623D02*
X163827931Y-118572623D01*
X163827931Y-118572623D02*
X163780312Y-118544052D01*
X163780312Y-118544052D02*
X163756502Y-118515480D01*
X164208883Y-117972623D02*
X164375549Y-118572623D01*
X164375549Y-118572623D02*
X164542216Y-117972623D01*
D10*
X151106564Y-107153744D02*
X151106564Y-107534697D01*
X151373231Y-106734697D02*
X151106564Y-107153744D01*
X151106564Y-107153744D02*
X150839898Y-106734697D01*
D11*
X163351741Y-108001194D02*
X163304122Y-107972623D01*
X163304122Y-107972623D02*
X163232693Y-107972623D01*
X163232693Y-107972623D02*
X163161265Y-108001194D01*
X163161265Y-108001194D02*
X163113646Y-108058337D01*
X163113646Y-108058337D02*
X163089836Y-108115480D01*
X163089836Y-108115480D02*
X163066027Y-108229766D01*
X163066027Y-108229766D02*
X163066027Y-108315480D01*
X163066027Y-108315480D02*
X163089836Y-108429766D01*
X163089836Y-108429766D02*
X163113646Y-108486909D01*
X163113646Y-108486909D02*
X163161265Y-108544052D01*
X163161265Y-108544052D02*
X163232693Y-108572623D01*
X163232693Y-108572623D02*
X163280312Y-108572623D01*
X163280312Y-108572623D02*
X163351741Y-108544052D01*
X163351741Y-108544052D02*
X163375550Y-108515480D01*
X163375550Y-108515480D02*
X163375550Y-108315480D01*
X163375550Y-108315480D02*
X163280312Y-108315480D01*
X163589836Y-108572623D02*
X163589836Y-107972623D01*
X163589836Y-107972623D02*
X163780312Y-107972623D01*
X163780312Y-107972623D02*
X163827931Y-108001194D01*
X163827931Y-108001194D02*
X163851741Y-108029766D01*
X163851741Y-108029766D02*
X163875550Y-108086909D01*
X163875550Y-108086909D02*
X163875550Y-108172623D01*
X163875550Y-108172623D02*
X163851741Y-108229766D01*
X163851741Y-108229766D02*
X163827931Y-108258337D01*
X163827931Y-108258337D02*
X163780312Y-108286909D01*
X163780312Y-108286909D02*
X163589836Y-108286909D01*
X164089836Y-108572623D02*
X164089836Y-107972623D01*
X164423169Y-107972623D02*
X164518407Y-107972623D01*
X164518407Y-107972623D02*
X164566026Y-108001194D01*
X164566026Y-108001194D02*
X164613645Y-108058337D01*
X164613645Y-108058337D02*
X164637455Y-108172623D01*
X164637455Y-108172623D02*
X164637455Y-108372623D01*
X164637455Y-108372623D02*
X164613645Y-108486909D01*
X164613645Y-108486909D02*
X164566026Y-108544052D01*
X164566026Y-108544052D02*
X164518407Y-108572623D01*
X164518407Y-108572623D02*
X164423169Y-108572623D01*
X164423169Y-108572623D02*
X164375550Y-108544052D01*
X164375550Y-108544052D02*
X164327931Y-108486909D01*
X164327931Y-108486909D02*
X164304122Y-108372623D01*
X164304122Y-108372623D02*
X164304122Y-108172623D01*
X164304122Y-108172623D02*
X164327931Y-108058337D01*
X164327931Y-108058337D02*
X164375550Y-108001194D01*
X164375550Y-108001194D02*
X164423169Y-107972623D01*
X165113646Y-108572623D02*
X164827932Y-108572623D01*
X164970789Y-108572623D02*
X164970789Y-107972623D01*
X164970789Y-107972623D02*
X164923170Y-108058337D01*
X164923170Y-108058337D02*
X164875551Y-108115480D01*
X164875551Y-108115480D02*
X164827932Y-108144052D01*
X165566026Y-107972623D02*
X165327931Y-107972623D01*
X165327931Y-107972623D02*
X165304122Y-108258337D01*
X165304122Y-108258337D02*
X165327931Y-108229766D01*
X165327931Y-108229766D02*
X165375550Y-108201194D01*
X165375550Y-108201194D02*
X165494598Y-108201194D01*
X165494598Y-108201194D02*
X165542217Y-108229766D01*
X165542217Y-108229766D02*
X165566026Y-108258337D01*
X165566026Y-108258337D02*
X165589836Y-108315480D01*
X165589836Y-108315480D02*
X165589836Y-108458337D01*
X165589836Y-108458337D02*
X165566026Y-108515480D01*
X165566026Y-108515480D02*
X165542217Y-108544052D01*
X165542217Y-108544052D02*
X165494598Y-108572623D01*
X165494598Y-108572623D02*
X165375550Y-108572623D01*
X165375550Y-108572623D02*
X165327931Y-108544052D01*
X165327931Y-108544052D02*
X165304122Y-108515480D01*
X163351741Y-103001194D02*
X163304122Y-102972623D01*
X163304122Y-102972623D02*
X163232693Y-102972623D01*
X163232693Y-102972623D02*
X163161265Y-103001194D01*
X163161265Y-103001194D02*
X163113646Y-103058337D01*
X163113646Y-103058337D02*
X163089836Y-103115480D01*
X163089836Y-103115480D02*
X163066027Y-103229766D01*
X163066027Y-103229766D02*
X163066027Y-103315480D01*
X163066027Y-103315480D02*
X163089836Y-103429766D01*
X163089836Y-103429766D02*
X163113646Y-103486909D01*
X163113646Y-103486909D02*
X163161265Y-103544052D01*
X163161265Y-103544052D02*
X163232693Y-103572623D01*
X163232693Y-103572623D02*
X163280312Y-103572623D01*
X163280312Y-103572623D02*
X163351741Y-103544052D01*
X163351741Y-103544052D02*
X163375550Y-103515480D01*
X163375550Y-103515480D02*
X163375550Y-103315480D01*
X163375550Y-103315480D02*
X163280312Y-103315480D01*
X163589836Y-103572623D02*
X163589836Y-102972623D01*
X163589836Y-102972623D02*
X163780312Y-102972623D01*
X163780312Y-102972623D02*
X163827931Y-103001194D01*
X163827931Y-103001194D02*
X163851741Y-103029766D01*
X163851741Y-103029766D02*
X163875550Y-103086909D01*
X163875550Y-103086909D02*
X163875550Y-103172623D01*
X163875550Y-103172623D02*
X163851741Y-103229766D01*
X163851741Y-103229766D02*
X163827931Y-103258337D01*
X163827931Y-103258337D02*
X163780312Y-103286909D01*
X163780312Y-103286909D02*
X163589836Y-103286909D01*
X164089836Y-103572623D02*
X164089836Y-102972623D01*
X164423169Y-102972623D02*
X164518407Y-102972623D01*
X164518407Y-102972623D02*
X164566026Y-103001194D01*
X164566026Y-103001194D02*
X164613645Y-103058337D01*
X164613645Y-103058337D02*
X164637455Y-103172623D01*
X164637455Y-103172623D02*
X164637455Y-103372623D01*
X164637455Y-103372623D02*
X164613645Y-103486909D01*
X164613645Y-103486909D02*
X164566026Y-103544052D01*
X164566026Y-103544052D02*
X164518407Y-103572623D01*
X164518407Y-103572623D02*
X164423169Y-103572623D01*
X164423169Y-103572623D02*
X164375550Y-103544052D01*
X164375550Y-103544052D02*
X164327931Y-103486909D01*
X164327931Y-103486909D02*
X164304122Y-103372623D01*
X164304122Y-103372623D02*
X164304122Y-103172623D01*
X164304122Y-103172623D02*
X164327931Y-103058337D01*
X164327931Y-103058337D02*
X164375550Y-103001194D01*
X164375550Y-103001194D02*
X164423169Y-102972623D01*
X165113646Y-103572623D02*
X164827932Y-103572623D01*
X164970789Y-103572623D02*
X164970789Y-102972623D01*
X164970789Y-102972623D02*
X164923170Y-103058337D01*
X164923170Y-103058337D02*
X164875551Y-103115480D01*
X164875551Y-103115480D02*
X164827932Y-103144052D01*
X165280312Y-102972623D02*
X165613645Y-102972623D01*
X165613645Y-102972623D02*
X165399360Y-103572623D01*
X163351741Y-87501194D02*
X163304122Y-87472623D01*
X163304122Y-87472623D02*
X163232693Y-87472623D01*
X163232693Y-87472623D02*
X163161265Y-87501194D01*
X163161265Y-87501194D02*
X163113646Y-87558337D01*
X163113646Y-87558337D02*
X163089836Y-87615480D01*
X163089836Y-87615480D02*
X163066027Y-87729766D01*
X163066027Y-87729766D02*
X163066027Y-87815480D01*
X163066027Y-87815480D02*
X163089836Y-87929766D01*
X163089836Y-87929766D02*
X163113646Y-87986909D01*
X163113646Y-87986909D02*
X163161265Y-88044052D01*
X163161265Y-88044052D02*
X163232693Y-88072623D01*
X163232693Y-88072623D02*
X163280312Y-88072623D01*
X163280312Y-88072623D02*
X163351741Y-88044052D01*
X163351741Y-88044052D02*
X163375550Y-88015480D01*
X163375550Y-88015480D02*
X163375550Y-87815480D01*
X163375550Y-87815480D02*
X163280312Y-87815480D01*
X163589836Y-88072623D02*
X163589836Y-87472623D01*
X163589836Y-87472623D02*
X163875550Y-88072623D01*
X163875550Y-88072623D02*
X163875550Y-87472623D01*
X164113646Y-88072623D02*
X164113646Y-87472623D01*
X164113646Y-87472623D02*
X164232694Y-87472623D01*
X164232694Y-87472623D02*
X164304122Y-87501194D01*
X164304122Y-87501194D02*
X164351741Y-87558337D01*
X164351741Y-87558337D02*
X164375551Y-87615480D01*
X164375551Y-87615480D02*
X164399360Y-87729766D01*
X164399360Y-87729766D02*
X164399360Y-87815480D01*
X164399360Y-87815480D02*
X164375551Y-87929766D01*
X164375551Y-87929766D02*
X164351741Y-87986909D01*
X164351741Y-87986909D02*
X164304122Y-88044052D01*
X164304122Y-88044052D02*
X164232694Y-88072623D01*
X164232694Y-88072623D02*
X164113646Y-88072623D01*
X112351741Y-90001194D02*
X112304122Y-89972623D01*
X112304122Y-89972623D02*
X112232693Y-89972623D01*
X112232693Y-89972623D02*
X112161265Y-90001194D01*
X112161265Y-90001194D02*
X112113646Y-90058337D01*
X112113646Y-90058337D02*
X112089836Y-90115480D01*
X112089836Y-90115480D02*
X112066027Y-90229766D01*
X112066027Y-90229766D02*
X112066027Y-90315480D01*
X112066027Y-90315480D02*
X112089836Y-90429766D01*
X112089836Y-90429766D02*
X112113646Y-90486909D01*
X112113646Y-90486909D02*
X112161265Y-90544052D01*
X112161265Y-90544052D02*
X112232693Y-90572623D01*
X112232693Y-90572623D02*
X112280312Y-90572623D01*
X112280312Y-90572623D02*
X112351741Y-90544052D01*
X112351741Y-90544052D02*
X112375550Y-90515480D01*
X112375550Y-90515480D02*
X112375550Y-90315480D01*
X112375550Y-90315480D02*
X112280312Y-90315480D01*
X112589836Y-90572623D02*
X112589836Y-89972623D01*
X112589836Y-89972623D02*
X112780312Y-89972623D01*
X112780312Y-89972623D02*
X112827931Y-90001194D01*
X112827931Y-90001194D02*
X112851741Y-90029766D01*
X112851741Y-90029766D02*
X112875550Y-90086909D01*
X112875550Y-90086909D02*
X112875550Y-90172623D01*
X112875550Y-90172623D02*
X112851741Y-90229766D01*
X112851741Y-90229766D02*
X112827931Y-90258337D01*
X112827931Y-90258337D02*
X112780312Y-90286909D01*
X112780312Y-90286909D02*
X112589836Y-90286909D01*
X113089836Y-90572623D02*
X113089836Y-89972623D01*
X113423169Y-89972623D02*
X113518407Y-89972623D01*
X113518407Y-89972623D02*
X113566026Y-90001194D01*
X113566026Y-90001194D02*
X113613645Y-90058337D01*
X113613645Y-90058337D02*
X113637455Y-90172623D01*
X113637455Y-90172623D02*
X113637455Y-90372623D01*
X113637455Y-90372623D02*
X113613645Y-90486909D01*
X113613645Y-90486909D02*
X113566026Y-90544052D01*
X113566026Y-90544052D02*
X113518407Y-90572623D01*
X113518407Y-90572623D02*
X113423169Y-90572623D01*
X113423169Y-90572623D02*
X113375550Y-90544052D01*
X113375550Y-90544052D02*
X113327931Y-90486909D01*
X113327931Y-90486909D02*
X113304122Y-90372623D01*
X113304122Y-90372623D02*
X113304122Y-90172623D01*
X113304122Y-90172623D02*
X113327931Y-90058337D01*
X113327931Y-90058337D02*
X113375550Y-90001194D01*
X113375550Y-90001194D02*
X113423169Y-89972623D01*
X113804122Y-89972623D02*
X114113646Y-89972623D01*
X114113646Y-89972623D02*
X113946979Y-90201194D01*
X113946979Y-90201194D02*
X114018408Y-90201194D01*
X114018408Y-90201194D02*
X114066027Y-90229766D01*
X114066027Y-90229766D02*
X114089836Y-90258337D01*
X114089836Y-90258337D02*
X114113646Y-90315480D01*
X114113646Y-90315480D02*
X114113646Y-90458337D01*
X114113646Y-90458337D02*
X114089836Y-90515480D01*
X114089836Y-90515480D02*
X114066027Y-90544052D01*
X114066027Y-90544052D02*
X114018408Y-90572623D01*
X114018408Y-90572623D02*
X113875551Y-90572623D01*
X113875551Y-90572623D02*
X113827932Y-90544052D01*
X113827932Y-90544052D02*
X113804122Y-90515480D01*
X114566026Y-89972623D02*
X114327931Y-89972623D01*
X114327931Y-89972623D02*
X114304122Y-90258337D01*
X114304122Y-90258337D02*
X114327931Y-90229766D01*
X114327931Y-90229766D02*
X114375550Y-90201194D01*
X114375550Y-90201194D02*
X114494598Y-90201194D01*
X114494598Y-90201194D02*
X114542217Y-90229766D01*
X114542217Y-90229766D02*
X114566026Y-90258337D01*
X114566026Y-90258337D02*
X114589836Y-90315480D01*
X114589836Y-90315480D02*
X114589836Y-90458337D01*
X114589836Y-90458337D02*
X114566026Y-90515480D01*
X114566026Y-90515480D02*
X114542217Y-90544052D01*
X114542217Y-90544052D02*
X114494598Y-90572623D01*
X114494598Y-90572623D02*
X114375550Y-90572623D01*
X114375550Y-90572623D02*
X114327931Y-90544052D01*
X114327931Y-90544052D02*
X114304122Y-90515480D01*
X163351741Y-95251194D02*
X163304122Y-95222623D01*
X163304122Y-95222623D02*
X163232693Y-95222623D01*
X163232693Y-95222623D02*
X163161265Y-95251194D01*
X163161265Y-95251194D02*
X163113646Y-95308337D01*
X163113646Y-95308337D02*
X163089836Y-95365480D01*
X163089836Y-95365480D02*
X163066027Y-95479766D01*
X163066027Y-95479766D02*
X163066027Y-95565480D01*
X163066027Y-95565480D02*
X163089836Y-95679766D01*
X163089836Y-95679766D02*
X163113646Y-95736909D01*
X163113646Y-95736909D02*
X163161265Y-95794052D01*
X163161265Y-95794052D02*
X163232693Y-95822623D01*
X163232693Y-95822623D02*
X163280312Y-95822623D01*
X163280312Y-95822623D02*
X163351741Y-95794052D01*
X163351741Y-95794052D02*
X163375550Y-95765480D01*
X163375550Y-95765480D02*
X163375550Y-95565480D01*
X163375550Y-95565480D02*
X163280312Y-95565480D01*
X163589836Y-95822623D02*
X163589836Y-95222623D01*
X163589836Y-95222623D02*
X163780312Y-95222623D01*
X163780312Y-95222623D02*
X163827931Y-95251194D01*
X163827931Y-95251194D02*
X163851741Y-95279766D01*
X163851741Y-95279766D02*
X163875550Y-95336909D01*
X163875550Y-95336909D02*
X163875550Y-95422623D01*
X163875550Y-95422623D02*
X163851741Y-95479766D01*
X163851741Y-95479766D02*
X163827931Y-95508337D01*
X163827931Y-95508337D02*
X163780312Y-95536909D01*
X163780312Y-95536909D02*
X163589836Y-95536909D01*
X164089836Y-95822623D02*
X164089836Y-95222623D01*
X164423169Y-95222623D02*
X164518407Y-95222623D01*
X164518407Y-95222623D02*
X164566026Y-95251194D01*
X164566026Y-95251194D02*
X164613645Y-95308337D01*
X164613645Y-95308337D02*
X164637455Y-95422623D01*
X164637455Y-95422623D02*
X164637455Y-95622623D01*
X164637455Y-95622623D02*
X164613645Y-95736909D01*
X164613645Y-95736909D02*
X164566026Y-95794052D01*
X164566026Y-95794052D02*
X164518407Y-95822623D01*
X164518407Y-95822623D02*
X164423169Y-95822623D01*
X164423169Y-95822623D02*
X164375550Y-95794052D01*
X164375550Y-95794052D02*
X164327931Y-95736909D01*
X164327931Y-95736909D02*
X164304122Y-95622623D01*
X164304122Y-95622623D02*
X164304122Y-95422623D01*
X164304122Y-95422623D02*
X164327931Y-95308337D01*
X164327931Y-95308337D02*
X164375550Y-95251194D01*
X164375550Y-95251194D02*
X164423169Y-95222623D01*
X165113646Y-95822623D02*
X164827932Y-95822623D01*
X164970789Y-95822623D02*
X164970789Y-95222623D01*
X164970789Y-95222623D02*
X164923170Y-95308337D01*
X164923170Y-95308337D02*
X164875551Y-95365480D01*
X164875551Y-95365480D02*
X164827932Y-95394052D01*
X165423169Y-95222623D02*
X165470788Y-95222623D01*
X165470788Y-95222623D02*
X165518407Y-95251194D01*
X165518407Y-95251194D02*
X165542217Y-95279766D01*
X165542217Y-95279766D02*
X165566026Y-95336909D01*
X165566026Y-95336909D02*
X165589836Y-95451194D01*
X165589836Y-95451194D02*
X165589836Y-95594052D01*
X165589836Y-95594052D02*
X165566026Y-95708337D01*
X165566026Y-95708337D02*
X165542217Y-95765480D01*
X165542217Y-95765480D02*
X165518407Y-95794052D01*
X165518407Y-95794052D02*
X165470788Y-95822623D01*
X165470788Y-95822623D02*
X165423169Y-95822623D01*
X165423169Y-95822623D02*
X165375550Y-95794052D01*
X165375550Y-95794052D02*
X165351741Y-95765480D01*
X165351741Y-95765480D02*
X165327931Y-95708337D01*
X165327931Y-95708337D02*
X165304122Y-95594052D01*
X165304122Y-95594052D02*
X165304122Y-95451194D01*
X165304122Y-95451194D02*
X165327931Y-95336909D01*
X165327931Y-95336909D02*
X165351741Y-95279766D01*
X165351741Y-95279766D02*
X165375550Y-95251194D01*
X165375550Y-95251194D02*
X165423169Y-95222623D01*
X163351741Y-100251194D02*
X163304122Y-100222623D01*
X163304122Y-100222623D02*
X163232693Y-100222623D01*
X163232693Y-100222623D02*
X163161265Y-100251194D01*
X163161265Y-100251194D02*
X163113646Y-100308337D01*
X163113646Y-100308337D02*
X163089836Y-100365480D01*
X163089836Y-100365480D02*
X163066027Y-100479766D01*
X163066027Y-100479766D02*
X163066027Y-100565480D01*
X163066027Y-100565480D02*
X163089836Y-100679766D01*
X163089836Y-100679766D02*
X163113646Y-100736909D01*
X163113646Y-100736909D02*
X163161265Y-100794052D01*
X163161265Y-100794052D02*
X163232693Y-100822623D01*
X163232693Y-100822623D02*
X163280312Y-100822623D01*
X163280312Y-100822623D02*
X163351741Y-100794052D01*
X163351741Y-100794052D02*
X163375550Y-100765480D01*
X163375550Y-100765480D02*
X163375550Y-100565480D01*
X163375550Y-100565480D02*
X163280312Y-100565480D01*
X163589836Y-100822623D02*
X163589836Y-100222623D01*
X163589836Y-100222623D02*
X163780312Y-100222623D01*
X163780312Y-100222623D02*
X163827931Y-100251194D01*
X163827931Y-100251194D02*
X163851741Y-100279766D01*
X163851741Y-100279766D02*
X163875550Y-100336909D01*
X163875550Y-100336909D02*
X163875550Y-100422623D01*
X163875550Y-100422623D02*
X163851741Y-100479766D01*
X163851741Y-100479766D02*
X163827931Y-100508337D01*
X163827931Y-100508337D02*
X163780312Y-100536909D01*
X163780312Y-100536909D02*
X163589836Y-100536909D01*
X164089836Y-100822623D02*
X164089836Y-100222623D01*
X164423169Y-100222623D02*
X164518407Y-100222623D01*
X164518407Y-100222623D02*
X164566026Y-100251194D01*
X164566026Y-100251194D02*
X164613645Y-100308337D01*
X164613645Y-100308337D02*
X164637455Y-100422623D01*
X164637455Y-100422623D02*
X164637455Y-100622623D01*
X164637455Y-100622623D02*
X164613645Y-100736909D01*
X164613645Y-100736909D02*
X164566026Y-100794052D01*
X164566026Y-100794052D02*
X164518407Y-100822623D01*
X164518407Y-100822623D02*
X164423169Y-100822623D01*
X164423169Y-100822623D02*
X164375550Y-100794052D01*
X164375550Y-100794052D02*
X164327931Y-100736909D01*
X164327931Y-100736909D02*
X164304122Y-100622623D01*
X164304122Y-100622623D02*
X164304122Y-100422623D01*
X164304122Y-100422623D02*
X164327931Y-100308337D01*
X164327931Y-100308337D02*
X164375550Y-100251194D01*
X164375550Y-100251194D02*
X164423169Y-100222623D01*
X164923170Y-100479766D02*
X164875551Y-100451194D01*
X164875551Y-100451194D02*
X164851741Y-100422623D01*
X164851741Y-100422623D02*
X164827932Y-100365480D01*
X164827932Y-100365480D02*
X164827932Y-100336909D01*
X164827932Y-100336909D02*
X164851741Y-100279766D01*
X164851741Y-100279766D02*
X164875551Y-100251194D01*
X164875551Y-100251194D02*
X164923170Y-100222623D01*
X164923170Y-100222623D02*
X165018408Y-100222623D01*
X165018408Y-100222623D02*
X165066027Y-100251194D01*
X165066027Y-100251194D02*
X165089836Y-100279766D01*
X165089836Y-100279766D02*
X165113646Y-100336909D01*
X165113646Y-100336909D02*
X165113646Y-100365480D01*
X165113646Y-100365480D02*
X165089836Y-100422623D01*
X165089836Y-100422623D02*
X165066027Y-100451194D01*
X165066027Y-100451194D02*
X165018408Y-100479766D01*
X165018408Y-100479766D02*
X164923170Y-100479766D01*
X164923170Y-100479766D02*
X164875551Y-100508337D01*
X164875551Y-100508337D02*
X164851741Y-100536909D01*
X164851741Y-100536909D02*
X164827932Y-100594052D01*
X164827932Y-100594052D02*
X164827932Y-100708337D01*
X164827932Y-100708337D02*
X164851741Y-100765480D01*
X164851741Y-100765480D02*
X164875551Y-100794052D01*
X164875551Y-100794052D02*
X164923170Y-100822623D01*
X164923170Y-100822623D02*
X165018408Y-100822623D01*
X165018408Y-100822623D02*
X165066027Y-100794052D01*
X165066027Y-100794052D02*
X165089836Y-100765480D01*
X165089836Y-100765480D02*
X165113646Y-100708337D01*
X165113646Y-100708337D02*
X165113646Y-100594052D01*
X165113646Y-100594052D02*
X165089836Y-100536909D01*
X165089836Y-100536909D02*
X165066027Y-100508337D01*
X165066027Y-100508337D02*
X165018408Y-100479766D01*
X114077931Y-84972623D02*
X113839836Y-84972623D01*
X113839836Y-84972623D02*
X113816027Y-85258337D01*
X113816027Y-85258337D02*
X113839836Y-85229766D01*
X113839836Y-85229766D02*
X113887455Y-85201194D01*
X113887455Y-85201194D02*
X114006503Y-85201194D01*
X114006503Y-85201194D02*
X114054122Y-85229766D01*
X114054122Y-85229766D02*
X114077931Y-85258337D01*
X114077931Y-85258337D02*
X114101741Y-85315480D01*
X114101741Y-85315480D02*
X114101741Y-85458337D01*
X114101741Y-85458337D02*
X114077931Y-85515480D01*
X114077931Y-85515480D02*
X114054122Y-85544052D01*
X114054122Y-85544052D02*
X114006503Y-85572623D01*
X114006503Y-85572623D02*
X113887455Y-85572623D01*
X113887455Y-85572623D02*
X113839836Y-85544052D01*
X113839836Y-85544052D02*
X113816027Y-85515480D01*
X114244598Y-84972623D02*
X114411264Y-85572623D01*
X114411264Y-85572623D02*
X114577931Y-84972623D01*
X112351741Y-108001194D02*
X112304122Y-107972623D01*
X112304122Y-107972623D02*
X112232693Y-107972623D01*
X112232693Y-107972623D02*
X112161265Y-108001194D01*
X112161265Y-108001194D02*
X112113646Y-108058337D01*
X112113646Y-108058337D02*
X112089836Y-108115480D01*
X112089836Y-108115480D02*
X112066027Y-108229766D01*
X112066027Y-108229766D02*
X112066027Y-108315480D01*
X112066027Y-108315480D02*
X112089836Y-108429766D01*
X112089836Y-108429766D02*
X112113646Y-108486909D01*
X112113646Y-108486909D02*
X112161265Y-108544052D01*
X112161265Y-108544052D02*
X112232693Y-108572623D01*
X112232693Y-108572623D02*
X112280312Y-108572623D01*
X112280312Y-108572623D02*
X112351741Y-108544052D01*
X112351741Y-108544052D02*
X112375550Y-108515480D01*
X112375550Y-108515480D02*
X112375550Y-108315480D01*
X112375550Y-108315480D02*
X112280312Y-108315480D01*
X112589836Y-108572623D02*
X112589836Y-107972623D01*
X112589836Y-107972623D02*
X112780312Y-107972623D01*
X112780312Y-107972623D02*
X112827931Y-108001194D01*
X112827931Y-108001194D02*
X112851741Y-108029766D01*
X112851741Y-108029766D02*
X112875550Y-108086909D01*
X112875550Y-108086909D02*
X112875550Y-108172623D01*
X112875550Y-108172623D02*
X112851741Y-108229766D01*
X112851741Y-108229766D02*
X112827931Y-108258337D01*
X112827931Y-108258337D02*
X112780312Y-108286909D01*
X112780312Y-108286909D02*
X112589836Y-108286909D01*
X113089836Y-108572623D02*
X113089836Y-107972623D01*
X113423169Y-107972623D02*
X113518407Y-107972623D01*
X113518407Y-107972623D02*
X113566026Y-108001194D01*
X113566026Y-108001194D02*
X113613645Y-108058337D01*
X113613645Y-108058337D02*
X113637455Y-108172623D01*
X113637455Y-108172623D02*
X113637455Y-108372623D01*
X113637455Y-108372623D02*
X113613645Y-108486909D01*
X113613645Y-108486909D02*
X113566026Y-108544052D01*
X113566026Y-108544052D02*
X113518407Y-108572623D01*
X113518407Y-108572623D02*
X113423169Y-108572623D01*
X113423169Y-108572623D02*
X113375550Y-108544052D01*
X113375550Y-108544052D02*
X113327931Y-108486909D01*
X113327931Y-108486909D02*
X113304122Y-108372623D01*
X113304122Y-108372623D02*
X113304122Y-108172623D01*
X113304122Y-108172623D02*
X113327931Y-108058337D01*
X113327931Y-108058337D02*
X113375550Y-108001194D01*
X113375550Y-108001194D02*
X113423169Y-107972623D01*
X114066027Y-108172623D02*
X114066027Y-108572623D01*
X113946979Y-107944052D02*
X113827932Y-108372623D01*
X113827932Y-108372623D02*
X114137455Y-108372623D01*
X114304122Y-108029766D02*
X114327931Y-108001194D01*
X114327931Y-108001194D02*
X114375550Y-107972623D01*
X114375550Y-107972623D02*
X114494598Y-107972623D01*
X114494598Y-107972623D02*
X114542217Y-108001194D01*
X114542217Y-108001194D02*
X114566026Y-108029766D01*
X114566026Y-108029766D02*
X114589836Y-108086909D01*
X114589836Y-108086909D02*
X114589836Y-108144052D01*
X114589836Y-108144052D02*
X114566026Y-108229766D01*
X114566026Y-108229766D02*
X114280312Y-108572623D01*
X114280312Y-108572623D02*
X114589836Y-108572623D01*
X112351741Y-95251194D02*
X112304122Y-95222623D01*
X112304122Y-95222623D02*
X112232693Y-95222623D01*
X112232693Y-95222623D02*
X112161265Y-95251194D01*
X112161265Y-95251194D02*
X112113646Y-95308337D01*
X112113646Y-95308337D02*
X112089836Y-95365480D01*
X112089836Y-95365480D02*
X112066027Y-95479766D01*
X112066027Y-95479766D02*
X112066027Y-95565480D01*
X112066027Y-95565480D02*
X112089836Y-95679766D01*
X112089836Y-95679766D02*
X112113646Y-95736909D01*
X112113646Y-95736909D02*
X112161265Y-95794052D01*
X112161265Y-95794052D02*
X112232693Y-95822623D01*
X112232693Y-95822623D02*
X112280312Y-95822623D01*
X112280312Y-95822623D02*
X112351741Y-95794052D01*
X112351741Y-95794052D02*
X112375550Y-95765480D01*
X112375550Y-95765480D02*
X112375550Y-95565480D01*
X112375550Y-95565480D02*
X112280312Y-95565480D01*
X112589836Y-95822623D02*
X112589836Y-95222623D01*
X112589836Y-95222623D02*
X112780312Y-95222623D01*
X112780312Y-95222623D02*
X112827931Y-95251194D01*
X112827931Y-95251194D02*
X112851741Y-95279766D01*
X112851741Y-95279766D02*
X112875550Y-95336909D01*
X112875550Y-95336909D02*
X112875550Y-95422623D01*
X112875550Y-95422623D02*
X112851741Y-95479766D01*
X112851741Y-95479766D02*
X112827931Y-95508337D01*
X112827931Y-95508337D02*
X112780312Y-95536909D01*
X112780312Y-95536909D02*
X112589836Y-95536909D01*
X113089836Y-95822623D02*
X113089836Y-95222623D01*
X113423169Y-95222623D02*
X113518407Y-95222623D01*
X113518407Y-95222623D02*
X113566026Y-95251194D01*
X113566026Y-95251194D02*
X113613645Y-95308337D01*
X113613645Y-95308337D02*
X113637455Y-95422623D01*
X113637455Y-95422623D02*
X113637455Y-95622623D01*
X113637455Y-95622623D02*
X113613645Y-95736909D01*
X113613645Y-95736909D02*
X113566026Y-95794052D01*
X113566026Y-95794052D02*
X113518407Y-95822623D01*
X113518407Y-95822623D02*
X113423169Y-95822623D01*
X113423169Y-95822623D02*
X113375550Y-95794052D01*
X113375550Y-95794052D02*
X113327931Y-95736909D01*
X113327931Y-95736909D02*
X113304122Y-95622623D01*
X113304122Y-95622623D02*
X113304122Y-95422623D01*
X113304122Y-95422623D02*
X113327931Y-95308337D01*
X113327931Y-95308337D02*
X113375550Y-95251194D01*
X113375550Y-95251194D02*
X113423169Y-95222623D01*
X113804122Y-95222623D02*
X114113646Y-95222623D01*
X114113646Y-95222623D02*
X113946979Y-95451194D01*
X113946979Y-95451194D02*
X114018408Y-95451194D01*
X114018408Y-95451194D02*
X114066027Y-95479766D01*
X114066027Y-95479766D02*
X114089836Y-95508337D01*
X114089836Y-95508337D02*
X114113646Y-95565480D01*
X114113646Y-95565480D02*
X114113646Y-95708337D01*
X114113646Y-95708337D02*
X114089836Y-95765480D01*
X114089836Y-95765480D02*
X114066027Y-95794052D01*
X114066027Y-95794052D02*
X114018408Y-95822623D01*
X114018408Y-95822623D02*
X113875551Y-95822623D01*
X113875551Y-95822623D02*
X113827932Y-95794052D01*
X113827932Y-95794052D02*
X113804122Y-95765480D01*
X114280312Y-95222623D02*
X114613645Y-95222623D01*
X114613645Y-95222623D02*
X114399360Y-95822623D01*
D10*
X152266863Y-108971306D02*
X152800197Y-108171306D01*
X152800197Y-108971306D02*
X152266863Y-108171306D01*
D11*
X112351741Y-105501194D02*
X112304122Y-105472623D01*
X112304122Y-105472623D02*
X112232693Y-105472623D01*
X112232693Y-105472623D02*
X112161265Y-105501194D01*
X112161265Y-105501194D02*
X112113646Y-105558337D01*
X112113646Y-105558337D02*
X112089836Y-105615480D01*
X112089836Y-105615480D02*
X112066027Y-105729766D01*
X112066027Y-105729766D02*
X112066027Y-105815480D01*
X112066027Y-105815480D02*
X112089836Y-105929766D01*
X112089836Y-105929766D02*
X112113646Y-105986909D01*
X112113646Y-105986909D02*
X112161265Y-106044052D01*
X112161265Y-106044052D02*
X112232693Y-106072623D01*
X112232693Y-106072623D02*
X112280312Y-106072623D01*
X112280312Y-106072623D02*
X112351741Y-106044052D01*
X112351741Y-106044052D02*
X112375550Y-106015480D01*
X112375550Y-106015480D02*
X112375550Y-105815480D01*
X112375550Y-105815480D02*
X112280312Y-105815480D01*
X112589836Y-106072623D02*
X112589836Y-105472623D01*
X112589836Y-105472623D02*
X112780312Y-105472623D01*
X112780312Y-105472623D02*
X112827931Y-105501194D01*
X112827931Y-105501194D02*
X112851741Y-105529766D01*
X112851741Y-105529766D02*
X112875550Y-105586909D01*
X112875550Y-105586909D02*
X112875550Y-105672623D01*
X112875550Y-105672623D02*
X112851741Y-105729766D01*
X112851741Y-105729766D02*
X112827931Y-105758337D01*
X112827931Y-105758337D02*
X112780312Y-105786909D01*
X112780312Y-105786909D02*
X112589836Y-105786909D01*
X113089836Y-106072623D02*
X113089836Y-105472623D01*
X113423169Y-105472623D02*
X113518407Y-105472623D01*
X113518407Y-105472623D02*
X113566026Y-105501194D01*
X113566026Y-105501194D02*
X113613645Y-105558337D01*
X113613645Y-105558337D02*
X113637455Y-105672623D01*
X113637455Y-105672623D02*
X113637455Y-105872623D01*
X113637455Y-105872623D02*
X113613645Y-105986909D01*
X113613645Y-105986909D02*
X113566026Y-106044052D01*
X113566026Y-106044052D02*
X113518407Y-106072623D01*
X113518407Y-106072623D02*
X113423169Y-106072623D01*
X113423169Y-106072623D02*
X113375550Y-106044052D01*
X113375550Y-106044052D02*
X113327931Y-105986909D01*
X113327931Y-105986909D02*
X113304122Y-105872623D01*
X113304122Y-105872623D02*
X113304122Y-105672623D01*
X113304122Y-105672623D02*
X113327931Y-105558337D01*
X113327931Y-105558337D02*
X113375550Y-105501194D01*
X113375550Y-105501194D02*
X113423169Y-105472623D01*
X114066027Y-105672623D02*
X114066027Y-106072623D01*
X113946979Y-105444052D02*
X113827932Y-105872623D01*
X113827932Y-105872623D02*
X114137455Y-105872623D01*
X114589836Y-106072623D02*
X114304122Y-106072623D01*
X114446979Y-106072623D02*
X114446979Y-105472623D01*
X114446979Y-105472623D02*
X114399360Y-105558337D01*
X114399360Y-105558337D02*
X114351741Y-105615480D01*
X114351741Y-105615480D02*
X114304122Y-105644052D01*
X163327931Y-84972623D02*
X163089836Y-84972623D01*
X163089836Y-84972623D02*
X163066027Y-85258337D01*
X163066027Y-85258337D02*
X163089836Y-85229766D01*
X163089836Y-85229766D02*
X163137455Y-85201194D01*
X163137455Y-85201194D02*
X163256503Y-85201194D01*
X163256503Y-85201194D02*
X163304122Y-85229766D01*
X163304122Y-85229766D02*
X163327931Y-85258337D01*
X163327931Y-85258337D02*
X163351741Y-85315480D01*
X163351741Y-85315480D02*
X163351741Y-85458337D01*
X163351741Y-85458337D02*
X163327931Y-85515480D01*
X163327931Y-85515480D02*
X163304122Y-85544052D01*
X163304122Y-85544052D02*
X163256503Y-85572623D01*
X163256503Y-85572623D02*
X163137455Y-85572623D01*
X163137455Y-85572623D02*
X163089836Y-85544052D01*
X163089836Y-85544052D02*
X163066027Y-85515480D01*
X163494598Y-84972623D02*
X163661264Y-85572623D01*
X163661264Y-85572623D02*
X163827931Y-84972623D01*
D12*
X148313207Y-129021071D02*
X147979874Y-128544880D01*
X147741779Y-129021071D02*
X147741779Y-128021071D01*
X147741779Y-128021071D02*
X148122731Y-128021071D01*
X148122731Y-128021071D02*
X148217969Y-128068690D01*
X148217969Y-128068690D02*
X148265588Y-128116309D01*
X148265588Y-128116309D02*
X148313207Y-128211547D01*
X148313207Y-128211547D02*
X148313207Y-128354404D01*
X148313207Y-128354404D02*
X148265588Y-128449642D01*
X148265588Y-128449642D02*
X148217969Y-128497261D01*
X148217969Y-128497261D02*
X148122731Y-128544880D01*
X148122731Y-128544880D02*
X147741779Y-128544880D01*
X149122731Y-128973452D02*
X149027493Y-129021071D01*
X149027493Y-129021071D02*
X148837017Y-129021071D01*
X148837017Y-129021071D02*
X148741779Y-128973452D01*
X148741779Y-128973452D02*
X148694160Y-128878213D01*
X148694160Y-128878213D02*
X148694160Y-128497261D01*
X148694160Y-128497261D02*
X148741779Y-128402023D01*
X148741779Y-128402023D02*
X148837017Y-128354404D01*
X148837017Y-128354404D02*
X149027493Y-128354404D01*
X149027493Y-128354404D02*
X149122731Y-128402023D01*
X149122731Y-128402023D02*
X149170350Y-128497261D01*
X149170350Y-128497261D02*
X149170350Y-128592499D01*
X149170350Y-128592499D02*
X148694160Y-128687737D01*
X149551303Y-128973452D02*
X149646541Y-129021071D01*
X149646541Y-129021071D02*
X149837017Y-129021071D01*
X149837017Y-129021071D02*
X149932255Y-128973452D01*
X149932255Y-128973452D02*
X149979874Y-128878213D01*
X149979874Y-128878213D02*
X149979874Y-128830594D01*
X149979874Y-128830594D02*
X149932255Y-128735356D01*
X149932255Y-128735356D02*
X149837017Y-128687737D01*
X149837017Y-128687737D02*
X149694160Y-128687737D01*
X149694160Y-128687737D02*
X149598922Y-128640118D01*
X149598922Y-128640118D02*
X149551303Y-128544880D01*
X149551303Y-128544880D02*
X149551303Y-128497261D01*
X149551303Y-128497261D02*
X149598922Y-128402023D01*
X149598922Y-128402023D02*
X149694160Y-128354404D01*
X149694160Y-128354404D02*
X149837017Y-128354404D01*
X149837017Y-128354404D02*
X149932255Y-128402023D01*
X150789398Y-128973452D02*
X150694160Y-129021071D01*
X150694160Y-129021071D02*
X150503684Y-129021071D01*
X150503684Y-129021071D02*
X150408446Y-128973452D01*
X150408446Y-128973452D02*
X150360827Y-128878213D01*
X150360827Y-128878213D02*
X150360827Y-128497261D01*
X150360827Y-128497261D02*
X150408446Y-128402023D01*
X150408446Y-128402023D02*
X150503684Y-128354404D01*
X150503684Y-128354404D02*
X150694160Y-128354404D01*
X150694160Y-128354404D02*
X150789398Y-128402023D01*
X150789398Y-128402023D02*
X150837017Y-128497261D01*
X150837017Y-128497261D02*
X150837017Y-128592499D01*
X150837017Y-128592499D02*
X150360827Y-128687737D01*
X151122732Y-128354404D02*
X151503684Y-128354404D01*
X151265589Y-128021071D02*
X151265589Y-128878213D01*
X151265589Y-128878213D02*
X151313208Y-128973452D01*
X151313208Y-128973452D02*
X151408446Y-129021071D01*
X151408446Y-129021071D02*
X151503684Y-129021071D01*
D11*
X112351741Y-97751194D02*
X112304122Y-97722623D01*
X112304122Y-97722623D02*
X112232693Y-97722623D01*
X112232693Y-97722623D02*
X112161265Y-97751194D01*
X112161265Y-97751194D02*
X112113646Y-97808337D01*
X112113646Y-97808337D02*
X112089836Y-97865480D01*
X112089836Y-97865480D02*
X112066027Y-97979766D01*
X112066027Y-97979766D02*
X112066027Y-98065480D01*
X112066027Y-98065480D02*
X112089836Y-98179766D01*
X112089836Y-98179766D02*
X112113646Y-98236909D01*
X112113646Y-98236909D02*
X112161265Y-98294052D01*
X112161265Y-98294052D02*
X112232693Y-98322623D01*
X112232693Y-98322623D02*
X112280312Y-98322623D01*
X112280312Y-98322623D02*
X112351741Y-98294052D01*
X112351741Y-98294052D02*
X112375550Y-98265480D01*
X112375550Y-98265480D02*
X112375550Y-98065480D01*
X112375550Y-98065480D02*
X112280312Y-98065480D01*
X112589836Y-98322623D02*
X112589836Y-97722623D01*
X112589836Y-97722623D02*
X112780312Y-97722623D01*
X112780312Y-97722623D02*
X112827931Y-97751194D01*
X112827931Y-97751194D02*
X112851741Y-97779766D01*
X112851741Y-97779766D02*
X112875550Y-97836909D01*
X112875550Y-97836909D02*
X112875550Y-97922623D01*
X112875550Y-97922623D02*
X112851741Y-97979766D01*
X112851741Y-97979766D02*
X112827931Y-98008337D01*
X112827931Y-98008337D02*
X112780312Y-98036909D01*
X112780312Y-98036909D02*
X112589836Y-98036909D01*
X113089836Y-98322623D02*
X113089836Y-97722623D01*
X113423169Y-97722623D02*
X113518407Y-97722623D01*
X113518407Y-97722623D02*
X113566026Y-97751194D01*
X113566026Y-97751194D02*
X113613645Y-97808337D01*
X113613645Y-97808337D02*
X113637455Y-97922623D01*
X113637455Y-97922623D02*
X113637455Y-98122623D01*
X113637455Y-98122623D02*
X113613645Y-98236909D01*
X113613645Y-98236909D02*
X113566026Y-98294052D01*
X113566026Y-98294052D02*
X113518407Y-98322623D01*
X113518407Y-98322623D02*
X113423169Y-98322623D01*
X113423169Y-98322623D02*
X113375550Y-98294052D01*
X113375550Y-98294052D02*
X113327931Y-98236909D01*
X113327931Y-98236909D02*
X113304122Y-98122623D01*
X113304122Y-98122623D02*
X113304122Y-97922623D01*
X113304122Y-97922623D02*
X113327931Y-97808337D01*
X113327931Y-97808337D02*
X113375550Y-97751194D01*
X113375550Y-97751194D02*
X113423169Y-97722623D01*
X113804122Y-97722623D02*
X114113646Y-97722623D01*
X114113646Y-97722623D02*
X113946979Y-97951194D01*
X113946979Y-97951194D02*
X114018408Y-97951194D01*
X114018408Y-97951194D02*
X114066027Y-97979766D01*
X114066027Y-97979766D02*
X114089836Y-98008337D01*
X114089836Y-98008337D02*
X114113646Y-98065480D01*
X114113646Y-98065480D02*
X114113646Y-98208337D01*
X114113646Y-98208337D02*
X114089836Y-98265480D01*
X114089836Y-98265480D02*
X114066027Y-98294052D01*
X114066027Y-98294052D02*
X114018408Y-98322623D01*
X114018408Y-98322623D02*
X113875551Y-98322623D01*
X113875551Y-98322623D02*
X113827932Y-98294052D01*
X113827932Y-98294052D02*
X113804122Y-98265480D01*
X114399360Y-97979766D02*
X114351741Y-97951194D01*
X114351741Y-97951194D02*
X114327931Y-97922623D01*
X114327931Y-97922623D02*
X114304122Y-97865480D01*
X114304122Y-97865480D02*
X114304122Y-97836909D01*
X114304122Y-97836909D02*
X114327931Y-97779766D01*
X114327931Y-97779766D02*
X114351741Y-97751194D01*
X114351741Y-97751194D02*
X114399360Y-97722623D01*
X114399360Y-97722623D02*
X114494598Y-97722623D01*
X114494598Y-97722623D02*
X114542217Y-97751194D01*
X114542217Y-97751194D02*
X114566026Y-97779766D01*
X114566026Y-97779766D02*
X114589836Y-97836909D01*
X114589836Y-97836909D02*
X114589836Y-97865480D01*
X114589836Y-97865480D02*
X114566026Y-97922623D01*
X114566026Y-97922623D02*
X114542217Y-97951194D01*
X114542217Y-97951194D02*
X114494598Y-97979766D01*
X114494598Y-97979766D02*
X114399360Y-97979766D01*
X114399360Y-97979766D02*
X114351741Y-98008337D01*
X114351741Y-98008337D02*
X114327931Y-98036909D01*
X114327931Y-98036909D02*
X114304122Y-98094052D01*
X114304122Y-98094052D02*
X114304122Y-98208337D01*
X114304122Y-98208337D02*
X114327931Y-98265480D01*
X114327931Y-98265480D02*
X114351741Y-98294052D01*
X114351741Y-98294052D02*
X114399360Y-98322623D01*
X114399360Y-98322623D02*
X114494598Y-98322623D01*
X114494598Y-98322623D02*
X114542217Y-98294052D01*
X114542217Y-98294052D02*
X114566026Y-98265480D01*
X114566026Y-98265480D02*
X114589836Y-98208337D01*
X114589836Y-98208337D02*
X114589836Y-98094052D01*
X114589836Y-98094052D02*
X114566026Y-98036909D01*
X114566026Y-98036909D02*
X114542217Y-98008337D01*
X114542217Y-98008337D02*
X114494598Y-97979766D01*
X113601741Y-115501194D02*
X113554122Y-115472623D01*
X113554122Y-115472623D02*
X113482693Y-115472623D01*
X113482693Y-115472623D02*
X113411265Y-115501194D01*
X113411265Y-115501194D02*
X113363646Y-115558337D01*
X113363646Y-115558337D02*
X113339836Y-115615480D01*
X113339836Y-115615480D02*
X113316027Y-115729766D01*
X113316027Y-115729766D02*
X113316027Y-115815480D01*
X113316027Y-115815480D02*
X113339836Y-115929766D01*
X113339836Y-115929766D02*
X113363646Y-115986909D01*
X113363646Y-115986909D02*
X113411265Y-116044052D01*
X113411265Y-116044052D02*
X113482693Y-116072623D01*
X113482693Y-116072623D02*
X113530312Y-116072623D01*
X113530312Y-116072623D02*
X113601741Y-116044052D01*
X113601741Y-116044052D02*
X113625550Y-116015480D01*
X113625550Y-116015480D02*
X113625550Y-115815480D01*
X113625550Y-115815480D02*
X113530312Y-115815480D01*
X113839836Y-116072623D02*
X113839836Y-115472623D01*
X113839836Y-115472623D02*
X114125550Y-116072623D01*
X114125550Y-116072623D02*
X114125550Y-115472623D01*
X114363646Y-116072623D02*
X114363646Y-115472623D01*
X114363646Y-115472623D02*
X114482694Y-115472623D01*
X114482694Y-115472623D02*
X114554122Y-115501194D01*
X114554122Y-115501194D02*
X114601741Y-115558337D01*
X114601741Y-115558337D02*
X114625551Y-115615480D01*
X114625551Y-115615480D02*
X114649360Y-115729766D01*
X114649360Y-115729766D02*
X114649360Y-115815480D01*
X114649360Y-115815480D02*
X114625551Y-115929766D01*
X114625551Y-115929766D02*
X114601741Y-115986909D01*
X114601741Y-115986909D02*
X114554122Y-116044052D01*
X114554122Y-116044052D02*
X114482694Y-116072623D01*
X114482694Y-116072623D02*
X114363646Y-116072623D01*
X163351741Y-112951194D02*
X163304122Y-112922623D01*
X163304122Y-112922623D02*
X163232693Y-112922623D01*
X163232693Y-112922623D02*
X163161265Y-112951194D01*
X163161265Y-112951194D02*
X163113646Y-113008337D01*
X163113646Y-113008337D02*
X163089836Y-113065480D01*
X163089836Y-113065480D02*
X163066027Y-113179766D01*
X163066027Y-113179766D02*
X163066027Y-113265480D01*
X163066027Y-113265480D02*
X163089836Y-113379766D01*
X163089836Y-113379766D02*
X163113646Y-113436909D01*
X163113646Y-113436909D02*
X163161265Y-113494052D01*
X163161265Y-113494052D02*
X163232693Y-113522623D01*
X163232693Y-113522623D02*
X163280312Y-113522623D01*
X163280312Y-113522623D02*
X163351741Y-113494052D01*
X163351741Y-113494052D02*
X163375550Y-113465480D01*
X163375550Y-113465480D02*
X163375550Y-113265480D01*
X163375550Y-113265480D02*
X163280312Y-113265480D01*
X163589836Y-113522623D02*
X163589836Y-112922623D01*
X163589836Y-112922623D02*
X163780312Y-112922623D01*
X163780312Y-112922623D02*
X163827931Y-112951194D01*
X163827931Y-112951194D02*
X163851741Y-112979766D01*
X163851741Y-112979766D02*
X163875550Y-113036909D01*
X163875550Y-113036909D02*
X163875550Y-113122623D01*
X163875550Y-113122623D02*
X163851741Y-113179766D01*
X163851741Y-113179766D02*
X163827931Y-113208337D01*
X163827931Y-113208337D02*
X163780312Y-113236909D01*
X163780312Y-113236909D02*
X163589836Y-113236909D01*
X164089836Y-113522623D02*
X164089836Y-112922623D01*
X164423169Y-112922623D02*
X164518407Y-112922623D01*
X164518407Y-112922623D02*
X164566026Y-112951194D01*
X164566026Y-112951194D02*
X164613645Y-113008337D01*
X164613645Y-113008337D02*
X164637455Y-113122623D01*
X164637455Y-113122623D02*
X164637455Y-113322623D01*
X164637455Y-113322623D02*
X164613645Y-113436909D01*
X164613645Y-113436909D02*
X164566026Y-113494052D01*
X164566026Y-113494052D02*
X164518407Y-113522623D01*
X164518407Y-113522623D02*
X164423169Y-113522623D01*
X164423169Y-113522623D02*
X164375550Y-113494052D01*
X164375550Y-113494052D02*
X164327931Y-113436909D01*
X164327931Y-113436909D02*
X164304122Y-113322623D01*
X164304122Y-113322623D02*
X164304122Y-113122623D01*
X164304122Y-113122623D02*
X164327931Y-113008337D01*
X164327931Y-113008337D02*
X164375550Y-112951194D01*
X164375550Y-112951194D02*
X164423169Y-112922623D01*
X165066027Y-112922623D02*
X164970789Y-112922623D01*
X164970789Y-112922623D02*
X164923170Y-112951194D01*
X164923170Y-112951194D02*
X164899360Y-112979766D01*
X164899360Y-112979766D02*
X164851741Y-113065480D01*
X164851741Y-113065480D02*
X164827932Y-113179766D01*
X164827932Y-113179766D02*
X164827932Y-113408337D01*
X164827932Y-113408337D02*
X164851741Y-113465480D01*
X164851741Y-113465480D02*
X164875551Y-113494052D01*
X164875551Y-113494052D02*
X164923170Y-113522623D01*
X164923170Y-113522623D02*
X165018408Y-113522623D01*
X165018408Y-113522623D02*
X165066027Y-113494052D01*
X165066027Y-113494052D02*
X165089836Y-113465480D01*
X165089836Y-113465480D02*
X165113646Y-113408337D01*
X165113646Y-113408337D02*
X165113646Y-113265480D01*
X165113646Y-113265480D02*
X165089836Y-113208337D01*
X165089836Y-113208337D02*
X165066027Y-113179766D01*
X165066027Y-113179766D02*
X165018408Y-113151194D01*
X165018408Y-113151194D02*
X164923170Y-113151194D01*
X164923170Y-113151194D02*
X164875551Y-113179766D01*
X164875551Y-113179766D02*
X164851741Y-113208337D01*
X164851741Y-113208337D02*
X164827932Y-113265480D01*
X163351741Y-97751194D02*
X163304122Y-97722623D01*
X163304122Y-97722623D02*
X163232693Y-97722623D01*
X163232693Y-97722623D02*
X163161265Y-97751194D01*
X163161265Y-97751194D02*
X163113646Y-97808337D01*
X163113646Y-97808337D02*
X163089836Y-97865480D01*
X163089836Y-97865480D02*
X163066027Y-97979766D01*
X163066027Y-97979766D02*
X163066027Y-98065480D01*
X163066027Y-98065480D02*
X163089836Y-98179766D01*
X163089836Y-98179766D02*
X163113646Y-98236909D01*
X163113646Y-98236909D02*
X163161265Y-98294052D01*
X163161265Y-98294052D02*
X163232693Y-98322623D01*
X163232693Y-98322623D02*
X163280312Y-98322623D01*
X163280312Y-98322623D02*
X163351741Y-98294052D01*
X163351741Y-98294052D02*
X163375550Y-98265480D01*
X163375550Y-98265480D02*
X163375550Y-98065480D01*
X163375550Y-98065480D02*
X163280312Y-98065480D01*
X163589836Y-98322623D02*
X163589836Y-97722623D01*
X163589836Y-97722623D02*
X163780312Y-97722623D01*
X163780312Y-97722623D02*
X163827931Y-97751194D01*
X163827931Y-97751194D02*
X163851741Y-97779766D01*
X163851741Y-97779766D02*
X163875550Y-97836909D01*
X163875550Y-97836909D02*
X163875550Y-97922623D01*
X163875550Y-97922623D02*
X163851741Y-97979766D01*
X163851741Y-97979766D02*
X163827931Y-98008337D01*
X163827931Y-98008337D02*
X163780312Y-98036909D01*
X163780312Y-98036909D02*
X163589836Y-98036909D01*
X164089836Y-98322623D02*
X164089836Y-97722623D01*
X164423169Y-97722623D02*
X164518407Y-97722623D01*
X164518407Y-97722623D02*
X164566026Y-97751194D01*
X164566026Y-97751194D02*
X164613645Y-97808337D01*
X164613645Y-97808337D02*
X164637455Y-97922623D01*
X164637455Y-97922623D02*
X164637455Y-98122623D01*
X164637455Y-98122623D02*
X164613645Y-98236909D01*
X164613645Y-98236909D02*
X164566026Y-98294052D01*
X164566026Y-98294052D02*
X164518407Y-98322623D01*
X164518407Y-98322623D02*
X164423169Y-98322623D01*
X164423169Y-98322623D02*
X164375550Y-98294052D01*
X164375550Y-98294052D02*
X164327931Y-98236909D01*
X164327931Y-98236909D02*
X164304122Y-98122623D01*
X164304122Y-98122623D02*
X164304122Y-97922623D01*
X164304122Y-97922623D02*
X164327931Y-97808337D01*
X164327931Y-97808337D02*
X164375550Y-97751194D01*
X164375550Y-97751194D02*
X164423169Y-97722623D01*
X164875551Y-98322623D02*
X164970789Y-98322623D01*
X164970789Y-98322623D02*
X165018408Y-98294052D01*
X165018408Y-98294052D02*
X165042217Y-98265480D01*
X165042217Y-98265480D02*
X165089836Y-98179766D01*
X165089836Y-98179766D02*
X165113646Y-98065480D01*
X165113646Y-98065480D02*
X165113646Y-97836909D01*
X165113646Y-97836909D02*
X165089836Y-97779766D01*
X165089836Y-97779766D02*
X165066027Y-97751194D01*
X165066027Y-97751194D02*
X165018408Y-97722623D01*
X165018408Y-97722623D02*
X164923170Y-97722623D01*
X164923170Y-97722623D02*
X164875551Y-97751194D01*
X164875551Y-97751194D02*
X164851741Y-97779766D01*
X164851741Y-97779766D02*
X164827932Y-97836909D01*
X164827932Y-97836909D02*
X164827932Y-97979766D01*
X164827932Y-97979766D02*
X164851741Y-98036909D01*
X164851741Y-98036909D02*
X164875551Y-98065480D01*
X164875551Y-98065480D02*
X164923170Y-98094052D01*
X164923170Y-98094052D02*
X165018408Y-98094052D01*
X165018408Y-98094052D02*
X165066027Y-98065480D01*
X165066027Y-98065480D02*
X165089836Y-98036909D01*
X165089836Y-98036909D02*
X165113646Y-97979766D01*
X112351741Y-103001194D02*
X112304122Y-102972623D01*
X112304122Y-102972623D02*
X112232693Y-102972623D01*
X112232693Y-102972623D02*
X112161265Y-103001194D01*
X112161265Y-103001194D02*
X112113646Y-103058337D01*
X112113646Y-103058337D02*
X112089836Y-103115480D01*
X112089836Y-103115480D02*
X112066027Y-103229766D01*
X112066027Y-103229766D02*
X112066027Y-103315480D01*
X112066027Y-103315480D02*
X112089836Y-103429766D01*
X112089836Y-103429766D02*
X112113646Y-103486909D01*
X112113646Y-103486909D02*
X112161265Y-103544052D01*
X112161265Y-103544052D02*
X112232693Y-103572623D01*
X112232693Y-103572623D02*
X112280312Y-103572623D01*
X112280312Y-103572623D02*
X112351741Y-103544052D01*
X112351741Y-103544052D02*
X112375550Y-103515480D01*
X112375550Y-103515480D02*
X112375550Y-103315480D01*
X112375550Y-103315480D02*
X112280312Y-103315480D01*
X112589836Y-103572623D02*
X112589836Y-102972623D01*
X112589836Y-102972623D02*
X112780312Y-102972623D01*
X112780312Y-102972623D02*
X112827931Y-103001194D01*
X112827931Y-103001194D02*
X112851741Y-103029766D01*
X112851741Y-103029766D02*
X112875550Y-103086909D01*
X112875550Y-103086909D02*
X112875550Y-103172623D01*
X112875550Y-103172623D02*
X112851741Y-103229766D01*
X112851741Y-103229766D02*
X112827931Y-103258337D01*
X112827931Y-103258337D02*
X112780312Y-103286909D01*
X112780312Y-103286909D02*
X112589836Y-103286909D01*
X113089836Y-103572623D02*
X113089836Y-102972623D01*
X113423169Y-102972623D02*
X113518407Y-102972623D01*
X113518407Y-102972623D02*
X113566026Y-103001194D01*
X113566026Y-103001194D02*
X113613645Y-103058337D01*
X113613645Y-103058337D02*
X113637455Y-103172623D01*
X113637455Y-103172623D02*
X113637455Y-103372623D01*
X113637455Y-103372623D02*
X113613645Y-103486909D01*
X113613645Y-103486909D02*
X113566026Y-103544052D01*
X113566026Y-103544052D02*
X113518407Y-103572623D01*
X113518407Y-103572623D02*
X113423169Y-103572623D01*
X113423169Y-103572623D02*
X113375550Y-103544052D01*
X113375550Y-103544052D02*
X113327931Y-103486909D01*
X113327931Y-103486909D02*
X113304122Y-103372623D01*
X113304122Y-103372623D02*
X113304122Y-103172623D01*
X113304122Y-103172623D02*
X113327931Y-103058337D01*
X113327931Y-103058337D02*
X113375550Y-103001194D01*
X113375550Y-103001194D02*
X113423169Y-102972623D01*
X114066027Y-103172623D02*
X114066027Y-103572623D01*
X113946979Y-102944052D02*
X113827932Y-103372623D01*
X113827932Y-103372623D02*
X114137455Y-103372623D01*
X114423169Y-102972623D02*
X114470788Y-102972623D01*
X114470788Y-102972623D02*
X114518407Y-103001194D01*
X114518407Y-103001194D02*
X114542217Y-103029766D01*
X114542217Y-103029766D02*
X114566026Y-103086909D01*
X114566026Y-103086909D02*
X114589836Y-103201194D01*
X114589836Y-103201194D02*
X114589836Y-103344052D01*
X114589836Y-103344052D02*
X114566026Y-103458337D01*
X114566026Y-103458337D02*
X114542217Y-103515480D01*
X114542217Y-103515480D02*
X114518407Y-103544052D01*
X114518407Y-103544052D02*
X114470788Y-103572623D01*
X114470788Y-103572623D02*
X114423169Y-103572623D01*
X114423169Y-103572623D02*
X114375550Y-103544052D01*
X114375550Y-103544052D02*
X114351741Y-103515480D01*
X114351741Y-103515480D02*
X114327931Y-103458337D01*
X114327931Y-103458337D02*
X114304122Y-103344052D01*
X114304122Y-103344052D02*
X114304122Y-103201194D01*
X114304122Y-103201194D02*
X114327931Y-103086909D01*
X114327931Y-103086909D02*
X114351741Y-103029766D01*
X114351741Y-103029766D02*
X114375550Y-103001194D01*
X114375550Y-103001194D02*
X114423169Y-102972623D01*
X112351741Y-112951194D02*
X112304122Y-112922623D01*
X112304122Y-112922623D02*
X112232693Y-112922623D01*
X112232693Y-112922623D02*
X112161265Y-112951194D01*
X112161265Y-112951194D02*
X112113646Y-113008337D01*
X112113646Y-113008337D02*
X112089836Y-113065480D01*
X112089836Y-113065480D02*
X112066027Y-113179766D01*
X112066027Y-113179766D02*
X112066027Y-113265480D01*
X112066027Y-113265480D02*
X112089836Y-113379766D01*
X112089836Y-113379766D02*
X112113646Y-113436909D01*
X112113646Y-113436909D02*
X112161265Y-113494052D01*
X112161265Y-113494052D02*
X112232693Y-113522623D01*
X112232693Y-113522623D02*
X112280312Y-113522623D01*
X112280312Y-113522623D02*
X112351741Y-113494052D01*
X112351741Y-113494052D02*
X112375550Y-113465480D01*
X112375550Y-113465480D02*
X112375550Y-113265480D01*
X112375550Y-113265480D02*
X112280312Y-113265480D01*
X112589836Y-113522623D02*
X112589836Y-112922623D01*
X112589836Y-112922623D02*
X112780312Y-112922623D01*
X112780312Y-112922623D02*
X112827931Y-112951194D01*
X112827931Y-112951194D02*
X112851741Y-112979766D01*
X112851741Y-112979766D02*
X112875550Y-113036909D01*
X112875550Y-113036909D02*
X112875550Y-113122623D01*
X112875550Y-113122623D02*
X112851741Y-113179766D01*
X112851741Y-113179766D02*
X112827931Y-113208337D01*
X112827931Y-113208337D02*
X112780312Y-113236909D01*
X112780312Y-113236909D02*
X112589836Y-113236909D01*
X113089836Y-113522623D02*
X113089836Y-112922623D01*
X113423169Y-112922623D02*
X113518407Y-112922623D01*
X113518407Y-112922623D02*
X113566026Y-112951194D01*
X113566026Y-112951194D02*
X113613645Y-113008337D01*
X113613645Y-113008337D02*
X113637455Y-113122623D01*
X113637455Y-113122623D02*
X113637455Y-113322623D01*
X113637455Y-113322623D02*
X113613645Y-113436909D01*
X113613645Y-113436909D02*
X113566026Y-113494052D01*
X113566026Y-113494052D02*
X113518407Y-113522623D01*
X113518407Y-113522623D02*
X113423169Y-113522623D01*
X113423169Y-113522623D02*
X113375550Y-113494052D01*
X113375550Y-113494052D02*
X113327931Y-113436909D01*
X113327931Y-113436909D02*
X113304122Y-113322623D01*
X113304122Y-113322623D02*
X113304122Y-113122623D01*
X113304122Y-113122623D02*
X113327931Y-113008337D01*
X113327931Y-113008337D02*
X113375550Y-112951194D01*
X113375550Y-112951194D02*
X113423169Y-112922623D01*
X114066027Y-113122623D02*
X114066027Y-113522623D01*
X113946979Y-112894052D02*
X113827932Y-113322623D01*
X113827932Y-113322623D02*
X114137455Y-113322623D01*
X114280312Y-112922623D02*
X114589836Y-112922623D01*
X114589836Y-112922623D02*
X114423169Y-113151194D01*
X114423169Y-113151194D02*
X114494598Y-113151194D01*
X114494598Y-113151194D02*
X114542217Y-113179766D01*
X114542217Y-113179766D02*
X114566026Y-113208337D01*
X114566026Y-113208337D02*
X114589836Y-113265480D01*
X114589836Y-113265480D02*
X114589836Y-113408337D01*
X114589836Y-113408337D02*
X114566026Y-113465480D01*
X114566026Y-113465480D02*
X114542217Y-113494052D01*
X114542217Y-113494052D02*
X114494598Y-113522623D01*
X114494598Y-113522623D02*
X114351741Y-113522623D01*
X114351741Y-113522623D02*
X114304122Y-113494052D01*
X114304122Y-113494052D02*
X114280312Y-113465480D01*
X163401741Y-110401194D02*
X163354122Y-110372623D01*
X163354122Y-110372623D02*
X163282693Y-110372623D01*
X163282693Y-110372623D02*
X163211265Y-110401194D01*
X163211265Y-110401194D02*
X163163646Y-110458337D01*
X163163646Y-110458337D02*
X163139836Y-110515480D01*
X163139836Y-110515480D02*
X163116027Y-110629766D01*
X163116027Y-110629766D02*
X163116027Y-110715480D01*
X163116027Y-110715480D02*
X163139836Y-110829766D01*
X163139836Y-110829766D02*
X163163646Y-110886909D01*
X163163646Y-110886909D02*
X163211265Y-110944052D01*
X163211265Y-110944052D02*
X163282693Y-110972623D01*
X163282693Y-110972623D02*
X163330312Y-110972623D01*
X163330312Y-110972623D02*
X163401741Y-110944052D01*
X163401741Y-110944052D02*
X163425550Y-110915480D01*
X163425550Y-110915480D02*
X163425550Y-110715480D01*
X163425550Y-110715480D02*
X163330312Y-110715480D01*
X163639836Y-110972623D02*
X163639836Y-110372623D01*
X163639836Y-110372623D02*
X163830312Y-110372623D01*
X163830312Y-110372623D02*
X163877931Y-110401194D01*
X163877931Y-110401194D02*
X163901741Y-110429766D01*
X163901741Y-110429766D02*
X163925550Y-110486909D01*
X163925550Y-110486909D02*
X163925550Y-110572623D01*
X163925550Y-110572623D02*
X163901741Y-110629766D01*
X163901741Y-110629766D02*
X163877931Y-110658337D01*
X163877931Y-110658337D02*
X163830312Y-110686909D01*
X163830312Y-110686909D02*
X163639836Y-110686909D01*
X164139836Y-110972623D02*
X164139836Y-110372623D01*
X164473169Y-110372623D02*
X164568407Y-110372623D01*
X164568407Y-110372623D02*
X164616026Y-110401194D01*
X164616026Y-110401194D02*
X164663645Y-110458337D01*
X164663645Y-110458337D02*
X164687455Y-110572623D01*
X164687455Y-110572623D02*
X164687455Y-110772623D01*
X164687455Y-110772623D02*
X164663645Y-110886909D01*
X164663645Y-110886909D02*
X164616026Y-110944052D01*
X164616026Y-110944052D02*
X164568407Y-110972623D01*
X164568407Y-110972623D02*
X164473169Y-110972623D01*
X164473169Y-110972623D02*
X164425550Y-110944052D01*
X164425550Y-110944052D02*
X164377931Y-110886909D01*
X164377931Y-110886909D02*
X164354122Y-110772623D01*
X164354122Y-110772623D02*
X164354122Y-110572623D01*
X164354122Y-110572623D02*
X164377931Y-110458337D01*
X164377931Y-110458337D02*
X164425550Y-110401194D01*
X164425550Y-110401194D02*
X164473169Y-110372623D01*
X164854122Y-110372623D02*
X165187455Y-110372623D01*
X165187455Y-110372623D02*
X164973170Y-110972623D01*
X112351741Y-110251194D02*
X112304122Y-110222623D01*
X112304122Y-110222623D02*
X112232693Y-110222623D01*
X112232693Y-110222623D02*
X112161265Y-110251194D01*
X112161265Y-110251194D02*
X112113646Y-110308337D01*
X112113646Y-110308337D02*
X112089836Y-110365480D01*
X112089836Y-110365480D02*
X112066027Y-110479766D01*
X112066027Y-110479766D02*
X112066027Y-110565480D01*
X112066027Y-110565480D02*
X112089836Y-110679766D01*
X112089836Y-110679766D02*
X112113646Y-110736909D01*
X112113646Y-110736909D02*
X112161265Y-110794052D01*
X112161265Y-110794052D02*
X112232693Y-110822623D01*
X112232693Y-110822623D02*
X112280312Y-110822623D01*
X112280312Y-110822623D02*
X112351741Y-110794052D01*
X112351741Y-110794052D02*
X112375550Y-110765480D01*
X112375550Y-110765480D02*
X112375550Y-110565480D01*
X112375550Y-110565480D02*
X112280312Y-110565480D01*
X112589836Y-110822623D02*
X112589836Y-110222623D01*
X112589836Y-110222623D02*
X112780312Y-110222623D01*
X112780312Y-110222623D02*
X112827931Y-110251194D01*
X112827931Y-110251194D02*
X112851741Y-110279766D01*
X112851741Y-110279766D02*
X112875550Y-110336909D01*
X112875550Y-110336909D02*
X112875550Y-110422623D01*
X112875550Y-110422623D02*
X112851741Y-110479766D01*
X112851741Y-110479766D02*
X112827931Y-110508337D01*
X112827931Y-110508337D02*
X112780312Y-110536909D01*
X112780312Y-110536909D02*
X112589836Y-110536909D01*
X113089836Y-110822623D02*
X113089836Y-110222623D01*
X113423169Y-110222623D02*
X113518407Y-110222623D01*
X113518407Y-110222623D02*
X113566026Y-110251194D01*
X113566026Y-110251194D02*
X113613645Y-110308337D01*
X113613645Y-110308337D02*
X113637455Y-110422623D01*
X113637455Y-110422623D02*
X113637455Y-110622623D01*
X113637455Y-110622623D02*
X113613645Y-110736909D01*
X113613645Y-110736909D02*
X113566026Y-110794052D01*
X113566026Y-110794052D02*
X113518407Y-110822623D01*
X113518407Y-110822623D02*
X113423169Y-110822623D01*
X113423169Y-110822623D02*
X113375550Y-110794052D01*
X113375550Y-110794052D02*
X113327931Y-110736909D01*
X113327931Y-110736909D02*
X113304122Y-110622623D01*
X113304122Y-110622623D02*
X113304122Y-110422623D01*
X113304122Y-110422623D02*
X113327931Y-110308337D01*
X113327931Y-110308337D02*
X113375550Y-110251194D01*
X113375550Y-110251194D02*
X113423169Y-110222623D01*
X114066027Y-110422623D02*
X114066027Y-110822623D01*
X113946979Y-110194052D02*
X113827932Y-110622623D01*
X113827932Y-110622623D02*
X114137455Y-110622623D01*
X114542217Y-110422623D02*
X114542217Y-110822623D01*
X114423169Y-110194052D02*
X114304122Y-110622623D01*
X114304122Y-110622623D02*
X114613645Y-110622623D01*
D12*
X135694160Y-128735356D02*
X136170350Y-128735356D01*
X135598922Y-129021071D02*
X135932255Y-128021071D01*
X135932255Y-128021071D02*
X136265588Y-129021071D01*
X137027493Y-128973452D02*
X136932255Y-129021071D01*
X136932255Y-129021071D02*
X136741779Y-129021071D01*
X136741779Y-129021071D02*
X136646541Y-128973452D01*
X136646541Y-128973452D02*
X136598922Y-128925832D01*
X136598922Y-128925832D02*
X136551303Y-128830594D01*
X136551303Y-128830594D02*
X136551303Y-128544880D01*
X136551303Y-128544880D02*
X136598922Y-128449642D01*
X136598922Y-128449642D02*
X136646541Y-128402023D01*
X136646541Y-128402023D02*
X136741779Y-128354404D01*
X136741779Y-128354404D02*
X136932255Y-128354404D01*
X136932255Y-128354404D02*
X137027493Y-128402023D01*
X137313208Y-128354404D02*
X137694160Y-128354404D01*
X137456065Y-128021071D02*
X137456065Y-128878213D01*
X137456065Y-128878213D02*
X137503684Y-128973452D01*
X137503684Y-128973452D02*
X137598922Y-129021071D01*
X137598922Y-129021071D02*
X137694160Y-129021071D01*
X138027494Y-129021071D02*
X138027494Y-128354404D01*
X138027494Y-128021071D02*
X137979875Y-128068690D01*
X137979875Y-128068690D02*
X138027494Y-128116309D01*
X138027494Y-128116309D02*
X138075113Y-128068690D01*
X138075113Y-128068690D02*
X138027494Y-128021071D01*
X138027494Y-128021071D02*
X138027494Y-128116309D01*
X138646541Y-129021071D02*
X138551303Y-128973452D01*
X138551303Y-128973452D02*
X138503684Y-128925832D01*
X138503684Y-128925832D02*
X138456065Y-128830594D01*
X138456065Y-128830594D02*
X138456065Y-128544880D01*
X138456065Y-128544880D02*
X138503684Y-128449642D01*
X138503684Y-128449642D02*
X138551303Y-128402023D01*
X138551303Y-128402023D02*
X138646541Y-128354404D01*
X138646541Y-128354404D02*
X138789398Y-128354404D01*
X138789398Y-128354404D02*
X138884636Y-128402023D01*
X138884636Y-128402023D02*
X138932255Y-128449642D01*
X138932255Y-128449642D02*
X138979874Y-128544880D01*
X138979874Y-128544880D02*
X138979874Y-128830594D01*
X138979874Y-128830594D02*
X138932255Y-128925832D01*
X138932255Y-128925832D02*
X138884636Y-128973452D01*
X138884636Y-128973452D02*
X138789398Y-129021071D01*
X138789398Y-129021071D02*
X138646541Y-129021071D01*
X139408446Y-128354404D02*
X139408446Y-129021071D01*
X139408446Y-128449642D02*
X139456065Y-128402023D01*
X139456065Y-128402023D02*
X139551303Y-128354404D01*
X139551303Y-128354404D02*
X139694160Y-128354404D01*
X139694160Y-128354404D02*
X139789398Y-128402023D01*
X139789398Y-128402023D02*
X139837017Y-128497261D01*
X139837017Y-128497261D02*
X139837017Y-129021071D01*
D11*
X113601741Y-87501194D02*
X113554122Y-87472623D01*
X113554122Y-87472623D02*
X113482693Y-87472623D01*
X113482693Y-87472623D02*
X113411265Y-87501194D01*
X113411265Y-87501194D02*
X113363646Y-87558337D01*
X113363646Y-87558337D02*
X113339836Y-87615480D01*
X113339836Y-87615480D02*
X113316027Y-87729766D01*
X113316027Y-87729766D02*
X113316027Y-87815480D01*
X113316027Y-87815480D02*
X113339836Y-87929766D01*
X113339836Y-87929766D02*
X113363646Y-87986909D01*
X113363646Y-87986909D02*
X113411265Y-88044052D01*
X113411265Y-88044052D02*
X113482693Y-88072623D01*
X113482693Y-88072623D02*
X113530312Y-88072623D01*
X113530312Y-88072623D02*
X113601741Y-88044052D01*
X113601741Y-88044052D02*
X113625550Y-88015480D01*
X113625550Y-88015480D02*
X113625550Y-87815480D01*
X113625550Y-87815480D02*
X113530312Y-87815480D01*
X113839836Y-88072623D02*
X113839836Y-87472623D01*
X113839836Y-87472623D02*
X114125550Y-88072623D01*
X114125550Y-88072623D02*
X114125550Y-87472623D01*
X114363646Y-88072623D02*
X114363646Y-87472623D01*
X114363646Y-87472623D02*
X114482694Y-87472623D01*
X114482694Y-87472623D02*
X114554122Y-87501194D01*
X114554122Y-87501194D02*
X114601741Y-87558337D01*
X114601741Y-87558337D02*
X114625551Y-87615480D01*
X114625551Y-87615480D02*
X114649360Y-87729766D01*
X114649360Y-87729766D02*
X114649360Y-87815480D01*
X114649360Y-87815480D02*
X114625551Y-87929766D01*
X114625551Y-87929766D02*
X114601741Y-87986909D01*
X114601741Y-87986909D02*
X114554122Y-88044052D01*
X114554122Y-88044052D02*
X114482694Y-88072623D01*
X114482694Y-88072623D02*
X114363646Y-88072623D01*
X163351741Y-115501194D02*
X163304122Y-115472623D01*
X163304122Y-115472623D02*
X163232693Y-115472623D01*
X163232693Y-115472623D02*
X163161265Y-115501194D01*
X163161265Y-115501194D02*
X163113646Y-115558337D01*
X163113646Y-115558337D02*
X163089836Y-115615480D01*
X163089836Y-115615480D02*
X163066027Y-115729766D01*
X163066027Y-115729766D02*
X163066027Y-115815480D01*
X163066027Y-115815480D02*
X163089836Y-115929766D01*
X163089836Y-115929766D02*
X163113646Y-115986909D01*
X163113646Y-115986909D02*
X163161265Y-116044052D01*
X163161265Y-116044052D02*
X163232693Y-116072623D01*
X163232693Y-116072623D02*
X163280312Y-116072623D01*
X163280312Y-116072623D02*
X163351741Y-116044052D01*
X163351741Y-116044052D02*
X163375550Y-116015480D01*
X163375550Y-116015480D02*
X163375550Y-115815480D01*
X163375550Y-115815480D02*
X163280312Y-115815480D01*
X163589836Y-116072623D02*
X163589836Y-115472623D01*
X163589836Y-115472623D02*
X163875550Y-116072623D01*
X163875550Y-116072623D02*
X163875550Y-115472623D01*
X164113646Y-116072623D02*
X164113646Y-115472623D01*
X164113646Y-115472623D02*
X164232694Y-115472623D01*
X164232694Y-115472623D02*
X164304122Y-115501194D01*
X164304122Y-115501194D02*
X164351741Y-115558337D01*
X164351741Y-115558337D02*
X164375551Y-115615480D01*
X164375551Y-115615480D02*
X164399360Y-115729766D01*
X164399360Y-115729766D02*
X164399360Y-115815480D01*
X164399360Y-115815480D02*
X164375551Y-115929766D01*
X164375551Y-115929766D02*
X164351741Y-115986909D01*
X164351741Y-115986909D02*
X164304122Y-116044052D01*
X164304122Y-116044052D02*
X164232694Y-116072623D01*
X164232694Y-116072623D02*
X164113646Y-116072623D01*
X163351741Y-105501194D02*
X163304122Y-105472623D01*
X163304122Y-105472623D02*
X163232693Y-105472623D01*
X163232693Y-105472623D02*
X163161265Y-105501194D01*
X163161265Y-105501194D02*
X163113646Y-105558337D01*
X163113646Y-105558337D02*
X163089836Y-105615480D01*
X163089836Y-105615480D02*
X163066027Y-105729766D01*
X163066027Y-105729766D02*
X163066027Y-105815480D01*
X163066027Y-105815480D02*
X163089836Y-105929766D01*
X163089836Y-105929766D02*
X163113646Y-105986909D01*
X163113646Y-105986909D02*
X163161265Y-106044052D01*
X163161265Y-106044052D02*
X163232693Y-106072623D01*
X163232693Y-106072623D02*
X163280312Y-106072623D01*
X163280312Y-106072623D02*
X163351741Y-106044052D01*
X163351741Y-106044052D02*
X163375550Y-106015480D01*
X163375550Y-106015480D02*
X163375550Y-105815480D01*
X163375550Y-105815480D02*
X163280312Y-105815480D01*
X163589836Y-106072623D02*
X163589836Y-105472623D01*
X163589836Y-105472623D02*
X163780312Y-105472623D01*
X163780312Y-105472623D02*
X163827931Y-105501194D01*
X163827931Y-105501194D02*
X163851741Y-105529766D01*
X163851741Y-105529766D02*
X163875550Y-105586909D01*
X163875550Y-105586909D02*
X163875550Y-105672623D01*
X163875550Y-105672623D02*
X163851741Y-105729766D01*
X163851741Y-105729766D02*
X163827931Y-105758337D01*
X163827931Y-105758337D02*
X163780312Y-105786909D01*
X163780312Y-105786909D02*
X163589836Y-105786909D01*
X164089836Y-106072623D02*
X164089836Y-105472623D01*
X164423169Y-105472623D02*
X164518407Y-105472623D01*
X164518407Y-105472623D02*
X164566026Y-105501194D01*
X164566026Y-105501194D02*
X164613645Y-105558337D01*
X164613645Y-105558337D02*
X164637455Y-105672623D01*
X164637455Y-105672623D02*
X164637455Y-105872623D01*
X164637455Y-105872623D02*
X164613645Y-105986909D01*
X164613645Y-105986909D02*
X164566026Y-106044052D01*
X164566026Y-106044052D02*
X164518407Y-106072623D01*
X164518407Y-106072623D02*
X164423169Y-106072623D01*
X164423169Y-106072623D02*
X164375550Y-106044052D01*
X164375550Y-106044052D02*
X164327931Y-105986909D01*
X164327931Y-105986909D02*
X164304122Y-105872623D01*
X164304122Y-105872623D02*
X164304122Y-105672623D01*
X164304122Y-105672623D02*
X164327931Y-105558337D01*
X164327931Y-105558337D02*
X164375550Y-105501194D01*
X164375550Y-105501194D02*
X164423169Y-105472623D01*
X165113646Y-106072623D02*
X164827932Y-106072623D01*
X164970789Y-106072623D02*
X164970789Y-105472623D01*
X164970789Y-105472623D02*
X164923170Y-105558337D01*
X164923170Y-105558337D02*
X164875551Y-105615480D01*
X164875551Y-105615480D02*
X164827932Y-105644052D01*
X165542217Y-105472623D02*
X165446979Y-105472623D01*
X165446979Y-105472623D02*
X165399360Y-105501194D01*
X165399360Y-105501194D02*
X165375550Y-105529766D01*
X165375550Y-105529766D02*
X165327931Y-105615480D01*
X165327931Y-105615480D02*
X165304122Y-105729766D01*
X165304122Y-105729766D02*
X165304122Y-105958337D01*
X165304122Y-105958337D02*
X165327931Y-106015480D01*
X165327931Y-106015480D02*
X165351741Y-106044052D01*
X165351741Y-106044052D02*
X165399360Y-106072623D01*
X165399360Y-106072623D02*
X165494598Y-106072623D01*
X165494598Y-106072623D02*
X165542217Y-106044052D01*
X165542217Y-106044052D02*
X165566026Y-106015480D01*
X165566026Y-106015480D02*
X165589836Y-105958337D01*
X165589836Y-105958337D02*
X165589836Y-105815480D01*
X165589836Y-105815480D02*
X165566026Y-105758337D01*
X165566026Y-105758337D02*
X165542217Y-105729766D01*
X165542217Y-105729766D02*
X165494598Y-105701194D01*
X165494598Y-105701194D02*
X165399360Y-105701194D01*
X165399360Y-105701194D02*
X165351741Y-105729766D01*
X165351741Y-105729766D02*
X165327931Y-105758337D01*
X165327931Y-105758337D02*
X165304122Y-105815480D01*
X113042217Y-117722623D02*
X113351741Y-117722623D01*
X113351741Y-117722623D02*
X113185074Y-117951194D01*
X113185074Y-117951194D02*
X113256503Y-117951194D01*
X113256503Y-117951194D02*
X113304122Y-117979766D01*
X113304122Y-117979766D02*
X113327931Y-118008337D01*
X113327931Y-118008337D02*
X113351741Y-118065480D01*
X113351741Y-118065480D02*
X113351741Y-118208337D01*
X113351741Y-118208337D02*
X113327931Y-118265480D01*
X113327931Y-118265480D02*
X113304122Y-118294052D01*
X113304122Y-118294052D02*
X113256503Y-118322623D01*
X113256503Y-118322623D02*
X113113646Y-118322623D01*
X113113646Y-118322623D02*
X113066027Y-118294052D01*
X113066027Y-118294052D02*
X113042217Y-118265480D01*
X113566026Y-118265480D02*
X113589836Y-118294052D01*
X113589836Y-118294052D02*
X113566026Y-118322623D01*
X113566026Y-118322623D02*
X113542217Y-118294052D01*
X113542217Y-118294052D02*
X113566026Y-118265480D01*
X113566026Y-118265480D02*
X113566026Y-118322623D01*
X113756502Y-117722623D02*
X114066026Y-117722623D01*
X114066026Y-117722623D02*
X113899359Y-117951194D01*
X113899359Y-117951194D02*
X113970788Y-117951194D01*
X113970788Y-117951194D02*
X114018407Y-117979766D01*
X114018407Y-117979766D02*
X114042216Y-118008337D01*
X114042216Y-118008337D02*
X114066026Y-118065480D01*
X114066026Y-118065480D02*
X114066026Y-118208337D01*
X114066026Y-118208337D02*
X114042216Y-118265480D01*
X114042216Y-118265480D02*
X114018407Y-118294052D01*
X114018407Y-118294052D02*
X113970788Y-118322623D01*
X113970788Y-118322623D02*
X113827931Y-118322623D01*
X113827931Y-118322623D02*
X113780312Y-118294052D01*
X113780312Y-118294052D02*
X113756502Y-118265480D01*
X114208883Y-117722623D02*
X114375549Y-118322623D01*
X114375549Y-118322623D02*
X114542216Y-117722623D01*
X112351741Y-100251194D02*
X112304122Y-100222623D01*
X112304122Y-100222623D02*
X112232693Y-100222623D01*
X112232693Y-100222623D02*
X112161265Y-100251194D01*
X112161265Y-100251194D02*
X112113646Y-100308337D01*
X112113646Y-100308337D02*
X112089836Y-100365480D01*
X112089836Y-100365480D02*
X112066027Y-100479766D01*
X112066027Y-100479766D02*
X112066027Y-100565480D01*
X112066027Y-100565480D02*
X112089836Y-100679766D01*
X112089836Y-100679766D02*
X112113646Y-100736909D01*
X112113646Y-100736909D02*
X112161265Y-100794052D01*
X112161265Y-100794052D02*
X112232693Y-100822623D01*
X112232693Y-100822623D02*
X112280312Y-100822623D01*
X112280312Y-100822623D02*
X112351741Y-100794052D01*
X112351741Y-100794052D02*
X112375550Y-100765480D01*
X112375550Y-100765480D02*
X112375550Y-100565480D01*
X112375550Y-100565480D02*
X112280312Y-100565480D01*
X112589836Y-100822623D02*
X112589836Y-100222623D01*
X112589836Y-100222623D02*
X112780312Y-100222623D01*
X112780312Y-100222623D02*
X112827931Y-100251194D01*
X112827931Y-100251194D02*
X112851741Y-100279766D01*
X112851741Y-100279766D02*
X112875550Y-100336909D01*
X112875550Y-100336909D02*
X112875550Y-100422623D01*
X112875550Y-100422623D02*
X112851741Y-100479766D01*
X112851741Y-100479766D02*
X112827931Y-100508337D01*
X112827931Y-100508337D02*
X112780312Y-100536909D01*
X112780312Y-100536909D02*
X112589836Y-100536909D01*
X113089836Y-100822623D02*
X113089836Y-100222623D01*
X113423169Y-100222623D02*
X113518407Y-100222623D01*
X113518407Y-100222623D02*
X113566026Y-100251194D01*
X113566026Y-100251194D02*
X113613645Y-100308337D01*
X113613645Y-100308337D02*
X113637455Y-100422623D01*
X113637455Y-100422623D02*
X113637455Y-100622623D01*
X113637455Y-100622623D02*
X113613645Y-100736909D01*
X113613645Y-100736909D02*
X113566026Y-100794052D01*
X113566026Y-100794052D02*
X113518407Y-100822623D01*
X113518407Y-100822623D02*
X113423169Y-100822623D01*
X113423169Y-100822623D02*
X113375550Y-100794052D01*
X113375550Y-100794052D02*
X113327931Y-100736909D01*
X113327931Y-100736909D02*
X113304122Y-100622623D01*
X113304122Y-100622623D02*
X113304122Y-100422623D01*
X113304122Y-100422623D02*
X113327931Y-100308337D01*
X113327931Y-100308337D02*
X113375550Y-100251194D01*
X113375550Y-100251194D02*
X113423169Y-100222623D01*
X113804122Y-100222623D02*
X114113646Y-100222623D01*
X114113646Y-100222623D02*
X113946979Y-100451194D01*
X113946979Y-100451194D02*
X114018408Y-100451194D01*
X114018408Y-100451194D02*
X114066027Y-100479766D01*
X114066027Y-100479766D02*
X114089836Y-100508337D01*
X114089836Y-100508337D02*
X114113646Y-100565480D01*
X114113646Y-100565480D02*
X114113646Y-100708337D01*
X114113646Y-100708337D02*
X114089836Y-100765480D01*
X114089836Y-100765480D02*
X114066027Y-100794052D01*
X114066027Y-100794052D02*
X114018408Y-100822623D01*
X114018408Y-100822623D02*
X113875551Y-100822623D01*
X113875551Y-100822623D02*
X113827932Y-100794052D01*
X113827932Y-100794052D02*
X113804122Y-100765480D01*
X114351741Y-100822623D02*
X114446979Y-100822623D01*
X114446979Y-100822623D02*
X114494598Y-100794052D01*
X114494598Y-100794052D02*
X114518407Y-100765480D01*
X114518407Y-100765480D02*
X114566026Y-100679766D01*
X114566026Y-100679766D02*
X114589836Y-100565480D01*
X114589836Y-100565480D02*
X114589836Y-100336909D01*
X114589836Y-100336909D02*
X114566026Y-100279766D01*
X114566026Y-100279766D02*
X114542217Y-100251194D01*
X114542217Y-100251194D02*
X114494598Y-100222623D01*
X114494598Y-100222623D02*
X114399360Y-100222623D01*
X114399360Y-100222623D02*
X114351741Y-100251194D01*
X114351741Y-100251194D02*
X114327931Y-100279766D01*
X114327931Y-100279766D02*
X114304122Y-100336909D01*
X114304122Y-100336909D02*
X114304122Y-100479766D01*
X114304122Y-100479766D02*
X114327931Y-100536909D01*
X114327931Y-100536909D02*
X114351741Y-100565480D01*
X114351741Y-100565480D02*
X114399360Y-100594052D01*
X114399360Y-100594052D02*
X114494598Y-100594052D01*
X114494598Y-100594052D02*
X114542217Y-100565480D01*
X114542217Y-100565480D02*
X114566026Y-100536909D01*
X114566026Y-100536909D02*
X114589836Y-100479766D01*
D12*
X122184095Y-98586569D02*
X122184095Y-99396092D01*
X122184095Y-99396092D02*
X122231714Y-99491330D01*
X122231714Y-99491330D02*
X122279333Y-99538950D01*
X122279333Y-99538950D02*
X122374571Y-99586569D01*
X122374571Y-99586569D02*
X122565047Y-99586569D01*
X122565047Y-99586569D02*
X122660285Y-99538950D01*
X122660285Y-99538950D02*
X122707904Y-99491330D01*
X122707904Y-99491330D02*
X122755523Y-99396092D01*
X122755523Y-99396092D02*
X122755523Y-98586569D01*
X123755523Y-99586569D02*
X123184095Y-99586569D01*
X123469809Y-99586569D02*
X123469809Y-98586569D01*
X123469809Y-98586569D02*
X123374571Y-98729426D01*
X123374571Y-98729426D02*
X123279333Y-98824664D01*
X123279333Y-98824664D02*
X123184095Y-98872283D01*
X145816601Y-105637821D02*
X145816601Y-105875916D01*
X145578506Y-105780678D02*
X145816601Y-105875916D01*
X145816601Y-105875916D02*
X146054696Y-105780678D01*
X145673744Y-106066392D02*
X145816601Y-105875916D01*
X145816601Y-105875916D02*
X145959458Y-106066392D01*
D13*
%TO.C,C3*%
X131390000Y-92890000D02*
X131390000Y-93412504D01*
X129920000Y-92890000D02*
X129920000Y-93412504D01*
%TO.C,U1*%
X126316000Y-98271750D02*
X125836000Y-98271750D01*
X126076000Y-97941750D01*
X126316000Y-98271750D01*
G36*
X126316000Y-98271750D02*
G01*
X125836000Y-98271750D01*
X126076000Y-97941750D01*
X126316000Y-98271750D01*
G37*
X121036000Y-91221750D02*
X121036000Y-92481750D01*
X121036000Y-98041750D02*
X121036000Y-96781750D01*
X124796000Y-91221750D02*
X121036000Y-91221750D01*
X124796000Y-98041750D02*
X121036000Y-98041750D01*
%TO.C,R1*%
X144318936Y-116796750D02*
X144773064Y-116796750D01*
X144318936Y-118266750D02*
X144773064Y-118266750D01*
%TO.C,J3*%
X136683000Y-81599002D02*
X134333000Y-81599002D01*
X136683000Y-79899002D02*
X136683000Y-81599002D01*
X134763000Y-74429002D02*
X122383000Y-74429002D01*
X134333000Y-81599002D02*
X134333000Y-83539002D01*
X120463000Y-81599002D02*
X122813000Y-81599002D01*
X120463000Y-79899002D02*
X120463000Y-81599002D01*
%TO.C,R3*%
X135258000Y-96161938D02*
X135258000Y-96616066D01*
X133788000Y-96161938D02*
X133788000Y-96616066D01*
%TO.C,RESET1*%
X152011000Y-125913002D02*
X152011000Y-123913002D01*
X151011000Y-127213002D02*
X150561000Y-127663002D01*
X151011000Y-122613002D02*
X150561000Y-122163002D01*
X150561000Y-127663002D02*
X147961000Y-127663002D01*
X150561000Y-122163002D02*
X147961000Y-122163002D01*
X147511000Y-127213002D02*
X147961000Y-127663002D01*
X147511000Y-122613002D02*
X147961000Y-122163002D01*
X146511000Y-125913002D02*
X146511000Y-123913002D01*
%TO.C,R10*%
X129528000Y-87635938D02*
X129528000Y-88090066D01*
X128058000Y-87635938D02*
X128058000Y-88090066D01*
%TO.C,R16*%
X144136000Y-96468438D02*
X144136000Y-96922566D01*
X142666000Y-96468438D02*
X142666000Y-96922566D01*
%TO.C,TP2*%
X119246000Y-101431750D02*
X120646000Y-101431750D01*
X119246000Y-102831750D02*
X119246000Y-101431750D01*
X120646000Y-101431750D02*
X120646000Y-102831750D01*
X120646000Y-102831750D02*
X119246000Y-102831750D01*
%TO.C,Q1*%
X151756000Y-120641750D02*
X153431000Y-120641750D01*
X151756000Y-120641750D02*
X151106000Y-120641750D01*
X151756000Y-117521750D02*
X152406000Y-117521750D01*
X151756000Y-117521750D02*
X151106000Y-117521750D01*
%TO.C,D3*%
X151396000Y-104691750D02*
X153396000Y-104691750D01*
X151396000Y-104691750D02*
X151396000Y-100681750D01*
X153396000Y-104691750D02*
X153396000Y-100681750D01*
%TO.C,R4*%
X156236436Y-84896750D02*
X156690564Y-84896750D01*
X156236436Y-86366750D02*
X156690564Y-86366750D01*
%TO.C,U5*%
G36*
X148691500Y-109740401D02*
G01*
X148310500Y-109740401D01*
X148310500Y-109486401D01*
X148691500Y-109486401D01*
X148691500Y-109740401D01*
G37*
G36*
X149091499Y-105279603D02*
G01*
X148710499Y-105279603D01*
X148710499Y-105025603D01*
X149091499Y-105025603D01*
X149091499Y-105279603D01*
G37*
%TO.C,J8*%
X162631000Y-117113002D02*
X162631000Y-84033002D01*
X162631000Y-117113002D02*
X159971000Y-117113002D01*
X162631000Y-84033002D02*
X159971000Y-84033002D01*
X161301000Y-119713002D02*
X159971000Y-119713002D01*
X159971000Y-119713002D02*
X159971000Y-118383002D01*
X159971000Y-117113002D02*
X159971000Y-84033002D01*
%TO.C,Q2*%
X151736000Y-116521750D02*
X153411000Y-116521750D01*
X151736000Y-116521750D02*
X151086000Y-116521750D01*
X151736000Y-113401750D02*
X152386000Y-113401750D01*
X151736000Y-113401750D02*
X151086000Y-113401750D01*
%TO.C,Q3*%
X140293500Y-95155502D02*
X138618500Y-95155502D01*
X140293500Y-95155502D02*
X140943500Y-95155502D01*
X140293500Y-98275502D02*
X139643500Y-98275502D01*
X140293500Y-98275502D02*
X140943500Y-98275502D01*
%TO.C,U2*%
X135673000Y-94099002D02*
X137623000Y-94099002D01*
X135673000Y-94099002D02*
X133723000Y-94099002D01*
X135673000Y-88979002D02*
X137623000Y-88979002D01*
X135673000Y-88979002D02*
X132223000Y-88979002D01*
%TO.C,R13*%
X147591000Y-115208814D02*
X147591000Y-114754686D01*
X149061000Y-115208814D02*
X149061000Y-114754686D01*
%TO.C,JP1*%
X130791000Y-87343002D02*
X130791000Y-86283002D01*
X131851000Y-87343002D02*
X130791000Y-87343002D01*
X132851000Y-87343002D02*
X136911000Y-87343002D01*
X132851000Y-87343002D02*
X132851000Y-85223002D01*
X136911000Y-87343002D02*
X136911000Y-85223002D01*
X132851000Y-85223002D02*
X136911000Y-85223002D01*
%TO.C,R19*%
X147661000Y-119258814D02*
X147661000Y-118804686D01*
X149131000Y-119258814D02*
X149131000Y-118804686D01*
%TO.C,J1*%
X145983000Y-86149002D02*
X144563000Y-86149002D01*
X145983000Y-74429002D02*
X145983000Y-86149002D01*
X144563000Y-86149002D02*
X144563000Y-81649002D01*
X143723000Y-84239002D02*
X143123000Y-84239002D01*
X143673000Y-80539002D02*
X143673000Y-75039002D01*
X143673000Y-75039002D02*
X143173000Y-75039002D01*
X143423000Y-83639002D02*
X143723000Y-84239002D01*
X143173000Y-80539002D02*
X143673000Y-80539002D01*
X143173000Y-75039002D02*
X143173000Y-80539002D01*
X143123000Y-84239002D02*
X143423000Y-83639002D01*
X142173000Y-74429002D02*
X145983000Y-74429002D01*
X142173000Y-74429002D02*
X138363000Y-74429002D01*
X141173000Y-80539002D02*
X141173000Y-75039002D01*
X141173000Y-75039002D02*
X140673000Y-75039002D01*
X140673000Y-80539002D02*
X141173000Y-80539002D01*
X140673000Y-75039002D02*
X140673000Y-80539002D01*
X139783000Y-86149002D02*
X139783000Y-81649002D01*
X138363000Y-86149002D02*
X139783000Y-86149002D01*
X138363000Y-74429002D02*
X138363000Y-86149002D01*
%TO.C,R9*%
X127128000Y-87635938D02*
X127128000Y-88090066D01*
X125658000Y-87635938D02*
X125658000Y-88090066D01*
%TO.C,D1*%
X122401000Y-122303002D02*
X129701000Y-122303002D01*
X122401000Y-127803002D02*
X129701000Y-127803002D01*
X129701000Y-127803002D02*
X129701000Y-126653002D01*
%TO.C,R18*%
X137856000Y-96468438D02*
X137856000Y-96922566D01*
X136386000Y-96468438D02*
X136386000Y-96922566D01*
%TO.C,R11*%
X148333936Y-100828002D02*
X148788064Y-100828002D01*
X148333936Y-102298002D02*
X148788064Y-102298002D01*
%TO.C,D2*%
X132431000Y-95146750D02*
X130961000Y-95146750D01*
X130961000Y-95146750D02*
X130961000Y-97431750D01*
X132431000Y-97431750D02*
X132431000Y-95146750D01*
%TO.C,C5*%
X148559748Y-110896750D02*
X149082252Y-110896750D01*
X148559748Y-112366750D02*
X149082252Y-112366750D01*
%TO.C,C4*%
X129181000Y-92870498D02*
X129181000Y-93393002D01*
X127711000Y-92870498D02*
X127711000Y-93393002D01*
%TO.C,C13*%
X154858000Y-91427750D02*
X154858000Y-91950254D01*
X153388000Y-91427750D02*
X153388000Y-91950254D01*
%TO.C,J4*%
X117631000Y-117113002D02*
X117631000Y-84033002D01*
X117631000Y-117113002D02*
X114971000Y-117113002D01*
X117631000Y-84033002D02*
X114971000Y-84033002D01*
X116301000Y-119713002D02*
X114971000Y-119713002D01*
X114971000Y-119713002D02*
X114971000Y-118383002D01*
X114971000Y-117113002D02*
X114971000Y-84033002D01*
%TO.C,ACTION1*%
X140401000Y-125918002D02*
X140401000Y-123918002D01*
X139401000Y-127218002D02*
X138951000Y-127668002D01*
X139401000Y-122618002D02*
X138951000Y-122168002D01*
X138951000Y-127668002D02*
X136351000Y-127668002D01*
X138951000Y-122168002D02*
X136351000Y-122168002D01*
X135901000Y-127218002D02*
X136351000Y-127668002D01*
X135901000Y-122618002D02*
X136351000Y-122168002D01*
X134901000Y-125918002D02*
X134901000Y-123918002D01*
%TO.C,R5*%
X150100064Y-86366750D02*
X149645936Y-86366750D01*
X150100064Y-84896750D02*
X149645936Y-84896750D01*
%TO.C,R12*%
X154371000Y-119338814D02*
X154371000Y-118884686D01*
X155841000Y-119338814D02*
X155841000Y-118884686D01*
%TO.C,C12*%
X148758000Y-91227750D02*
X148758000Y-91750254D01*
X147288000Y-91227750D02*
X147288000Y-91750254D01*
%TO.C,JP3*%
X143063000Y-89079002D02*
X144123000Y-89079002D01*
X143063000Y-90139002D02*
X143063000Y-89079002D01*
X143063000Y-91139002D02*
X143063000Y-93199002D01*
X143063000Y-91139002D02*
X145183000Y-91139002D01*
X143063000Y-93199002D02*
X145183000Y-93199002D01*
X145183000Y-91139002D02*
X145183000Y-93199002D01*
%TO.C,R14*%
X154341000Y-115178814D02*
X154341000Y-114724686D01*
X155811000Y-115178814D02*
X155811000Y-114724686D01*
%TO.C,C1*%
X144807252Y-120516750D02*
X144284748Y-120516750D01*
X144807252Y-119046750D02*
X144284748Y-119046750D01*
%TO.C,C6*%
X121928000Y-87651750D02*
X121928000Y-88174254D01*
X120458000Y-87651750D02*
X120458000Y-88174254D01*
%TO.C,R8*%
X130431000Y-96404686D02*
X130431000Y-96858814D01*
X128961000Y-96404686D02*
X128961000Y-96858814D01*
%TO.C,U6*%
X140823000Y-120899002D02*
X139723000Y-120899002D01*
X140773000Y-101399002D02*
X140773000Y-102399002D01*
X140773000Y-101399002D02*
X139773000Y-101399002D01*
X140623000Y-120749002D02*
X140623000Y-120249002D01*
X140623000Y-102399002D02*
X140623000Y-101549002D01*
X140623000Y-101549002D02*
X139323000Y-101549002D01*
X122623000Y-120749002D02*
X140623000Y-120749002D01*
X122623000Y-120749002D02*
X122623000Y-120249002D01*
X122623000Y-102299002D02*
X122623000Y-101549002D01*
X122623000Y-101549002D02*
X123973000Y-101549002D01*
X122473000Y-120899002D02*
X123473000Y-120899002D01*
X122473000Y-120249002D02*
X122473000Y-120899002D01*
X122473000Y-102299002D02*
X122473000Y-101399002D01*
X122473000Y-101399002D02*
X123473000Y-101399002D01*
%TO.C,Q5*%
X149711000Y-95243002D02*
X148036000Y-95243002D01*
X149711000Y-95243002D02*
X150361000Y-95243002D01*
X149711000Y-98363002D02*
X149061000Y-98363002D01*
X149711000Y-98363002D02*
X150361000Y-98363002D01*
%TO.C,R17*%
X147306000Y-96575938D02*
X147306000Y-97030066D01*
X145836000Y-96575938D02*
X145836000Y-97030066D01*
%TO.C,J2*%
X157123000Y-80239002D02*
X157123000Y-78239002D01*
X157123000Y-76339002D02*
X157123000Y-74439002D01*
X157123000Y-74439002D02*
X147723000Y-74439002D01*
X147723000Y-80239002D02*
X147723000Y-78239002D01*
X147723000Y-76339002D02*
X147723000Y-74439002D01*
%TO.C,U3*%
X151813000Y-85131750D02*
X151813000Y-85631750D01*
X154513000Y-85131750D02*
X154513000Y-86131750D01*
%TO.C,U7*%
X152643000Y-91569002D02*
X152643000Y-89769002D01*
X152643000Y-91569002D02*
X152643000Y-92369002D01*
X149523000Y-91569002D02*
X149523000Y-90769002D01*
X149523000Y-91569002D02*
X149523000Y-92369002D01*
%TO.C,R20*%
X153646000Y-96595938D02*
X153646000Y-97050066D01*
X152176000Y-96595938D02*
X152176000Y-97050066D01*
%TO.C,C2*%
X124628000Y-87651750D02*
X124628000Y-88174254D01*
X123158000Y-87651750D02*
X123158000Y-88174254D01*
%TO.C,R2*%
X141558000Y-90061938D02*
X141558000Y-90516066D01*
X140088000Y-90061938D02*
X140088000Y-90516066D01*
%TD*%
%LPC*%
D14*
%TO.C,C3*%
X130655000Y-92201252D03*
X130655000Y-94101252D03*
%TD*%
D15*
%TO.C,U1*%
X126096000Y-92331750D03*
D16*
X119796000Y-94631750D03*
D15*
X126096000Y-94631750D03*
X126096000Y-96931750D03*
%TD*%
D17*
%TO.C,R1*%
X143633500Y-117531750D03*
X145458500Y-117531750D03*
%TD*%
D18*
%TO.C,J3*%
X133573000Y-82189002D03*
X131573000Y-82189002D03*
X129573000Y-82189002D03*
X127573000Y-82189002D03*
X125573000Y-82189002D03*
X123573000Y-82189002D03*
D19*
X135923000Y-77739002D03*
X121223000Y-77739002D03*
%TD*%
D20*
%TO.C,R3*%
X134523000Y-95476502D03*
X134523000Y-97301502D03*
%TD*%
D21*
%TO.C,RESET1*%
X152261000Y-126788002D03*
X146261000Y-126788002D03*
X152261000Y-123038002D03*
X146261000Y-123038002D03*
%TD*%
D20*
%TO.C,R10*%
X128793000Y-86950502D03*
X128793000Y-88775502D03*
%TD*%
%TO.C,R16*%
X143401000Y-95783002D03*
X143401000Y-97608002D03*
%TD*%
D22*
%TO.C,TP2*%
X119946000Y-102131750D03*
%TD*%
D23*
%TO.C,Q1*%
X152693500Y-120031750D03*
X152693500Y-118131750D03*
X150818500Y-119081750D03*
%TD*%
D24*
%TO.C,D3*%
X152396000Y-103981750D03*
X152396000Y-100681750D03*
%TD*%
D17*
%TO.C,R4*%
X155551000Y-85631750D03*
X157376000Y-85631750D03*
%TD*%
D25*
%TO.C,U5*%
X146779400Y-106383001D03*
X146779400Y-106783003D03*
X146779400Y-107183002D03*
X146779400Y-107583002D03*
X146779400Y-107983001D03*
X146779400Y-108383003D03*
D26*
X147300999Y-108904602D03*
X147701001Y-108904602D03*
X148101000Y-108904602D03*
X148501000Y-108904602D03*
X148900999Y-108904602D03*
X149301001Y-108904602D03*
D25*
X149822600Y-108383003D03*
X149822600Y-107983001D03*
X149822600Y-107583002D03*
X149822600Y-107183002D03*
X149822600Y-106783003D03*
X149822600Y-106383001D03*
D26*
X149301001Y-105861402D03*
X148900999Y-105861402D03*
X148501000Y-105861402D03*
X148101000Y-105861402D03*
X147701001Y-105861402D03*
X147300999Y-105861402D03*
%TD*%
D27*
%TO.C,J8*%
X161301000Y-118383002D03*
D28*
X161301000Y-115843002D03*
X161301000Y-113303002D03*
X161301000Y-110763002D03*
X161301000Y-108223002D03*
X161301000Y-105683002D03*
X161301000Y-103143002D03*
X161301000Y-100603002D03*
X161301000Y-98063002D03*
X161301000Y-95523002D03*
X161301000Y-92983002D03*
X161301000Y-90443002D03*
X161301000Y-87903002D03*
X161301000Y-85363002D03*
%TD*%
D23*
%TO.C,Q2*%
X152673500Y-115911750D03*
X152673500Y-114011750D03*
X150798500Y-114961750D03*
%TD*%
D29*
%TO.C,Q3*%
X139356000Y-95765502D03*
X139356000Y-97665502D03*
X141231000Y-96715502D03*
%TD*%
D30*
%TO.C,H4*%
X116301000Y-124383002D03*
%TD*%
D31*
%TO.C,U2*%
X138148000Y-89634002D03*
X138148000Y-90904002D03*
X138148000Y-92174002D03*
X138148000Y-93444002D03*
X133198000Y-93444002D03*
X133198000Y-92174002D03*
X133198000Y-90904002D03*
X133198000Y-89634002D03*
%TD*%
D32*
%TO.C,R13*%
X148326000Y-115894250D03*
X148326000Y-114069250D03*
%TD*%
D33*
%TO.C,JP1*%
X131851000Y-86283002D03*
D34*
X133851000Y-86283002D03*
X135851000Y-86283002D03*
%TD*%
D32*
%TO.C,R19*%
X148396000Y-119944250D03*
X148396000Y-118119250D03*
%TD*%
D35*
%TO.C,J1*%
X143423000Y-82139002D03*
D36*
X140923000Y-82139002D03*
%TD*%
D20*
%TO.C,R9*%
X126393000Y-86950502D03*
X126393000Y-88775502D03*
%TD*%
D37*
%TO.C,D1*%
X123601000Y-123403002D03*
X123601000Y-126703002D03*
X128501000Y-126703002D03*
X128501000Y-123403002D03*
%TD*%
D20*
%TO.C,R18*%
X137121000Y-95783002D03*
X137121000Y-97608002D03*
%TD*%
D17*
%TO.C,R11*%
X147648500Y-101563002D03*
X149473500Y-101563002D03*
%TD*%
D38*
%TO.C,D2*%
X131696000Y-95844250D03*
X131696000Y-97419250D03*
%TD*%
D39*
%TO.C,C5*%
X147871000Y-111631750D03*
X149771000Y-111631750D03*
%TD*%
D14*
%TO.C,C4*%
X128446000Y-92181750D03*
X128446000Y-94081750D03*
%TD*%
%TO.C,C13*%
X154123000Y-90739002D03*
X154123000Y-92639002D03*
%TD*%
D27*
%TO.C,J4*%
X116301000Y-118383002D03*
D28*
X116301000Y-115843002D03*
X116301000Y-113303002D03*
X116301000Y-110763002D03*
X116301000Y-108223002D03*
X116301000Y-105683002D03*
X116301000Y-103143002D03*
X116301000Y-100603002D03*
X116301000Y-98063002D03*
X116301000Y-95523002D03*
X116301000Y-92983002D03*
X116301000Y-90443002D03*
X116301000Y-87903002D03*
X116301000Y-85363002D03*
%TD*%
D21*
%TO.C,ACTION1*%
X140651000Y-126793002D03*
X134651000Y-126793002D03*
X140651000Y-123043002D03*
X134651000Y-123043002D03*
%TD*%
D40*
%TO.C,R5*%
X150785500Y-85631750D03*
X148960500Y-85631750D03*
%TD*%
D32*
%TO.C,R12*%
X155106000Y-120024250D03*
X155106000Y-118199250D03*
%TD*%
D14*
%TO.C,C12*%
X148023000Y-90539002D03*
X148023000Y-92439002D03*
%TD*%
D33*
%TO.C,JP3*%
X144123000Y-90139002D03*
D34*
X144123000Y-92139002D03*
%TD*%
D32*
%TO.C,R14*%
X155076000Y-115864250D03*
X155076000Y-114039250D03*
%TD*%
D30*
%TO.C,H2*%
X161301000Y-124383002D03*
%TD*%
D41*
%TO.C,C1*%
X145496000Y-119781750D03*
X143596000Y-119781750D03*
%TD*%
D30*
%TO.C,H3*%
X161301000Y-79383002D03*
%TD*%
D14*
%TO.C,C6*%
X121193000Y-86963002D03*
X121193000Y-88863002D03*
%TD*%
D20*
%TO.C,R8*%
X129696000Y-95719250D03*
X129696000Y-97544250D03*
%TD*%
D37*
%TO.C,U6*%
X140373000Y-119559002D03*
X140373000Y-118289002D03*
X140373000Y-117019002D03*
X140373000Y-115749002D03*
X140373000Y-114479002D03*
X140373000Y-113209002D03*
X140373000Y-111939002D03*
X140373000Y-110669002D03*
X140373000Y-109399002D03*
X140373000Y-108129002D03*
X140373000Y-106859002D03*
X140373000Y-105589002D03*
X140373000Y-104319002D03*
X140373000Y-103049002D03*
D42*
X138608000Y-101799002D03*
X137338000Y-101799002D03*
X136068000Y-101799002D03*
X134798000Y-101799002D03*
X133528000Y-101799002D03*
X132258000Y-101799002D03*
X130988000Y-101799002D03*
X129718000Y-101799002D03*
X128448000Y-101799002D03*
X127178000Y-101799002D03*
X125908000Y-101799002D03*
X124638000Y-101799002D03*
D37*
X122873000Y-103049002D03*
X122873000Y-104319002D03*
X122873000Y-105589002D03*
X122873000Y-106859002D03*
X122873000Y-108129002D03*
X122873000Y-109399002D03*
X122873000Y-110669002D03*
X122873000Y-111939002D03*
X122873000Y-113209002D03*
X122873000Y-114479002D03*
X122873000Y-115749002D03*
X122873000Y-117019002D03*
X122873000Y-118289002D03*
X122873000Y-119559002D03*
D43*
X134523000Y-113239002D03*
X134523000Y-111839002D03*
X134523000Y-110439002D03*
X133123000Y-113239002D03*
X133123000Y-111839002D03*
X133123000Y-110439002D03*
X131723000Y-113239002D03*
X131723000Y-111839002D03*
X131723000Y-110439002D03*
%TD*%
D29*
%TO.C,Q5*%
X148773500Y-95853002D03*
X148773500Y-97753002D03*
X150648500Y-96803002D03*
%TD*%
D30*
%TO.C,H1*%
X116301000Y-79383002D03*
%TD*%
D20*
%TO.C,R17*%
X146571000Y-95890502D03*
X146571000Y-97715502D03*
%TD*%
D44*
%TO.C,J2*%
X155313000Y-80939002D03*
X149533000Y-80939002D03*
D45*
X155673000Y-82384002D03*
X154873000Y-82384002D03*
D46*
X153673000Y-82384002D03*
X152673000Y-82384002D03*
X152173000Y-82384002D03*
X151173000Y-82384002D03*
D45*
X149973000Y-82384002D03*
X149173000Y-82384002D03*
X149173000Y-82384002D03*
X149973000Y-82384002D03*
D46*
X150673000Y-82384002D03*
X151673000Y-82384002D03*
X153173000Y-82384002D03*
X154173000Y-82384002D03*
D45*
X154873000Y-82384002D03*
X155673000Y-82384002D03*
D47*
X156743000Y-81469002D03*
D48*
X156743000Y-77289002D03*
D47*
X148103000Y-81469002D03*
D48*
X148103000Y-77289002D03*
%TD*%
D49*
%TO.C,U3*%
X152163000Y-86019250D03*
X152663000Y-86019250D03*
D50*
X153163000Y-85981750D03*
D49*
X153663000Y-86019250D03*
X154163000Y-86019250D03*
X154163000Y-85244250D03*
X153663000Y-85244250D03*
D51*
X153163000Y-85219250D03*
D49*
X152663000Y-85244250D03*
X152163000Y-85244250D03*
%TD*%
D52*
%TO.C,U7*%
X152033000Y-90431502D03*
X151083000Y-90431502D03*
X150133000Y-90431502D03*
X150133000Y-92706502D03*
X152033000Y-92706502D03*
%TD*%
D20*
%TO.C,R20*%
X152911000Y-95910502D03*
X152911000Y-97735502D03*
%TD*%
D14*
%TO.C,C2*%
X123893000Y-86963002D03*
X123893000Y-88863002D03*
%TD*%
D20*
%TO.C,R2*%
X140823000Y-89376502D03*
X140823000Y-91201502D03*
%TD*%
%LPD*%
M02*
