M48
; DRILL file {KiCad 7.0.11} date Sun 21 Apr 2024 08:12:22 PM CEST
; FORMAT={-:-/ absolute / inch / decimal}
; #@! TF.CreationDate,2024-04-21T20:12:22+02:00
; #@! TF.GenerationSoftware,Kicad,Pcbnew,7.0.11
; #@! TF.FileFunction,Plated,1,4,PTH
FMAT,2
INCH
; #@! TA.AperFunction,Plated,PTH,ViaDrill
T1C0.0157
; #@! TA.AperFunction,Plated,PTH,ComponentDrill
T2C0.0236
; #@! TA.AperFunction,Plated,PTH,ComponentDrill
T3C0.0315
; #@! TA.AperFunction,Plated,PTH,ComponentDrill
T4C0.0394
; #@! TA.AperFunction,Plated,PTH,ComponentDrill
T5C0.1260
%
G90
G05
T1
X4.7104Y-3.4237
X4.7104Y-3.4946
X4.7715Y-4.1095
X4.7715Y-4.1587
X4.7715Y-4.2079
X4.7715Y-4.2572
X4.7715Y-4.3064
X4.7715Y-4.3556
X4.7715Y-4.4048
X4.7715Y-4.454
X4.7715Y-4.5032
X4.7715Y-4.5524
X4.7715Y-4.6075
X4.7715Y-4.6568
X4.7715Y-4.707
X4.7989Y-4.8474
X4.8651Y-3.332
X4.9744Y-3.3359
X5.0038Y-3.9363
X5.0372Y-3.765
X5.0372Y-3.8142
X5.0569Y-3.9383
X5.0689Y-3.334
X5.1278Y-4.4009
X5.1357Y-4.8595
X5.1367Y-4.9883
X5.1733Y-3.5789
X5.2065Y-3.9422
X5.2144Y-3.7257
X5.2394Y-4.9903
X5.24Y-4.515
X5.242Y-4.2926
X5.2439Y-4.8418
X5.2577Y-3.9442
X5.3069Y-3.9442
X5.3522Y-4.4028
X5.3561Y-3.9442
X5.4073Y-3.9442
X5.4506Y-3.4894
X5.4565Y-3.9442
X5.5856Y-4.657
X5.5865Y-4.706
X5.5904Y-4.206
X5.5904Y-4.3064
X5.5904Y-4.3575
X5.5904Y-4.4068
X5.5904Y-4.456
X5.5924Y-4.1568
X5.5924Y-4.2572
X5.5963Y-4.0613
X5.5963Y-4.1056
X5.5983Y-3.3516
X5.6201Y-3.8922
X5.6731Y-4.0052
X5.6993Y-4.9952
X5.7079Y-3.7698
X5.8316Y-3.6925
X5.8417Y-4.7641
X5.8443Y-3.3123
X5.8741Y-3.5052
X5.9087Y-3.3123
X5.9469Y-3.5052
X5.9506Y-4.3851
X5.9546Y-4.1883
X5.9546Y-4.267
X5.9979Y-4.1666
X6.0185Y-3.8919
X6.0406Y-3.3127
X6.0707Y-3.4698
X6.0718Y-3.7732
X6.1074Y-4.77
X6.1101Y-3.4698
X6.1199Y-3.3123
X6.1288Y-3.9914
X6.1674Y-4.565
X6.1701Y-3.9914
X6.1888Y-3.3123
T3
X5.191Y-3.397
X5.2697Y-3.397
X5.3485Y-3.397
X5.6741Y-3.5488
X5.6741Y-3.6275
T4
X4.5788Y-3.3607
X4.5788Y-3.4607
X4.5788Y-3.5607
X4.5788Y-3.6607
X4.5788Y-3.7607
X4.5788Y-3.8607
X4.5788Y-3.9607
X4.5788Y-4.0607
X4.5788Y-4.1607
X4.5788Y-4.2607
X4.5788Y-4.3607
X4.5788Y-4.4607
X4.5788Y-4.5607
X4.5788Y-4.6607
X5.5481Y-3.2338
X5.6466Y-3.2338
X6.3504Y-3.3607
X6.3504Y-3.4607
X6.3504Y-3.5607
X6.3504Y-3.6607
X6.3504Y-3.7607
X6.3504Y-3.8607
X6.3504Y-3.9607
X6.3504Y-4.0607
X6.3504Y-4.1607
X6.3504Y-4.2607
X6.3504Y-4.3607
X6.3504Y-4.4607
X6.3504Y-4.5607
X6.3504Y-4.6607
T5
X4.5788Y-3.1253
X4.5788Y-4.897
X6.3504Y-3.1253
X6.3504Y-4.897
T2
G00X5.8308Y-3.0547
M15
G01X5.8308Y-3.0311
M16
G05
G00X5.8308Y-3.2291
M15
G01X5.8308Y-3.1858
M16
G05
G00X6.171Y-3.0547
M15
G01X6.171Y-3.0311
M16
G05
G00X6.171Y-3.2291
M15
G01X6.171Y-3.1858
M16
G05
M30
